<svg width="33" height="32" viewBox="0 0 33 32" fill="none" xmlns="http://www.w3.org/2000/svg">
<g id="Group 15874">
<path id="Vector" d="M28.1379 5.30946C28.1859 5.13901 28.1876 4.95884 28.1429 4.78749C28.0982 4.61614 28.0086 4.4598 27.8834 4.33458C27.7581 4.20936 27.6018 4.11977 27.4305 4.07504C27.2591 4.03031 27.0789 4.03205 26.9085 4.08008L2.99339 11.3318C2.79814 11.3869 2.62437 11.5003 2.49529 11.6568C2.36621 11.8133 2.28798 12.0055 2.27105 12.2077C2.25413 12.4099 2.29931 12.6124 2.40057 12.7882C2.50182 12.964 2.65433 13.1047 2.83769 13.1915L13.5023 18.2411C13.71 18.3395 13.8772 18.5067 13.9756 18.7144L19.0265 29.3778C19.1133 29.5611 19.254 29.7136 19.4298 29.8149C19.6056 29.9161 19.8081 29.9613 20.0102 29.9444C20.2124 29.9275 20.4046 29.8492 20.5611 29.7202C20.7176 29.5911 20.831 29.4173 20.8861 29.2221L28.1379 5.30946Z" stroke="white" stroke-width="1.99292" stroke-linecap="round" stroke-linejoin="round"/>
<path id="Vector_2" d="M13.7793 18.4393L20.204 12.0146" stroke="white" stroke-width="1.99292" stroke-linecap="round" stroke-linejoin="round"/>
</g>
</svg>
