<svg width="23" height="24" viewBox="0 0 23 24" fill="none" xmlns="http://www.w3.org/2000/svg">
<path d="M15.8517 16.9148H7.35501C7.02622 16.9147 6.70787 16.7993 6.45547 16.5886C6.20306 16.3779 6.03262 16.0853 5.97385 15.7618L3.73538 3.45151C3.70599 3.28976 3.62077 3.14345 3.49457 3.0381C3.36837 2.93274 3.2092 2.87502 3.0448 2.875H1.46094" stroke="white" stroke-width="1.40398" stroke-linecap="round" stroke-linejoin="round"/>
<path d="M7.43075 20.424C8.4 20.424 9.18572 19.6383 9.18572 18.669C9.18572 17.6998 8.4 16.9141 7.43075 16.9141C6.46151 16.9141 5.67578 17.6998 5.67578 18.669C5.67578 19.6383 6.46151 20.424 7.43075 20.424Z" stroke="white" stroke-width="1.40398" stroke-linecap="round" stroke-linejoin="round"/>
<path d="M15.8526 20.424C16.8219 20.424 17.6076 19.6383 17.6076 18.669C17.6076 17.6998 16.8219 16.9141 15.8526 16.9141C14.8834 16.9141 14.0977 17.6998 14.0977 18.669C14.0977 19.6383 14.8834 20.424 15.8526 20.424Z" stroke="white" stroke-width="1.40398" stroke-linecap="round" stroke-linejoin="round"/>
<path d="M5.54627 13.4066H16.5631C16.8919 13.4066 17.2102 13.2911 17.4627 13.0804C17.7151 12.8697 17.8855 12.5771 17.9443 12.2536L19.0113 6.38672H4.26953" stroke="white" stroke-width="1.40398" stroke-linecap="round" stroke-linejoin="round"/>
</svg>
