<?xml version="1.0" encoding="utf-8"?>
<!-- Generator: Adobe Illustrator 25.2.1, SVG Export Plug-In . SVG Version: 6.00 Build 0)  -->
<svg version="1.1" id="Layer_1" xmlns="http://www.w3.org/2000/svg" xmlns:xlink="http://www.w3.org/1999/xlink" x="0px" y="0px"
	 viewBox="0 0 120 110" style="enable-background:new 0 0 120 110;" xml:space="preserve">
<style type="text/css">
	.st0{fill:#1F50A1;}
	.st1{fill:#2BA053;}
	.st2{fill:#FFFFFF;}
	.st3{fill:#CAD3D8;}
	.st4{fill:#89A6C8;}
	.st5{fill:#E1E4E6;}
</style>
<g>
	<circle class="st2" cx="53.9" cy="55" r="49.9"/>
	<circle class="st3" cx="102.5" cy="55" r="13.5"/>
	<polygon class="st2" points="100.2,61.6 94.1,55.5 96.5,53.1 100.2,56.7 108,48.9 110.4,51.3 	"/>
	<g>
		<path class="st4" d="M78.6,55.7c0-0.1,0.1-0.3,0.1-0.4v-7c0-4-1-8.1-3-11.6c-1.9-3.5-4.7-6.5-8.1-8.6l-1.2-2.4
			c-2.2-4.5-6.7-7.3-11.8-7.3c-5,0-9.5,2.8-11.8,7.3l-1,1.9c-0.1,0.1-0.1,0.3-0.1,0.4c-3.4,2.1-6.2,5.1-8.2,8.6c-2,3.6-3,7.6-3,11.7
			l0,7.1c0,0.1,0,0.3,0.1,0.4c-1,1.2-1.6,2.8-1.5,4.4c0.1,1.7,0.9,3.4,2.3,4.5l3.9,3.2v0.4c0,3.4,0.9,6.7,2.7,9.5l1,1.6
			c3.2,5,8.6,8.2,14.5,8.4c0.2,0,0.5,0,0.7,0c5.7,0,11-2.7,14.4-7.2l1.7-2.3c2.3-3,3.5-6.6,3.6-10.4l3.9-3.2
			c1.3-1.1,2.2-2.7,2.3-4.5C80.2,58.5,79.7,56.9,78.6,55.7z M54.6,21.8C54.6,21.8,54.6,21.8,54.6,21.8L54.6,21.8
			C54.7,21.8,54.7,21.8,54.6,21.8c3,0,5.7,1.3,7.5,3.6c-0.4-0.1-0.7-0.2-1.1-0.3c-0.1,0-0.2-0.1-0.3-0.1l-0.1,0
			c-0.5-0.1-1-0.2-1.6-0.4c-0.2,0-0.4-0.1-0.7-0.1c-0.1,0-0.2,0-0.3,0l-0.3,0c-0.3,0-0.6-0.1-0.9-0.1c-0.8-0.1-1.5-0.1-2.2-0.1
			c-2.5,0-5,0.4-7.4,1.2C49,23.1,51.7,21.8,54.6,21.8z M35.3,63.2l-1.6-1.4l0,0c-0.9-0.7-1.2-2-0.8-3c0.4-1,1.4-1.8,2.5-1.8V63.2z
			 M35.2,53.5c-0.4,0-0.7,0.1-1.1,0.1v-5.4c0-4,1.2-7.9,3.4-11.2c1.7,3.7,4.3,6.9,7.6,9.3c-1.1,1-2.3,2-3.5,2.9l0,0c0,0,0,0,0,0
			C39.5,50.8,37.4,52.2,35.2,53.5z M70.5,67.4c0,3.1-1,6.2-2.9,8.7l-1.7,2.3c-2.9,3.8-7.4,6-12.2,5.8c-4.8-0.2-9.1-2.7-11.7-6.8
			l-1-1.6c-1.4-2.3-2.2-4.9-2.2-7.7V55.4c1.6-1,3.1-2,4.5-3.1h17.4l9.8,2.9V67.4z M46,49.4c0.7-0.6,1.4-1.2,2.1-1.9
			c1.4,0.7,2.8,1.3,4.3,1.8l0.4,0.1L46,49.4z M53.3,46.5c-6.2-1.8-11.2-6.5-13.3-12.6c3.8-3.9,9.1-6.2,14.6-6.2c0,0,0.1,0,0.1,0h0
			c0.6,0,1.2,0,1.9,0.1c0.3,0,0.6,0.1,1,0.1l0.3,0c0.2,0,0.4,0.1,0.6,0.1c0.5,0.1,0.9,0.2,1.4,0.3c0,0,0.1,0,0.1,0
			c0.1,0,0.1,0,0.2,0c0.5,0.1,1,0.3,1.5,0.5c8.1,2.9,13.6,10.7,13.6,19.3v4.7L53.3,46.5z M75.6,61.8L74,63.2V57c1.1,0,2,0.7,2.4,1.7
			l0,0C76.9,59.8,76.6,61.1,75.6,61.8z"/>
		<path class="st4" d="M59.3,73.9L59.3,73.9c-2.6,2.5-6.7,2.5-9.3,0c-0.7-0.7-1.8-0.7-2.5,0c-0.7,0.7-0.7,1.8,0,2.5
			c2,2,4.5,2.9,7.1,2.9c2.6,0,5.2-1,7.1-2.9c0.7-0.7,0.7-1.8,0-2.5C61.1,73.3,60,73.3,59.3,73.9z"/>
		<path class="st4" d="M51.9,60.7c0.5-0.7,0.5-1.7,0-2.3c-0.3-0.4-0.7-0.6-1.1-0.6c0,0,0,0,0,0c-0.4,0-0.8,0.2-1.1,0.6l0,0
			c-0.9,1.2-2.1,1.9-3.3,1.9c-1.2,0-2.4-0.7-3.3-1.9c-0.3-0.4-0.7-0.6-1.1-0.6c-0.4,0-0.8,0.2-1.1,0.6c-0.5,0.7-0.5,1.7,0,2.4
			c1.5,1.9,3.4,3,5.5,3C48.5,63.7,50.4,62.7,51.9,60.7z"/>
		<path class="st4" d="M58.6,58.4c-0.3-0.4-0.7-0.6-1.1-0.6c0,0,0,0,0,0c-0.4,0-0.8,0.2-1.1,0.6c-0.5,0.7-0.5,1.7,0,2.4
			c1.5,1.9,3.4,3,5.5,3c2.1,0,4.1-1.1,5.5-3c0.5-0.7,0.5-1.7,0-2.3c-0.3-0.4-0.7-0.6-1.1-0.6c0,0,0,0,0,0c-0.4,0-0.8,0.2-1.1,0.6
			l0,0c-0.9,1.2-2.1,1.9-3.3,1.9C60.7,60.2,59.6,59.6,58.6,58.4z"/>
		<path class="st4" d="M51.6,62.4c-0.3,0.3-0.5,0.8-0.4,1.3l0,6.6l0,0c0.1,0.9,0.8,1.6,1.7,1.6l2.6,0.1c0,0,0,0,0.1,0
			c0.4,0,0.9-0.2,1.2-0.5c0.3-0.3,0.5-0.8,0.6-1.2c0-0.5-0.2-0.9-0.5-1.3c-0.3-0.3-0.8-0.5-1.2-0.6l-1,0l0.1-5l0,0l0,0
			c0-0.5-0.2-0.9-0.6-1.2c-0.4-0.3-0.8-0.5-1.3-0.4C52.4,61.8,51.9,62,51.6,62.4z"/>
	</g>
</g>
</svg>
