<svg width="284" height="53" viewBox="0 0 284 53" fill="none" xmlns="http://www.w3.org/2000/svg">
<rect width="269" height="53" rx="26.5" fill="white"/>
<circle cx="27" cy="27" r="5" fill="#FE7170"/>
<path d="M63.7383 35H61.4414L52.1016 20.6094H52.0078C52.0312 20.9922 52.0586 21.4297 52.0898 21.9219C52.1211 22.4062 52.1445 22.9258 52.1602 23.4805C52.1836 24.0273 52.1953 24.5859 52.1953 25.1562V35H50.3438V17.8672H52.6289L61.9336 32.2109H62.0156C62 31.9375 61.9805 31.5508 61.957 31.0508C61.9336 30.543 61.9102 30 61.8867 29.4219C61.8711 28.8359 61.8633 28.293 61.8633 27.793V17.8672H63.7383V35ZM72.9258 21.9453C74.457 21.9453 75.5938 22.2891 76.3359 22.9766C77.0781 23.6641 77.4492 24.7617 77.4492 26.2695V35H76.0312L75.6562 33.1016H75.5625C75.2031 33.5703 74.8281 33.9648 74.4375 34.2852C74.0469 34.5977 73.5938 34.8359 73.0781 35C72.5703 35.1562 71.9453 35.2344 71.2031 35.2344C70.4219 35.2344 69.7266 35.0977 69.1172 34.8242C68.5156 34.5508 68.0391 34.1367 67.6875 33.582C67.3438 33.0273 67.1719 32.3242 67.1719 31.4727C67.1719 30.1914 67.6797 29.207 68.6953 28.5195C69.7109 27.832 71.2578 27.457 73.3359 27.3945L75.5508 27.3008V26.5156C75.5508 25.4062 75.3125 24.6289 74.8359 24.1836C74.3594 23.7383 73.6875 23.5156 72.8203 23.5156C72.1484 23.5156 71.5078 23.6133 70.8984 23.8086C70.2891 24.0039 69.7109 24.2344 69.1641 24.5L68.5664 23.0234C69.1445 22.7266 69.8086 22.4727 70.5586 22.2617C71.3086 22.0508 72.0977 21.9453 72.9258 21.9453ZM75.5273 28.6719L73.5703 28.7539C71.9688 28.8164 70.8398 29.0781 70.1836 29.5391C69.5273 30 69.1992 30.6523 69.1992 31.4961C69.1992 32.2305 69.4219 32.7734 69.8672 33.125C70.3125 33.4766 70.9023 33.6523 71.6367 33.6523C72.7773 33.6523 73.7109 33.3359 74.4375 32.7031C75.1641 32.0703 75.5273 31.1211 75.5273 29.8555V28.6719ZM87.293 21.9219C87.5508 21.9219 87.8203 21.9375 88.1016 21.9688C88.3828 21.9922 88.6328 22.0273 88.8516 22.0742L88.6055 23.8789C88.3945 23.8242 88.1602 23.7812 87.9023 23.75C87.6445 23.7188 87.4023 23.7031 87.1758 23.7031C86.6602 23.7031 86.1719 23.8086 85.7109 24.0195C85.2578 24.2227 84.8594 24.5195 84.5156 24.9102C84.1719 25.293 83.9023 25.7578 83.707 26.3047C83.5117 26.8438 83.4141 27.4453 83.4141 28.1094V35H81.457V22.1562H83.0742L83.2852 24.5234H83.3672C83.6328 24.0469 83.9531 23.6133 84.3281 23.2227C84.7031 22.8242 85.1367 22.5078 85.6289 22.2734C86.1289 22.0391 86.6836 21.9219 87.293 21.9219ZM93.2227 22.1562V35H91.2773V22.1562H93.2227ZM92.2734 17.3516C92.5938 17.3516 92.8672 17.457 93.0938 17.668C93.3281 17.8711 93.4453 18.1914 93.4453 18.6289C93.4453 19.0586 93.3281 19.3789 93.0938 19.5898C92.8672 19.8008 92.5938 19.9062 92.2734 19.9062C91.9375 19.9062 91.6562 19.8008 91.4297 19.5898C91.2109 19.3789 91.1016 19.0586 91.1016 18.6289C91.1016 18.1914 91.2109 17.8711 91.4297 17.668C91.6562 17.457 91.9375 17.3516 92.2734 17.3516ZM105.598 35H96.2344V33.7109L103.277 23.6797H96.6797V22.1562H105.445V23.5977L98.4961 33.4883H105.598V35ZM119.402 35.2344C117.777 35.2344 116.488 34.6797 115.535 33.5703C114.59 32.4609 114.117 30.8125 114.117 28.625C114.117 26.4141 114.602 24.7461 115.57 23.6211C116.539 22.4883 117.828 21.9219 119.438 21.9219C120.117 21.9219 120.711 22.0117 121.219 22.1914C121.727 22.3711 122.164 22.6133 122.531 22.918C122.898 23.2148 123.207 23.5547 123.457 23.9375H123.598C123.566 23.6953 123.535 23.3633 123.504 22.9414C123.473 22.5195 123.457 22.1758 123.457 21.9102V16.7656H125.402V35H123.832L123.539 33.1719H123.457C123.215 33.5547 122.906 33.9023 122.531 34.2148C122.164 34.5273 121.723 34.7773 121.207 34.9648C120.699 35.1445 120.098 35.2344 119.402 35.2344ZM119.707 33.6172C121.082 33.6172 122.055 33.2266 122.625 32.4453C123.195 31.6641 123.48 30.5039 123.48 28.9648V28.6133C123.48 26.9805 123.207 25.7266 122.66 24.8516C122.121 23.9766 121.137 23.5391 119.707 23.5391C118.512 23.5391 117.617 24 117.023 24.9219C116.43 25.8359 116.133 27.0859 116.133 28.6719C116.133 30.25 116.426 31.4688 117.012 32.3281C117.605 33.1875 118.504 33.6172 119.707 33.6172ZM134.473 21.9219C135.566 21.9219 136.504 22.1641 137.285 22.6484C138.066 23.1328 138.664 23.8125 139.078 24.6875C139.492 25.5547 139.699 26.5703 139.699 27.7344V28.9414H130.828C130.852 30.4492 131.227 31.5977 131.953 32.3867C132.68 33.1758 133.703 33.5703 135.023 33.5703C135.836 33.5703 136.555 33.4961 137.18 33.3477C137.805 33.1992 138.453 32.9805 139.125 32.6914V34.4023C138.477 34.6914 137.832 34.9023 137.191 35.0352C136.559 35.168 135.809 35.2344 134.941 35.2344C133.707 35.2344 132.629 34.9844 131.707 34.4844C130.793 33.9766 130.082 33.2344 129.574 32.2578C129.066 31.2812 128.812 30.0859 128.812 28.6719C128.812 27.2891 129.043 26.0938 129.504 25.0859C129.973 24.0703 130.629 23.2891 131.473 22.7422C132.324 22.1953 133.324 21.9219 134.473 21.9219ZM134.449 23.5156C133.41 23.5156 132.582 23.8555 131.965 24.5352C131.348 25.2148 130.98 26.1641 130.863 27.3828H137.66C137.652 26.6172 137.531 25.9453 137.297 25.3672C137.07 24.7812 136.723 24.3281 136.254 24.0078C135.785 23.6797 135.184 23.5156 134.449 23.5156ZM154.383 35.2344C153.227 35.2344 152.207 34.9961 151.324 34.5195C150.441 34.043 149.754 33.3164 149.262 32.3398C148.77 31.3633 148.523 30.1328 148.523 28.6484C148.523 27.0938 148.781 25.8242 149.297 24.8398C149.82 23.8477 150.539 23.1133 151.453 22.6367C152.367 22.1602 153.406 21.9219 154.57 21.9219C155.211 21.9219 155.828 21.9883 156.422 22.1211C157.023 22.2461 157.516 22.4062 157.898 22.6016L157.312 24.2305C156.922 24.0742 156.469 23.9336 155.953 23.8086C155.445 23.6836 154.969 23.6211 154.523 23.6211C153.633 23.6211 152.891 23.8125 152.297 24.1953C151.711 24.5781 151.27 25.1406 150.973 25.8828C150.684 26.625 150.539 27.5391 150.539 28.625C150.539 29.6641 150.68 30.5508 150.961 31.2852C151.25 32.0195 151.676 32.582 152.238 32.9727C152.809 33.3555 153.52 33.5469 154.371 33.5469C155.051 33.5469 155.664 33.4766 156.211 33.3359C156.758 33.1875 157.254 33.0156 157.699 32.8203V34.5547C157.27 34.7734 156.789 34.9414 156.258 35.0586C155.734 35.1758 155.109 35.2344 154.383 35.2344ZM171.82 28.5547C171.82 29.6094 171.684 30.5508 171.41 31.3789C171.137 32.207 170.742 32.9062 170.227 33.4766C169.711 34.0469 169.086 34.4844 168.352 34.7891C167.625 35.0859 166.801 35.2344 165.879 35.2344C165.02 35.2344 164.23 35.0859 163.512 34.7891C162.801 34.4844 162.184 34.0469 161.66 33.4766C161.145 32.9062 160.742 32.207 160.453 31.3789C160.172 30.5508 160.031 29.6094 160.031 28.5547C160.031 27.1484 160.27 25.9531 160.746 24.9688C161.223 23.9766 161.902 23.2227 162.785 22.707C163.676 22.1836 164.734 21.9219 165.961 21.9219C167.133 21.9219 168.156 22.1836 169.031 22.707C169.914 23.2305 170.598 23.9883 171.082 24.9805C171.574 25.9648 171.82 27.1562 171.82 28.5547ZM162.047 28.5547C162.047 29.5859 162.184 30.4805 162.457 31.2383C162.73 31.9961 163.152 32.582 163.723 32.9961C164.293 33.4102 165.027 33.6172 165.926 33.6172C166.816 33.6172 167.547 33.4102 168.117 32.9961C168.695 32.582 169.121 31.9961 169.395 31.2383C169.668 30.4805 169.805 29.5859 169.805 28.5547C169.805 27.5312 169.668 26.6484 169.395 25.9062C169.121 25.1562 168.699 24.5781 168.129 24.1719C167.559 23.7656 166.82 23.5625 165.914 23.5625C164.578 23.5625 163.598 24.0039 162.973 24.8867C162.355 25.7695 162.047 26.9922 162.047 28.5547ZM180.129 21.9219C181.223 21.9219 182.16 22.1641 182.941 22.6484C183.723 23.1328 184.32 23.8125 184.734 24.6875C185.148 25.5547 185.355 26.5703 185.355 27.7344V28.9414H176.484C176.508 30.4492 176.883 31.5977 177.609 32.3867C178.336 33.1758 179.359 33.5703 180.68 33.5703C181.492 33.5703 182.211 33.4961 182.836 33.3477C183.461 33.1992 184.109 32.9805 184.781 32.6914V34.4023C184.133 34.6914 183.488 34.9023 182.848 35.0352C182.215 35.168 181.465 35.2344 180.598 35.2344C179.363 35.2344 178.285 34.9844 177.363 34.4844C176.449 33.9766 175.738 33.2344 175.23 32.2578C174.723 31.2812 174.469 30.0859 174.469 28.6719C174.469 27.2891 174.699 26.0938 175.16 25.0859C175.629 24.0703 176.285 23.2891 177.129 22.7422C177.98 22.1953 178.98 21.9219 180.129 21.9219ZM180.105 23.5156C179.066 23.5156 178.238 23.8555 177.621 24.5352C177.004 25.2148 176.637 26.1641 176.52 27.3828H183.316C183.309 26.6172 183.188 25.9453 182.953 25.3672C182.727 24.7812 182.379 24.3281 181.91 24.0078C181.441 23.6797 180.84 23.5156 180.105 23.5156ZM190.617 35H188.66V16.7656H190.617V35ZM196.676 16.7656V22.2148C196.676 22.5273 196.668 22.8438 196.652 23.1641C196.637 23.4766 196.609 23.7656 196.57 24.0312H196.699C196.965 23.5781 197.301 23.1992 197.707 22.8945C198.121 22.582 198.59 22.3477 199.113 22.1914C199.637 22.0273 200.191 21.9453 200.777 21.9453C201.809 21.9453 202.668 22.1094 203.355 22.4375C204.051 22.7656 204.57 23.2734 204.914 23.9609C205.266 24.6484 205.441 25.5391 205.441 26.6328V35H203.52V26.7617C203.52 25.6914 203.273 24.8906 202.781 24.3594C202.297 23.8281 201.551 23.5625 200.543 23.5625C199.59 23.5625 198.828 23.7461 198.258 24.1133C197.695 24.4727 197.289 25.0039 197.039 25.707C196.797 26.4102 196.676 27.2695 196.676 28.2852V35H194.73V16.7656H196.676ZM220.523 28.5547C220.523 29.6094 220.387 30.5508 220.113 31.3789C219.84 32.207 219.445 32.9062 218.93 33.4766C218.414 34.0469 217.789 34.4844 217.055 34.7891C216.328 35.0859 215.504 35.2344 214.582 35.2344C213.723 35.2344 212.934 35.0859 212.215 34.7891C211.504 34.4844 210.887 34.0469 210.363 33.4766C209.848 32.9062 209.445 32.207 209.156 31.3789C208.875 30.5508 208.734 29.6094 208.734 28.5547C208.734 27.1484 208.973 25.9531 209.449 24.9688C209.926 23.9766 210.605 23.2227 211.488 22.707C212.379 22.1836 213.438 21.9219 214.664 21.9219C215.836 21.9219 216.859 22.1836 217.734 22.707C218.617 23.2305 219.301 23.9883 219.785 24.9805C220.277 25.9648 220.523 27.1562 220.523 28.5547ZM210.75 28.5547C210.75 29.5859 210.887 30.4805 211.16 31.2383C211.434 31.9961 211.855 32.582 212.426 32.9961C212.996 33.4102 213.73 33.6172 214.629 33.6172C215.52 33.6172 216.25 33.4102 216.82 32.9961C217.398 32.582 217.824 31.9961 218.098 31.2383C218.371 30.4805 218.508 29.5859 218.508 28.5547C218.508 27.5312 218.371 26.6484 218.098 25.9062C217.824 25.1562 217.402 24.5781 216.832 24.1719C216.262 23.7656 215.523 23.5625 214.617 23.5625C213.281 23.5625 212.301 24.0039 211.676 24.8867C211.059 25.7695 210.75 26.9922 210.75 28.5547Z" fill="#545565"/>
<circle cx="269" cy="25" r="15" fill="#E5E5E5"/>
<path d="M273.671 20L272.307 21.3606L266.812 26.6142L265.21 25.1402L263.787 23.7795L261 26.4441L262.423 27.8047L265.388 30.6394L266.752 32L268.175 30.6394L275.094 24.0252L276.517 22.6646L273.671 20Z" fill="white"/>
</svg>
