<svg width="284" height="53" viewBox="0 0 284 53" fill="none" xmlns="http://www.w3.org/2000/svg">
<rect width="269" height="53" rx="26.5" fill="#FE7170"/>
<circle cx="27" cy="26" r="5" fill="white"/>
<path d="M55.6055 35H53.6016V19.625H48.2109V17.8672H60.9727V19.625H55.6055V35ZM68.2148 21.9219C69.3086 21.9219 70.2461 22.1641 71.0273 22.6484C71.8086 23.1328 72.4062 23.8125 72.8203 24.6875C73.2344 25.5547 73.4414 26.5703 73.4414 27.7344V28.9414H64.5703C64.5938 30.4492 64.9688 31.5977 65.6953 32.3867C66.4219 33.1758 67.4453 33.5703 68.7656 33.5703C69.5781 33.5703 70.2969 33.4961 70.9219 33.3477C71.5469 33.1992 72.1953 32.9805 72.8672 32.6914V34.4023C72.2188 34.6914 71.5742 34.9023 70.9336 35.0352C70.3008 35.168 69.5508 35.2344 68.6836 35.2344C67.4492 35.2344 66.3711 34.9844 65.4492 34.4844C64.5352 33.9766 63.8242 33.2344 63.3164 32.2578C62.8086 31.2812 62.5547 30.0859 62.5547 28.6719C62.5547 27.2891 62.7852 26.0938 63.2461 25.0859C63.7148 24.0703 64.3711 23.2891 65.2148 22.7422C66.0664 22.1953 67.0664 21.9219 68.2148 21.9219ZM68.1914 23.5156C67.1523 23.5156 66.3242 23.8555 65.707 24.5352C65.0898 25.2148 64.7227 26.1641 64.6055 27.3828H71.4023C71.3945 26.6172 71.2734 25.9453 71.0391 25.3672C70.8125 24.7812 70.4648 24.3281 69.9961 24.0078C69.5273 23.6797 68.9258 23.5156 68.1914 23.5156ZM85.0547 31.4844C85.0547 32.3047 84.8477 32.9961 84.4336 33.5586C84.0273 34.1133 83.4414 34.5312 82.6758 34.8125C81.918 35.0938 81.0117 35.2344 79.957 35.2344C79.0586 35.2344 78.2812 35.1641 77.625 35.0234C76.9688 34.8828 76.3945 34.6836 75.9023 34.4258V32.6328C76.4258 32.8906 77.0508 33.125 77.7773 33.3359C78.5039 33.5469 79.2461 33.6523 80.0039 33.6523C81.1133 33.6523 81.918 33.4727 82.418 33.1133C82.918 32.7539 83.168 32.2656 83.168 31.6484C83.168 31.2969 83.0664 30.9883 82.8633 30.7227C82.668 30.4492 82.3359 30.1875 81.8672 29.9375C81.3984 29.6797 80.75 29.3984 79.9219 29.0938C79.1016 28.7812 78.3906 28.4727 77.7891 28.168C77.1953 27.8555 76.7344 27.4766 76.4062 27.0312C76.0859 26.5859 75.9258 26.0078 75.9258 25.2969C75.9258 24.2109 76.3633 23.3789 77.2383 22.8008C78.1211 22.2148 79.2773 21.9219 80.707 21.9219C81.4805 21.9219 82.2031 22 82.875 22.1562C83.5547 22.3047 84.1875 22.5078 84.7734 22.7656L84.1172 24.3242C83.5859 24.0977 83.0195 23.9062 82.418 23.75C81.8164 23.5938 81.2031 23.5156 80.5781 23.5156C79.6797 23.5156 78.9883 23.6641 78.5039 23.9609C78.0273 24.2578 77.7891 24.6641 77.7891 25.1797C77.7891 25.5781 77.8984 25.9062 78.1172 26.1641C78.3438 26.4219 78.7031 26.6641 79.1953 26.8906C79.6875 27.1172 80.3359 27.3828 81.1406 27.6875C81.9453 27.9844 82.6406 28.293 83.2266 28.6133C83.8125 28.9258 84.2617 29.3086 84.5742 29.7617C84.8945 30.207 85.0547 30.7812 85.0547 31.4844ZM92.332 33.6406C92.6523 33.6406 92.9805 33.6133 93.3164 33.5586C93.6523 33.5039 93.9258 33.4375 94.1367 33.3594V34.8711C93.9102 34.9727 93.5938 35.0586 93.1875 35.1289C92.7891 35.1992 92.3984 35.2344 92.0156 35.2344C91.3359 35.2344 90.7188 35.1172 90.1641 34.8828C89.6094 34.6406 89.1641 34.2344 88.8281 33.6641C88.5 33.0938 88.3359 32.3047 88.3359 31.2969V23.6797H86.5078V22.7305L88.3477 21.9688L89.1211 19.1797H90.293V22.1562H94.0547V23.6797H90.293V31.2383C90.293 32.043 90.4766 32.6445 90.8438 33.043C91.2188 33.4414 91.7148 33.6406 92.332 33.6406ZM101.543 21.9453C103.074 21.9453 104.211 22.2891 104.953 22.9766C105.695 23.6641 106.066 24.7617 106.066 26.2695V35H104.648L104.273 33.1016H104.18C103.82 33.5703 103.445 33.9648 103.055 34.2852C102.664 34.5977 102.211 34.8359 101.695 35C101.188 35.1562 100.562 35.2344 99.8203 35.2344C99.0391 35.2344 98.3438 35.0977 97.7344 34.8242C97.1328 34.5508 96.6562 34.1367 96.3047 33.582C95.9609 33.0273 95.7891 32.3242 95.7891 31.4727C95.7891 30.1914 96.2969 29.207 97.3125 28.5195C98.3281 27.832 99.875 27.457 101.953 27.3945L104.168 27.3008V26.5156C104.168 25.4062 103.93 24.6289 103.453 24.1836C102.977 23.7383 102.305 23.5156 101.438 23.5156C100.766 23.5156 100.125 23.6133 99.5156 23.8086C98.9062 24.0039 98.3281 24.2344 97.7812 24.5L97.1836 23.0234C97.7617 22.7266 98.4258 22.4727 99.1758 22.2617C99.9258 22.0508 100.715 21.9453 101.543 21.9453ZM104.145 28.6719L102.188 28.7539C100.586 28.8164 99.457 29.0781 98.8008 29.5391C98.1445 30 97.8164 30.6523 97.8164 31.4961C97.8164 32.2305 98.0391 32.7734 98.4844 33.125C98.9297 33.4766 99.5195 33.6523 100.254 33.6523C101.395 33.6523 102.328 33.3359 103.055 32.7031C103.781 32.0703 104.145 31.1211 104.145 29.8555V28.6719Z" fill="white"/>
<circle cx="269" cy="25" r="15" fill="#25D366"/>
<path d="M273.671 20L272.307 21.3606L266.812 26.6142L265.21 25.1402L263.787 23.7795L261 26.4441L262.423 27.8047L265.388 30.6394L266.752 32L268.175 30.6394L275.094 24.0252L276.517 22.6646L273.671 20Z" fill="white"/>
</svg>
