<svg width="25" height="25" viewBox="0 0 25 25" fill="none" xmlns="http://www.w3.org/2000/svg">
<g clip-path="url(#clip0_187_2909)">
<path d="M4.43386 17.2849C3.27066 15.3224 2.86379 13.0029 3.28963 10.7616C3.71546 8.52042 4.94472 6.5117 6.74663 5.11259C8.54854 3.71348 10.7992 3.02019 13.076 3.16288C15.3529 3.30557 17.4993 4.27442 19.1125 5.88756C20.7256 7.50069 21.6945 9.64716 21.8372 11.924C21.9798 14.2009 21.2866 16.4515 19.8874 18.2534C18.4883 20.0553 16.4796 21.2846 14.2384 21.7104C11.9972 22.1362 9.6776 21.7294 7.71511 20.5662L4.47292 21.4841C4.34009 21.523 4.19925 21.5254 4.06516 21.4911C3.93108 21.4568 3.80869 21.3871 3.71083 21.2892C3.61297 21.1913 3.54323 21.069 3.50893 20.9349C3.47464 20.8008 3.47704 20.6599 3.51589 20.5271L4.43386 17.2849Z" stroke="white" stroke-width="2" stroke-linecap="round" stroke-linejoin="round"/>
<path d="M14.675 17C13.7978 17.0022 12.9288 16.831 12.118 16.4964C11.3072 16.1617 10.5704 15.6701 9.95017 15.0498C9.32991 14.4296 8.83832 13.6928 8.50365 12.882C8.16898 12.0712 7.99782 11.2022 8.00002 10.325C8.00223 9.70762 8.24903 9.11627 8.68637 8.68048C9.12372 8.2447 9.71595 8.00001 10.3333 8.00002C10.4352 7.9992 10.5354 8.02586 10.6234 8.07719C10.7114 8.12852 10.7839 8.20262 10.8333 8.29168L11.8083 9.99168C11.8663 10.095 11.8961 10.2118 11.8946 10.3303C11.8931 10.4488 11.8605 10.5648 11.8 10.6667L11.0167 11.975C11.4179 12.8676 12.1324 13.5821 13.025 13.9833L14.3333 13.2C14.4352 13.1395 14.5512 13.1069 14.6697 13.1054C14.7882 13.1039 14.905 13.1337 15.0083 13.1917L16.7083 14.1667C16.7974 14.2161 16.8715 14.2886 16.9228 14.3766C16.9741 14.4646 17.0008 14.5648 17 14.6667C16.9978 15.2834 16.7524 15.8743 16.3171 16.3112C15.8818 16.7481 15.2917 16.9956 14.675 17Z" fill="white"/>
</g>
<defs>
<clipPath id="clip0_187_2909">
<rect width="25" height="25" fill="white"/>
</clipPath>
</defs>
</svg>
