<svg width="284" height="53" viewBox="0 0 284 53" fill="none" xmlns="http://www.w3.org/2000/svg">
<rect width="269" height="53" rx="26.5" fill="#FE7170"/>
<circle cx="27" cy="27" r="5" fill="white"/>
<path d="M57.668 26.0234H63.6562V34.332C62.7578 34.6367 61.832 34.8633 60.8789 35.0117C59.9336 35.1602 58.875 35.2344 57.7031 35.2344C55.9219 35.2344 54.418 34.8789 53.1914 34.168C51.9727 33.457 51.0469 32.4453 50.4141 31.1328C49.7812 29.8125 49.4648 28.2461 49.4648 26.4336C49.4648 24.6602 49.8125 23.1133 50.5078 21.793C51.2109 20.4727 52.2227 19.4492 53.543 18.7227C54.8711 17.9883 56.4648 17.6211 58.3242 17.6211C59.2773 17.6211 60.1797 17.7109 61.0312 17.8906C61.8906 18.0625 62.6875 18.3086 63.4219 18.6289L62.6602 20.3633C62.0273 20.0898 61.3281 19.8555 60.5625 19.6602C59.8047 19.4648 59.0195 19.3672 58.207 19.3672C56.8086 19.3672 55.6094 19.6562 54.6094 20.2344C53.6172 20.8125 52.8555 21.6289 52.3242 22.6836C51.8008 23.7383 51.5391 24.9883 51.5391 26.4336C51.5391 27.8633 51.7695 29.1094 52.2305 30.1719C52.6914 31.2266 53.4102 32.0469 54.3867 32.6328C55.3633 33.2188 56.6211 33.5117 58.1602 33.5117C58.9336 33.5117 59.5977 33.4688 60.1523 33.3828C60.707 33.2891 61.2109 33.1797 61.6641 33.0547V27.8047H57.668V26.0234ZM69.4688 35H67.5117V16.7656H69.4688V35ZM78.3867 21.9453C79.918 21.9453 81.0547 22.2891 81.7969 22.9766C82.5391 23.6641 82.9102 24.7617 82.9102 26.2695V35H81.4922L81.1172 33.1016H81.0234C80.6641 33.5703 80.2891 33.9648 79.8984 34.2852C79.5078 34.5977 79.0547 34.8359 78.5391 35C78.0312 35.1562 77.4062 35.2344 76.6641 35.2344C75.8828 35.2344 75.1875 35.0977 74.5781 34.8242C73.9766 34.5508 73.5 34.1367 73.1484 33.582C72.8047 33.0273 72.6328 32.3242 72.6328 31.4727C72.6328 30.1914 73.1406 29.207 74.1562 28.5195C75.1719 27.832 76.7188 27.457 78.7969 27.3945L81.0117 27.3008V26.5156C81.0117 25.4062 80.7734 24.6289 80.2969 24.1836C79.8203 23.7383 79.1484 23.5156 78.2812 23.5156C77.6094 23.5156 76.9688 23.6133 76.3594 23.8086C75.75 24.0039 75.1719 24.2344 74.625 24.5L74.0273 23.0234C74.6055 22.7266 75.2695 22.4727 76.0195 22.2617C76.7695 22.0508 77.5586 21.9453 78.3867 21.9453ZM80.9883 28.6719L79.0312 28.7539C77.4297 28.8164 76.3008 29.0781 75.6445 29.5391C74.9883 30 74.6602 30.6523 74.6602 31.4961C74.6602 32.2305 74.8828 32.7734 75.3281 33.125C75.7734 33.4766 76.3633 33.6523 77.0977 33.6523C78.2383 33.6523 79.1719 33.3359 79.8984 32.7031C80.625 32.0703 80.9883 31.1211 80.9883 29.8555V28.6719ZM88.8633 16.7656V21.3242C88.8633 21.8477 88.8477 22.3555 88.8164 22.8477C88.793 23.3398 88.7734 23.7227 88.7578 23.9961H88.8633C89.2148 23.418 89.7227 22.9297 90.3867 22.5312C91.0508 22.1328 91.8984 21.9336 92.9297 21.9336C94.5391 21.9336 95.8203 22.4922 96.7734 23.6094C97.7344 24.7188 98.2148 26.3711 98.2148 28.5664C98.2148 30.0117 97.9961 31.2305 97.5586 32.2227C97.1211 33.2148 96.5039 33.9648 95.707 34.4727C94.9102 34.9805 93.9688 35.2344 92.8828 35.2344C91.8672 35.2344 91.0312 35.0469 90.375 34.6719C89.7266 34.2891 89.2266 33.8242 88.875 33.2773H88.7227L88.3242 35H86.918V16.7656H88.8633ZM92.6133 23.5625C91.6836 23.5625 90.9453 23.7461 90.3984 24.1133C89.8516 24.4727 89.457 25.0195 89.2148 25.7539C88.9805 26.4805 88.8633 27.4023 88.8633 28.5195V28.625C88.8633 30.2422 89.1328 31.4805 89.6719 32.3398C90.2109 33.1914 91.1914 33.6172 92.6133 33.6172C93.8086 33.6172 94.7031 33.1797 95.2969 32.3047C95.8984 31.4297 96.1992 30.1797 96.1992 28.5547C96.1992 26.8984 95.9023 25.6523 95.3086 24.8164C94.7227 23.9805 93.8242 23.5625 92.6133 23.5625ZM106.559 21.9219C107.652 21.9219 108.59 22.1641 109.371 22.6484C110.152 23.1328 110.75 23.8125 111.164 24.6875C111.578 25.5547 111.785 26.5703 111.785 27.7344V28.9414H102.914C102.938 30.4492 103.312 31.5977 104.039 32.3867C104.766 33.1758 105.789 33.5703 107.109 33.5703C107.922 33.5703 108.641 33.4961 109.266 33.3477C109.891 33.1992 110.539 32.9805 111.211 32.6914V34.4023C110.562 34.6914 109.918 34.9023 109.277 35.0352C108.645 35.168 107.895 35.2344 107.027 35.2344C105.793 35.2344 104.715 34.9844 103.793 34.4844C102.879 33.9766 102.168 33.2344 101.66 32.2578C101.152 31.2812 100.898 30.0859 100.898 28.6719C100.898 27.2891 101.129 26.0938 101.59 25.0859C102.059 24.0703 102.715 23.2891 103.559 22.7422C104.41 22.1953 105.41 21.9219 106.559 21.9219ZM106.535 23.5156C105.496 23.5156 104.668 23.8555 104.051 24.5352C103.434 25.2148 103.066 26.1641 102.949 27.3828H109.746C109.738 26.6172 109.617 25.9453 109.383 25.3672C109.156 24.7812 108.809 24.3281 108.34 24.0078C107.871 23.6797 107.27 23.5156 106.535 23.5156ZM117.047 35H115.09V16.7656H117.047V35ZM125.965 21.9453C127.496 21.9453 128.633 22.2891 129.375 22.9766C130.117 23.6641 130.488 24.7617 130.488 26.2695V35H129.07L128.695 33.1016H128.602C128.242 33.5703 127.867 33.9648 127.477 34.2852C127.086 34.5977 126.633 34.8359 126.117 35C125.609 35.1562 124.984 35.2344 124.242 35.2344C123.461 35.2344 122.766 35.0977 122.156 34.8242C121.555 34.5508 121.078 34.1367 120.727 33.582C120.383 33.0273 120.211 32.3242 120.211 31.4727C120.211 30.1914 120.719 29.207 121.734 28.5195C122.75 27.832 124.297 27.457 126.375 27.3945L128.59 27.3008V26.5156C128.59 25.4062 128.352 24.6289 127.875 24.1836C127.398 23.7383 126.727 23.5156 125.859 23.5156C125.188 23.5156 124.547 23.6133 123.938 23.8086C123.328 24.0039 122.75 24.2344 122.203 24.5L121.605 23.0234C122.184 22.7266 122.848 22.4727 123.598 22.2617C124.348 22.0508 125.137 21.9453 125.965 21.9453ZM128.566 28.6719L126.609 28.7539C125.008 28.8164 123.879 29.0781 123.223 29.5391C122.566 30 122.238 30.6523 122.238 31.4961C122.238 32.2305 122.461 32.7734 122.906 33.125C123.352 33.4766 123.941 33.6523 124.676 33.6523C125.816 33.6523 126.75 33.3359 127.477 32.7031C128.203 32.0703 128.566 31.1211 128.566 29.8555V28.6719Z" fill="white"/>
<circle cx="269" cy="25" r="15" fill="#25D366"/>
<path d="M273.671 20L272.307 21.3606L266.812 26.6142L265.21 25.1402L263.787 23.7795L261 26.4441L262.423 27.8047L265.388 30.6394L266.752 32L268.175 30.6394L275.094 24.0252L276.517 22.6646L273.671 20Z" fill="white"/>
</svg>
