<svg width="284" height="53" viewBox="0 0 284 53" fill="none" xmlns="http://www.w3.org/2000/svg">
<rect width="269" height="53" rx="26.5" fill="white"/>
<circle cx="27" cy="27" r="5" fill="#FE7170"/>
<path d="M54.8203 17.8672C57.0312 17.8672 58.6445 18.3008 59.6602 19.168C60.6836 20.0273 61.1953 21.2617 61.1953 22.8711C61.1953 23.5977 61.0742 24.2891 60.832 24.9453C60.5977 25.5938 60.2148 26.168 59.6836 26.668C59.1523 27.1602 58.4531 27.5508 57.5859 27.8398C56.7266 28.1211 55.6719 28.2617 54.4219 28.2617H52.3359V35H50.3438V17.8672H54.8203ZM54.6328 19.5664H52.3359V26.5508H54.1992C55.293 26.5508 56.2031 26.4336 56.9297 26.1992C57.6641 25.9648 58.2148 25.5859 58.582 25.0625C58.9492 24.5312 59.1328 23.8281 59.1328 22.9531C59.1328 21.8125 58.7695 20.9648 58.043 20.4102C57.3164 19.8477 56.1797 19.5664 54.6328 19.5664ZM69.4336 21.9219C70.5273 21.9219 71.4648 22.1641 72.2461 22.6484C73.0273 23.1328 73.625 23.8125 74.0391 24.6875C74.4531 25.5547 74.6602 26.5703 74.6602 27.7344V28.9414H65.7891C65.8125 30.4492 66.1875 31.5977 66.9141 32.3867C67.6406 33.1758 68.6641 33.5703 69.9844 33.5703C70.7969 33.5703 71.5156 33.4961 72.1406 33.3477C72.7656 33.1992 73.4141 32.9805 74.0859 32.6914V34.4023C73.4375 34.6914 72.793 34.9023 72.1523 35.0352C71.5195 35.168 70.7695 35.2344 69.9023 35.2344C68.668 35.2344 67.5898 34.9844 66.668 34.4844C65.7539 33.9766 65.043 33.2344 64.5352 32.2578C64.0273 31.2812 63.7734 30.0859 63.7734 28.6719C63.7734 27.2891 64.0039 26.0938 64.4648 25.0859C64.9336 24.0703 65.5898 23.2891 66.4336 22.7422C67.2852 22.1953 68.2852 21.9219 69.4336 21.9219ZM69.4102 23.5156C68.3711 23.5156 67.543 23.8555 66.9258 24.5352C66.3086 25.2148 65.9414 26.1641 65.8242 27.3828H72.6211C72.6133 26.6172 72.4922 25.9453 72.2578 25.3672C72.0312 24.7812 71.6836 24.3281 71.2148 24.0078C70.7461 23.6797 70.1445 23.5156 69.4102 23.5156ZM72.6562 16.6133V16.8477C72.5 17.0742 72.2852 17.3477 72.0117 17.668C71.7461 17.9805 71.4492 18.3125 71.1211 18.6641C70.793 19.0078 70.4609 19.3359 70.125 19.6484C69.7969 19.9609 69.4922 20.2305 69.2109 20.457H67.9102V20.1758C68.1602 19.8789 68.4336 19.5234 68.7305 19.1094C69.0273 18.6875 69.3164 18.2578 69.5977 17.8203C69.8789 17.375 70.1133 16.9727 70.3008 16.6133H72.6562ZM86.2734 31.4844C86.2734 32.3047 86.0664 32.9961 85.6523 33.5586C85.2461 34.1133 84.6602 34.5312 83.8945 34.8125C83.1367 35.0938 82.2305 35.2344 81.1758 35.2344C80.2773 35.2344 79.5 35.1641 78.8438 35.0234C78.1875 34.8828 77.6133 34.6836 77.1211 34.4258V32.6328C77.6445 32.8906 78.2695 33.125 78.9961 33.3359C79.7227 33.5469 80.4648 33.6523 81.2227 33.6523C82.332 33.6523 83.1367 33.4727 83.6367 33.1133C84.1367 32.7539 84.3867 32.2656 84.3867 31.6484C84.3867 31.2969 84.2852 30.9883 84.082 30.7227C83.8867 30.4492 83.5547 30.1875 83.0859 29.9375C82.6172 29.6797 81.9688 29.3984 81.1406 29.0938C80.3203 28.7812 79.6094 28.4727 79.0078 28.168C78.4141 27.8555 77.9531 27.4766 77.625 27.0312C77.3047 26.5859 77.1445 26.0078 77.1445 25.2969C77.1445 24.2109 77.582 23.3789 78.457 22.8008C79.3398 22.2148 80.4961 21.9219 81.9258 21.9219C82.6992 21.9219 83.4219 22 84.0938 22.1562C84.7734 22.3047 85.4062 22.5078 85.9922 22.7656L85.3359 24.3242C84.8047 24.0977 84.2383 23.9062 83.6367 23.75C83.0352 23.5938 82.4219 23.5156 81.7969 23.5156C80.8984 23.5156 80.207 23.6641 79.7227 23.9609C79.2461 24.2578 79.0078 24.6641 79.0078 25.1797C79.0078 25.5781 79.1172 25.9062 79.3359 26.1641C79.5625 26.4219 79.9219 26.6641 80.4141 26.8906C80.9062 27.1172 81.5547 27.3828 82.3594 27.6875C83.1641 27.9844 83.8594 28.293 84.4453 28.6133C85.0312 28.9258 85.4805 29.3086 85.793 29.7617C86.1133 30.207 86.2734 30.7812 86.2734 31.4844ZM100.207 35.2344C98.582 35.2344 97.293 34.6797 96.3398 33.5703C95.3945 32.4609 94.9219 30.8125 94.9219 28.625C94.9219 26.4141 95.4062 24.7461 96.375 23.6211C97.3438 22.4883 98.6328 21.9219 100.242 21.9219C100.922 21.9219 101.516 22.0117 102.023 22.1914C102.531 22.3711 102.969 22.6133 103.336 22.918C103.703 23.2148 104.012 23.5547 104.262 23.9375H104.402C104.371 23.6953 104.34 23.3633 104.309 22.9414C104.277 22.5195 104.262 22.1758 104.262 21.9102V16.7656H106.207V35H104.637L104.344 33.1719H104.262C104.02 33.5547 103.711 33.9023 103.336 34.2148C102.969 34.5273 102.527 34.7773 102.012 34.9648C101.504 35.1445 100.902 35.2344 100.207 35.2344ZM100.512 33.6172C101.887 33.6172 102.859 33.2266 103.43 32.4453C104 31.6641 104.285 30.5039 104.285 28.9648V28.6133C104.285 26.9805 104.012 25.7266 103.465 24.8516C102.926 23.9766 101.941 23.5391 100.512 23.5391C99.3164 23.5391 98.4219 24 97.8281 24.9219C97.2344 25.8359 96.9375 27.0859 96.9375 28.6719C96.9375 30.25 97.2305 31.4688 97.8164 32.3281C98.4102 33.1875 99.3086 33.6172 100.512 33.6172ZM115.277 21.9219C116.371 21.9219 117.309 22.1641 118.09 22.6484C118.871 23.1328 119.469 23.8125 119.883 24.6875C120.297 25.5547 120.504 26.5703 120.504 27.7344V28.9414H111.633C111.656 30.4492 112.031 31.5977 112.758 32.3867C113.484 33.1758 114.508 33.5703 115.828 33.5703C116.641 33.5703 117.359 33.4961 117.984 33.3477C118.609 33.1992 119.258 32.9805 119.93 32.6914V34.4023C119.281 34.6914 118.637 34.9023 117.996 35.0352C117.363 35.168 116.613 35.2344 115.746 35.2344C114.512 35.2344 113.434 34.9844 112.512 34.4844C111.598 33.9766 110.887 33.2344 110.379 32.2578C109.871 31.2812 109.617 30.0859 109.617 28.6719C109.617 27.2891 109.848 26.0938 110.309 25.0859C110.777 24.0703 111.434 23.2891 112.277 22.7422C113.129 22.1953 114.129 21.9219 115.277 21.9219ZM115.254 23.5156C114.215 23.5156 113.387 23.8555 112.77 24.5352C112.152 25.2148 111.785 26.1641 111.668 27.3828H118.465C118.457 26.6172 118.336 25.9453 118.102 25.3672C117.875 24.7812 117.527 24.3281 117.059 24.0078C116.59 23.6797 115.988 23.5156 115.254 23.5156ZM133.629 40.7656C131.941 40.7656 130.641 40.4492 129.727 39.8164C128.812 39.1914 128.355 38.3125 128.355 37.1797C128.355 36.375 128.609 35.6875 129.117 35.1172C129.633 34.5469 130.344 34.168 131.25 33.9805C130.914 33.8242 130.625 33.5898 130.383 33.2773C130.148 32.9648 130.031 32.6055 130.031 32.1992C130.031 31.7305 130.16 31.3203 130.418 30.9688C130.684 30.6094 131.086 30.2656 131.625 29.9375C130.953 29.6641 130.406 29.2031 129.984 28.5547C129.57 27.8984 129.363 27.1367 129.363 26.2695C129.363 25.3477 129.555 24.5625 129.938 23.9141C130.32 23.2578 130.875 22.7578 131.602 22.4141C132.328 22.0703 133.207 21.8984 134.238 21.8984C134.465 21.8984 134.691 21.9102 134.918 21.9336C135.152 21.9492 135.375 21.9766 135.586 22.0156C135.797 22.0469 135.98 22.0859 136.137 22.1328H140.543V23.3867L138.176 23.6797C138.41 23.9844 138.605 24.3516 138.762 24.7812C138.918 25.2109 138.996 25.6875 138.996 26.2109C138.996 27.4922 138.562 28.5117 137.695 29.2695C136.828 30.0195 135.637 30.3945 134.121 30.3945C133.762 30.3945 133.395 30.3633 133.02 30.3008C132.637 30.5117 132.344 30.7461 132.141 31.0039C131.945 31.2617 131.848 31.5586 131.848 31.8945C131.848 32.1445 131.922 32.3438 132.07 32.4922C132.227 32.6406 132.449 32.75 132.738 32.8203C133.027 32.8828 133.375 32.9141 133.781 32.9141H136.043C137.441 32.9141 138.512 33.207 139.254 33.793C140.004 34.3789 140.379 35.2344 140.379 36.3594C140.379 37.7812 139.801 38.8711 138.645 39.6289C137.488 40.3867 135.816 40.7656 133.629 40.7656ZM133.688 39.2422C134.75 39.2422 135.629 39.1328 136.324 38.9141C137.027 38.7031 137.551 38.3945 137.895 37.9883C138.246 37.5898 138.422 37.1133 138.422 36.5586C138.422 36.043 138.305 35.6523 138.07 35.3867C137.836 35.1289 137.492 34.957 137.039 34.8711C136.586 34.7773 136.031 34.7305 135.375 34.7305H133.148C132.57 34.7305 132.066 34.8203 131.637 35C131.207 35.1797 130.875 35.4453 130.641 35.7969C130.414 36.1484 130.301 36.5859 130.301 37.1094C130.301 37.8047 130.594 38.332 131.18 38.6914C131.766 39.0586 132.602 39.2422 133.688 39.2422ZM134.191 28.9766C135.121 28.9766 135.82 28.7422 136.289 28.2734C136.758 27.8047 136.992 27.1211 136.992 26.2227C136.992 25.2617 136.754 24.543 136.277 24.0664C135.801 23.582 135.098 23.3398 134.168 23.3398C133.277 23.3398 132.59 23.5898 132.105 24.0898C131.629 24.582 131.391 25.3047 131.391 26.2578C131.391 27.1328 131.633 27.8047 132.117 28.2734C132.602 28.7422 133.293 28.9766 134.191 28.9766ZM147.879 21.9453C149.41 21.9453 150.547 22.2891 151.289 22.9766C152.031 23.6641 152.402 24.7617 152.402 26.2695V35H150.984L150.609 33.1016H150.516C150.156 33.5703 149.781 33.9648 149.391 34.2852C149 34.5977 148.547 34.8359 148.031 35C147.523 35.1562 146.898 35.2344 146.156 35.2344C145.375 35.2344 144.68 35.0977 144.07 34.8242C143.469 34.5508 142.992 34.1367 142.641 33.582C142.297 33.0273 142.125 32.3242 142.125 31.4727C142.125 30.1914 142.633 29.207 143.648 28.5195C144.664 27.832 146.211 27.457 148.289 27.3945L150.504 27.3008V26.5156C150.504 25.4062 150.266 24.6289 149.789 24.1836C149.312 23.7383 148.641 23.5156 147.773 23.5156C147.102 23.5156 146.461 23.6133 145.852 23.8086C145.242 24.0039 144.664 24.2344 144.117 24.5L143.52 23.0234C144.098 22.7266 144.762 22.4727 145.512 22.2617C146.262 22.0508 147.051 21.9453 147.879 21.9453ZM150.48 28.6719L148.523 28.7539C146.922 28.8164 145.793 29.0781 145.137 29.5391C144.48 30 144.152 30.6523 144.152 31.4961C144.152 32.2305 144.375 32.7734 144.82 33.125C145.266 33.4766 145.855 33.6523 146.59 33.6523C147.73 33.6523 148.664 33.3359 149.391 32.7031C150.117 32.0703 150.48 31.1211 150.48 29.8555V28.6719ZM158.367 35H156.41V16.7656H158.367V35ZM164.426 22.1562V35H162.48V22.1562H164.426ZM163.477 17.3516C163.797 17.3516 164.07 17.457 164.297 17.668C164.531 17.8711 164.648 18.1914 164.648 18.6289C164.648 19.0586 164.531 19.3789 164.297 19.5898C164.07 19.8008 163.797 19.9062 163.477 19.9062C163.141 19.9062 162.859 19.8008 162.633 19.5898C162.414 19.3789 162.305 19.0586 162.305 18.6289C162.305 18.1914 162.414 17.8711 162.633 17.668C162.859 17.457 163.141 17.3516 163.477 17.3516ZM174.633 21.9219C176.156 21.9219 177.309 22.2969 178.09 23.0469C178.871 23.7891 179.262 24.9844 179.262 26.6328V35H177.34V26.7617C177.34 25.6914 177.094 24.8906 176.602 24.3594C176.117 23.8281 175.371 23.5625 174.363 23.5625C172.941 23.5625 171.941 23.9648 171.363 24.7695C170.785 25.5742 170.496 26.7422 170.496 28.2734V35H168.551V22.1562H170.121L170.414 24.0078H170.52C170.793 23.5547 171.141 23.1758 171.562 22.8711C171.984 22.5586 172.457 22.3242 172.98 22.168C173.504 22.0039 174.055 21.9219 174.633 21.9219ZM185.215 16.7656V22.2148C185.215 22.5273 185.207 22.8438 185.191 23.1641C185.176 23.4766 185.148 23.7656 185.109 24.0312H185.238C185.504 23.5781 185.84 23.1992 186.246 22.8945C186.66 22.582 187.129 22.3477 187.652 22.1914C188.176 22.0273 188.73 21.9453 189.316 21.9453C190.348 21.9453 191.207 22.1094 191.895 22.4375C192.59 22.7656 193.109 23.2734 193.453 23.9609C193.805 24.6484 193.98 25.5391 193.98 26.6328V35H192.059V26.7617C192.059 25.6914 191.812 24.8906 191.32 24.3594C190.836 23.8281 190.09 23.5625 189.082 23.5625C188.129 23.5625 187.367 23.7461 186.797 24.1133C186.234 24.4727 185.828 25.0039 185.578 25.707C185.336 26.4102 185.215 27.2695 185.215 28.2852V35H183.27V16.7656H185.215ZM202.793 21.9453C204.324 21.9453 205.461 22.2891 206.203 22.9766C206.945 23.6641 207.316 24.7617 207.316 26.2695V35H205.898L205.523 33.1016H205.43C205.07 33.5703 204.695 33.9648 204.305 34.2852C203.914 34.5977 203.461 34.8359 202.945 35C202.438 35.1562 201.812 35.2344 201.07 35.2344C200.289 35.2344 199.594 35.0977 198.984 34.8242C198.383 34.5508 197.906 34.1367 197.555 33.582C197.211 33.0273 197.039 32.3242 197.039 31.4727C197.039 30.1914 197.547 29.207 198.562 28.5195C199.578 27.832 201.125 27.457 203.203 27.3945L205.418 27.3008V26.5156C205.418 25.4062 205.18 24.6289 204.703 24.1836C204.227 23.7383 203.555 23.5156 202.688 23.5156C202.016 23.5156 201.375 23.6133 200.766 23.8086C200.156 24.0039 199.578 24.2344 199.031 24.5L198.434 23.0234C199.012 22.7266 199.676 22.4727 200.426 22.2617C201.176 22.0508 201.965 21.9453 202.793 21.9453ZM205.395 28.6719L203.438 28.7539C201.836 28.8164 200.707 29.0781 200.051 29.5391C199.395 30 199.066 30.6523 199.066 31.4961C199.066 32.2305 199.289 32.7734 199.734 33.125C200.18 33.4766 200.77 33.6523 201.504 33.6523C202.645 33.6523 203.578 33.3359 204.305 32.7031C205.031 32.0703 205.395 31.1211 205.395 29.8555V28.6719Z" fill="#545565"/>
<circle cx="269" cy="25" r="15" fill="#E5E5E5"/>
<path d="M273.671 20L272.307 21.3606L266.812 26.6142L265.21 25.1402L263.787 23.7795L261 26.4441L262.423 27.8047L265.388 30.6394L266.752 32L268.175 30.6394L275.094 24.0252L276.517 22.6646L273.671 20Z" fill="white"/>
</svg>
