<?xml version="1.0" encoding="utf-8"?>
<!-- Generator: Adobe Illustrator 25.2.1, SVG Export Plug-In . SVG Version: 6.00 Build 0)  -->
<svg version="1.1" id="Layer_1" xmlns="http://www.w3.org/2000/svg" xmlns:xlink="http://www.w3.org/1999/xlink" x="0px" y="0px"
	 viewBox="0 0 80 80" style="enable-background:new 0 0 80 80;" xml:space="preserve">
<style type="text/css">
	.st0{fill:#F8C117;}
</style>
<g>
	<path class="st0" d="M62.8,42.5c0-0.1,0.1-0.3,0.1-0.4v-6.7c0-3.8-1-7.6-2.8-11c-1.8-3.3-4.5-6.1-7.7-8.2L51.2,14
		C49,9.7,44.8,7.1,40,7.1c-4.8,0-9,2.6-11.2,6.9l-0.9,1.8c-0.1,0.1-0.1,0.3-0.1,0.4c-3.2,2-5.9,4.8-7.7,8.1
		c-1.9,3.4-2.9,7.2-2.9,11.1l0,6.7c0,0.1,0,0.3,0.1,0.4c-1,1.1-1.5,2.7-1.4,4.2c0.1,1.7,0.9,3.2,2.1,4.3l3.7,3.1v0.4
		c0,3.2,0.9,6.3,2.6,9l0.9,1.5c3,4.8,8.2,7.8,13.8,8c0.2,0,0.5,0,0.7,0c5.4,0,10.4-2.5,13.7-6.8l1.6-2.2c2.2-2.9,3.3-6.3,3.4-9.9
		l3.7-3.1c1.3-1.1,2-2.6,2.1-4.2C64.3,45.2,63.8,43.7,62.8,42.5z M40,10.4C40,10.4,40,10.4,40,10.4L40,10.4C40,10.4,40,10.4,40,10.4
		c2.8,0,5.4,1.3,7.1,3.4c-0.3-0.1-0.7-0.2-1-0.3c-0.1,0-0.2-0.1-0.3-0.1l-0.1,0c-0.4-0.1-0.9-0.2-1.5-0.3c-0.2,0-0.4-0.1-0.6-0.1
		c-0.1,0-0.2,0-0.2,0l-0.3,0c-0.3,0-0.6-0.1-0.9-0.1c-0.8-0.1-1.4-0.1-2.1-0.1c-2.4,0-4.8,0.4-7.1,1.1C34.6,11.7,37.2,10.4,40,10.4z
		 M21.6,49.7l-1.6-1.3l0,0c-0.8-0.7-1.2-1.9-0.8-2.9c0.4-1,1.3-1.7,2.3-1.7V49.7z M21.5,40.5c-0.3,0-0.7,0.1-1,0.1v-5.1
		c0-3.8,1.1-7.5,3.2-10.7c1.6,3.5,4.1,6.6,7.2,8.8c-1.1,1-2.2,1.9-3.4,2.8l0,0c0,0,0,0,0,0C25.6,37.9,23.6,39.3,21.5,40.5z M55,53.7
		c0,2.9-1,5.9-2.7,8.2l-1.6,2.2c-2.7,3.6-7,5.7-11.6,5.5c-4.5-0.2-8.7-2.6-11.1-6.4l-0.9-1.5C25.7,59.5,25,57,25,54.4V42.3
		c1.5-0.9,3-1.9,4.3-2.9h16.5l9.3,2.7V53.7z M31.8,36.6c0.7-0.6,1.3-1.2,2-1.8c1.3,0.7,2.7,1.3,4.1,1.7l0.3,0.1L31.8,36.6z
		 M38.7,33.8c-5.9-1.7-10.6-6.2-12.6-12c3.6-3.7,8.6-5.8,13.8-5.8c0,0,0,0,0.1,0h0c0.5,0,1.1,0,1.8,0.1c0.3,0,0.6,0.1,0.9,0.1l0.3,0
		c0.2,0,0.4,0.1,0.5,0.1c0.4,0.1,0.9,0.2,1.3,0.3c0,0,0.1,0,0.1,0c0.1,0,0.1,0,0.2,0c0.5,0.1,1,0.3,1.5,0.5
		c7.7,2.8,12.9,10.1,12.9,18.3v4.4L38.7,33.8z M59.9,48.4l-1.6,1.3v-5.9c1,0,1.9,0.7,2.3,1.6l0,0C61.1,46.5,60.8,47.7,59.9,48.4z"/>
	<path class="st0" d="M44.4,59.9L44.4,59.9c-2.4,2.4-6.4,2.4-8.8,0c-0.7-0.6-1.7-0.6-2.3,0c-0.6,0.6-0.6,1.7,0,2.3
		c1.9,1.9,4.3,2.8,6.7,2.8c2.4,0,4.9-0.9,6.8-2.8c0.6-0.7,0.6-1.7,0-2.3C46.1,59.2,45,59.2,44.4,59.9z"/>
	<path class="st0" d="M37.4,47.3c0.5-0.6,0.5-1.6,0-2.2c-0.3-0.3-0.6-0.5-1-0.5c0,0,0,0,0,0c-0.4,0-0.8,0.2-1,0.5l0,0
		c-0.9,1.1-2,1.8-3.2,1.8c-1.2,0-2.3-0.6-3.2-1.8c-0.3-0.3-0.6-0.5-1-0.5c-0.4,0-0.8,0.2-1,0.5c-0.5,0.6-0.5,1.6,0,2.2
		c1.4,1.8,3.3,2.8,5.2,2.8C34.1,50.2,36,49.2,37.4,47.3z"/>
	<path class="st0" d="M43.8,45.1c-0.3-0.3-0.6-0.5-1-0.5c0,0,0,0,0,0c-0.4,0-0.8,0.2-1,0.5c-0.5,0.6-0.5,1.6,0,2.2
		c1.4,1.8,3.3,2.8,5.2,2.8c2,0,3.9-1,5.3-2.9c0.5-0.6,0.5-1.6,0-2.2c-0.3-0.3-0.6-0.5-1-0.5c0,0,0,0,0,0c-0.4,0-0.8,0.2-1,0.5l0,0
		c-0.9,1.1-2,1.8-3.2,1.8C45.8,46.9,44.7,46.2,43.8,45.1z"/>
	<path class="st0" d="M37.1,48.9c-0.3,0.3-0.4,0.8-0.4,1.2l0,6.2l0,0c0.1,0.9,0.7,1.5,1.6,1.6l2.5,0.1c0,0,0,0,0.1,0
		c0.4,0,0.8-0.2,1.1-0.4c0.3-0.3,0.5-0.7,0.5-1.2c0-0.4-0.1-0.9-0.4-1.2c-0.3-0.3-0.7-0.5-1.2-0.5l-0.9,0l0.1-4.7l0,0l0,0
		c0-0.4-0.2-0.9-0.6-1.1c-0.3-0.3-0.8-0.4-1.2-0.4C37.8,48.3,37.4,48.5,37.1,48.9z"/>
</g>
<g>
	<path class="st0" d="M-83.5,70.6c-0.1,0-0.1,0-0.2,0l-1.4,0c-1.9,0-3.6-1.1-4.3-2.8c-0.3-0.7,0-1.5,0.7-1.8l6.2-3.4
		c0.1-0.1,0.3-0.2,0.4-0.4c0.3-0.3,0.8-0.8,1.5-1.4c1.1-1,2.6-2.5,3.8-3.8c0.8-0.9,1.4-1.7,1.6-2.1c0.6-1.2,1.5-2.8,2.5-4.8
		c0,0,0,0,0,0l3.4-7.1c2.7-5.7,5.5-11.8,7.4-15.9l-2.5-5.8c-1-2.3-1-4.5,0-6.5c1-2,2.8-3.6,5.3-4.5c2.5-1,5.5-0.8,7.8,0.6l13.7,7.7
		c0.7,0.4,1,1.3,0.5,2c-0.4,0.7-1.4,0.9-2.2,0.5L-53,13.1c-1.5-0.9-3.4-1-5-0.4c-1.7,0.7-3,1.7-3.6,2.9c-0.6,1.2-0.6,2.7,0.1,4.2
		l1.5,3.4c1-1.2,2.3-2.2,3.8-2.7c0,0,0,0,0,0c0.3-0.1,0.7-0.2,1-0.2c0.3-0.1,0.7-0.1,1.2-0.1c0.1,0,0.1,0,0.2,0l-1.1-1.1
		c-0.6-0.6-0.6-1.5,0-2.1c0.3-0.3,0.7-0.4,1.1-0.4c0.4,0,0.8,0.2,1.1,0.5l3.6,3.5l13,2.2c0.4,0.1,0.8,0.3,1,0.6s0.3,0.7,0.3,1.1
		c-0.1,0.4-0.3,0.7-0.7,1c-0.3,0.2-0.8,0.3-1.2,0.2l-13.3-2.3c-0.1,0-0.2,0-0.2,0l-1.4-0.2c0,0,0,0,0,0c0,0,0,0,0,0c0,0,0,0-0.1,0
		c-0.1,0-0.2,0-0.3,0c-0.3,0-0.6,0-1,0c-0.6,0-1.3,0.1-1.9,0.2c0,0-0.1,0-0.1,0c-1.4,0.5-2.5,1.6-3.1,2.8
		c-1.7,3.8-5.1,11.1-8.2,17.8l-3.5,7.2c-1,2.1-1.9,3.7-2.5,4.9c-0.4,0.7-1,1.5-2,2.7c-0.7,0.8-1.6,1.8-2.7,2.8
		c-1.7,1.7-3.2,3-3.4,3.2c0,0,0,0,0,0c-0.1,0.1-0.2,0.1-0.3,0.2l-4.7,2.6c0.1,0,0.3,0,0.4,0.1l1.4,0c0.1,0,0.1,0,0.2,0
		c2.3,0,4.6-0.9,6.3-2.4c0.1-0.1,0.2-0.2,0.3-0.2c1.4-0.8,2.9-1.2,4.5-1.3c0.5,0,1.7-0.1,2.6-0.4l0,0c0,0,0,0,0,0
		c0.2-0.1,0.5-0.2,0.6-0.4c0.2-0.2,0.3-0.4,0.4-0.7c0.1-0.3,0.1-0.7,0.1-1c0,0,0,0,0,0c0-0.4-0.1-1-0.2-1.6l0,0
		c-0.1-0.6-0.2-1.3-0.2-2.2c-0.1-1.1,0.4-2,1-3c0.5-0.8,1.2-1.7,2.3-2.9c0.7-0.8,1.5-1.6,2.3-2.4l0,0c1.2-1.2,2.4-2.5,3.4-3.7
		c1.3-1.5,2.1-2.7,2.6-3.7c0.3-0.6,0.5-1.3,0.7-2c0.2-0.8,0.5-1.8,0.8-3c0.5-2,0.9-4.1,1.2-5.5c0.3-1.7,2-2.8,3.8-2.6
		c0.6,0.1,1.1,0.3,1.6,0.6c2.2,1.5,6.2,3.5,9.2,4.9c2.4,1.1,3.7,1.7,6,2.6c0.8,0.3,1.7,0.7,2.9,1.2l0,0c0.4,0.2,0.7,0.5,0.8,0.8
		c0.1,0.4,0.1,0.8-0.1,1.1c-0.4,0.7-1.3,1.1-2.1,0.7c-1.1-0.5-2.1-0.9-2.9-1.2c-2.3-1-3.7-1.5-6.1-2.7c-2.1-1-4-1.9-5.5-2.7l1.6,4.6
		c2.2,0.9,5,2.2,5.9,4.3c0.4,0.8,0.4,1.8,0,2.7c-0.4,0.8-0.8,1.6-1.4,2.3c-0.4,0.5-0.8,1.1-1.1,1.7c-0.3,0.7-0.6,1.8-0.8,2.9
		c-0.3,1.3-0.6,2.6-1.1,3.8c-0.7,1.6-2,2.8-3.7,3.5c-1.4,0.5-3,0.7-4.7,0.4c-0.1,0-0.3-0.1-0.4-0.1c-0.4-0.2-0.7-0.4-0.8-0.8
		c-0.2-0.4-0.2-0.8,0-1.1l1.6-3.5l-0.2-7.9l-2-4.6c-0.1,0.2-0.2,0.4-0.2,0.6c-0.9,2-2.7,4.1-4.3,5.8c-0.8,0.9-1.6,1.7-2.4,2.5l0,0
		c-1,1-1.9,1.9-2.6,2.8c-1.2,1.4-1.8,2.2-2,2.6c-0.2,0.3-0.2,0.6-0.2,0.6c0,0.7,0.1,1.3,0.2,1.9l0,0c0,0.4,0.1,0.7,0.1,1
		c0.1,0.8,0.2,1.8-0.2,2.8c-0.2,0.7-0.6,1.3-1.1,1.9c-0.5,0.5-1.1,0.9-1.8,1.2c-1.3,0.5-2.7,0.6-3.6,0.7c-1,0-2,0.3-2.8,0.8
		C-77.4,69.4-80.4,70.6-83.5,70.6z M-52.8,37.4l3.7,8.6c0.1,0.2,0.1,0.3,0.1,0.5l0.3,8.4c0,0.2,0,0.4-0.1,0.6l-0.8,1.8
		c1.1-0.2,2.2-0.7,2.8-2.1c0.4-0.9,0.6-2.1,0.9-3.2l0,0c0.3-1.3,0.5-2.5,1-3.5c0.4-0.8,0.8-1.6,1.4-2.3c0.4-0.5,0.8-1.1,1.1-1.7
		c0.1-0.1,0.1-0.3,0-0.4c0,0,0,0,0,0c-0.2-0.5-1.1-1.5-4.6-2.9l-0.2-0.1c0,0,0,0,0,0c-0.4-0.2-0.7-0.4-0.8-0.8c0,0,0,0,0,0l-3-8.7
		c0,0,0,0,0,0c0,0-0.1,0-0.1-0.1c-0.1,0-0.3,0.1-0.3,0.2C-51.9,33.1-52.4,35.3-52.8,37.4z"/>
</g>
<g>
	<path class="st0" d="M161.1,46.3c-1.1-3.9-2-4.7-2.8-6.9c-5.1-13.8-3.8-18-0.9-25.4c0.2-0.5-0.2-1-0.7-1l-33.4,0
		c-0.5,0-0.9,0.5-0.7,1c1.6,4,2.5,6.4,2.6,11.1c0,4.4-2.9,13.5-4.3,16.1c-2.3,4.4-3.3,9.9-3.3,15c0,4.1,0.5,6.9,1.4,10.1
		c0.1,0.3,0.4,0.5,0.7,0.5h18c0.4,0,0.7-0.3,0.7-0.7v-8c0-0.4,0.3-0.7,0.7-0.7h1.7c0.4,0,0.7,0.3,0.7,0.7v8c0,0.4,0.3,0.7,0.7,0.7
		h18c0.3,0,0.6-0.2,0.7-0.5l0.2-0.6C162.8,59.9,162.8,52.6,161.1,46.3z M142.3,54.3H138c-0.2,0-0.4-0.1-0.6-0.3
		c-3.4-4.4-8.4-7.6-14-8.6c-0.5-0.1-0.7-0.6-0.5-1c0.3-0.7,0.6-1.3,0.8-1.7c0.1-0.2,0.4-0.4,0.6-0.4c3.6,0,27.8,0,31.4,0
		c0.3,0,0.5,0.2,0.6,0.4c0.2,0.4,0.5,0.9,0.8,1.7c0.2,0.4-0.1,0.9-0.5,1C150.9,46.4,145.7,49.8,142.3,54.3L142.3,54.3z M127.8,16.2
		h24.4c0.5,0,0.8,0.5,0.7,1c-0.7,2.2-1.2,4.6-1.2,8c0,3.9,1.6,9.4,2.8,13c0.2,0.5-0.2,1-0.7,1h-27.7c-0.5,0-0.8-0.5-0.7-1
		c1.2-3.6,2.9-9.1,2.8-13c0-3.4-0.5-5.8-1.2-8C127,16.7,127.3,16.2,127.8,16.2z M121.4,63.2c-0.9-4.4-0.9-9.5,0.1-14.2
		c0.1-0.4,0.4-0.6,0.8-0.6c4.9,0.6,9.7,3.5,12.9,7.7c0.1,0.1,0.1,0.3,0.1,0.4V63c0,0.4-0.3,0.7-0.7,0.7h-12.5
		C121.8,63.8,121.5,63.5,121.4,63.2z M158.5,63.8h-13.1c-0.4,0-0.7-0.3-0.7-0.7v-6.4c0-0.2,0.1-0.3,0.1-0.4c3.2-4.2,8-7.1,12.9-7.7
		c0.4,0,0.7,0.2,0.8,0.6C159.6,53.9,159.5,59.2,158.5,63.8L158.5,63.8z"/>
	<path class="st0" d="M140,29.7L140,29.7c0.9,0,1.6,0.7,1.6,1.6v0c0,0.9-0.7,1.6-1.6,1.6l0,0c-0.9,0-1.6-0.7-1.6-1.6v0
		C138.4,30.4,139.1,29.7,140,29.7z"/>
</g>
<g id="Out_line_1_">
	<g>
		<path class="st0" d="M237.1,31.9c-1.6,0-3.3-0.4-4.8-1.1c-0.1,0-0.2-0.1-0.2-0.2c0-0.1,0-0.2,0-0.3l0.9-1.8
			c0.1-0.2,0.3-0.3,0.5-0.2c2.2,1.1,4.8,1.1,7,0c0.2-0.1,0.4,0,0.5,0.2l0.9,1.8c0,0.1,0.1,0.2,0,0.3c0,0.1-0.1,0.2-0.2,0.2
			C240.4,31.5,238.7,31.9,237.1,31.9z"/>
	</g>
	<g>
		<rect x="229.9" y="45" class="st0" width="2.1" height="2.1"/>
	</g>
	<g>
		<path class="st0" d="M235.1,70.3C235.1,70.3,235.1,70.3,235.1,70.3l-2.1-0.2c-0.2,0-0.4-0.2-0.4-0.4c0.2-2.2,0.7-4.3,1.5-6.3
			l0.5-1.3c0.1-0.2,0.3-0.3,0.5-0.2l1.9,0.8c0.2,0.1,0.3,0.3,0.2,0.5l-0.5,1.3c-0.7,1.8-1.2,3.6-1.3,5.5c0,0.1-0.1,0.2-0.1,0.3
			C235.3,70.2,235.2,70.3,235.1,70.3z M234.6,63.5L234.6,63.5L234.6,63.5z"/>
	</g>
	<path class="st0" d="M271.3,35l-2.3-4c-1.3-2.3-3.3-4.3-5.6-5.6c-2.3-1.3-4.1-3.4-5.2-5.8l-0.6-1.3c-0.5-1.3-1.2-2.4-2.1-3.5
		l-1.7-2.2c-1-1.3-2.6-2.1-4.3-2.1c0,0,0,0,0,0h-6.9V8.9c0-0.2-0.2-0.4-0.4-0.4h-2.1c-0.2,0-0.4,0.2-0.4,0.4v2.7l-2.6,4.5
		c-0.8,1.3-1.9,2.5-3.1,3.4c-0.3,0.2-0.7,0.3-1.1,0.3c0,0,0,0,0,0c-1.1,0-1.9-0.9-1.9-1.9c0-0.3,0.1-0.5,0.2-0.8l2-4.6
		c0.1-0.2,0.1-0.4,0.1-0.5c0,0,0,0,0,0V8.9c0-0.2-0.2-0.4-0.4-0.4h-2.1c-0.2,0-0.4,0.2-0.4,0.4v1.7c-1,0-3.7,0-4.4,0c0,0,0,0,0,0
		c-1.1,0-2.3,0.3-3.3,0.8l0,0c-2.3,1.1-3.7,3.3-4,5.8l0,0.1c-0.4,4.5-1.6,8.9-3.4,13l-0.2,0.3c-0.9,1.9-1,4.1-0.4,6.1l4.3,13.9
		c0,0,0,0,0,0c0,0,0,0,0,0l1,3.1c0.2,0.5,0.5,0.8,1,0.9l2,0.5l-4.7,14.2c-0.1,0.2,0,0.4,0.3,0.5l2,0.7c0.1,0,0.2,0,0.3,0
		c0.1,0,0.2-0.1,0.2-0.2l4.2-12.5h24.2c0.9,2,1,4.2,0.5,6.2l0,0.1c-0.7,2.3-0.6,4.8,0.2,7.1c0.1,0.2,0.2,0.3,0.4,0.3
		c0,0,0.1,0,0.1,0l2-0.7c0.1,0,0.2-0.1,0.2-0.2c0-0.1,0.1-0.2,0-0.3c-0.6-1.7-0.6-3.6-0.1-5.4l0-0.1c0.8-2.9,0.5-6-0.8-8.6l-1.1-2.2
		l1.4-0.9c7-4.6,13.3-10.2,18.9-16.4C271.6,36.2,271.6,35.5,271.3,35z M228.7,13.4h1.1l-1.1,2.5c-0.5,1.2-0.6,2.5-0.1,3.7
		c0.5,1.2,1.4,2.1,2.5,2.7c1.5,0.7,3.2,0.5,4.6-0.4c1.7-1.1,3-2.6,4-4.3l2.4-4.2h2.2c-0.1,0.2-0.2,0.3-0.2,0.5
		c-3.6,4.7-2.6,11.4,2.1,15c0.2,0.1,0.4,0.3,0.6,0.4l1.1,0.7l-1.3,3.2h-20.8l-0.6-1.4c1.2-0.2,2.3-0.5,3.4-1c0.1,0,0.2-0.1,0.2-0.2
		c0-0.1,0-0.2,0-0.3l-0.9-1.8c0-0.1-0.1-0.2-0.2-0.2c-0.1,0-0.2,0-0.3,0c-1,0.5-2.2,0.8-3.4,0.8l-0.2-0.5c-0.9-1.9-0.8-4.1,0.2-6
		L228.7,13.4z M248.8,35.1l2-5l0.7-1.6c0.7,0.7,1.2,1.6,1.5,2.5c0.9,2.4,2.7,4.4,4.8,5.7l0.2,0.1c-2.5,2.8-5.3,5.5-8.1,8l-2,1.7l0,0
		l-0.4-1.2c-0.5-1.6-0.6-3.3-0.2-5L248.8,35.1z M221.7,17.5L221.7,17.5c0.1-1.6,1-2.9,2.4-3.6l0,0c0.4-0.2,0.8-0.3,1.3-0.4l-4.1,7.7
		c0,0.1-0.1,0.2-0.1,0.3C221.3,20.1,221.5,18.8,221.7,17.5z M221.2,47.5l-3.6-11.6c-0.4-1.3-0.3-2.8,0.2-4.1c0,0,0,0,0,0l0.2-0.3
		c0.8-1.9,1.5-3.8,2.1-5.7c0,1.3,0.3,2.7,0.8,4l1.1,2.5c-0.5,0.9-1,1.9-1.6,2.7c-0.3,0.4-0.3,0.9-0.1,1.3c1.2,3.1,2.1,6.3,2.6,9.5
		L221.2,47.5z M224.9,52.6l-2.1-0.5l-0.5-1.5l2.5-2.5l1.4,1.4L224.9,52.6z M226.1,44.1l-0.2,1.4c0,0.2-0.1,0.3-0.3,0.3
		c0,0-0.1,0-0.1,0c-0.1,0-0.2,0-0.3-0.1l-0.1-0.1c0,0,0,0-0.1-0.1c-0.1-0.1-0.1-0.2-0.2-0.3c-0.5-3.2-1.4-6.3-2.5-9.3
		c0-0.1,0-0.3,0-0.4c0.2-0.4,0.5-0.8,0.7-1.2c0.1-0.1,0.2-0.2,0.4-0.2c0.2,0,0.3,0.1,0.4,0.2l0.2,0.4c0,0,0,0.1,0,0.1l2,9
		C226.1,44,226.1,44,226.1,44.1z M245.6,36.1l-0.9,3.6c-0.5,2-0.5,4.1,0.1,6l-0.1,0c-0.2-0.1-0.5-0.1-0.7,0l-4.1,1
		c-0.6,0.2-1.1,0.7-1.1,1.4v2.7h-2l1.7-8.6c0-0.2-0.1-0.4-0.3-0.5l-2-0.4c-0.1,0-0.2,0-0.3,0.1c-0.1,0.1-0.2,0.2-0.2,0.3l-1.8,9.2
		h-5.2l0.4-1.1c0.2-0.5,0.1-1.1-0.3-1.5l-1-1l0.4-3c0-0.2,0-0.3,0-0.5l-1.7-7.5H245.6z M227,54.9C227,54.9,227.1,54.8,227,54.9
		l0.5-1.3h11.3c0.2,0.6,0.7,1,1.4,1c0.1,0,0.2,0,0.3,0l4.8-1l2.6,0.6l0.3,0.6H227z M250.7,50.7l-1.5,1l-3.5-0.9c-0.1,0-0.2,0-0.3,0
		c-0.1,0-0.2,0-0.3,0l-3.4,0.7v-2.3l2.7-0.7l3.1,0.8l0.7,1.5c0,0.1,0.1,0.2,0.2,0.2c0.1,0,0.2,0,0.3,0l1.8-0.9
		c0.2-0.1,0.3-0.3,0.2-0.5l-0.5-1.1l1.7-1.5c3.9-3.4,7.5-7.1,10.7-11l0.3-0.4c0.1-0.2,0.1-0.4-0.1-0.6l-1.6-1.3
		c-0.2-0.1-0.4-0.1-0.6,0.1l-0.3,0.4c-0.1,0.2-0.3,0.3-0.4,0.5l-0.7-0.4c-1.6-1-2.9-2.5-3.6-4.3c-0.6-1.5-1.5-2.8-2.6-3.9l-3.7-3.7
		c-0.2-0.2-0.4-0.2-0.6,0l-1.5,1.5c-0.2,0.2-0.2,0.4,0,0.6l1.9,1.9l-0.5,1.1l-0.6-0.4c-2.5-1.6-3.8-4.5-3.5-7.4
		c1,1.3,2.6,2.1,4.3,2.1c0,0,0,0,0,0h1.4c0.2,0,0.4-0.2,0.4-0.4v-2.1c0-0.2-0.2-0.4-0.4-0.4h-1.4c0,0,0,0,0,0c-1.1,0-2-0.6-2.4-1.7
		l0-0.1c-0.3-0.7-0.3-1.4,0-2c0.3-0.6,0.8-1.1,1.4-1.4c0.3-0.1,0.6-0.2,1-0.2h0.5c0,0,0,0,0,0c0.8,0,1.6,0.4,2.1,1l1.7,2.2
		c0.7,0.9,1.3,1.8,1.7,2.8l0.6,1.3c1.3,3,3.6,5.5,6.4,7.2c1.9,1.1,3.5,2.7,4.6,4.6l1.8,3.1C263.1,41.3,257.2,46.4,250.7,50.7z"/>
</g>
</svg>
