<svg id="Layer_1" data-name="Layer 1" xmlns="http://www.w3.org/2000/svg" viewBox="0 0 88.7 39.29"><defs><style>.cls-1{fill:#fff;}</style></defs><g id="Group_11824" data-name="Group 11824"><path id="Fill_1" data-name="Fill 1" class="cls-1" d="M7.18,17v19.8H18.11V35.42H8.74V17Z" transform="translate(-7.18 -9.97)"/><path id="Fill_2" data-name="Fill 2" class="cls-1" d="M22.19,36.77h1.59V17H22.19Z" transform="translate(-7.18 -9.97)"/><path id="Fill_3" data-name="Fill 3" class="cls-1" d="M29.42,17v19.8H40.35V35.42H31V17Z" transform="translate(-7.18 -9.97)"/><path id="Fill_4" data-name="Fill 4" class="cls-1" d="M44.31,17v19.8H55.24V35.42H45.87V17Z" transform="translate(-7.18 -9.97)"/><path id="Fill_5" data-name="Fill 5" class="cls-1" d="M69.33,17l-6.57,12.1L56.15,17H54.44l7.49,13.62v6.18h1.59l0-6.22L70.92,17Z" transform="translate(-7.18 -9.97)"/><path id="Fill_6" data-name="Fill 6" class="cls-1" d="M7.38,40.47h3.05v.4H7.86v1.72h2.3V43H7.86v1.76h2.68v.4H7.38Z" transform="translate(-7.18 -9.97)"/><path id="Fill_7" data-name="Fill 7" class="cls-1" d="M15.27,44.05a1.45,1.45,0,0,0,1.33.73c.69,0,1.1-.31,1.1-.8s-.35-.74-1-1l-.41-.17c-.72-.32-1.17-.63-1.17-1.28a1.18,1.18,0,0,1,1.25-1.12h.08a1.55,1.55,0,0,1,1.4.69l-.38.22a1.07,1.07,0,0,0-1-.51c-.51,0-.85.29-.85.7s.27.62.89.89l.4.18c.81.35,1.25.69,1.25,1.39s-.63,1.22-1.58,1.22a1.9,1.9,0,0,1-1.74-.94Z" transform="translate(-7.18 -9.97)"/><path id="Fill_9" data-name="Fill 9" class="cls-1" d="M23.83,40.87H22.26v-.4h3.62v.4H24.31v4.26h-.48Z" transform="translate(-7.18 -9.97)"/><path id="Path" class="cls-1" d="M32.26,39.11h.51l-.56,1h-.37Z" transform="translate(-7.18 -9.97)"/><path id="Path-2" class="cls-1" d="M30.43,40.47h3.06v.4H30.92v1.72h2.29V43H30.92v1.76h2.67v.4H30.43Z" transform="translate(-7.18 -9.97)"/><path id="Fill_13" data-name="Fill 13" class="cls-1" d="M39.45,40.87H37.88v-.4H41.5v.4H39.94v4.26h-.49Z" transform="translate(-7.18 -9.97)"/><path id="Fill_15" data-name="Fill 15" class="cls-1" d="M46.09,45.13h.49V40.47h-.49Z" transform="translate(-7.18 -9.97)"/><path id="Fill_17" data-name="Fill 17" class="cls-1" d="M51.29,42.8a2.42,2.42,0,0,1,2.46-2.39h.1a2.48,2.48,0,0,1,2,.88l-.37.24a2,2,0,0,0-1.62-.71A2,2,0,0,0,51.8,42.7v.1a2,2,0,0,0,2,2h.11A2.13,2.13,0,0,0,55.61,44l.38.25a2.66,2.66,0,0,1-2.12.93,2.42,2.42,0,0,1-2.57-2.27.49.49,0,0,1,0-.12" transform="translate(-7.18 -9.97)"/><path id="Fill_18" data-name="Fill 18" class="cls-1" d="M60.61,45.13h-.49l2.13-4.77h0l2.14,4.77h-.51L63.41,44h-2.3Zm1.65-3.76-1,2.21h1.94Z" transform="translate(-7.18 -9.97)"/><path id="Fill_19" data-name="Fill 19" class="cls-1" d="M84.79,49.26h-.05a11.15,11.15,0,0,1-3.37-1.83,7.67,7.67,0,0,1-2.37-3,7.08,7.08,0,0,1-.43-3.86,9.86,9.86,0,0,1,.3-1.33l-.06,0h0l-.13-.08c-.8-.53-1.65-1-2.62-1.56l-.14-.07h0c-.4-.21-.81-.43-1.21-.67a11.62,11.62,0,0,1-1.29-.92,7.11,7.11,0,0,1-2-2.53,5.11,5.11,0,0,1-.42-1.6,5.32,5.32,0,0,1,.1-1.64,7.73,7.73,0,0,1,1.33-2.88,12.79,12.79,0,0,1,2.11-2.3.11.11,0,0,1,.09,0,.12.12,0,0,1,.09,0,7.6,7.6,0,0,1,.94,1,10.92,10.92,0,0,1,.75,1.16,6.93,6.93,0,0,1,.88,2.64,7.94,7.94,0,0,1-.16,2.79,9.21,9.21,0,0,1-.4,1.33l-.16.4h0a2.29,2.29,0,0,0-.1.23l-.3.6h0a.11.11,0,0,1-.09.06.11.11,0,0,1-.09-.11v0l.24-.63a1.18,1.18,0,0,1,.07-.2v0h0c.05-.14.09-.27.13-.4a11.69,11.69,0,0,0,.31-1.3,8.73,8.73,0,0,0,.08-2.65,8.06,8.06,0,0,0-.7-2.55,6,6,0,0,0-1.48-2,11.46,11.46,0,0,0-1,1,10.59,10.59,0,0,0-.88,1.23,7.36,7.36,0,0,0-1.08,2.75,4.69,4.69,0,0,0,.4,2.81,7.11,7.11,0,0,0,1.82,2.25,12.7,12.7,0,0,0,1.19.89c.19.12.41.27.64.4l.66.4c.95.59,1.78,1.16,2.55,1.75l.07.05h0a13.23,13.23,0,0,1,.81-1.9,15.52,15.52,0,0,1,1-1.67c.17-.27.35-.53.54-.8l.57-.77a3.41,3.41,0,0,0,.25-.37.91.91,0,0,1-.23,0,1.26,1.26,0,0,1-.33,0,1.56,1.56,0,0,1-.54-.25,2.6,2.6,0,0,1-.43-.38A6,6,0,0,1,80,31.7a14.39,14.39,0,0,1-1-1.87,19.24,19.24,0,0,1-.74-2,20.08,20.08,0,0,1-.55-2,16.06,16.06,0,0,1-.32-2.08,8.36,8.36,0,0,1,.09-2.12,3.55,3.55,0,0,1,.35-1,2,2,0,0,1,.76-.82,2.75,2.75,0,0,1,.51-.21c.15,0,.32-.1.49-.17s.59-.22.94-.37c.19-.08.35-.16.5-.24l-.22,0a1.06,1.06,0,0,1-1-.59l-.1-.24h0l0-.09q-.07-.16-.15-.3a2.69,2.69,0,0,0-.2-.27,1.42,1.42,0,0,0-.22-.2h0A.27.27,0,0,1,79.1,17l-.25-.79a1.4,1.4,0,0,1-.26-.16,1,1,0,0,1-.28-.32.53.53,0,0,1,0-.49.61.61,0,0,1,.07-.1h0l0,0a.64.64,0,0,0,.08-.14,1.4,1.4,0,0,0,.15-.3.73.73,0,0,0,0-.3.92.92,0,0,0,0-.28,1,1,0,0,0-.14-.22,3,3,0,0,1-.41-.64,2.5,2.5,0,0,1-.2-1.08,3.91,3.91,0,0,1,.15-1.08,6.11,6.11,0,0,1,.37-1,.18.18,0,0,1,.15-.1l.08,0a.19.19,0,0,1,.1.14,2.75,2.75,0,0,0,.3,1,2.88,2.88,0,0,0,.61.82,3.57,3.57,0,0,0,.78.5l.09.05a4.11,4.11,0,0,0,1,.33s.08,0,.07.06v.05h0a4.25,4.25,0,0,1-1.07-.23,2.91,2.91,0,0,1-1-.55,3,3,0,0,1-.72-.87,3.11,3.11,0,0,1-.22-.53,4.79,4.79,0,0,0-.29,1.44,2.83,2.83,0,0,0,.14,1,4.19,4.19,0,0,0,.55.84h0a1.55,1.55,0,0,1,0,.71l0,.09a1.51,1.51,0,0,1-.14.35l-.09.17-.05.06h0l0,.06a.21.21,0,0,0,0,.19,1,1,0,0,0,.47.35.18.18,0,0,1,.1.11l.26.8a1.36,1.36,0,0,1,.24.24,2.2,2.2,0,0,1,.21.32,2.07,2.07,0,0,1,.15.34l0,.09a1.55,1.55,0,0,0,.08.23.84.84,0,0,0,.43.42.87.87,0,0,0,.32.06,1.54,1.54,0,0,0,.3,0,3,3,0,0,0,1.21-.62,3.69,3.69,0,0,0,.41-.38L83,17.3a2.64,2.64,0,0,0,.23-.44,1.12,1.12,0,0,0,.06-.48v0l0,0h0a.07.07,0,0,1,.07.05,1.29,1.29,0,0,1,0,.55,2.38,2.38,0,0,1-.22.49,3.56,3.56,0,0,1-.7.8,8.08,8.08,0,0,1-1.76,1.12c-.36.17-.67.3-1,.41l-.48.19a1.89,1.89,0,0,0-.44.19,1.74,1.74,0,0,0-.6.69,3.27,3.27,0,0,0-.28.92,7.88,7.88,0,0,0,0,2,16.89,16.89,0,0,0,.35,2,24.18,24.18,0,0,0,1.26,3.89,14.58,14.58,0,0,0,.91,1.81,6.52,6.52,0,0,0,.58.8,1.93,1.93,0,0,0,.33.31,1.23,1.23,0,0,0,.38.19.62.62,0,0,0,.23,0,1,1,0,0,0,.55-.19c.08-.2.16-.4.22-.6a6.1,6.1,0,0,0,.23-1.8,9.34,9.34,0,0,0-1-3.59,13.4,13.4,0,0,0-.93-1.65A13.71,13.71,0,0,0,80,23.43a.13.13,0,0,1,0-.18h0a.11.11,0,0,1,.08,0h.06a9.65,9.65,0,0,1,1.7,1.2A7.72,7.72,0,0,1,83.18,26a7,7,0,0,1,.5.93A6.27,6.27,0,0,1,84,28a6.06,6.06,0,0,1,.13,2.12,6.76,6.76,0,0,1-.4,1.53,9.91,9.91,0,0,1-1.27,2.21l0,0-.06.09-.19.27c-.28.39-.61.83-.9,1.28s-.69,1.09-1,1.61a15.83,15.83,0,0,0-.89,2c.28.22.5.41.7.58.37.33.77.69,1.12,1.07a8.17,8.17,0,0,1,1,1.21,4.7,4.7,0,0,1,.39.69,3.29,3.29,0,0,1,.2.61,32.75,32.75,0,0,0,5-2.4c0-.19,0-.38-.07-.55a9.7,9.7,0,0,0-.49-1.83c-.1-.27-.21-.56-.35-.88s-.14-.33-.21-.5h0l0,0-.15-.34a13.72,13.72,0,0,1-.65-1.9,8.45,8.45,0,0,1-.14-4,6.78,6.78,0,0,1,2-3.47,8.23,8.23,0,0,1,3.44-1.88A11.25,11.25,0,0,1,93.14,25c.41,0,.83-.06,1.25-.07.24,0,.48,0,.7,0a.19.19,0,0,1,.17.19h0a.13.13,0,0,1,0,.08v0a1.66,1.66,0,0,0-.12.31,1.42,1.42,0,0,0,0,.16v0a1.13,1.13,0,0,0,0,.18,4.78,4.78,0,0,0-.08.75,9.86,9.86,0,0,0,.12,1.53l.06.38.07.38c0,.22.1.43.15.64l0,.11c0,.21.1.4.17.61v.05c.08.28.17.56.23.88A5.57,5.57,0,0,1,95.85,33a6.06,6.06,0,0,1-.43,1.62,8.5,8.5,0,0,1-1.8,2.71,15.09,15.09,0,0,1-2.43,2.08A25.49,25.49,0,0,1,88.5,41l0,0a5.28,5.28,0,0,1-.9,3.06c-.26.39-.54.76-.81,1.12l-.35.46a8.68,8.68,0,0,0-1,1.62,6.11,6.11,0,0,0-.48,1.83.24.24,0,0,1-.06.11A.14.14,0,0,1,84.79,49.26ZM79.3,39.48A11.34,11.34,0,0,0,79,40.59a6.74,6.74,0,0,0,.28,3.67,6.65,6.65,0,0,0,.92,1.62,8.3,8.3,0,0,0,1.32,1.33,10.92,10.92,0,0,0,1.58,1,10.54,10.54,0,0,0,1.54.67,6.63,6.63,0,0,1,.45-1.75,8.55,8.55,0,0,1,1-1.72c.11-.17.23-.33.34-.48.24-.34.52-.73.75-1.12a5,5,0,0,0,.67-1.71,5.27,5.27,0,0,0,.07-.79c-.69.35-1.42.7-2.22,1.05-.47.21-1,.42-1.45.61s-1,.38-1.47.56h0a.14.14,0,0,1-.13-.1.06.06,0,0,1,0,0,1,1,0,0,0-.06-.34,2.06,2.06,0,0,0-.12-.35,5.19,5.19,0,0,0-.37-.65,8.27,8.27,0,0,0-1-1.15A14.33,14.33,0,0,0,79.3,39.48ZM94,25.28a10.08,10.08,0,0,0-2.68.37,6.61,6.61,0,0,0-4.8,5.25,8.56,8.56,0,0,0,.15,3.7,14.61,14.61,0,0,0,.6,1.8l.16.37v0c.07.16.14.34.21.51.14.34.24.64.34.93a11,11,0,0,1,.46,2q0,.16,0,.3a20.29,20.29,0,0,0,4.63-3.72,8.51,8.51,0,0,0,1.62-2.51,5.65,5.65,0,0,0,.38-1.41,5.48,5.48,0,0,0,0-1.46c0-.24-.1-.51-.16-.76s-.11-.51-.16-.77v-.1c0-.21-.09-.45-.12-.68l0-.4,0-.4a9.74,9.74,0,0,1,0-1.62,5.69,5.69,0,0,1,.13-.81,1.46,1.46,0,0,1,0-.2.93.93,0,0,1,.07-.2.89.89,0,0,1,.05-.13c-.27,0-.54,0-.82,0ZM80.61,23.8h0a15.51,15.51,0,0,1,1.71,2.62,9.25,9.25,0,0,1,1.13,3.73,5.78,5.78,0,0,1,0,1.1A4.74,4.74,0,0,0,83.75,30a5.84,5.84,0,0,0-.07-2,5.34,5.34,0,0,0-.3-1,6.36,6.36,0,0,0-.46-.9,7.09,7.09,0,0,0-1.29-1.55A7.88,7.88,0,0,0,80.61,23.8Z" transform="translate(-7.18 -9.97)"/></g></svg>