<svg xmlns="http://www.w3.org/2000/svg" width="153" height="140" viewBox="0 0 153 140">
  <g id="Group_11777" data-name="Group 11777" transform="translate(-165 -1518)">
    <circle id="Ellipse_550" data-name="Ellipse 550" cx="70" cy="70" r="70" transform="translate(165 1518)" fill="#fff"/>
    <g id="Beauty_Leg_Skin_Care" data-name="Beauty Leg Skin Care" transform="translate(185.644 1495)">
      <g id="Outline" transform="translate(0 56)">
        <path id="Path_1297" data-name="Path 1297" d="M37.689,147.044c7.079-6.807,14.672-14.318,18.568-18.189a7.754,7.754,0,0,1,5.5-2.267.008.008,0,0,0,.008-.008h0a.008.008,0,0,1,0,.008,1.979,1.979,0,0,1,.237.03,18.774,18.774,0,0,1,2.389.636c.445.145.87.3,1.2.428.165.066.308.128.415.181.046.021.091.044.125.064l.036.02.007,0,1.567,1a1.322,1.322,0,0,0,.2.13l14.385,9.165a1.318,1.318,0,1,0,1.417-2.224l-14.144-9.008-2.474-6.185a1.318,1.318,0,0,0-2.447.979l1.279,3.2c-.477-.172-1.015-.348-1.592-.517-.524-.153-1-.277-1.405-.366a5.819,5.819,0,0,0-1.2-.168,10.429,10.429,0,0,0-7.357,3.035c-3.883,3.858-11.454,11.347-18.535,18.158l-7.619,7.222-.027.025c-2.191,2.035-3.992,3.659-5.354,4.827a19,19,0,0,1-3.1,1.962c-2.1,1.127-4.624,2.262-6.372,3.016-1.013.437-1.86.787-2.392,1-.357.147-.633.257-.8.323l-9.072,1.3A1.316,1.316,0,0,0,0,166.125a5.31,5.31,0,0,0,3.222,4.886l1.664.713a14.445,14.445,0,0,0,11.164.091,8.548,8.548,0,0,1,4.1.39,13.959,13.959,0,0,0,4.377.878,5.378,5.378,0,0,0,2.423-.507,5.789,5.789,0,0,0,1.988-1.6,9.467,9.467,0,0,0,1.5-3.222c.125-.42.244-.848.369-1.3.222-.807.451-1.642.755-2.55a2.551,2.551,0,0,1,.716-.937,18.591,18.591,0,0,1,3.773-2.446c1.354-.722,2.89-1.46,4.516-2.24,1.333-.641,2.71-1.3,4.053-1.988a31.907,31.907,0,0,0,7.71-5.051,24.349,24.349,0,0,0,2.107-2.542c2.262-3.02,5.12-7.43,6.623-9.791a1,1,0,0,1,1.7.033,88.109,88.109,0,0,0,8.525,10.919c3.007,3.438,6.637,7.384,10.791,11.73A1.318,1.318,0,0,0,84.01,159.8l-.029-.031h0c-4.119-4.31-7.723-8.227-10.71-11.644a91.089,91.089,0,0,1-8.253-10.547,3.69,3.69,0,0,0-1.323-1.29,3.628,3.628,0,0,0-4.86,1.208c-.824,1.293-2.451,3.825-4.112,6.252-.9,1.321-1.708,2.455-2.4,3.372a22.874,22.874,0,0,1-1.862,2.257,22.97,22.97,0,0,1-5.039,3.506c-1.863,1.033-3.944,2.033-5.954,3-1.375.661-2.674,1.285-3.9,1.916a30.474,30.474,0,0,0-4.053,2.394,6.322,6.322,0,0,0-2.456,2.88c-.338,1.016-.592,1.941-.815,2.756-.231.834-.428,1.553-.651,2.14a4.974,4.974,0,0,1-.727,1.374,3.089,3.089,0,0,1-1.1.875,2.8,2.8,0,0,1-1.226.231H24.5a11.9,11.9,0,0,1-3.478-.73,11.16,11.16,0,0,0-5.547-.479,1.5,1.5,0,0,0-.3.086,11.812,11.812,0,0,1-9.25-.021l-1.664-.715a2.667,2.667,0,0,1-1.385-1.354l7.853-1.122a1.292,1.292,0,0,0,.3-.079h0c.267-.105,2.694-1.069,5.514-2.349,1.722-.779,3.224-1.514,4.468-2.181a20.746,20.746,0,0,0,3.57-2.285c1.385-1.188,3.212-2.835,5.431-4.9Z" transform="translate(0 -109.455)" fill="#fdd5d4" stroke="#fdd5d4" stroke-width="1"/>
        <path id="Path_1298" data-name="Path 1298" d="M321.318,70.5a1.318,1.318,0,0,0,1.318-1.318V66.543c0-4.877,3.208-7.908,8.372-7.908a7.729,7.729,0,0,1,6.186,3.094l12.064,16.085a1.318,1.318,0,0,0,2.109-1.582L339.3,60.148A10.366,10.366,0,0,0,331.008,56C324.424,56,320,60.237,320,66.543v2.636A1.318,1.318,0,0,0,321.318,70.5Z" transform="translate(-267.283 -56)" fill="#fdd5d4" stroke="#fdd5d4" stroke-width="1"/>
        <path id="Path_1299" data-name="Path 1299" d="M298.448,265.318a1.318,1.318,0,0,0-2.636,0v6.59a1.317,1.317,0,0,0,.386.932l.19.188c2.753,2.724,4.15,4.815,4.154,6.215a1.255,1.255,0,0,1-.391.958,11.877,11.877,0,0,1-2.237,1.733,14.454,14.454,0,0,0-2.677,2.088,24.457,24.457,0,0,0-2.829,3.765,24.781,24.781,0,0,1-2.763,3.69,5.533,5.533,0,0,1-6.081,1.129l2.634-2.634a1.314,1.314,0,0,0,.3-.472l3.954-10.609a1.318,1.318,0,0,0,.082-.46v-3.887a1.318,1.318,0,0,0-2.636,0v3.65l-3.771,10.118-3.751,3.751a1.318,1.318,0,0,0,.254,2.062,10.513,10.513,0,0,0,5.3,1.557,7.681,7.681,0,0,0,5.572-2.34,26.5,26.5,0,0,0,3.1-4.1,22.8,22.8,0,0,1,2.493-3.354,11.875,11.875,0,0,1,2.237-1.734,14.45,14.45,0,0,0,2.677-2.088,3.9,3.9,0,0,0,1.163-2.828c-.007-2.781-2.643-5.789-4.73-7.877Z" transform="translate(-233.87 -229.734)" fill="#fdd5d4" stroke="#fdd5d4" stroke-width="1"/>
      </g>
    </g>
    <g id="Group_11762" data-name="Group 11762" transform="translate(13 -309)">
      <circle id="Ellipse_558" data-name="Ellipse 558" cx="17.5" cy="17.5" r="17.5" transform="translate(270 1878)" fill="#e2e2e2"/>
      <path id="Path_1308" data-name="Path 1308" d="M2513.42,2086.5l6.427,6.427,11.179-11.179" transform="translate(-2234.92 -192.249)" fill="none" stroke="#fff" stroke-width="4"/>
    </g>
  </g>
</svg>
