<svg width="65" height="36" viewBox="0 0 65 36" fill="none" xmlns="http://www.w3.org/2000/svg">
<path d="M0.919423 32.4201C0.919423 32.5146 0.995058 32.5997 1.09906 32.5997H4.88079C4.98479 32.5997 5.06043 32.5146 5.06043 32.4201V31.9001C5.06043 31.8056 4.98479 31.7205 4.88079 31.7205H1.89322V29.6878H4.41753C4.51207 29.6878 4.59716 29.6122 4.59716 29.5082V28.9787C4.59716 28.8842 4.51207 28.7991 4.41753 28.7991H1.89322V26.8704H4.88079C4.98479 26.8704 5.06043 26.7853 5.06043 26.6908V26.1613C5.06043 26.0668 4.98479 25.9817 4.88079 25.9817H1.09906C0.995058 25.9817 0.919423 26.0668 0.919423 26.1613V32.4201ZM8.95436 31.9474C9.10563 32.0892 9.83361 32.6943 10.987 32.6943C12.2161 32.6943 13.0954 31.8907 13.0954 30.9074C13.0954 29.754 12.1594 29.234 11.0627 28.7896C10.278 28.4682 9.86198 28.1373 9.86198 27.5984C9.86198 27.2486 10.1362 26.7475 10.9303 26.7475C11.4787 26.7475 12.1405 27.1824 12.2067 27.2202C12.339 27.3053 12.4619 27.2486 12.5376 27.1257C12.6132 27.0122 12.6983 26.8799 12.7739 26.7664C12.8685 26.6246 12.7928 26.4922 12.7172 26.445C12.6226 26.3788 11.9136 25.8871 10.9681 25.8871C9.4649 25.8871 8.89763 26.8988 8.89763 27.6362C8.89763 28.7329 9.65398 29.234 10.6183 29.6405C11.5543 30.0281 12.0459 30.3874 12.0459 30.9547C12.0459 31.4368 11.6299 31.8339 10.9776 31.8339C10.2496 31.8339 9.52162 31.2289 9.4649 31.1816C9.3609 31.0965 9.22854 31.1343 9.14345 31.2572C9.05836 31.3801 8.98272 31.5219 8.89763 31.6448C8.80309 31.8056 8.86927 31.8717 8.95436 31.9474ZM18.145 32.4201C18.145 32.5146 18.2301 32.5997 18.3247 32.5997H18.9486C19.0432 32.5997 19.1283 32.5146 19.1283 32.4201V26.8704H20.6693C20.7733 26.8704 20.849 26.7853 20.849 26.6908V26.1613C20.849 26.0668 20.7733 25.9817 20.6693 25.9817H16.604C16.5 25.9817 16.4243 26.0668 16.4243 26.1613V26.6908C16.4243 26.7853 16.5 26.8704 16.604 26.8704H18.145V32.4201ZM24.7085 32.4201C24.7085 32.5146 24.7842 32.5997 24.8882 32.5997H28.6699C28.7739 32.5997 28.8496 32.5146 28.8496 32.4201V31.9001C28.8496 31.8056 28.7739 31.7205 28.6699 31.7205H25.6823V29.6878H28.2067C28.3012 29.6878 28.3863 29.6122 28.3863 29.5082V28.9787C28.3863 28.8842 28.3012 28.7991 28.2067 28.7991H25.6823V26.8704H28.6699C28.7739 26.8704 28.8496 26.7853 28.8496 26.6908V26.1613C28.8496 26.0668 28.7739 25.9817 28.6699 25.9817H24.8882C24.7842 25.9817 24.7085 26.0668 24.7085 26.1613V32.4201ZM26.1078 25.2821L27.6961 24.6014C27.7718 24.5635 27.8096 24.469 27.7528 24.3745L27.5354 23.9585C27.4881 23.8734 27.3463 23.8923 27.2896 23.9301L25.8053 24.7904C25.758 24.8188 25.7107 24.8944 25.7485 24.9701L25.8809 25.2348C25.9187 25.3199 25.9849 25.3388 26.1078 25.2821ZM34.0198 32.4201C34.0198 32.5146 34.1049 32.5997 34.1995 32.5997H34.8234C34.918 32.5997 35.0031 32.5146 35.0031 32.4201V26.8704H36.5441C36.6481 26.8704 36.7238 26.7853 36.7238 26.6908V26.1613C36.7238 26.0668 36.6481 25.9817 36.5441 25.9817H32.4788C32.3748 25.9817 32.2991 26.0668 32.2991 26.1613V26.6908C32.2991 26.7853 32.3748 26.8704 32.4788 26.8704H34.0198V32.4201ZM40.5834 32.4201C40.5834 32.5146 40.6684 32.5997 40.763 32.5997H41.387C41.4815 32.5997 41.5666 32.5146 41.5666 32.4201V26.1613C41.5666 26.0668 41.4815 25.9817 41.387 25.9817H40.763C40.6684 25.9817 40.5834 26.0668 40.5834 26.1613V32.4201ZM45.7535 29.3002C45.7535 31.191 47.2756 32.6943 49.1665 32.6943C50.0079 32.6943 50.821 32.4012 51.4639 31.7772C51.5301 31.711 51.549 31.5881 51.4734 31.5219L51.0385 31.0965C50.9817 31.0492 50.8966 31.0398 50.8116 31.1059C50.3577 31.4558 49.8756 31.7299 49.1854 31.7299C47.8334 31.7299 46.8029 30.6049 46.8029 29.2813C46.8029 27.9576 47.824 26.8231 49.176 26.8231C49.7621 26.8231 50.3672 27.0689 50.8116 27.4566C50.8966 27.5417 50.9817 27.5417 51.0479 27.4566L51.4639 27.0311C51.5395 26.9555 51.5395 26.842 51.4545 26.7664C50.8116 26.2086 50.1214 25.8871 49.1665 25.8871C47.2756 25.8871 45.7535 27.4093 45.7535 29.3002ZM54.9269 32.5997H55.5225C55.636 32.5997 55.7116 32.5241 55.74 32.4579C55.9291 32.023 56.1276 31.5976 56.3167 31.1627H59.4083L59.9945 32.4579C60.0323 32.543 60.0985 32.5997 60.2119 32.5997H60.8075C60.9493 32.5997 61.025 32.4768 60.9683 32.3539L58.0847 25.9911C58.0563 25.9344 57.9712 25.8871 57.924 25.8871H57.8294C57.7821 25.8871 57.697 25.9344 57.6687 25.9911L54.7662 32.3539C54.7095 32.4768 54.7851 32.5997 54.9269 32.5997ZM56.6854 30.3496L57.8389 27.7591H57.8861L59.049 30.3496H56.6854Z" fill="black" fill-opacity="0.66"/>
<g clip-path="url(#clip0_1114_258)">
<path d="M36.9708 18.8259H31.3873C29.6172 18.8259 28.1761 17.4209 28.1761 15.698V0.338867H25.8066V15.698C25.8066 18.6981 28.3099 21.1384 31.3873 21.1384H36.9708V18.8286V18.8259Z" fill="black" fill-opacity="0.66"/>
<path d="M50.504 18.8259H44.9205C43.1504 18.8259 41.7093 17.4209 41.7093 15.698V0.338867H39.3398V15.698C39.3398 18.6981 41.8431 21.1384 44.9205 21.1384H50.504V18.8286V18.8259Z" fill="black" fill-opacity="0.66"/>
<path d="M55.2116 12.2523V14.2469V21.1384H57.5448L57.5393 14.2469V12.2523C57.5448 10.9941 57.9295 9.78209 58.6487 8.74945L64.5165 0.338867H61.6899L56.7392 7.42876C56.6082 7.61627 56.4883 7.80649 56.3741 8.00215C56.2598 7.80649 56.1399 7.61627 56.0089 7.42876L51.061 0.338867H48.2344L54.105 8.74945C54.827 9.78209 55.2089 10.9941 55.2116 12.2523Z" fill="black" fill-opacity="0.66"/>
<path d="M18.5589 0.338867H16.1895V21.1384H18.5589V0.338867Z" fill="black" fill-opacity="0.66"/>
<path d="M11.3927 18.8259H5.80922C4.03911 18.8259 2.59794 17.4209 2.59794 15.698V0.338867H0.228516V15.698C0.228516 18.6981 2.73175 21.1384 5.80922 21.1384H11.3927V18.8286V18.8259Z" fill="black" fill-opacity="0.66"/>
</g>
<defs>
<clipPath id="clip0_1114_258">
<rect width="64.2895" height="20.7996" fill="white" transform="translate(0.228516 0.338867)"/>
</clipPath>
</defs>
</svg>
