<?xml version="1.0" encoding="utf-8"?>
<!-- Generator: Adobe Illustrator 25.2.1, SVG Export Plug-In . SVG Version: 6.00 Build 0)  -->
<svg version="1.1" id="Layer_1" xmlns="http://www.w3.org/2000/svg" xmlns:xlink="http://www.w3.org/1999/xlink" x="0px" y="0px"
	 viewBox="0 0 120 110" style="enable-background:new 0 0 120 110;" xml:space="preserve">
<style type="text/css">
	.st0{fill:#1F50A1;}
	.st1{fill:#2BA053;}
	.st2{fill:#FFFFFF;}
	.st3{fill:#CAD3D8;}
	.st4{fill:#89A6C8;}
	.st5{fill:#E1E4E6;}
</style>
<g>
	<circle class="st2" cx="53.9" cy="55" r="49.9"/>
	<circle class="st5" cx="102.5" cy="55" r="13.5"/>
	<polygon class="st2" points="100.2,61.6 94.1,55.5 96.5,53.1 100.2,56.7 108,48.9 110.4,51.3 	"/>
	<g id="Out_line_14_">
		<g>
			<path class="st4" d="M51.1,45.9c-1.6,0-3.3-0.4-4.8-1.1c-0.1,0-0.2-0.1-0.2-0.2c0-0.1,0-0.2,0-0.3l0.9-1.8
				c0.1-0.2,0.3-0.3,0.5-0.2c2.2,1.1,4.8,1.1,7,0c0.2-0.1,0.4,0,0.5,0.2l0.9,1.8c0,0.1,0.1,0.2,0,0.3c0,0.1-0.1,0.2-0.2,0.2
				C54.4,45.5,52.8,45.9,51.1,45.9z"/>
		</g>
		<g>
			<rect x="43.9" y="59" class="st4" width="2.1" height="2.1"/>
		</g>
		<g>
			<path class="st4" d="M49.2,84.3C49.1,84.3,49.1,84.3,49.2,84.3l-2.1-0.2c-0.2,0-0.4-0.2-0.4-0.4c0.2-2.2,0.7-4.3,1.5-6.3l0.5-1.3
				c0.1-0.2,0.3-0.3,0.5-0.2l1.9,0.8c0.2,0.1,0.3,0.3,0.2,0.5l-0.5,1.3c-0.7,1.8-1.2,3.6-1.3,5.5c0,0.1-0.1,0.2-0.1,0.3
				C49.3,84.2,49.2,84.3,49.2,84.3z M48.6,77.5L48.6,77.5L48.6,77.5z"/>
		</g>
		<path class="st4" d="M85.4,49l-2.3-4c-1.3-2.3-3.3-4.3-5.6-5.6c-2.3-1.3-4.1-3.4-5.2-5.8l-0.6-1.3c-0.5-1.3-1.2-2.4-2.1-3.5
			l-1.7-2.2c-1-1.3-2.6-2.1-4.3-2.1c0,0,0,0,0,0h-6.9v-1.7c0-0.2-0.2-0.4-0.4-0.4h-2.1c-0.2,0-0.4,0.2-0.4,0.4v2.7l-2.6,4.5
			c-0.8,1.3-1.9,2.5-3.1,3.4c-0.3,0.2-0.7,0.3-1.1,0.3c0,0,0,0,0,0c-1.1,0-1.9-0.9-1.9-1.9c0-0.3,0.1-0.5,0.2-0.8l2-4.6
			c0.1-0.2,0.1-0.4,0.1-0.5c0,0,0,0,0,0v-3.1c0-0.2-0.2-0.4-0.4-0.4h-2.1c-0.2,0-0.4,0.2-0.4,0.4v1.7c-1,0-3.7,0-4.4,0c0,0,0,0,0,0
			c-1.1,0-2.3,0.3-3.3,0.8l0,0c-2.3,1.1-3.7,3.3-4,5.8l0,0.1c-0.4,4.5-1.6,8.9-3.4,13l-0.2,0.3c-0.9,1.9-1,4.1-0.4,6.1l4.3,13.9
			c0,0,0,0,0,0c0,0,0,0,0,0l1,3.1c0.2,0.5,0.5,0.8,1,0.9l2,0.5l-4.7,14.2c-0.1,0.2,0,0.4,0.3,0.5l2,0.7c0.1,0,0.2,0,0.3,0
			c0.1,0,0.2-0.1,0.2-0.2l4.2-12.5h24.2c0.9,2,1,4.2,0.5,6.2l0,0.1c-0.7,2.3-0.6,4.8,0.2,7.1c0.1,0.2,0.2,0.3,0.4,0.3
			c0,0,0.1,0,0.1,0l2-0.7c0.1,0,0.2-0.1,0.2-0.2c0-0.1,0.1-0.2,0-0.3c-0.6-1.7-0.6-3.6-0.1-5.4l0-0.1c0.8-2.9,0.5-6-0.8-8.6L65,68
			l1.4-0.9c7-4.6,13.3-10.2,18.9-16.4C85.6,50.2,85.7,49.5,85.4,49z M42.7,27.4h1.1l-1.1,2.5c-0.5,1.2-0.6,2.5-0.1,3.7
			c0.5,1.2,1.4,2.1,2.5,2.7c1.5,0.7,3.2,0.5,4.6-0.4c1.7-1.1,3-2.6,4-4.3l2.4-4.2h2.2c-0.1,0.2-0.2,0.3-0.2,0.5
			c-3.6,4.7-2.6,11.4,2.1,15c0.2,0.1,0.4,0.3,0.6,0.4l1.1,0.7l-1.3,3.2H39.7l-0.6-1.4c1.2-0.2,2.3-0.5,3.4-1c0.1,0,0.2-0.1,0.2-0.2
			c0-0.1,0-0.2,0-0.3l-0.9-1.8c0-0.1-0.1-0.2-0.2-0.2c-0.1,0-0.2,0-0.3,0c-1,0.5-2.2,0.8-3.4,0.8l-0.2-0.5c-0.9-1.9-0.8-4.1,0.2-6
			L42.7,27.4z M62.8,49.1l2-5l0.7-1.6c0.7,0.7,1.2,1.6,1.5,2.5c0.9,2.4,2.7,4.4,4.8,5.7l0.2,0.1c-2.5,2.8-5.3,5.5-8.1,8l-2,1.7l0,0
			l-0.4-1.2c-0.5-1.6-0.6-3.3-0.2-5L62.8,49.1z M35.7,31.5L35.7,31.5c0.1-1.6,1-2.9,2.4-3.6l0,0c0.4-0.2,0.8-0.3,1.3-0.4l-4.1,7.7
			c0,0.1-0.1,0.2-0.1,0.3C35.4,34.1,35.6,32.8,35.7,31.5z M35.3,61.4l-3.6-11.6c-0.4-1.3-0.3-2.8,0.2-4.1c0,0,0,0,0,0l0.2-0.3
			c0.8-1.9,1.5-3.8,2.1-5.7c0,1.3,0.3,2.7,0.8,4l1.1,2.5c-0.5,0.9-1,1.9-1.6,2.7c-0.3,0.4-0.3,0.9-0.1,1.3c1.2,3.1,2.1,6.3,2.6,9.5
			L35.3,61.4z M38.9,66.6L36.8,66l-0.5-1.5l2.5-2.5l1.4,1.4L38.9,66.6z M40.2,58.1L40,59.4c0,0.2-0.1,0.3-0.3,0.3c0,0-0.1,0-0.1,0
			c-0.1,0-0.2,0-0.3-0.1l-0.1-0.1c0,0,0,0-0.1-0.1C39,59.5,39,59.4,39,59.3c-0.5-3.2-1.4-6.3-2.5-9.3c0-0.1,0-0.3,0-0.4
			c0.2-0.4,0.5-0.8,0.7-1.2c0.1-0.1,0.2-0.2,0.4-0.2c0.2,0,0.3,0.1,0.4,0.2l0.2,0.4c0,0,0,0.1,0,0.1l2,9C40.2,58,40.2,58,40.2,58.1z
			 M59.6,50.1l-0.9,3.6c-0.5,2-0.5,4.1,0.1,6l-0.1,0c-0.2-0.1-0.5-0.1-0.7,0l-4.1,1c-0.6,0.2-1.1,0.7-1.1,1.4v2.7h-2l1.7-8.6
			c0-0.2-0.1-0.4-0.3-0.5l-2-0.4c-0.1,0-0.2,0-0.3,0.1c-0.1,0.1-0.2,0.2-0.2,0.3l-1.8,9.2h-5.2l0.4-1.1c0.2-0.5,0.1-1.1-0.3-1.5
			l-1-1l0.4-3c0-0.2,0-0.3,0-0.5l-1.7-7.5H59.6z M41.1,68.9C41.1,68.9,41.1,68.8,41.1,68.9l0.5-1.3h11.3c0.2,0.6,0.7,1,1.4,1
			c0.1,0,0.2,0,0.3,0l4.8-1l2.6,0.6l0.3,0.6H41.1z M64.7,64.7l-1.5,1l-3.5-0.9c-0.1,0-0.2,0-0.3,0c-0.1,0-0.2,0-0.3,0l-3.4,0.7v-2.3
			l2.7-0.7l3.1,0.8l0.7,1.5c0,0.1,0.1,0.2,0.2,0.2c0.1,0,0.2,0,0.3,0l1.8-0.9c0.2-0.1,0.3-0.3,0.2-0.5l-0.5-1.1l1.7-1.5
			c3.9-3.4,7.5-7.1,10.7-11l0.3-0.4c0.1-0.2,0.1-0.4-0.1-0.6l-1.6-1.3c-0.2-0.1-0.4-0.1-0.6,0.1l-0.3,0.4c-0.1,0.2-0.3,0.3-0.4,0.5
			l-0.7-0.4c-1.6-1-2.9-2.5-3.6-4.3c-0.6-1.5-1.5-2.8-2.6-3.9l-3.7-3.7c-0.2-0.2-0.4-0.2-0.6,0l-1.5,1.5c-0.2,0.2-0.2,0.4,0,0.6
			l1.9,1.9l-0.5,1.1L62.3,41c-2.5-1.6-3.8-4.5-3.5-7.4c1,1.3,2.6,2.1,4.3,2.1c0,0,0,0,0,0h1.4c0.2,0,0.4-0.2,0.4-0.4v-2.1
			c0-0.2-0.2-0.4-0.4-0.4h-1.4c0,0,0,0,0,0c-1.1,0-2-0.6-2.4-1.7l0-0.1c-0.3-0.7-0.3-1.4,0-2c0.3-0.6,0.8-1.1,1.4-1.4
			c0.3-0.1,0.6-0.2,1-0.2h0.5c0,0,0,0,0,0c0.8,0,1.6,0.4,2.1,1l1.7,2.2c0.7,0.9,1.3,1.8,1.7,2.8l0.6,1.3c1.3,3,3.6,5.5,6.4,7.2
			c1.9,1.1,3.5,2.7,4.6,4.6l1.8,3.1C77.1,55.3,71.2,60.4,64.7,64.7z"/>
	</g>
</g>
</svg>
