<svg xmlns="http://www.w3.org/2000/svg" viewBox="0 0 153.03 140.03">
  <defs>
    <style>
      .cls-1 {
        fill: #fff;
      }

      .cls-2 {
        fill: #fe7170;
      }

      .cls-3 {
        fill: #25d366;
      }
    </style>
  </defs>
  <g id="bg-icon">
    <circle id="Ellipse_567" data-name="Ellipse 567" class="cls-1" cx="70.03" cy="70.03" r="70" />
    <path id="Exclusion_4" data-name="Exclusion 4" class="cls-2"
      d="M73.69,148.65a69.89,69.89,0,1,1,27.24-5.5A69.65,69.65,0,0,1,73.69,148.65Z"
      transform="translate(-3.66 -8.62)" />
  </g>
  <g id="bg-check">
    <circle id="Ellipse_558" data-name="Ellipse 558" class="cls-3" cx="135.53" cy="68.53" r="17.5" />
    <path class="cls-1"
      d="M88.57,76.39a1.46,1.46,0,0,0-1.41-1.32c-.73,0-1.59,1.32-1.59,1.32v7.15a1.27,1.27,0,0,0,.36.88l.19.18c2.6,2.58,3.93,4.56,3.93,5.89a1.17,1.17,0,0,1-.37.9A11.23,11.23,0,0,1,87.56,93,13.91,13.91,0,0,0,85,95a23.2,23.2,0,0,0-2.68,3.56h0l0,0a23.64,23.64,0,0,1-2.59,3.46,4.84,4.84,0,0,1-3.53,1.48,6.88,6.88,0,0,1-2.24-.41l2.49-2.49a1.16,1.16,0,0,0,.29-.46l3.75-10a1.39,1.39,0,0,0,.08-.46V85.62S80,84.3,79.26,84.3a2.07,2.07,0,0,0-1.69,1.32v3.65l-3.4,10.11-3.75,3.76a1.3,1.3,0,0,0,0,1.86h0a1.22,1.22,0,0,0,.25.2c1.6,1,5.3,1.45,5.3,1.45h0s4.07-.74,5.52-2.23a26.12,26.12,0,0,0,3.1-4.1h0A22.56,22.56,0,0,1,87.14,97a12.1,12.1,0,0,1,2.23-1.73,14.3,14.3,0,0,0,2.68-2.09,3.91,3.91,0,0,0,1.16-2.83c0-2.83-2.7-5.85-4.64-7.88Z"
      transform="translate(-3.66 -8.62)" />
  </g>
  <g id="check">
    <polygon class="cls-1"
      points="132.96 76.53 125.11 68.69 127.94 65.87 132.96 70.88 142.72 61.11 145.55 63.94 132.96 76.53" />
  </g>
  <g id="icon">
    <path class="cls-1"
      d="M88.57,76.39a1.46,1.46,0,0,0-1.41-1.32c-.73,0-1.59,1.32-1.59,1.32v7.15a1.27,1.27,0,0,0,.36.88l.19.18c2.6,2.58,3.93,4.56,3.93,5.89a1.17,1.17,0,0,1-.37.9A11.23,11.23,0,0,1,87.56,93,13.91,13.91,0,0,0,85,95a23.2,23.2,0,0,0-2.68,3.56h0l0,0a23.64,23.64,0,0,1-2.59,3.46,4.84,4.84,0,0,1-3.53,1.48,6.88,6.88,0,0,1-2.24-.41l2.49-2.49a1.16,1.16,0,0,0,.29-.46l3.75-10a1.39,1.39,0,0,0,.08-.46V85.62S80,84.3,79.26,84.3a2.07,2.07,0,0,0-1.69,1.32v3.65l-3.4,10.11-3.75,3.76a1.3,1.3,0,0,0,0,1.86h0a1.22,1.22,0,0,0,.25.2c1.6,1,5.3,1.45,5.3,1.45h0s4.07-.74,5.52-2.23a26.12,26.12,0,0,0,3.1-4.1h0A22.56,22.56,0,0,1,87.14,97a12.1,12.1,0,0,1,2.23-1.73,14.3,14.3,0,0,0,2.68-2.09,3.91,3.91,0,0,0,1.16-2.83c0-2.83-2.7-5.85-4.64-7.88Z"
      transform="translate(-3.66 -8.62)" />
    <path class="cls-1"
      d="M109.4,91.12h0l0,0c-4.21-4.41-7.89-8.41-10.91-11.87A92.88,92.88,0,0,1,90,68.47a3.77,3.77,0,0,0-1.34-1.32,3.71,3.71,0,0,0-5,1.24c-1.5,2.36-2.95,4.56-4.19,6.37-.91,1.34-1.73,2.49-2.44,3.43a23.44,23.44,0,0,1-1.9,2.3,23.21,23.21,0,0,1-5.14,3.58c-1.88,1-4,2.06-6,3l0,0c-1.4.68-2.72,1.31-4,2a30.06,30.06,0,0,0-4.13,2.44,6.43,6.43,0,0,0-2.5,2.93c-.34,1-.6,2-.83,2.8v-.19c-.23.81-.42,1.52-.64,2.1a5.07,5.07,0,0,1-.73,1.38,3.28,3.28,0,0,1-1.11.88,2.84,2.84,0,0,1-1.12.23H48.8a11.94,11.94,0,0,1-3.49-.73,11.29,11.29,0,0,0-5.59-.48l-.27.09a11.86,11.86,0,0,1-9.28,0l-1.67-.71a2.75,2.75,0,0,1-1.39-1.36L35,97.3a1.11,1.11,0,0,0,.3-.08s2.57-1,5.54-2.35c1.71-.78,3.22-1.52,4.48-2.19a21.33,21.33,0,0,0,3.58-2.29c1.37-1.18,3.21-2.83,5.45-4.92l7.7-7.3c7.13-6.86,14.73-14.38,18.62-18.24a7.75,7.75,0,0,1,5.5-2.28,14.74,14.74,0,0,1,5,1l1.6,1,.2.14,14.67,9.34a1.34,1.34,0,0,0,1.44-2.27L94.7,57.7l-2.52-6.3a1.34,1.34,0,0,0-2.49,1L91,55.65c-.48-.17-1-.35-1.62-.52s-1-.29-1.43-.38a6.29,6.29,0,0,0-1.22-.17,10.6,10.6,0,0,0-7.5,3.1c-3.93,3.91-11.63,11.51-18.89,18.5l-7.77,7.36h0c-2.25,2.09-4.08,3.74-5.46,4.92a18.92,18.92,0,0,1-3.16,2c-2.15,1.16-4.72,2.31-6.49,3.08-1.12.48-2,.85-2.44,1l-.82.33-9.26,1.32a1.39,1.39,0,0,0-1.14,1.23,5.41,5.41,0,0,0,3.29,5.08l1.69.72a14.73,14.73,0,0,0,11.38.1,7,7,0,0,1,1.29-.09,8.6,8.6,0,0,1,2.89.49,14.21,14.21,0,0,0,4.46.89h.14a5.5,5.5,0,0,0,2.33-.51,6.07,6.07,0,0,0,2-1.63,9.8,9.8,0,0,0,1.53-3.29l.37-1.32v0c.22-.81.46-1.66.76-2.57a2.76,2.76,0,0,1,.73-1,19.06,19.06,0,0,1,3.85-2.49c1.41-.75,3-1.53,4.6-2.28l0,0c1.35-.65,2.73-1.32,4.09-2a32.18,32.18,0,0,0,7.85-5.15,23.26,23.26,0,0,0,2.15-2.59c2.3-3.06,5.22-7.56,6.75-10a1,1,0,0,1,1.41-.31,1,1,0,0,1,.32.34A90.68,90.68,0,0,0,96.43,81c3.06,3.49,6.75,7.51,11,12a1.34,1.34,0,0,0,1.9.08h0A1.34,1.34,0,0,0,109.4,91.12Z"
      transform="translate(-3.66 -8.62)" />
    <path class="cls-1"
      d="M77.94,55.3A1.94,1.94,0,0,0,79.57,54V51.35c-.31-4.88,2.89-7.91,8.06-7.91a7.75,7.75,0,0,1,6.18,3.1l12.06,16.08A1.32,1.32,0,0,0,108,61L95.92,45a10.36,10.36,0,0,0-8.29-4.14c-6.59,0-11,4.23-11.06,10.54V54A1.4,1.4,0,0,0,77.94,55.3Z"
      transform="translate(-3.66 -8.62)" />
  </g>
</svg>