<svg width="184" height="75" viewBox="0 0 184 75" fill="none" xmlns="http://www.w3.org/2000/svg">
<path d="M0 10.268V52.5523H23.5316V49.6679H3.35453V10.268H0Z" fill="black"/>
<path d="M35.7328 10.268H32.3145V52.5523H35.7328V10.268Z" fill="black"/>
<path d="M47.8896 10.268V52.5523H71.4213V49.6679H51.2454V10.268H47.8896Z" fill="black"/>
<path d="M79.958 10.268V52.5523H103.49V49.6679H83.3125V10.268H79.958Z" fill="black"/>
<path d="M133.814 10.268L119.659 30.7642L105.438 10.268H101.75L117.884 34.0162V52.5523H121.303L121.351 33.9293L137.254 10.268H133.814Z" fill="black"/>
<path d="M0.418701 60.387H7.04377V61.243H1.46924V64.9484H6.44651V65.7893H1.46924V69.5682H7.27045V70.4241H0.419924L0.418701 60.387Z" fill="black"/>
<path d="M17.534 68.1021C17.8216 68.6022 18.2425 69.0142 18.7505 69.2927C19.2585 69.5712 19.8341 69.7054 20.414 69.6809C21.9166 69.6809 22.8056 69.0014 22.8056 67.953C22.8056 66.8462 22.0631 66.3593 20.7371 65.7978L19.848 65.4152C18.2653 64.7357 17.2961 64.0723 17.2961 62.6699C17.3149 62.3209 17.4059 61.9795 17.5634 61.6669C17.721 61.3544 17.9417 61.0773 18.2119 60.853C18.482 60.6287 18.7958 60.462 19.1337 60.3632C19.4716 60.2644 19.8265 60.2356 20.1761 60.2787C20.7695 60.2313 21.3649 60.3432 21.8996 60.6029C22.4344 60.8626 22.8888 61.2604 23.2151 61.7544L22.4062 62.2265C22.1735 61.8597 21.8444 61.5628 21.4543 61.3678C21.0642 61.1727 20.6279 61.087 20.1924 61.1197C19.078 61.1197 18.3342 61.7532 18.3342 62.6401C18.3342 63.5991 18.9314 63.968 20.2725 64.5432L21.149 64.927C22.9108 65.6797 23.8637 66.4176 23.8637 67.9219C23.8637 69.5753 22.4863 70.5491 20.4378 70.5491C19.6811 70.5884 18.9282 70.4206 18.2613 70.0639C17.5943 69.7072 17.0391 69.1755 16.6562 68.5269L17.534 68.1021Z" fill="black"/>
<path d="M36.0954 61.243H32.6858V60.387H40.538V61.243H37.146V70.4241H36.0954V61.243Z" fill="black"/>
<path d="M50.4092 60.3896H57.0343V61.2454H51.4597V64.9509H56.4371V65.7919H51.4597V69.5706H57.2609V70.4264H50.4092V60.3896ZM54.3672 57.4678H55.4829L54.2545 59.5498H53.4632L54.3672 57.4678Z" fill="black"/>
<path d="M69.9807 61.243H66.571V60.387H74.4233V61.243H71.0298V70.4241H69.9793L69.9807 61.243Z" fill="black"/>
<path d="M84.3699 60.387H85.4354V70.4241H84.3699V60.387Z" fill="black"/>
<path d="M95.6587 65.409C95.6685 64.705 95.8219 64.0101 96.1096 63.3665C96.3973 62.7228 96.8134 62.1437 97.3327 61.6637C97.852 61.1838 98.4639 60.8132 99.1315 60.5741C99.799 60.335 100.509 60.2324 101.217 60.2725C102.032 60.2401 102.845 60.3921 103.592 60.7168C104.34 61.0415 105.003 61.5306 105.532 62.147L104.723 62.6774C104.292 62.1728 103.751 61.7723 103.141 61.5065C102.53 61.2407 101.867 61.1165 101.201 61.1433C100.621 61.1254 100.044 61.2237 99.5035 61.4327C98.9632 61.6416 98.4711 61.9567 98.0566 62.359C97.6421 62.7613 97.3138 63.2427 97.0915 63.7741C96.8692 64.3054 96.7574 64.8757 96.7629 65.451C96.7684 66.0263 96.8911 66.5945 97.1235 67.1216C97.3559 67.6486 97.6932 68.1238 98.1153 68.5183C98.5374 68.9128 99.0356 69.2184 99.5798 69.4172C100.124 69.6159 100.703 69.7035 101.282 69.6746C101.992 69.6988 102.697 69.561 103.344 69.2717C103.992 68.9825 104.563 68.5495 105.015 68.0063L105.839 68.5381C105.28 69.1995 104.575 69.7244 103.779 70.0725C102.983 70.4206 102.117 70.5825 101.248 70.5455C100.537 70.59 99.8244 70.4907 99.1532 70.2536C98.4819 70.0165 97.8663 69.6464 97.3436 69.166C96.8208 68.6857 96.4018 68.1049 96.1122 67.4591C95.8226 66.8132 95.6683 66.1158 95.6587 65.409Z" fill="black"/>
<path d="M121.948 67.9533H116.97L115.887 70.4376H114.82L119.442 60.1647H119.522L124.155 70.4376H123.04L121.948 67.9533ZM117.358 67.0973H121.559L119.46 62.3311L117.358 67.0973Z" fill="black"/>
<path d="M183.461 40.4176C183.336 39.8089 183.175 39.2524 183.019 38.7158C182.894 38.3034 182.785 37.9133 182.687 37.5009L182.637 37.2984C182.537 36.8972 182.434 36.4823 182.356 36.0711L182.212 35.3543L182.097 34.6315C181.946 33.6742 181.875 32.706 181.886 31.7371C181.896 31.2587 181.941 30.7818 182.021 30.3099C182.041 30.1856 182.063 30.0738 182.091 29.967L182.099 29.9359C182.122 29.8341 182.147 29.7323 182.182 29.6292C182.242 29.4239 182.326 29.2262 182.433 29.0404L182.455 29.0005C182.481 28.9566 182.497 28.9073 182.501 28.8564C182.507 28.7678 182.478 28.6802 182.42 28.6126C182.362 28.5451 182.279 28.5031 182.19 28.4962C180.938 28.4108 179.681 28.4383 178.433 28.5782C177.19 28.7045 175.961 28.9402 174.76 29.2825C172.309 29.933 170.054 31.1611 168.185 32.8625C166.272 34.626 164.939 36.9203 164.359 39.4462C163.833 41.9806 163.929 44.6036 164.641 47.0932C164.96 48.3207 165.378 49.5204 165.893 50.6805C166.001 50.929 166.11 51.1713 166.218 51.4085C166.363 51.729 166.506 52.0445 166.641 52.3663C166.891 52.97 167.114 53.5215 167.307 54.0506C167.728 55.1705 168.043 56.3271 168.246 57.5052C168.302 57.8493 168.345 58.202 168.371 58.5548C165.295 60.3447 162.069 61.8688 158.73 63.1101C158.703 62.966 158.67 62.8232 158.628 62.6826C158.554 62.4367 158.462 62.1964 158.354 61.9634C158.141 61.5077 157.893 61.0687 157.613 60.6504C157.05 59.8306 156.418 59.0606 155.722 58.3487C155.032 57.6171 154.277 56.9388 153.563 56.3139C153.173 55.9723 152.749 55.6208 152.236 55.2122C152.71 53.9315 153.276 52.6861 153.929 51.4856C154.473 50.4918 155.1 49.462 155.788 48.426C156.338 47.5938 156.915 46.8111 157.515 45.99L157.891 45.4857C157.931 45.4298 157.968 45.3727 158.006 45.3155L158.066 45.2323C159.048 43.9399 159.863 42.5307 160.491 41.0375C160.854 40.104 161.106 39.1319 161.243 38.1406C161.397 36.7952 161.312 35.4335 160.992 34.1171C160.837 33.4612 160.621 32.8209 160.347 32.2042C160.08 31.5884 159.759 30.9964 159.388 30.4353C158.655 29.3202 157.77 28.3111 156.759 27.4367C155.759 26.5628 154.667 25.7974 153.503 25.1535C153.461 25.1308 153.412 25.1214 153.365 25.1265C153.317 25.1316 153.272 25.1509 153.235 25.182C153.211 25.2031 153.192 25.2288 153.178 25.2575C153.164 25.2862 153.156 25.3175 153.154 25.3493C153.153 25.3811 153.157 25.4129 153.168 25.4428C153.179 25.4728 153.196 25.5002 153.218 25.5237C153.997 26.4363 154.714 27.3989 155.365 28.4055C156.023 29.4069 156.612 30.4517 157.128 31.5322C158.192 33.6553 158.809 35.9709 158.942 38.3382C158.98 39.4954 158.833 40.6512 158.507 41.7629C158.391 42.1523 158.251 42.534 158.087 42.9058C157.879 43.0639 157.637 43.1724 157.38 43.2233C157.123 43.2741 156.858 43.2658 156.605 43.1989C156.343 43.1215 156.096 43.0006 155.875 42.8412C155.641 42.6674 155.427 42.4686 155.237 42.2486C154.828 41.7728 154.461 41.2639 154.138 40.7269C153.474 39.6249 152.891 38.4766 152.394 37.291C151.377 34.9072 150.569 32.4409 149.978 29.9197C149.68 28.665 149.461 27.3931 149.322 26.1112C149.168 24.8473 149.179 23.5688 149.355 22.3076C149.445 21.6973 149.627 21.104 149.894 20.5474C150.144 20.0137 150.542 19.561 151.04 19.2419C151.303 19.0885 151.581 18.9635 151.87 18.8691C152.2 18.7449 152.496 18.6406 152.797 18.5189C153.347 18.3064 153.924 18.0568 154.62 17.7301C155.834 17.1755 156.969 16.4629 157.993 15.611C158.514 15.1771 158.962 14.6653 159.323 14.0941C159.503 13.8026 159.644 13.489 159.743 13.1613C159.851 12.8283 159.879 12.4748 159.824 12.1291C159.818 12.0981 159.801 12.0705 159.775 12.0518C159.75 12.0331 159.718 12.0247 159.686 12.0284L159.629 12.0433L159.575 12.1303V12.17C159.604 12.4762 159.561 12.7849 159.45 13.0718C159.344 13.3672 159.2 13.6474 159.02 13.9054C158.911 14.0609 158.794 14.2107 158.669 14.3539C158.428 14.6101 158.168 14.8491 157.893 15.0693C157.219 15.6272 156.43 16.0306 155.58 16.2507C155.185 16.3528 154.768 16.3373 154.382 16.206C154.02 16.0565 153.73 15.7733 153.574 15.4159C153.508 15.2741 153.452 15.128 153.405 14.9786L153.345 14.8047C153.26 14.5799 153.16 14.3612 153.045 14.1501C152.927 13.935 152.791 13.7305 152.638 13.539C152.505 13.372 152.354 13.2194 152.188 13.0843L151.688 11.5676C151.673 11.5227 151.649 11.4814 151.617 11.4461C151.585 11.4109 151.547 11.3824 151.504 11.3626C151.143 11.2402 150.83 11.0097 150.608 10.703C150.575 10.6496 150.556 10.5886 150.552 10.5259C150.549 10.4631 150.562 10.4006 150.589 10.3441C150.617 10.2943 150.648 10.2461 150.681 10.1998C150.707 10.1613 150.733 10.1216 150.76 10.0757C150.825 9.9732 150.885 9.86746 150.94 9.75889C151.049 9.54595 151.141 9.32504 151.215 9.09807C151.233 9.04093 151.257 8.94528 151.257 8.94279C151.374 8.50112 151.382 8.03812 151.282 7.59248L151.266 7.56397C150.858 7.07557 150.508 6.54245 150.222 5.97514C150.017 5.38776 149.923 4.76799 149.945 4.14672C149.984 3.2161 150.169 2.29717 150.492 1.4226C150.606 1.76637 150.752 2.09892 150.927 2.41626C151.271 3.05062 151.733 3.61401 152.29 4.07591C152.84 4.53093 153.469 4.8836 154.146 5.11688C154.809 5.3452 155.498 5.49121 156.198 5.55162L156.289 5.55905L156.304 5.46959C156.319 5.38015 156.243 5.36155 156.168 5.3454C155.524 5.21433 154.899 5.00575 154.307 4.7243L154.146 4.63863C153.605 4.38246 153.099 4.05765 152.643 3.67226C152.163 3.23055 151.768 2.70715 151.475 2.12694C151.176 1.55246 150.979 0.931443 150.892 0.290942C150.886 0.234893 150.865 0.181364 150.832 0.135667C150.798 0.0899706 150.754 0.0536994 150.702 0.0301292C150.663 0.0122069 150.621 0.00196235 150.578 0.000257054C150.535 -0.00144825 150.492 0.00534886 150.452 0.0201213C150.411 0.035204 150.373 0.0582607 150.341 0.0879022C150.309 0.117544 150.283 0.153226 150.265 0.192834C149.979 0.809377 149.742 1.44737 149.556 2.10086C149.375 2.76696 149.278 3.45297 149.27 4.14293C149.248 4.8485 149.38 5.55038 149.655 6.20123C149.863 6.63915 150.13 7.04741 150.448 7.41492C150.551 7.53937 150.635 7.67791 150.698 7.82615C150.763 8.00071 150.8 8.18431 150.807 8.37022C150.813 8.56295 150.782 8.75496 150.717 8.93658C150.642 9.13156 150.551 9.32014 150.445 9.50051C150.394 9.59019 150.338 9.67735 150.278 9.76147C150.255 9.79377 150.231 9.82471 150.206 9.857C150.157 9.91912 150.112 9.98381 150.07 10.0508C149.988 10.1919 149.943 10.3512 149.939 10.5139C149.935 10.6766 149.972 10.8376 150.047 10.9824C150.172 11.2284 150.355 11.4413 150.579 11.6035C150.735 11.7199 150.9 11.8234 151.073 11.9129L151.559 13.4036C151.581 13.4713 151.625 13.5301 151.684 13.5713L151.709 13.5898C151.867 13.697 152.01 13.8249 152.134 13.97C152.272 14.1247 152.395 14.291 152.504 14.4669C152.613 14.6475 152.711 14.8351 152.796 15.0284C152.818 15.083 152.841 15.1413 152.865 15.2009C152.924 15.3623 152.993 15.52 153.072 15.673C153.302 16.1416 153.706 16.5037 154.199 16.683C154.563 16.8014 154.95 16.8287 155.326 16.7625C155.028 16.9115 154.709 17.0606 154.365 17.2134C153.678 17.5054 153.104 17.7302 152.554 17.9202C152.241 18.0345 151.918 18.1388 151.634 18.2308C151.295 18.3279 150.968 18.4621 150.659 18.6308C150.035 19.0054 149.528 19.5463 149.198 20.1922C148.876 20.8109 148.65 21.4748 148.528 22.161C148.302 23.4932 148.25 24.8491 148.374 26.1945C148.485 27.5222 148.685 28.841 148.973 30.1422C149.547 32.7342 150.371 35.2651 151.436 37.6997C151.964 38.9257 152.582 40.1122 153.283 41.2499C153.641 41.8328 154.05 42.3838 154.504 42.897C154.749 43.1669 155.022 43.4097 155.32 43.6212C155.635 43.8369 155.985 43.9975 156.354 44.0958C156.703 44.1854 157.067 44.1993 157.421 44.1367C157.271 44.3852 157.116 44.6113 156.957 44.8274L155.865 46.2833C155.478 46.8199 155.136 47.3155 154.82 47.7987C154.137 48.8229 153.51 49.8828 152.942 50.9738C152.338 52.1348 151.822 53.3388 151.398 54.576L151.382 54.5638C151.334 54.5265 151.287 54.4879 151.238 54.4519C149.763 53.3339 148.162 52.252 146.338 51.1303L145.086 50.3638C144.649 50.1153 144.226 49.8383 143.872 49.6073C143.082 49.083 142.322 48.5169 141.594 47.9117C140.145 46.7488 138.96 45.2952 138.117 43.646C137.314 41.9935 137.041 40.1369 137.334 38.3258C137.663 36.4612 138.366 34.6812 139.401 33.0912C139.91 32.2747 140.478 31.4963 141.101 30.762C141.665 30.0839 142.276 29.4447 142.929 28.849C144.141 29.9179 145.114 31.2267 145.785 32.6911C146.486 34.226 146.938 35.861 147.126 37.5357C147.323 39.2098 147.269 40.9034 146.964 42.5615C146.821 43.398 146.623 44.2246 146.373 45.0361C146.3 45.2982 146.211 45.5616 146.123 45.8174C146.074 45.964 146.025 46.1105 145.98 46.2534L145.527 47.4657C145.507 47.51 145.506 47.5603 145.524 47.6055C145.541 47.6507 145.576 47.6872 145.621 47.7068C145.666 47.7264 145.716 47.7276 145.762 47.7102C145.807 47.6927 145.844 47.6579 145.864 47.6136L145.876 47.5887C146.067 47.216 146.263 46.831 146.446 46.441C146.505 46.2981 146.571 46.1565 146.629 46.0149C146.739 45.7664 146.852 45.4981 146.954 45.2335C147.26 44.4104 147.511 43.5686 147.706 42.7132C148.112 40.983 148.216 39.1963 148.012 37.4313C147.788 35.666 147.217 33.9617 146.33 32.4153C145.896 31.6516 145.411 30.9176 144.878 30.218C144.349 29.5107 143.752 28.8563 143.095 28.264C143.046 28.2208 142.983 28.1968 142.917 28.1968C142.851 28.1968 142.788 28.2208 142.738 28.264C141.221 29.5553 139.867 31.0233 138.704 32.6364C137.49 34.2724 136.624 36.1368 136.161 38.1157C135.941 39.1356 135.877 40.1825 135.971 41.2212C136.077 42.2709 136.352 43.2969 136.787 44.2597C137.68 46.1296 138.996 47.7693 140.634 49.0508C141.413 49.693 142.239 50.2773 143.105 50.7987C143.872 51.2707 144.665 51.6856 145.433 52.0868L145.706 52.2296C147.564 53.2147 149.212 54.1786 150.725 55.1773C150.816 55.2369 150.907 55.3016 150.999 55.3624L151.124 55.4445C150.878 56.2745 150.688 57.1198 150.556 57.9748C150.133 60.4454 150.415 62.984 151.371 65.3038C152.369 67.5717 153.929 69.5523 155.906 71.0614C157.839 72.5792 160.021 73.7557 162.356 74.5394C162.376 74.5462 162.396 74.5508 162.417 74.5531H162.456C162.522 74.5534 162.586 74.5309 162.636 74.4897C162.667 74.4648 162.692 74.4341 162.71 74.3993C162.729 74.3645 162.74 74.3264 162.743 74.2873C162.867 73.0909 163.177 71.9209 163.663 70.8191C164.174 69.7261 164.807 68.6939 165.551 67.7421C165.772 67.4477 165.997 67.1571 166.224 66.864C166.747 66.1882 167.288 65.4901 167.77 64.7435C168.938 63.0307 169.544 61.0013 169.503 58.9337L169.559 58.9039C171.338 57.9596 173.057 56.911 174.71 55.7637C176.393 54.6155 177.951 53.2967 179.359 51.8284C180.819 50.335 181.989 48.5879 182.812 46.6745C183.218 45.689 183.484 44.6528 183.605 43.5951C183.72 42.5348 183.672 41.4633 183.461 40.4176ZM158.379 63.7162C158.41 63.7315 158.444 63.7404 158.479 63.7426C158.513 63.7447 158.548 63.74 158.581 63.7286C159.536 63.4007 160.459 63.0418 161.388 62.6703C162.317 62.2989 163.251 61.9137 164.153 61.5162C165.702 60.838 167.094 60.1822 168.41 59.5139C168.407 60.0136 168.361 60.5122 168.275 61.0045C168.057 62.1601 167.625 63.2657 167.001 64.2652C166.571 64.9845 166.062 65.6912 165.569 66.3769C165.352 66.6775 165.133 66.9807 164.92 67.2875C164.177 68.307 163.551 69.4063 163.055 70.5645C162.615 71.6223 162.329 72.7363 162.204 73.8736C161.186 73.5318 160.198 73.1072 159.25 72.6041C158.19 72.0529 157.184 71.404 156.245 70.6662C155.305 69.9306 154.456 69.0871 153.716 68.1533C152.982 67.2196 152.389 66.1847 151.955 65.0813C151.131 62.8564 150.948 60.4472 151.43 58.1251C151.566 57.4107 151.747 56.7055 151.972 56.0134C153.16 56.8379 154.28 57.7554 155.32 58.7574C156.013 59.4261 156.638 60.1598 157.188 60.9485C157.461 61.338 157.697 61.7513 157.893 62.1833C157.99 62.3953 158.071 62.6141 158.136 62.8379C158.202 63.0472 158.238 63.2646 158.244 63.4839C158.243 63.5336 158.256 63.5827 158.282 63.6252C158.308 63.6677 158.346 63.7018 158.392 63.7236L158.379 63.7162ZM181.485 29.3844C181.435 29.5087 181.399 29.6328 181.36 29.757C181.319 29.8826 181.284 30.0103 181.257 30.1396C181.138 30.6456 181.057 31.1597 181.014 31.6775C180.94 32.6994 180.952 33.7257 181.05 34.7457L181.126 35.5072L181.23 36.2524C181.285 36.6922 181.366 37.1308 181.445 37.5556L181.481 37.753C181.568 38.2362 181.679 38.7269 181.787 39.2027C181.902 39.712 182.011 40.1964 182.088 40.6511C182.23 41.5673 182.246 42.4983 182.136 43.4187C182.011 44.3396 181.77 45.2414 181.42 46.1031C180.671 47.8553 179.624 49.4664 178.323 50.8657C175.73 53.6299 172.744 56.0028 169.458 57.909C169.441 57.7015 169.419 57.5114 169.397 57.3301C169.222 56.0705 168.928 54.8299 168.52 53.6245C168.346 53.0829 168.145 52.519 167.87 51.8507C167.738 51.5141 167.594 51.18 167.452 50.8508C167.348 50.6098 167.247 50.3726 167.152 50.1403C166.69 49.0329 166.309 47.8942 166.012 46.7329C165.396 44.4451 165.293 42.0509 165.712 39.7194C166.127 37.363 167.214 35.1737 168.842 33.4094C170.471 31.6452 172.574 30.3797 174.904 29.762C176.568 29.2918 178.29 29.0539 180.021 29.0552C180.547 29.0552 181.071 29.0772 181.593 29.121C181.546 29.2229 181.512 29.3074 181.489 29.3856L181.485 29.3844ZM159.917 38.2985C159.708 35.814 158.973 33.4011 157.759 31.2179C156.83 29.458 155.727 27.7936 154.467 26.2491C155.168 26.7038 155.829 27.2174 156.441 27.7844C157.395 28.6516 158.225 29.6442 158.909 30.7346C159.25 31.276 159.543 31.846 159.785 32.4378C160.031 33.0258 160.221 33.6354 160.352 34.2588C160.619 35.5038 160.666 36.7851 160.494 38.0463C160.389 38.8474 160.179 39.6313 159.868 40.3778C159.943 39.6877 159.959 38.9925 159.917 38.2997V38.2985Z" fill="#494A5A"/>
</svg>
