<svg width="112" height="46" viewBox="0 0 112 46" fill="none" xmlns="http://www.w3.org/2000/svg">
<g clip-path="url(#clip0_587_4581)">
<path d="M0 6.30312V32.2952H14.3495V30.5199H2.04585V6.30078L0 6.30312Z" fill="#48495B"/>
<path d="M21.7878 6.30469H19.7031V32.2968H21.7878V6.30469Z" fill="#48495B"/>
<path d="M29.2031 6.30312V32.2952H43.5531V30.5199H31.2499V6.30078L29.2031 6.30312Z" fill="#48495B"/>
<path d="M48.7578 6.30312V32.2952H63.1073V30.5199H50.8032V6.30078L48.7578 6.30312Z" fill="#48495B"/>
<path d="M81.6001 6.30469L72.9676 18.9022L64.2955 6.30469H62.0469L71.8851 20.9027V32.2973H73.9698L73.9992 20.8509L83.6936 6.30606L81.6001 6.30469Z" fill="#48495B"/>
<path d="M0.257812 37.1094H4.29766V37.6355H0.897872V39.9131H3.93466V40.4298H0.897872V42.7522H4.43548V43.2783H0.257812V37.1094Z" fill="#48495B"/>
<path d="M10.6977 41.8447C10.873 42.1519 11.1293 42.405 11.4387 42.5762C11.7482 42.7475 12.0987 42.8302 12.4521 42.8156C13.3682 42.8156 13.9107 42.3979 13.9107 41.7537C13.9107 41.0734 13.4575 40.7725 12.6492 40.4291L12.1068 40.1955C11.1411 39.7783 10.5506 39.37 10.5506 38.508C10.5506 37.6278 11.2981 37.0378 12.304 37.0378C12.6658 37.0086 13.0289 37.0775 13.3549 37.2371C13.681 37.3968 13.958 37.6413 14.1569 37.945L13.664 38.2352C13.522 38.0099 13.3214 37.8275 13.0836 37.7078C12.8457 37.588 12.5798 37.5353 12.3142 37.5554C11.634 37.5554 11.1813 37.945 11.1813 38.4898C11.1813 39.0789 11.5457 39.306 12.3638 39.6578L12.8959 39.8942C13.9705 40.3567 14.5517 40.8104 14.5517 41.7354C14.5517 42.7516 13.7135 43.3505 12.4624 43.3505C12.0009 43.3749 11.5416 43.2718 11.1349 43.0525C10.7281 42.8332 10.3895 42.5062 10.1562 42.1073L10.6977 41.8447Z" fill="#48495B"/>
<path d="M22.0165 37.6355H19.9375V37.1094H24.7263V37.6355H22.6575V43.2788H22.0165V37.6355Z" fill="#48495B"/>
<path d="M30.75 37.1089H34.7898V37.6354H31.3901V39.913H34.4268V40.4297H31.3901V42.7522H34.9277V43.2787H30.75V37.1089ZM33.164 35.3125H33.8442L33.0967 36.5922H32.6137L33.164 35.3125Z" fill="#48495B"/>
<path d="M42.6806 37.6355H40.6016V37.1094H45.3903V37.6355H43.3216V43.2788H42.6806V37.6355Z" fill="#48495B"/>
<path d="M51.4531 37.1094H52.1034V43.2788H51.4531V37.1094Z" fill="#48495B"/>
<path d="M58.336 40.195C58.336 38.3627 59.824 37.0377 61.7255 37.0377C62.2227 37.0182 62.7179 37.1117 63.1737 37.3114C63.6295 37.511 64.034 37.8116 64.3568 38.1903L63.8639 38.5173C63.6013 38.2067 63.2711 37.9601 62.8986 37.7967C62.5262 37.6332 62.1212 37.557 61.7148 37.574C61.3613 37.5628 61.0091 37.6231 60.6795 37.7514C60.3499 37.8797 60.0496 38.0734 59.7967 38.3207C59.5438 38.5679 59.3435 38.8638 59.2078 39.1904C59.0722 39.5171 59.0039 39.8678 59.0072 40.2215C59.0106 40.5752 59.0853 40.9246 59.227 41.2486C59.3688 41.5727 59.5746 41.8648 59.8321 42.1073C60.0896 42.3498 60.3935 42.5378 60.7254 42.6599C61.0574 42.782 61.4106 42.8357 61.7638 42.8178C62.1966 42.8324 62.627 42.7473 63.0217 42.5691C63.4163 42.3909 63.7648 42.1243 64.0401 41.79L64.5427 42.117C64.2021 42.5236 63.7725 42.8464 63.2871 43.0604C62.8018 43.2744 62.2737 43.3738 61.7438 43.351C59.824 43.3519 58.3257 42.0274 58.336 40.195Z" fill="#48495B"/>
<path d="M74.3633 41.7551H71.3265L70.6659 43.2795H70.0156L72.8342 36.9648H72.8833L75.7112 43.2795H75.031L74.3633 41.7551ZM71.5644 41.229H74.126L72.8449 38.2987L71.5644 41.229Z" fill="#48495B"/>
<path d="M111.868 24.8373C111.793 24.4636 111.694 24.1211 111.598 23.7908C111.525 23.5371 111.455 23.2974 111.396 23.0432L111.366 22.919C111.305 22.6723 111.242 22.4177 111.195 22.1645L111.107 21.7234L111.037 21.2787C110.944 20.6901 110.901 20.0949 110.907 19.4991C110.914 19.205 110.941 18.9118 110.99 18.6217C111.001 18.5508 111.015 18.4805 111.033 18.411L111.037 18.3914C111.052 18.3288 111.067 18.2662 111.088 18.2045C111.124 18.0784 111.174 17.9569 111.238 17.8424L111.252 17.8181C111.267 17.7912 111.277 17.761 111.279 17.7298C111.283 17.6753 111.265 17.6212 111.23 17.5796C111.194 17.538 111.144 17.5122 111.089 17.5079C110.326 17.4558 109.56 17.4727 108.8 17.5588C108.042 17.6364 107.292 17.7811 106.56 17.9914C105.065 18.3913 103.69 19.1462 102.55 20.192C101.383 21.2768 100.57 22.688 100.217 24.2416C99.8958 25.7995 99.9548 27.4119 100.389 28.9421C100.584 29.6969 100.84 30.4345 101.154 31.1478C101.22 31.301 101.286 31.4491 101.352 31.5949C101.44 31.792 101.527 31.9859 101.61 32.184C101.765 32.5578 101.898 32.8941 102.016 33.2197C102.273 33.9082 102.464 34.6193 102.588 35.3436C102.622 35.5548 102.649 35.7721 102.665 35.9893C100.789 37.0896 98.8211 38.0263 96.7839 38.7892C96.7681 38.7007 96.7475 38.613 96.7222 38.5267C96.6771 38.3754 96.6212 38.2276 96.555 38.0843C96.4249 37.8042 96.2738 37.5345 96.1028 37.2774C95.7597 36.7734 95.3738 36.2999 94.9493 35.8622C94.5288 35.4128 94.0681 34.9956 93.6331 34.6115C93.3949 34.4013 93.137 34.185 92.8235 33.9341C93.1125 33.1473 93.4575 32.3823 93.856 31.6448C94.1881 31.0337 94.5694 30.4011 94.9899 29.7644C95.3253 29.2504 95.6738 28.7734 96.0429 28.267L96.2682 27.9573C96.2924 27.9232 96.3148 27.8877 96.3382 27.8526L96.3751 27.8017C96.9738 27.0072 97.4705 26.1408 97.8538 25.2227C98.0764 24.649 98.2315 24.0513 98.3159 23.4418C98.4108 22.6151 98.3603 21.7781 98.1664 20.9689C98.0717 20.5657 97.9402 20.1721 97.7734 19.793C97.6101 19.4145 97.4144 19.0507 97.1885 18.7058C96.7412 18.0203 96.2011 17.4 95.5837 16.8627C94.973 16.326 94.3068 15.8561 93.5962 15.4611C93.5704 15.4472 93.5409 15.4414 93.5117 15.4446C93.4825 15.4478 93.455 15.4597 93.4327 15.4789C93.4181 15.4919 93.4064 15.5077 93.398 15.5253C93.3895 15.5429 93.3847 15.5621 93.3837 15.5816C93.3828 15.6011 93.3857 15.6206 93.3924 15.639C93.399 15.6573 93.4092 15.6742 93.4224 15.6886C93.897 16.2497 94.334 16.8416 94.7306 17.4603C95.1318 18.0759 95.4908 18.7181 95.8051 19.3823C96.4539 20.6873 96.8305 22.1105 96.9119 23.5656C96.9348 24.2768 96.8453 24.9871 96.6466 25.6703C96.5761 25.9091 96.4906 26.1432 96.3905 26.3711C96.2637 26.4683 96.1162 26.5351 95.9595 26.5664C95.8028 26.5977 95.6409 26.5925 95.4865 26.5515C95.3267 26.5038 95.1762 26.4294 95.0412 26.3314C94.8989 26.2245 94.7688 26.1023 94.653 25.967C94.4038 25.6749 94.1795 25.3623 93.9826 25.0326C93.5776 24.3551 93.2222 23.6492 92.9192 22.9204C92.2992 21.4548 91.8064 19.9386 91.4462 18.3885C91.2645 17.6172 91.1311 16.8353 91.0467 16.0474C90.9524 15.2704 90.959 14.4844 91.0664 13.7091C91.1205 13.3341 91.2307 12.9693 91.3934 12.6271C91.5457 12.299 91.7879 12.0207 92.0918 11.8244C92.252 11.7316 92.4216 11.656 92.5978 11.5992C92.7992 11.5259 92.9805 11.4591 93.1632 11.3843C93.4981 11.254 93.8513 11.0998 94.275 10.8994C95.015 10.5584 95.7063 10.1203 96.3307 9.59682C96.6479 9.32957 96.9213 9.01428 97.1408 8.66242C97.2508 8.48332 97.3369 8.29064 97.3969 8.0892C97.4632 7.88442 97.4803 7.6669 97.4469 7.45427C97.4432 7.43524 97.4326 7.41828 97.417 7.40677C97.4014 7.39525 97.382 7.39 97.3627 7.39211L97.3277 7.40146L97.2951 7.45519L97.2983 7.47948C97.3167 7.66752 97.2909 7.85726 97.2231 8.0336C97.1587 8.21568 97.0706 8.38847 96.961 8.5475C96.8946 8.64296 96.8231 8.73481 96.747 8.82268C96.5997 8.98006 96.4415 9.12698 96.2737 9.26233C95.8629 9.60504 95.3814 9.85279 94.8637 9.98788C94.6227 10.0507 94.3686 10.0411 94.133 9.96033C93.9122 9.86847 93.7356 9.6944 93.6406 9.47488C93.6003 9.38787 93.5658 9.2983 93.5373 9.20672L93.5009 9.10019C93.4494 8.96205 93.3883 8.82766 93.3182 8.69795C93.2466 8.56637 93.1636 8.44128 93.0701 8.32417C92.989 8.22124 92.8971 8.12728 92.7959 8.04386L92.4932 7.10947C92.4841 7.08188 92.4695 7.05645 92.4502 7.03475C92.4309 7.01306 92.4074 6.99555 92.381 6.98331C92.1614 6.90812 91.9707 6.76641 91.8354 6.57782C91.8151 6.54496 91.8035 6.50754 91.8015 6.46901C91.7996 6.43047 91.8073 6.39203 91.8241 6.35728C91.841 6.32682 91.8595 6.29735 91.8797 6.269C91.8956 6.24564 91.912 6.22228 91.9264 6.19611C91.9663 6.13307 92.0029 6.06805 92.0362 6.0013C92.1027 5.87034 92.159 5.73445 92.2045 5.59484C92.2152 5.5598 92.2297 5.50136 92.2297 5.50136C92.3007 5.22976 92.3058 4.94514 92.2446 4.67116L92.2348 4.65388C91.9859 4.35365 91.7722 4.0259 91.598 3.677C91.4729 3.31606 91.4154 2.93515 91.4284 2.55337C91.4526 1.98116 91.5653 1.41612 91.7625 0.878427C91.8323 1.08851 91.9211 1.29183 92.0278 1.48581C92.2372 1.87562 92.5191 2.2218 92.8585 2.50569C93.1941 2.78541 93.5774 3.00224 93.99 3.14575C94.3945 3.28586 94.8148 3.37548 95.2413 3.41254L95.2968 3.41722L95.3057 3.36253C95.3146 3.3074 95.2679 3.29622 95.2225 3.28548C94.8303 3.2049 94.4494 3.07671 94.0882 2.90377L93.99 2.85141C93.6607 2.69392 93.3532 2.49431 93.0753 2.25761C92.7828 1.98611 92.5414 1.66444 92.3623 1.30781C92.1803 0.954781 92.0603 0.573138 92.0073 0.179512C92.0025 0.135533 91.9833 0.0943784 91.9528 0.06237C91.9222 0.0303615 91.882 0.00928911 91.8383 0.00243036C91.7946 -0.00442838 91.7498 0.00332927 91.711 0.0244443C91.6721 0.0455594 91.6413 0.0788352 91.6233 0.11923C91.4484 0.49828 91.3037 0.890594 91.1906 1.29242C91.0797 1.70201 91.0209 2.12393 91.0154 2.54824C91.0019 2.98197 91.0815 3.41356 91.249 3.81387C91.3759 4.08361 91.5386 4.33503 91.7326 4.56138C91.7963 4.63774 91.8487 4.72287 91.8882 4.81414C91.9277 4.92132 91.95 5.03403 91.9545 5.14817C91.958 5.26677 91.9393 5.38497 91.8993 5.49668C91.8537 5.61653 91.7984 5.73249 91.734 5.84338C91.7026 5.89849 91.6684 5.95199 91.6316 6.00363C91.6181 6.02372 91.6036 6.0424 91.5882 6.06249C91.5583 6.10067 91.5306 6.14045 91.505 6.18163C91.4552 6.2683 91.4278 6.36603 91.4254 6.46598C91.4229 6.56594 91.4455 6.66493 91.491 6.75393C91.5677 6.90403 91.6788 7.03388 91.8153 7.13285C91.9102 7.20439 92.0108 7.26798 92.1161 7.32299L92.4123 8.23588C92.4256 8.27715 92.4516 8.31312 92.4867 8.33865L92.5021 8.34989C92.5985 8.41582 92.6857 8.49439 92.7613 8.58349C92.8451 8.67911 92.9205 8.7818 92.9865 8.89043C93.0532 9.00151 93.1125 9.11685 93.1641 9.23569C93.1781 9.2698 93.1921 9.30533 93.2061 9.34177C93.2425 9.44099 93.2849 9.53787 93.3332 9.63189C93.4739 9.92058 93.7213 10.1432 94.0232 10.2528C94.2442 10.3254 94.4796 10.3422 94.7086 10.3018C94.5269 10.3953 94.3325 10.4854 94.1223 10.5793C93.7018 10.7592 93.3533 10.8975 93.0183 11.0143C92.8277 11.0844 92.6305 11.1484 92.4577 11.2049C92.2511 11.2647 92.0517 11.3473 91.8634 11.4511C91.4824 11.6814 91.1737 12.0141 90.9724 12.4112C90.7757 12.7915 90.638 13.1995 90.5641 13.6213C90.4261 14.4401 90.3947 15.2733 90.4707 16.1002C90.5382 16.9164 90.6602 17.727 90.836 18.5268C91.1856 20.1202 91.6885 21.6761 92.3376 23.1727C92.6598 23.9263 93.0361 24.6556 93.4635 25.3549C93.6822 25.7131 93.9313 26.0517 94.2082 26.3669C94.3575 26.5327 94.5244 26.6819 94.7058 26.8117C94.8978 26.9445 95.1111 27.0432 95.3365 27.1037C95.5491 27.159 95.7711 27.1676 95.9873 27.1289C95.8939 27.2784 95.8005 27.4209 95.7042 27.5536L95.038 28.4483C94.8016 28.7781 94.5937 29.0832 94.4012 29.3794C93.9849 30.0089 93.6029 30.6603 93.2566 31.3309C92.8882 32.0438 92.5735 32.7833 92.3152 33.5431L92.3054 33.5356C92.2764 33.5122 92.2474 33.4889 92.218 33.4669C91.3186 32.7829 90.3417 32.1149 89.2302 31.4253L88.4636 30.9543C88.1973 30.7978 87.9389 30.631 87.7226 30.4871C87.2414 30.1647 86.7777 29.8168 86.3336 29.4448C85.4499 28.73 84.7272 27.8366 84.213 26.8229C83.7237 25.8071 83.5571 24.6658 83.7355 23.5525C83.9365 22.4066 84.3655 21.3125 84.997 20.3354C85.307 19.8334 85.6533 19.3548 86.0332 18.9034C86.3776 18.4865 86.7501 18.0937 87.148 17.7275C87.887 18.3847 88.4803 19.1893 88.8896 20.0896C89.3169 21.0322 89.5928 22.0362 89.7072 23.0647C89.8274 24.0938 89.7942 25.135 89.6087 26.1543C89.5211 26.6686 89.4008 27.1766 89.2485 27.6755C89.2018 27.8363 89.1494 27.9988 89.098 28.1553C89.0681 28.2455 89.0382 28.3352 89.0107 28.423L88.7346 29.1678C88.7249 29.1946 88.7257 29.2241 88.7369 29.2503C88.7481 29.2766 88.7689 29.2976 88.795 29.3091C88.8211 29.3206 88.8506 29.3217 88.8776 29.3123C88.9045 29.3029 88.9269 29.2836 88.9401 29.2584L88.948 29.243C89.0639 29.014 89.1817 28.7758 89.2952 28.5375C89.3316 28.4501 89.369 28.3628 89.4069 28.2754C89.4741 28.1199 89.5433 27.9582 89.6049 27.7947C89.7919 27.2886 89.9458 26.771 90.0656 26.245C90.3135 25.1813 90.3767 24.083 90.2525 22.998C90.1155 21.9126 89.7663 20.8648 89.2246 19.9144C88.9601 19.445 88.6645 18.9937 88.3398 18.5637C88.0172 18.129 87.6532 17.7268 87.2526 17.3626C87.2226 17.3361 87.1839 17.3214 87.1438 17.3214C87.1037 17.3214 87.0649 17.3361 87.0349 17.3626C86.1099 18.1564 85.284 19.0588 84.5751 20.0504C83.8346 21.0561 83.307 22.2023 83.0245 23.4189C82.8901 24.0467 82.851 24.6912 82.9086 25.3306C82.9731 25.9762 83.1411 26.6073 83.4062 27.1994C83.9507 28.3483 84.7536 29.3557 85.752 30.1428C86.2273 30.5377 86.7312 30.8969 87.2596 31.2174C87.7268 31.5075 88.2108 31.7626 88.679 32.0093L88.8453 32.0971C89.9787 32.7044 90.9795 33.295 91.9054 33.9089C91.9615 33.9458 92.0171 33.9841 92.0727 34.0224L92.1461 34.0729C91.9962 34.5831 91.8804 35.1026 91.7994 35.6282C91.5419 37.1469 91.7143 38.7074 92.297 40.1334C92.9054 41.5276 93.8567 42.7452 95.0623 43.6729C96.2407 44.6071 97.571 45.3315 98.9951 45.8145C99.0073 45.8185 99.0198 45.8212 99.0326 45.8225C99.0389 45.8229 99.0453 45.8229 99.0517 45.8225C99.0917 45.8225 99.1306 45.8086 99.1615 45.7832C99.1803 45.7679 99.1957 45.7489 99.207 45.7275C99.2182 45.7061 99.225 45.6826 99.2269 45.6584C99.3024 44.923 99.4916 44.2037 99.7875 43.5262C100.099 42.8543 100.485 42.2197 100.939 41.6345C101.073 41.4542 101.211 41.2747 101.349 41.0953C101.668 40.68 101.998 40.2506 102.292 39.7918C103.004 38.7389 103.373 37.4915 103.348 36.2206L103.383 36.2024C104.467 35.6219 105.516 34.9773 106.523 34.2719C107.55 33.5661 108.5 32.7554 109.358 31.8528C110.249 30.9348 110.963 29.8609 111.465 28.6847C111.712 28.0788 111.874 27.4418 111.948 26.7916C112.021 26.1399 111.995 25.4809 111.868 24.8373ZM96.5737 39.1592C96.5926 39.1685 96.6131 39.174 96.6341 39.1753C96.6551 39.1766 96.6762 39.1736 96.6961 39.1667C97.2787 38.9654 97.8379 38.7463 98.4079 38.5164C98.9779 38.2865 99.5446 38.0492 100.094 37.8068C101.039 37.39 101.888 36.9863 102.687 36.5761C102.685 36.8838 102.657 37.1907 102.604 37.4937C102.471 38.2042 102.208 38.8839 101.828 39.4985C101.565 39.9409 101.255 40.3749 100.954 40.7944C100.822 40.9813 100.689 41.1654 100.558 41.3551C100.105 41.9818 99.7236 42.6573 99.4212 43.3692C99.1534 44.0194 98.979 44.7042 98.9031 45.4033C98.2822 45.1932 97.6796 44.9323 97.1016 44.6232C96.454 44.2843 95.8396 43.8854 95.2665 43.4318C94.6934 42.9796 94.1759 42.4611 93.7247 41.8872C93.2766 41.3133 92.9146 40.6772 92.6502 39.9988C92.1467 38.6305 92.0356 37.1487 92.3296 35.7207C92.4127 35.2815 92.523 34.8479 92.66 34.4224C93.3845 34.9291 94.0672 35.4931 94.7016 36.1089C95.1242 36.52 95.5058 36.971 95.8411 37.4558C96.007 37.6952 96.1507 37.9492 96.2705 38.2146C96.3294 38.3449 96.3787 38.4793 96.4181 38.6168C96.4583 38.7453 96.4805 38.8788 96.484 39.0135C96.4836 39.0319 96.4865 39.0503 96.4924 39.0677C96.4991 39.0878 96.5097 39.1063 96.5237 39.1222C96.5376 39.1381 96.5546 39.151 96.5737 39.1602V39.1592ZM110.664 18.0555C110.634 18.1298 110.612 18.205 110.586 18.2891C110.561 18.3658 110.54 18.4437 110.524 18.5227C110.451 18.8338 110.402 19.1499 110.376 19.4683C110.33 20.0963 110.338 20.7271 110.398 21.3539L110.444 21.8211L110.508 22.2827C110.542 22.5527 110.591 22.8227 110.639 23.0839L110.661 23.2054C110.714 23.5021 110.782 23.8043 110.848 24.0963C110.918 24.4093 110.985 24.7037 111.032 24.9864C111.118 25.5495 111.128 26.1217 111.06 26.6874C110.984 27.2535 110.837 27.8078 110.624 28.3376C110.167 29.4146 109.528 30.4049 108.735 31.265C107.154 32.964 105.333 34.4224 103.329 35.5941C103.319 35.4665 103.306 35.3493 103.292 35.2385C103.185 34.4643 103.006 33.7018 102.757 32.9609C102.651 32.6278 102.523 32.2812 102.36 31.8705C102.279 31.664 102.191 31.4584 102.105 31.2557C102.042 31.1076 101.98 30.9618 101.922 30.8184C101.64 30.1379 101.408 29.4381 101.227 28.7244C100.851 27.3181 100.788 25.8463 101.043 24.4131C101.298 22.9647 101.96 21.6192 102.953 20.5349C103.947 19.4506 105.229 18.6727 106.65 18.2928C107.665 18.0036 108.715 17.8572 109.77 17.8578C110.091 17.8578 110.411 17.8714 110.728 17.8985C110.701 17.9564 110.681 18.0083 110.664 18.0569L110.664 18.0555ZM97.5113 23.5347C97.3835 22.0086 96.9352 20.5267 96.1957 19.1856C95.6281 18.105 94.9552 17.0831 94.1867 16.1348C94.6142 16.4143 95.0169 16.7301 95.3903 17.0785C95.9722 17.6117 96.4785 18.2219 96.8951 18.8922C97.1026 19.2251 97.2808 19.5755 97.4277 19.9392C97.5777 20.3013 97.6933 20.6767 97.773 21.0604C97.9353 21.8257 97.9646 22.6133 97.8594 23.3885C97.7966 23.8809 97.6692 24.3628 97.4805 24.8219C97.5268 24.3949 97.537 23.9648 97.5109 23.5362L97.5113 23.5347Z" fill="#48495B"/>
</g>
<defs>
<clipPath id="clip0_587_4581">
<rect width="112" height="45.8261" fill="white"/>
</clipPath>
</defs>
</svg>
