<svg id="Layer_1" data-name="Layer 1" xmlns="http://www.w3.org/2000/svg" viewBox="0 0 305 300"><defs><style>.cls-1{fill:#ff7171;}.cls-2{fill:#48495a;}</style></defs><path id="Path_1274" data-name="Path 1274" class="cls-1" d="M1.22,129.49a1.31,1.31,0,0,0,1.29,1.29H37.65a1.16,1.16,0,0,0,1.28-1,.28.28,0,0,0,0-.09v-1.79c0-.69-.1-1.29-1.29-1.29H5.89V62.4A1.31,1.31,0,0,0,4.7,61.1H2.51a1.32,1.32,0,0,0-1.29,1.3Zm51,0a1.31,1.31,0,0,0,1.29,1.29h2.09A1.35,1.35,0,0,0,57,129.5h0V62.4a1.34,1.34,0,0,0-1.3-1.3H53.47a1.32,1.32,0,0,0-1.29,1.3Zm26.67,0a1.33,1.33,0,0,0,1.3,1.29h35.13a1.17,1.17,0,0,0,1.29-1s0-.06,0-.09v-1.79c0-.69-.1-1.29-1.3-1.29H83.53V62.4a1.31,1.31,0,0,0-1.2-1.3H80.14a1.32,1.32,0,0,0-1.29,1.3Zm51,0a1.31,1.31,0,0,0,1.29,1.29h35.14a1.16,1.16,0,0,0,1.28-1,.28.28,0,0,0,0-.09v-1.79c0-.69-.1-1.29-1.29-1.29H134.49V62.4a1.31,1.31,0,0,0-1.19-1.3h-2.19a1.32,1.32,0,0,0-1.29,1.3Zm59.82,0c0,1.59,2.09,1.29,3.39,1.29a1.31,1.31,0,0,0,1.29-1.29V96.84L220.2,62.6c.6-.8.2-1.5-.8-1.5h-3a1.64,1.64,0,0,0-1.3.6l-23.1,31-22.69-31a1.61,1.61,0,0,0-1.29-.6h-3c-1,0-1.39.7-.79,1.5l25.38,34.34Z"/><path id="Path_1275" data-name="Path 1275" class="cls-1" d="M265.44,132.71a.31.31,0,0,0,.3-.31h0v-6.34a.3.3,0,0,0-.3-.31H265a.31.31,0,0,0-.31.31h0v5.41h-4.1v-4.62a.31.31,0,0,0-.31-.31h-.46a.32.32,0,0,0-.31.31v4.62h-3.93v-5.41a.3.3,0,0,0-.3-.31h-.47a.31.31,0,0,0-.31.31h0v6.34a.31.31,0,0,0,.3.31h10.67Zm-.84-9a5.26,5.26,0,0,0,1.3-3.4,3.25,3.25,0,0,0-3-3.48c-1.87,0-2.69,1.4-3.58,3.58-.56,1.35-1.06,2.17-2.2,2.17-.68,0-1.78-.52-1.78-2.22a3.8,3.8,0,0,1,.65-2.14c.14-.26.14-.44-.08-.57l-.28-.16a.37.37,0,0,0-.52.06.05.05,0,0,0,0,0,5.25,5.25,0,0,0-.81,2.75A3.05,3.05,0,0,0,257,123.8l.19,0c1.83,0,2.51-1.06,3.27-2.83s1.43-2.83,2.54-2.83a2,2,0,0,1,1.84,2,.41.41,0,0,1,0,.11,4.67,4.67,0,0,1-1.17,2.77c-.2.23-.11.35.09.52l.31.24c.29.23.44,0,.55-.09Zm.84-11.37a.32.32,0,0,0,.3-.31v-.61a.32.32,0,0,0-.3-.31h-9.89v-2.8a.32.32,0,0,0-.3-.31h-.47a.31.31,0,0,0-.31.31h0v6.84a.31.31,0,0,0,.3.3h.47a.3.3,0,0,0,.31-.3h0v-2.81Zm0-6.59a.3.3,0,0,0,.3-.3h0V99.15a.31.31,0,0,0-.3-.31H265a.31.31,0,0,0-.31.31h0v5.41h-4.1V99.94a.3.3,0,0,0-.31-.3h-.46a.3.3,0,0,0-.31.3v4.62h-3.93V99.15a.3.3,0,0,0-.3-.3h-.47a.3.3,0,0,0-.31.3h0v6.35a.3.3,0,0,0,.3.3h10.67Zm-12.31-2.17c.13-.07.13-.14,0-.37l-1.08-2.59a.24.24,0,0,0-.32-.11h0l-.58.29c-.14.08-.11.32,0,.42l1.36,2.41a.22.22,0,0,0,.31.1h0Zm12.31-9.37a.32.32,0,0,0,.3-.31v-.61a.32.32,0,0,0-.3-.31h-9.89v-2.8a.31.31,0,0,0-.3-.31h-.47a.31.31,0,0,0-.31.31h0v6.83a.31.31,0,0,0,.3.31h.47a.31.31,0,0,0,.31-.31h0v-2.8Zm0-6.59a.31.31,0,0,0,.3-.31v-.64a.32.32,0,0,0-.3-.31H254.78a.33.33,0,0,0-.31.31v.65a.33.33,0,0,0,.31.31Zm-5.32-3.93A5.77,5.77,0,0,0,265.9,78v0a5.7,5.7,0,0,0-1.56-3.83.29.29,0,0,0-.43,0h0l-.37.37a.27.27,0,0,0-.05.38l0,0A4.31,4.31,0,0,1,264.73,78a4.63,4.63,0,0,1-9.26,0,4.74,4.74,0,0,1,1.21-3.08c.16-.16.17-.29,0-.42l-.43-.43a.31.31,0,0,0-.44,0h0a5.63,5.63,0,0,0-1.49,3.9,5.78,5.78,0,0,0,5.78,5.81Zm5.62-11.2V71.9a.32.32,0,0,0-.17-.28l-2.66-1.17V64.73l2.66-1.19a.3.3,0,0,0,.17-.27v-.65a.28.28,0,0,0-.25-.31.33.33,0,0,0-.17,0l-10.83,4.86a.28.28,0,0,0-.18.27v.16a.31.31,0,0,0,.18.28l10.83,4.89a.28.28,0,0,0,.39-.11A.21.21,0,0,0,265.74,72.54ZM261.91,70l-5.28-2.35v-.13c1.76-.79,3.53-1.56,5.28-2.35Z"/><path id="Path_1276" data-name="Path 1276" class="cls-2" d="M3,144.6v-3.94H5.44a1.87,1.87,0,0,1,2.09,1.65,1.29,1.29,0,0,1,0,.28,2,2,0,0,1-1.9,2H3Zm0,5.14v-4H5.73a2,2,0,0,1,2.18,1.91v.07A2,2,0,0,1,6,149.74H3Zm4.39-4.67a2.94,2.94,0,0,0-1.46-5.54H2.09a.3.3,0,0,0-.31.3h0v10.66a.31.31,0,0,0,.3.31H5.87A3.15,3.15,0,0,0,9.26,148c0-.08,0-.16,0-.24a2.83,2.83,0,0,0-1.92-2.61Zm5.07,5.44a.31.31,0,0,0,.31.31h6.34a.31.31,0,0,0,.31-.31h0V150a.3.3,0,0,0-.3-.3H13.66v-4.11h4.62a.3.3,0,0,0,.31-.3h0v-.46a.31.31,0,0,0-.31-.31H13.66v-3.93h5.41a.3.3,0,0,0,.31-.3h0v-.47a.3.3,0,0,0-.3-.31H12.73a.3.3,0,0,0-.31.3h0Zm9.89,0a.31.31,0,0,0,.3.31h5.58a.3.3,0,0,0,.3-.31h0V150a.29.29,0,0,0-.3-.3H23.55v-9.89a.33.33,0,0,0-.31-.31h-.63a.31.31,0,0,0-.3.31h0Zm8.57,0a.3.3,0,0,0,.3.31h6.35a.3.3,0,0,0,.3-.31h0V150a.29.29,0,0,0-.3-.3H32.12v-4.11h4.62a.31.31,0,0,0,.31-.3h0v-.46a.32.32,0,0,0-.31-.31H32.11v-3.93h5.41a.3.3,0,0,0,.31-.3h0v-.47a.3.3,0,0,0-.3-.31H31.18a.32.32,0,0,0-.31.31h0Zm8.77,0a.33.33,0,0,0,.31.31h6.66a.31.31,0,0,0,.31-.31h0V150a.3.3,0,0,0-.3-.31H41.31l5.86-9.46a.65.65,0,0,0,.08-.31v0a.31.31,0,0,0-.31-.31H40.42a.31.31,0,0,0-.3.31v.51a.32.32,0,0,0,.3.31h5.07v0l-5.76,9.34a.68.68,0,0,0-.08.31Zm9.07.31h.64a.28.28,0,0,0,.27-.18L50.81,148h5.71l1.2,2.66a.28.28,0,0,0,.27.18h.64a.28.28,0,0,0,.31-.26.25.25,0,0,0,0-.17L54,139.56a.28.28,0,0,0-.27-.18h-.16a.28.28,0,0,0-.27.18l-4.9,10.84a.29.29,0,0,0,.11.38.33.33,0,0,0,.17,0ZM51.26,147l2.35-5.28h.13c.79,1.76,1.56,3.53,2.35,5.28Zm14.4,3.54a.32.32,0,0,0,.31.3h.64a.31.31,0,0,0,.31-.3V139.85a.32.32,0,0,0-.31-.31H66a.33.33,0,0,0-.31.31Zm5,0a.32.32,0,0,0,.31.3h.56a.3.3,0,0,0,.31-.3h0v-8.76h0l7.29,9.09a.28.28,0,0,0,.26.13h.13a.3.3,0,0,0,.3-.29V139.85a.31.31,0,0,0-.3-.31h-.57a.3.3,0,0,0-.3.31h0v8.59h0l-7.16-8.93a.3.3,0,0,0-.25-.13h-.25a.32.32,0,0,0-.31.3h0Zm14.86,0a.32.32,0,0,0,.31.3h.61a.32.32,0,0,0,.31-.3v-9.89h2.8a.31.31,0,0,0,.31-.3h0v-.46a.31.31,0,0,0-.31-.31H82.69a.3.3,0,0,0-.31.3h0v.46a.31.31,0,0,0,.31.31h2.8Zm6.91,0a.31.31,0,0,0,.31.3H99a.3.3,0,0,0,.31-.3h0V150a.3.3,0,0,0-.3-.3H93.63v-4.11h4.62a.3.3,0,0,0,.31-.3h0v-.46a.31.31,0,0,0-.31-.31H93.64v-3.93h5.41a.29.29,0,0,0,.3-.3h0v-.47a.3.3,0,0,0-.3-.31H92.7a.31.31,0,0,0-.3.31h0Zm9.89,0a.3.3,0,0,0,.3.3h5.57a.3.3,0,0,0,.31-.3h0V150a.29.29,0,0,0-.3-.3h-4.64v-9.89a.32.32,0,0,0-.3-.31h-.63a.31.31,0,0,0-.31.31h0Zm8.56,0a.33.33,0,0,0,.32.3h.64a.33.33,0,0,0,.31-.31V139.85a.33.33,0,0,0-.31-.31h-.64a.33.33,0,0,0-.31.31Zm4.26-5.32a5.77,5.77,0,0,0,5.76,5.78h0a8,8,0,0,0,4-1.06.43.43,0,0,0,.13-.26V146a.32.32,0,0,0-.29-.31h-2.79a.3.3,0,0,0-.3.29v.62a.29.29,0,0,0,.29.29h1.87v2.26a6,6,0,0,1-2.9.68,4.64,4.64,0,0,1,0-9.28h0a4.82,4.82,0,0,1,3,1.26c.18.16.28.17.43,0l.45-.45a.31.31,0,0,0,0-.44h0a5.66,5.66,0,0,0-3.89-1.5,5.8,5.8,0,0,0-5.82,5.79v0Zm13.13,5.32a.31.31,0,0,0,.3.3h6.36a.29.29,0,0,0,.3-.3h0V150a.29.29,0,0,0-.3-.3h-5.41v-4.11h4.62a.29.29,0,0,0,.3-.3h0v-.46a.3.3,0,0,0-.3-.31h-4.62v-3.93h5.41a.29.29,0,0,0,.3-.3h0v-.47a.3.3,0,0,0-.3-.31h-6.34a.3.3,0,0,0-.31.3h0Zm9.89,0a.31.31,0,0,0,.3.3H139a.29.29,0,0,0,.3-.3h0v-8.76h0l7.3,9.09a.3.3,0,0,0,.26.13H147a.31.31,0,0,0,.31-.29V139.85a.32.32,0,0,0-.31-.31h-.56a.31.31,0,0,0-.31.31h0v8.59h0l-7.16-8.93a.32.32,0,0,0-.26-.13h-.24a.3.3,0,0,0-.3.29Zm14.86,0a.31.31,0,0,0,.3.3h.62a.31.31,0,0,0,.3-.3v-9.89H157a.31.31,0,0,0,.31-.3h0v-.46a.3.3,0,0,0-.3-.31h-6.83a.3.3,0,0,0-.31.3h0v.46a.31.31,0,0,0,.3.31H153Zm6.91,0a.29.29,0,0,0,.3.3h6.35a.3.3,0,0,0,.3-.3h0V150a.29.29,0,0,0-.3-.3h-5.41v-4.11h4.62a.29.29,0,0,0,.3-.3h0v-.46a.3.3,0,0,0-.3-.31h-4.62v-3.93h5.41a.3.3,0,0,0,.3-.3h0v-.47a.3.3,0,0,0-.3-.31h-6.35a.3.3,0,0,0-.3.31h0Z"/><path id="Path_1273" data-name="Path 1273" class="cls-2" d="M303.31,158.09h0c-.29-1.44-.67-2.75-1-4-.28-1-.55-1.9-.78-2.87l-.12-.48c-.23-.95-.47-1.93-.65-2.91l-.34-1.69-.27-1.71a41.4,41.4,0,0,1-.5-6.85,22.35,22.35,0,0,1,.32-3.37,6.83,6.83,0,0,1,.16-.81l0-.08a7.27,7.27,0,0,1,.2-.73,6.45,6.45,0,0,1,.57-1.39l.06-.09a.83.83,0,0,0,.1-.34.79.79,0,0,0-.73-.85,52.46,52.46,0,0,0-17.42,1.86,37,37,0,0,0-15.43,8.47,30.56,30.56,0,0,0-9,15.59,38.06,38.06,0,0,0,.66,18.09,55.22,55.22,0,0,0,2.94,8.48c.26.59.51,1.16.77,1.72.34.76.67,1.51,1,2.26.61,1.43,1.12,2.74,1.57,4a45.44,45.44,0,0,1,2.2,8.17q.19,1.23.3,2.49a146.07,146.07,0,0,1-22.63,10.77c-.07-.34-.14-.68-.24-1a14.47,14.47,0,0,0-.64-1.7,25.51,25.51,0,0,0-1.74-3.11,42.26,42.26,0,0,0-4.44-5.45c-1.62-1.73-3.39-3.33-5.07-4.81-.92-.81-1.91-1.64-3.11-2.61a67.48,67.48,0,0,1,4-8.8c1.28-2.35,2.74-4.79,4.36-7.24,1.29-2,2.63-3.81,4.06-5.76l.86-1.19c.1-.14.18-.27.27-.41l.14-.2a45.24,45.24,0,0,0,5.69-9.92,30,30,0,0,0,1.78-6.85,27.48,27.48,0,0,0-.57-9.52,26.69,26.69,0,0,0-1.52-4.52,28.06,28.06,0,0,0-2.25-4.18,34.22,34.22,0,0,0-6.17-7.09A43.85,43.85,0,0,0,233,122a.56.56,0,0,0-.68.86h0a64.51,64.51,0,0,1,5,6.82,63,63,0,0,1,4.14,7.4,41.58,41.58,0,0,1,4.26,16.1,26.13,26.13,0,0,1-1,8.1,21.83,21.83,0,0,1-1,2.7,4,4,0,0,1-3.47.69,5.73,5.73,0,0,1-1.72-.84,9.49,9.49,0,0,1-1.49-1.41,26.21,26.21,0,0,1-2.58-3.6,63,63,0,0,1-4.1-8.12,107.62,107.62,0,0,1-5.67-17.44,72,72,0,0,1-1.53-9,34.76,34.76,0,0,1,.07-9,14.49,14.49,0,0,1,1.27-4.17,7.36,7.36,0,0,1,2.69-3.08,9.66,9.66,0,0,1,1.94-.87c.78-.28,1.47-.54,2.18-.83,1.29-.5,2.65-1.09,4.28-1.87a35.37,35.37,0,0,0,7.91-5,15.11,15.11,0,0,0,3.12-3.59,9.42,9.42,0,0,0,1-2.2,5.36,5.36,0,0,0,.2-2.45.29.29,0,0,0-.33-.23l-.14,0-.12.21v.1a4.83,4.83,0,0,1-.28,2.13,8.53,8.53,0,0,1-1,2,12.1,12.1,0,0,1-.83,1.06,16.28,16.28,0,0,1-1.82,1.7,14,14,0,0,1-5.42,2.79,4.89,4.89,0,0,1-2.81-.11,3.56,3.56,0,0,1-1.9-1.86,9.31,9.31,0,0,1-.4-1l-.14-.41a12.68,12.68,0,0,0-.7-1.55,10.71,10.71,0,0,0-1-1.45,7.08,7.08,0,0,0-1-1.07l-1.17-3.59a.8.8,0,0,0-.43-.49,4.28,4.28,0,0,1-2.1-1.55.89.89,0,0,1,0-.85,3.87,3.87,0,0,1,.21-.34c.06-.09.13-.18.19-.28s.29-.49.42-.75a11.17,11.17,0,0,0,.65-1.56l.1-.37a6.92,6.92,0,0,0,.06-3.2l0-.06a19.74,19.74,0,0,1-2.45-3.76,12,12,0,0,1-.65-4.33A21.18,21.18,0,0,1,226,65.92h0a14.29,14.29,0,0,0,1,2.34,13.32,13.32,0,0,0,3.2,3.92,13.89,13.89,0,0,0,4.35,2.46,19.93,19.93,0,0,0,4.82,1l.21,0,0-.21c0-.21-.15-.26-.32-.3a18.74,18.74,0,0,1-4.37-1.47l-.38-.2A16.2,16.2,0,0,1,231,71.23a13.1,13.1,0,0,1-2.74-3.66,13.57,13.57,0,0,1-1.37-4.34.79.79,0,0,0-.44-.62.83.83,0,0,0-.6,0,.75.75,0,0,0-.43.41,30.24,30.24,0,0,0-1.67,4.52,19.67,19.67,0,0,0-.67,4.83,11.78,11.78,0,0,0,.9,4.87,12.87,12.87,0,0,0,1.87,2.87,4,4,0,0,1,.59,1,4.06,4.06,0,0,1,.26,1.29,3.84,3.84,0,0,1-.21,1.34,9,9,0,0,1-.64,1.33c-.12.21-.25.42-.39.62l-.17.23a3.76,3.76,0,0,0-.32.46,2.29,2.29,0,0,0,0,2.2A4.07,4.07,0,0,0,226.17,90a9.39,9.39,0,0,0,1.16.73l1.14,3.51a.81.81,0,0,0,.28.4l.06,0a5.36,5.36,0,0,1,1,.9,9.2,9.2,0,0,1,.87,1.18,12.8,12.8,0,0,1,.68,1.33c0,.13.11.27.16.41a10,10,0,0,0,.49,1.12,4.72,4.72,0,0,0,2.66,2.38,5.34,5.34,0,0,0,2.63.19c-.7.36-1.45.71-2.26,1.07-1.6.69-2.95,1.22-4.24,1.67-.74.27-1.5.52-2.16.74a11.48,11.48,0,0,0-2.29.94,9.12,9.12,0,0,0-3.43,3.7,16,16,0,0,0-1.57,4.66,36.73,36.73,0,0,0-.36,9.54,71.83,71.83,0,0,0,1.4,9.34q1,4.59,2.46,9.08a92.16,92.16,0,0,0,3.32,8.79,66,66,0,0,0,4.33,8.4,28,28,0,0,0,2.87,3.9,12.42,12.42,0,0,0,1.91,1.71,8,8,0,0,0,2.43,1.13,5.9,5.9,0,0,0,2.51.09c-.35.58-.72,1.13-1.09,1.64L238.56,172c-.9,1.27-1.71,2.45-2.44,3.59a78.46,78.46,0,0,0-4.41,7.51,61.24,61.24,0,0,0-3.62,8.51l0,0-.33-.26c-3.47-2.64-7.22-5.21-11.5-7.86l-2.95-1.81c-1-.61-2-1.25-2.85-1.79a63.18,63.18,0,0,1-5.35-4,31.06,31.06,0,0,1-8.16-10.09,21.25,21.25,0,0,1-1.83-12.59,33.39,33.39,0,0,1,4.85-12.38,45.79,45.79,0,0,1,4-5.5,44.75,44.75,0,0,1,4.29-4.52,27.19,27.19,0,0,1,6.71,9.08,38.07,38.07,0,0,1,3.14,11.45,39.84,39.84,0,0,1-.38,11.89,47,47,0,0,1-1.38,5.86c-.18.61-.38,1.24-.58,1.84-.12.35-.23.7-.34,1l-1.06,2.87a.43.43,0,0,0,.21.54.47.47,0,0,0,.33,0,.45.45,0,0,0,.25-.22l0-.06c.45-.88.91-1.79,1.34-2.71l.42-1c.26-.6.53-1.22.76-1.85a48,48,0,0,0,1.78-6,36.75,36.75,0,0,0,.71-12.5,31.92,31.92,0,0,0-3.95-11.86,46,46,0,0,0-3.4-5.2,32.8,32.8,0,0,0-4.19-4.62.64.64,0,0,0-.84,0,58.42,58.42,0,0,0-9.46,10.34,35.39,35.39,0,0,0-6,13,24.92,24.92,0,0,0-.44,7.36,23.2,23.2,0,0,0,1.91,7.18,31.75,31.75,0,0,0,9,11.33,48.12,48.12,0,0,0,5.8,4.14c1.8,1.12,3.66,2.1,5.46,3l.64.34c4.36,2.33,8.21,4.61,11.78,7l.64.44.28.19a45.78,45.78,0,0,0-1.33,6A31.79,31.79,0,0,0,228,217a34.64,34.64,0,0,0,10.64,13.62,50.23,50.23,0,0,0,15.14,8.24.32.32,0,0,0,.14,0,.09.09,0,0,0,.07,0,.66.66,0,0,0,.43-.15.73.73,0,0,0,.25-.48,27.46,27.46,0,0,1,2.16-8.2,37.07,37.07,0,0,1,4.43-7.28c.51-.7,1-1.38,1.57-2.08,1.23-1.6,2.5-3.25,3.63-5A24.53,24.53,0,0,0,270,207.3a24.11,24.11,0,0,0,.51-5.36l.13-.06a121.65,121.65,0,0,0,12.09-7.43,69.73,69.73,0,0,0,10.91-9.31,40.25,40.25,0,0,0,8.1-12.19,27.33,27.33,0,0,0,1.86-7.29A25,25,0,0,0,303.31,158.09Zm-58.86,55.12a.59.59,0,0,0,.47,0c2.25-.77,4.4-1.62,6.59-2.5s4.38-1.79,6.5-2.73c3.63-1.6,6.9-3.16,10-4.73a21,21,0,0,1-.31,3.53h0a22.75,22.75,0,0,1-3,7.71c-1,1.69-2.21,3.37-3.36,5-.51.7-1,1.42-1.53,2.15a39.67,39.67,0,0,0-4.37,7.75,28.64,28.64,0,0,0-2,7.83,45.79,45.79,0,0,1-6.93-3,44.2,44.2,0,0,1-7.06-4.58,35.08,35.08,0,0,1-5.93-5.94,28.78,28.78,0,0,1-4.14-7.27A30.16,30.16,0,0,1,228.13,200a41.14,41.14,0,0,1,1.27-5,63.45,63.45,0,0,1,7.86,6.49,35.6,35.6,0,0,1,4.38,5.19,18.25,18.25,0,0,1,1.65,2.92,11.92,11.92,0,0,1,.56,1.55,5.71,5.71,0,0,1,.26,1.53.76.76,0,0,0,0,.21A.63.63,0,0,0,244.45,213.21ZM298.67,132a9.27,9.27,0,0,0-.3.89,7.17,7.17,0,0,0-.24.91,24.83,24.83,0,0,0-.57,3.64,43.87,43.87,0,0,0,.09,7.25l.17,1.8.25,1.78c.13,1,.32,2.08.5,3.08l.09.47c.2,1.14.46,2.31.72,3.43s.52,2.34.7,3.42a24.35,24.35,0,0,1,.11,6.55,26.54,26.54,0,0,1-1.68,6.36,39.29,39.29,0,0,1-7.26,11.26,91.69,91.69,0,0,1-20.81,16.66c0-.49-.09-.94-.14-1.37a47.87,47.87,0,0,0-2.06-8.76c-.4-1.29-.89-2.62-1.52-4.2-.31-.79-.65-1.59-1-2.37l-.71-1.68a60.25,60.25,0,0,1-2.67-8.05,38.25,38.25,0,0,1-.71-16.59,29.74,29.74,0,0,1,21.57-23.56,44,44,0,0,1,12-1.67c1.23,0,2.46.05,3.69.16a5.77,5.77,0,0,0-.25.59Zm-50.61,21.08A41.78,41.78,0,0,0,243,136.35h0a71.43,71.43,0,0,0-7.72-11.74,34.41,34.41,0,0,1,4.63,3.63,33.45,33.45,0,0,1,5.79,7,26.32,26.32,0,0,1,2.05,4,24.71,24.71,0,0,1,1.33,4.31,26.38,26.38,0,0,1,.33,8.95A21.46,21.46,0,0,1,248,158,28.1,28.1,0,0,0,248.06,153.08Z"/></svg>