<svg width="348" height="316" xmlns="http://www.w3.org/2000/svg" xmlns:xlink="http://www.w3.org/1999/xlink">
    <defs>
        <path id="a" d="M0 .072h110.986v182.461H0z"/>
        <path id="c" d="M.248.107h43.696v42.109H.248z"/>
        <path id="e" d="M0 0h318v149.866H0z"/>
        <path id="g" d="M.027.105h11.034v10.75H.027z"/>
        <path id="i" d="M.058.212h49.611v97.134H.058z"/>
    </defs>
    <g fill="none" fill-rule="evenodd">
        <path d="M0 0h348v315H0z"/>
        <path fill="#684857" opacity=".391" d="M21 278h307v-1H21z"/>
        <path fill="#FBE4E9" d="M93 291h56v-1H93zM162 291h98v-1h-98z"/>
        <g>
            <g transform="translate(31.88 84.984)">
                <mask id="b" fill="#fff">
                    <use xlink:href="#a"/>
                </mask>
                <path d="M84.893 179.778c-1.121-11.948 25.046-48.701 19.793-71.758-2.905-12.754-11.23-26.25-27.38-19.717 0 0 1.676-66.619-45.778-68.348-20.156-.735-32.98 33.34-13.837 46.241 20.356 13.72 27.966 26.905 19.425 25.16-25.567-5.227-14.102 24.554 18.834 53.497 9.568 8.407 27.718 22.024 28.943 34.925" fill="#FFF" mask="url(#b)"/>
            </g>
            <path d="M117.746 259.056c-1.08-11.535 22.11-45.788 17.049-68.05-2.8-12.313-11.642-22.074-27.205-15.767 0 0 4.46-68.824-41.269-70.494-19.423-.709-27.604 30.732-9.157 43.19 19.616 13.246 26.272 30.56 15.896 28.188-24.513-5.604-14.944 21.268 16.795 49.213 9.22 8.117 26.71 21.265 27.891 33.72" fill="#FFC6C7"/>
            <path d="M118.23 273.754c-1.807-55.701-15.036-92.099-25.816-112.824-11.677-22.452-23.073-31.856-23.187-31.949l.308-.364c.114.093 11.57 9.54 23.293 32.065 6.88 13.22 12.508 28.299 16.73 44.815 5.275 20.641 8.355 43.601 9.154 68.242l-.482.015z" fill="#FFF"/>
            <path d="M113.564 222.313c-3.936-16.548-13.858-27.827-30.332-34.48l.194-.427c16.63 6.716 26.645 18.101 30.618 34.805l-.48.102z" fill="#FFF"/>
            <path d="M108.423 103.085s-26.349-48.57-40.256-34.598c-14.41 14.477 38.285 31.351 40.256 34.598" fill="#FFF7F7"/>
            <path d="M306.132 271.195s26.287-21.466 4.378-50.236c-21.908-28.768-53.953.519-80.054-3.887-26.1-4.406-38.018-71.485-92.69-95.48-58.926-25.864-109.718 30.56-109.718 86.016 0 29.07 11.396 46.959 24.773 63.069l253.311.518z" fill="#FFDBDB" opacity=".231"/>
            <g>
                <g transform="translate(242.591 77.066)">
                    <mask id="d" fill="#fff">
                        <use xlink:href="#c"/>
                    </mask>
                    <path d="M42.269 9.473 8.122 42.216.248 34.42 34.395 1.678c2.21-2.118 5.763-2.09 7.937.061a5.37 5.37 0 0 1-.063 7.734" fill="#F8D1D0" mask="url(#d)"/>
                </g>
                <path d="M181.673 86.554c-.299-1.422-1.345-2.532-2.682-3.052l1.802 6.436c.778-.924 1.14-2.144.88-3.384M153.476 180.013l1.55-1.212-11.011-37.375-13.016 7.891-.138-.229-1.5.91.138.228-2.3 1.394-.136-.23-3.376 2.047 6.656 11.932.232-.13 5.81 10.413-.233.131 2.993 5.365 11.341 1.652a23.49 23.49 0 0 1 2.99-2.787" fill="#684857"/>
                <path d="M140.664 123.31a8.625 8.625 0 0 1 2.878-1.109c.313-.072.639-.117.974-.13l.178-.008c.044-.003.088-.004.132-.005l6.805-.286 6.635-.278-2.97-21.62-.656.13c-1.81.358-3.565-.833-3.92-2.66-.355-1.826.825-3.597 2.635-3.955l.144-.029.553-.11a20.297 20.297 0 0 0 6.56-2.564 5.012 5.012 0 0 1 .815-3.336 4.931 4.931 0 0 1 5.305-2.069 26.077 26.077 0 0 1 10.385-6.122l1.002 3.874c1.817.455 2.174 4.014 2.558 5.986.34 1.755.852 1.389-.354 2.531l1.19 4.601c1.577 6.095-2.266 12.27-8.391 13.481l-1.606.318 1.403 10.217c.033.238.053.475.063.71l2.188-.09 1.608-.068a8.755 8.755 0 0 1 .914.009l.038.003c.137.01.274.021.41.037l.051.007c.13.016.26.034.39.056l.055.01c.128.023.254.047.379.075l.056.013c.125.029.248.06.37.093l.054.016c.123.035.245.072.367.113l.043.015c.124.042.247.086.368.133l.034.014c.125.05.248.101.37.156l.021.01a8.75 8.75 0 0 1 .38.184 8.745 8.745 0 0 1 2.803 2.283l3.217 3.383c.999-9.69-6.131-10.347-5.13-20.039a12.37 12.37 0 0 1 .763-3.254 24.92 24.92 0 0 0 2.828-4.433 25.134 25.134 0 0 0 2.39-7.68c1.965-13.69-7.443-26.402-21.016-28.386-13.567-1.984-26.162 7.511-28.127 21.202a25.176 25.176 0 0 0 .132 8.048 24.796 24.796 0 0 0 1.46 5.045c.094 1.008.05 2.118-.178 3.355-1.766 9.581-8.796 8.166-10.562 17.748-1.131 6.14.188 8.756.918 12.377l9.157-7.35c.294-.232.603-.452.931-.652z" fill="#684857"/>
                <path d="M143.965 205.85v-.01a9.757 9.757 0 0 1-.028-.698v-.276l-2.737 49.65 2.762-48.665h.003z" fill="#FF95A9"/>
                <g transform="translate(14 120.28)">
                    <mask id="f" fill="#fff">
                        <use xlink:href="#e"/>
                    </mask>
                    <g mask="url(#f)" fill="#F8D1D0">
                        <path d="m122.603 218.92 8.663.823 11.376-85.351h-15.168zM172.365 134.236h-14.748v85.507h8.685l3.576-47.893-.262-.02.511-6.983.273.02.18-2.42-.276-.02z"/>
                    </g>
                </g>
                <path d="M177.842 120.283h-.002a8.685 8.685 0 0 1 .002 0M181.757 121.199c2.184 1.15 3.838 3.23 4.461 5.74.06.231.107.463.147.696a9.025 9.025 0 0 0-1.811-4.108 8.771 8.771 0 0 0-2.797-2.328M186.363 128.536l.005.036-.005-.036" fill="#FF95A9"/>
                <path d="m190.415 139.815-.183-.185.002-.001-2.131-2.147.372-.367 2.497 2.516-.004.004c.303.324.582.67.832 1.033l-.433.295a8.343 8.343 0 0 0-.952-1.148m-4.59-12.121-.004-.036.005.036m25.763 24.44.002-.001-24.41-25.337-3.21-3.331a8.567 8.567 0 0 1 1.811 3.965 8.655 8.655 0 0 0-5.377-6.558l-.033-.013a8.878 8.878 0 0 0-.367-.131l-.044-.016a8.449 8.449 0 0 0-.366-.11l-.052-.016a8.403 8.403 0 0 0-.37-.091l-.057-.014a8.227 8.227 0 0 0-.377-.073l-.056-.01a8.652 8.652 0 0 0-.388-.055l-.052-.007a8.758 8.758 0 0 0-.408-.036 9.456 9.456 0 0 0-.487-.02h-.003a9.248 9.248 0 0 0-.458.007h-.002l-1.604.067.64 15.34-24.123-14.37-6.788.282a5.581 5.581 0 0 0-.132.005l-.177.007c-.335.014-.66.058-.972.13a8.669 8.669 0 0 0-3.798 1.735l-.001-.002-9.136 7.237-19.484 15.436a6.254 6.254 0 0 0-1.118 8.653l-.003.003 23.684 31.668h.001l6.246-4.046h.001l-1.195-2.123-2.946-5.231-.228.127-5.719-10.154.229-.128-6.552-11.635 3.323-1.996-.136-.223 2.263-1.359.135.224 1.477-.887-.135-.223 16.86-10.126.271.447-4.048 2.431 10.839 36.444.143-.11h24.081v-.262h6.9c-.003-.126-.001-.252-.006-.38l.108-22.783a8.82 8.82 0 0 1-1.33.102 9.01 9.01 0 0 1-4.837-1.415l.283-.44a8.465 8.465 0 0 0 5.264 1.303 8.405 8.405 0 0 0 2.683-.69c4.123-1.825 6.061-6.527 4.411-10.705l.488-.191c1.753 4.44-.306 9.435-4.686 11.372a9.049 9.049 0 0 1-1.565.526l9.265 11.577c.758.945 1.691 1.775 2.791 2.437a10.502 10.502 0 0 0 5.44 1.51l17.4-.004v-15.323h-8.067a10.422 10.422 0 0 0-1.736-2.41" fill="#FFC7BD"/>
                <path d="M179.25 180.302v-.26h-23.857l-.143.111-1.512 1.178a22.865 22.865 0 0 0-6.451 7.912l2.148.364a4.631 4.631 0 0 1 3.786 5.34 4.622 4.622 0 0 1-5.327 3.796 4.598 4.598 0 0 1-1.436-.501l-.001.004-1.468-.8a23.116 23.116 0 0 0-.085 1.98v6.619a8.259 8.259 0 0 0 .028.685v.01l-2.81 47.768v.007h44.019l.803-10.962.347.026.638-8.594.284-3.818-.259-.02 1.811-24.425c.02-.258.028-.473.028-.677v-8.054h.26v-1.01c0-1.086-.048-2.17-.14-3.248l-.257.022a38.094 38.094 0 0 0-.716-4.775l.25-.054a38.154 38.154 0 0 0-.364-1.542l-.25.065a38.028 38.028 0 0 0-2.643-7.147h-6.682z" fill="#FF8D8F"/>
                <path d="M177.747 96.98a3.628 3.628 0 1 1-7.12 1.398l7.12-1.398zm-5.464 12.607c-.01-.235 1.442 10.418 1.41 10.18l-1.41-10.18 1.613-.317c6.15-1.208 10.01-7.36 8.427-13.434.048-3.704-1.088-8.06-3.409-13.071l-1.006-3.86c-3.9 1.194-13.539 5.47-16.238 6-.323.063-4.58 7.576-6.923 8.04l-.554.11-.145.029a3.358 3.358 0 0 0-2.646 3.942 3.354 3.354 0 0 0 3.936 2.65l.658-.13 2.983 21.544-6.663.277 24.28 14.543-.644-15.526-3.669-10.797zM145.128 196.926c.456.246.958.427 1.5.517 2.629.44 5.12-1.313 5.565-3.916.444-2.603-1.326-5.07-3.955-5.51l-2.245-.376-4.29-.719-2.334-4.122-6.465 4.162 3.835 5.098.003-.002c.295.39.673.718 1.114.956v.003l5.737 3.089 1.533.825.002-.005z" fill="#F8D1D0"/>
                <path d="M235.75 152.46v8.221h-.533v3.669s15.587 1.634 22.122-11.89h-21.59z" fill="#FF809F"/>
                <path fill="#40327A" d="M236.14 152.434v-4.572h-.923v12.872h.922z"/>
                <path d="M170.696 98.777c.395 2.089 2.35 3.45 4.368 3.041 2.017-.41 3.33-2.435 2.935-4.524l-7.303 1.483zM193.154 143.265l-.458.188c1.548 4.115-.27 8.745-4.14 10.54a7.592 7.592 0 0 1-2.516.68 7.653 7.653 0 0 1-4.94-1.282l-.265.432a8.165 8.165 0 0 0 4.539 1.394 7.843 7.843 0 0 0 1.914-.237 8.187 8.187 0 0 0 1.468-.517c4.111-1.908 6.042-6.827 4.398-11.198" fill="#FFF"/>
                <path d="M232.376 141.131c-3.388-4.828-8.98-7.98-15.302-7.98-10.34 0-18.726 8.44-18.726 18.85a18.842 18.842 0 0 0 6.818 14.542 18.547 18.547 0 0 0 11.908 4.305h17.278c3.177 0 6.286-.377 9.28-1.097 12.925-3.11 23.709-12.595 28.303-25.582l1.074-3.038h-40.633z" fill="#F8D1D0"/>
                <path d="M234.309 170.848h-17.132a18.704 18.704 0 0 1-11.974-4.305c-.26-.216-.519-.44-.766-.668l.354-.386a18.482 18.482 0 0 0 2.149 1.703 18.184 18.184 0 0 0 10.237 3.132h17.132c3.082 0 6.158-.361 9.14-1.074 12.98-3.106 23.4-12.474 27.877-25.06l.941-2.646h-40.053l-.078-.11a18.333 18.333 0 0 0-14.959-7.759c-10.094 0-18.306 8.22-18.306 18.326a18.22 18.22 0 0 0 3.23 10.396l-.43.297a18.738 18.738 0 0 1-3.323-10.693c0-10.394 8.447-18.85 18.83-18.85a18.856 18.856 0 0 1 15.306 7.87h40.525l-1.19 3.345c-4.536 12.753-15.096 22.246-28.248 25.393a39.888 39.888 0 0 1-9.262 1.089" fill="#FFF"/>
                <g transform="translate(275.774 77.066)">
                    <mask id="h" fill="#fff">
                        <use xlink:href="#g"/>
                    </mask>
                    <path d="M11.06 5.48c0 2.968-2.47 5.375-5.516 5.375-3.047 0-5.517-2.407-5.517-5.375S2.497.105 5.544.105s5.517 2.407 5.517 5.375" fill="#F8D1D0" mask="url(#h)"/>
                </g>
                <g transform="translate(225.078 55)">
                    <mask id="j" fill="#fff">
                        <use xlink:href="#i"/>
                    </mask>
                    <path d="M45.436 97.346H4.29c-2.337 0-4.232-1.885-4.232-4.21V4.422C.058 2.097 1.953.212 4.29.212h41.146c2.338 0 4.233 1.885 4.233 4.211v88.712c0 2.326-1.895 4.211-4.233 4.211" fill="#684857" mask="url(#j)"/>
                </g>
                <path d="M229.285 141.426c-1.303 0-2.363-1.036-2.363-2.31V61.907c0-1.274 1.06-2.31 2.363-2.31h41.36c1.303 0 2.364 1.036 2.364 2.31v77.207c0 1.275-1.06 2.311-2.364 2.311h-41.36z" fill="#FFF"/>
                <path d="M259.643 101.605a.747.747 0 0 0-.747.746.747.747 0 0 0 1.495 0 .747.747 0 0 0-.748-.746m0 2.125a1.383 1.383 0 0 1-1.382-1.38 1.383 1.383 0 0 1 2.765 0c0 .76-.62 1.38-1.383 1.38M249.965 145.63c-.726 0-1.317.588-1.317 1.313a1.317 1.317 0 0 0 2.634 0c0-.725-.59-1.314-1.317-1.314m0 3.152a1.844 1.844 0 0 1-1.843-1.838 1.844 1.844 0 0 1 3.687 0 1.844 1.844 0 0 1-1.844 1.838M250.328 109.246l-.363-.374 18.632-19.242-2.539-2.62-4.985 5.148-.363-.375 5.348-5.523 3.264 3.37zM247.11 105.568l-4.297-6.864-3.163 2.141 1.049 1.675-.452.306-1.343-2.145 4.067-2.753 4.229 6.755 9.758-10.148.381.397zM243.807 108.327l-2.137-2.453.627-.306 2.138 2.453zM248.76 110.166h-2.813l-.59-.54.4-.156.45.41h2.354l1.066-.634.338.202z" fill="#FFF"/>
                <path d="M274.852 140.507c-3.054 0-5.53-2.47-5.53-5.517s2.476-5.516 5.53-5.516c3.054 0 5.53 2.47 5.53 5.516 0 3.047-2.476 5.517-5.53 5.517" fill="#F8D1D0"/>
                <path d="M278.54 134.99c0 1.946-1.63 3.543-3.688 3.678a10.12 10.12 0 0 0 .69-3.678c0-1.29-.243-2.53-.69-3.678 2.058.135 3.687 1.734 3.687 3.678" fill="#FFD5D6"/>
                <path d="M274.852 131.312c.446 1.149.69 2.387.69 3.678s-.244 2.53-.69 3.678c2.059-.134 3.687-1.731 3.687-3.678 0-1.944-1.628-3.543-3.687-3.678m.816.678c1.348.428 2.313 1.621 2.313 3 0 1.38-.965 2.573-2.313 3.001.286-.973.431-1.979.431-3a10.6 10.6 0 0 0-.431-3.001" fill="#FFF"/>
                <path d="M233.37 134.158a20.906 20.906 0 0 1 2.81 10.477v8.744h-21.895l-8.563-11.165v-5.326c0-12.561 4.999-24.596 13.876-33.407L234.17 89.02a13.14 13.14 0 0 1 3.813 9.282 13.14 13.14 0 0 1-3.886 9.358l-8.391 8.328v10.553a20.7 20.7 0 0 1 7.665 7.618M274.786 115.682h-4.477c-3.09 0-5.596-2.47-5.596-5.516 0-3.047 2.506-5.517 5.596-5.517h4.477c3.091 0 5.597 2.47 5.597 5.517 0 3.046-2.506 5.516-5.597 5.516M274.786 127.635h-4.477c-3.09 0-5.596-2.47-5.596-5.517s2.506-5.516 5.596-5.516h4.477c3.091 0 5.597 2.47 5.597 5.516 0 3.047-2.506 5.517-5.597 5.517" fill="#F8D1D0"/>
                <path d="M275.774 123.038c0 2.029-1.607 3.677-3.584 3.677h-1.025c.405-1.146.626-2.386.626-3.677 0-1.292-.221-2.53-.626-3.678h1.025c1.977 0 3.584 1.65 3.584 3.678" fill="#FFD5D6"/>
                <path d="M272.19 119.36h-1.025c.405 1.149.626 2.386.626 3.678 0 1.291-.221 2.53-.626 3.677h1.025c1.977 0 3.584-1.648 3.584-3.677 0-2.028-1.607-3.678-3.584-3.678zm0 .516c1.699 0 3.08 1.418 3.08 3.162 0 1.743-1.381 3.16-3.08 3.16h-.331c.29-1.022.436-2.082.436-3.16 0-1.077-.147-2.138-.437-3.162h.332z" fill="#FFF"/>
                <path d="M275.774 109.246c0 2.03-1.607 3.678-3.584 3.678h-1.025c.405-1.147.626-2.386.626-3.678 0-1.291-.221-2.529-.626-3.678h1.025c1.977 0 3.584 1.65 3.584 3.678" fill="#FFD5D6"/>
                <path d="M272.19 105.568h-1.025c.405 1.15.626 2.386.626 3.678 0 1.292-.221 2.531-.626 3.678h1.025c1.977 0 3.584-1.648 3.584-3.678 0-2.027-1.607-3.678-3.584-3.678zm0 .517c1.699 0 3.08 1.418 3.08 3.161s-1.381 3.161-3.08 3.161h-.332c.29-1.022.437-2.083.437-3.16a11.59 11.59 0 0 0-.437-3.162h.332zM227.896 98.213c-.69 0-1.377-.299-1.896-.895l.347-.385c.84.964 2.22.976 3.076.027l4.255-4.728a11.19 11.19 0 0 0-1.361-1.905l.344-.389c.595.671 1.111 1.409 1.535 2.192l.1.184-.216.243-4.316 4.794c-.518.575-1.194.862-1.868.862" fill="#FFF"/>
                <path d="M206.244 142.345h-.522v-5.32c0-12.535 5.03-24.767 13.799-33.56l14.408-14.446.367.38-14.41 14.446c-8.67 8.693-13.642 20.787-13.642 33.18v5.32z" fill="#FFC7BD"/>
                <path fill="#FF8D8F" d="M247.411 114.763h-2.77l-5.737-8.816 3.445-2.243 4.062 6.243 18.16-18.17 2.907 2.908z"/>
            </g>
        </g>
    </g>
</svg>
