<svg width="34" height="34" xmlns="http://www.w3.org/2000/svg">
    <defs>
        <filter id="a">
            <feColorMatrix in="SourceGraphic" values="0 0 0 0 1.000000 0 0 0 0 1.000000 0 0 0 0 1.000000 0 0 0 1.000000 0"/>
        </filter>
    </defs>
    <g transform="translate(-197 -1609)" filter="url(#a)" fill="none" fill-rule="evenodd">
        <g fill="#000">
            <path d="m218.306 1633.025.143-.014.118-.012c.18-.016.424-.083.687-.188.286-.114.581-.267.855-.442.303-.194.564-.404.775-.625.23-.24.389-.48.473-.715.074-.208.137-.424.185-.641.047-.21.079-.413.096-.605.016-.186.016-.35 0-.49a.694.694 0 0 0-.072-.275.566.566 0 0 0-.091-.114.882.882 0 0 0-.13-.102 1.972 1.972 0 0 0-.175-.1 6.31 6.31 0 0 0-.15-.075l-.061-.03h-.002l-.068-.034-.359-.177c-.24-.118-.561-.275-.893-.435a79.348 79.348 0 0 0-.96-.458 9.933 9.933 0 0 0-.606-.269 4.19 4.19 0 0 0-.249-.079 1.177 1.177 0 0 0-.12-.023.716.716 0 0 0-.29.014.633.633 0 0 0-.158.067.78.78 0 0 0-.15.117c-.049.05-.097.109-.141.175-.06.09-.15.21-.267.36-.097.124-.215.27-.35.434a37.083 37.083 0 0 1-.628.736.584.584 0 0 1-.1.08.262.262 0 0 1-.13.036.404.404 0 0 1-.154-.04 7.761 7.761 0 0 1-.317-.128 9.09 9.09 0 0 1-1.978-1.164 13.35 13.35 0 0 1-1.497-1.34c-.468-.485-.831-.926-1.053-1.21a7.959 7.959 0 0 1-.52-.731.7.7 0 0 1-.054-.116.37.37 0 0 1-.012-.047l-.007-.071.01-.038a.329.329 0 0 1 .056-.11.898.898 0 0 1 .101-.114l.039-.04a2.951 2.951 0 0 0 .196-.213l.101-.12.25-.3.051-.06a2.219 2.219 0 0 0 .357-.57l.057-.115a.842.842 0 0 0 .083-.53.994.994 0 0 0-.055-.196c-.021-.056-.045-.102-.06-.132-.009-.017-.024-.048-.2-.472-.106-.251-.242-.579-.38-.91l-.412-.997-.197-.478a2.22 2.22 0 0 0-.192-.369 1.123 1.123 0 0 0-.205-.238.698.698 0 0 0-.477-.17l-.176.008a3.859 3.859 0 0 0-.31.034 8.305 8.305 0 0 0-.536.094 5.67 5.67 0 0 0-.586.153c-.196.064-.35.132-.46.201-.1.063-.256.18-.44.386-.178.2-.339.431-.477.69a4.37 4.37 0 0 0-.379.998 5.46 5.46 0 0 0-.155 1.32c0 .409.061.843.182 1.29.104.384.252.782.442 1.183a9.604 9.604 0 0 0 1.013 1.664l.06.088c.47.69.975 1.344 1.503 1.945a17.406 17.406 0 0 0 1.634 1.638c.562.49 1.141.924 1.724 1.293.585.37 1.18.678 1.768.914.545.218 1.055.404 1.517.552.403.13.78.234 1.121.31.285.064.553.11.797.136a5.058 5.058 0 0 0 1.045.006"/>
            <path d="M205.337 1636.661a1.802 1.802 0 0 1 .73.156l.013.006c.074.034.145.073.213.116a14.15 14.15 0 0 0 3.675 1.683 14.18 14.18 0 0 0 4.014.573c1.882 0 3.708-.36 5.428-1.071a13.965 13.965 0 0 0 4.437-2.921 13.574 13.574 0 0 0 2.992-4.325 13.188 13.188 0 0 0 1.096-5.284c0-1.832-.369-3.61-1.096-5.286a13.572 13.572 0 0 0-2.992-4.325 13.962 13.962 0 0 0-4.437-2.921 14.137 14.137 0 0 0-5.428-1.072c-1.882 0-3.709.36-5.43 1.072a13.969 13.969 0 0 0-4.437 2.92 13.573 13.573 0 0 0-2.992 4.326 13.187 13.187 0 0 0-1.097 5.285 13.186 13.186 0 0 0 1.505 6.143c.33.631.717 1.246 1.148 1.826a1.722 1.722 0 0 1 .333 1.165c-.012.138-.04.274-.085.404l-.85 2.465 2.729-.853a1.677 1.677 0 0 1 .36-.074l.053-.004a1.84 1.84 0 0 1 .118-.004m8.645 5.51a17.285 17.285 0 0 1-7.18-1.555c-.56-.257-1.11-.545-1.641-.862l-2.856.893a2.678 2.678 0 0 1-2.705-.661 2.573 2.573 0 0 1-.62-2.673l.872-2.533a16.234 16.234 0 0 1-2.027-4.07 16.135 16.135 0 0 1-.825-5.117c0-2.236.45-4.407 1.34-6.453a16.532 16.532 0 0 1 3.644-5.27 16.981 16.981 0 0 1 5.396-3.552 17.195 17.195 0 0 1 6.602-1.304c2.286 0 4.507.44 6.6 1.304a16.98 16.98 0 0 1 5.396 3.552 16.536 16.536 0 0 1 3.644 5.27 16.11 16.11 0 0 1 1.34 6.453c0 2.236-.451 4.407-1.34 6.454a16.535 16.535 0 0 1-3.644 5.269 16.98 16.98 0 0 1-5.396 3.551 17.193 17.193 0 0 1-6.6 1.304"/>
        </g>
    </g>
</svg>
