<svg width="284" height="53" viewBox="0 0 284 53" fill="none" xmlns="http://www.w3.org/2000/svg">
<rect width="269" height="53" rx="26.5" fill="white"/>
<circle cx="27" cy="27" r="5" fill="#FE7170"/>
<path d="M60.0117 30.4414C60.0117 31.457 59.7578 32.3242 59.25 33.043C58.75 33.7539 58.0469 34.2969 57.1406 34.6719C56.2344 35.0469 55.168 35.2344 53.9414 35.2344C53.293 35.2344 52.6797 35.2031 52.1016 35.1406C51.5234 35.0781 50.9922 34.9883 50.5078 34.8711C50.0234 34.7539 49.5977 34.6094 49.2305 34.4375V32.5273C49.8164 32.7695 50.5312 32.9961 51.375 33.207C52.2188 33.4102 53.1016 33.5117 54.0234 33.5117C54.8828 33.5117 55.6094 33.3984 56.2031 33.1719C56.7969 32.9375 57.2461 32.6055 57.5508 32.1758C57.8633 31.7383 58.0195 31.2148 58.0195 30.6055C58.0195 30.0195 57.8906 29.5312 57.6328 29.1406C57.375 28.7422 56.9453 28.3828 56.3438 28.0625C55.75 27.7344 54.9375 27.3867 53.9062 27.0195C53.1797 26.7617 52.5391 26.4805 51.9844 26.1758C51.4297 25.8633 50.9648 25.5117 50.5898 25.1211C50.2148 24.7305 49.9297 24.2773 49.7344 23.7617C49.5469 23.2461 49.4531 22.6562 49.4531 21.9922C49.4531 21.0781 49.6836 20.2969 50.1445 19.6484C50.6133 18.9922 51.2578 18.4922 52.0781 18.1484C52.9062 17.7969 53.8555 17.6211 54.9258 17.6211C55.8398 17.6211 56.6836 17.707 57.457 17.8789C58.2383 18.0508 58.9531 18.2812 59.6016 18.5703L58.9805 20.2812C58.3633 20.0234 57.707 19.8086 57.0117 19.6367C56.3242 19.4648 55.6133 19.3789 54.8789 19.3789C54.1445 19.3789 53.5234 19.4883 53.0156 19.707C52.5156 19.918 52.1328 20.2188 51.8672 20.6094C51.6016 21 51.4688 21.4648 51.4688 22.0039C51.4688 22.6055 51.5938 23.1055 51.8438 23.5039C52.1016 23.9023 52.5078 24.2578 53.0625 24.5703C53.625 24.875 54.3672 25.1953 55.2891 25.5312C56.2969 25.8984 57.1523 26.2891 57.8555 26.7031C58.5586 27.1094 59.0938 27.6094 59.4609 28.2031C59.8281 28.7891 60.0117 29.5352 60.0117 30.4414ZM74.2969 28.5547C74.2969 29.6094 74.1602 30.5508 73.8867 31.3789C73.6133 32.207 73.2188 32.9062 72.7031 33.4766C72.1875 34.0469 71.5625 34.4844 70.8281 34.7891C70.1016 35.0859 69.2773 35.2344 68.3555 35.2344C67.4961 35.2344 66.707 35.0859 65.9883 34.7891C65.2773 34.4844 64.6602 34.0469 64.1367 33.4766C63.6211 32.9062 63.2188 32.207 62.9297 31.3789C62.6484 30.5508 62.5078 29.6094 62.5078 28.5547C62.5078 27.1484 62.7461 25.9531 63.2227 24.9688C63.6992 23.9766 64.3789 23.2227 65.2617 22.707C66.1523 22.1836 67.2109 21.9219 68.4375 21.9219C69.6094 21.9219 70.6328 22.1836 71.5078 22.707C72.3906 23.2305 73.0742 23.9883 73.5586 24.9805C74.0508 25.9648 74.2969 27.1562 74.2969 28.5547ZM64.5234 28.5547C64.5234 29.5859 64.6602 30.4805 64.9336 31.2383C65.207 31.9961 65.6289 32.582 66.1992 32.9961C66.7695 33.4102 67.5039 33.6172 68.4023 33.6172C69.293 33.6172 70.0234 33.4102 70.5938 32.9961C71.1719 32.582 71.5977 31.9961 71.8711 31.2383C72.1445 30.4805 72.2812 29.5859 72.2812 28.5547C72.2812 27.5312 72.1445 26.6484 71.8711 25.9062C71.5977 25.1562 71.1758 24.5781 70.6055 24.1719C70.0352 23.7656 69.2969 23.5625 68.3906 23.5625C67.0547 23.5625 66.0742 24.0039 65.4492 24.8867C64.832 25.7695 64.5234 26.9922 64.5234 28.5547ZM79.6055 16.7656V21.3242C79.6055 21.8477 79.5898 22.3555 79.5586 22.8477C79.5352 23.3398 79.5156 23.7227 79.5 23.9961H79.6055C79.957 23.418 80.4648 22.9297 81.1289 22.5312C81.793 22.1328 82.6406 21.9336 83.6719 21.9336C85.2812 21.9336 86.5625 22.4922 87.5156 23.6094C88.4766 24.7188 88.957 26.3711 88.957 28.5664C88.957 30.0117 88.7383 31.2305 88.3008 32.2227C87.8633 33.2148 87.2461 33.9648 86.4492 34.4727C85.6523 34.9805 84.7109 35.2344 83.625 35.2344C82.6094 35.2344 81.7734 35.0469 81.1172 34.6719C80.4688 34.2891 79.9688 33.8242 79.6172 33.2773H79.4648L79.0664 35H77.6602V16.7656H79.6055ZM83.3555 23.5625C82.4258 23.5625 81.6875 23.7461 81.1406 24.1133C80.5938 24.4727 80.1992 25.0195 79.957 25.7539C79.7227 26.4805 79.6055 27.4023 79.6055 28.5195V28.625C79.6055 30.2422 79.875 31.4805 80.4141 32.3398C80.9531 33.1914 81.9336 33.6172 83.3555 33.6172C84.5508 33.6172 85.4453 33.1797 86.0391 32.3047C86.6406 31.4297 86.9414 30.1797 86.9414 28.5547C86.9414 26.8984 86.6445 25.6523 86.0508 24.8164C85.4648 23.9805 84.5664 23.5625 83.3555 23.5625ZM98.1914 21.9219C98.4492 21.9219 98.7188 21.9375 99 21.9688C99.2812 21.9922 99.5312 22.0273 99.75 22.0742L99.5039 23.8789C99.293 23.8242 99.0586 23.7812 98.8008 23.75C98.543 23.7188 98.3008 23.7031 98.0742 23.7031C97.5586 23.7031 97.0703 23.8086 96.6094 24.0195C96.1562 24.2227 95.7578 24.5195 95.4141 24.9102C95.0703 25.293 94.8008 25.7578 94.6055 26.3047C94.4102 26.8438 94.3125 27.4453 94.3125 28.1094V35H92.3555V22.1562H93.9727L94.1836 24.5234H94.2656C94.5312 24.0469 94.8516 23.6133 95.2266 23.2227C95.6016 22.8242 96.0352 22.5078 96.5273 22.2734C97.0273 22.0391 97.582 21.9219 98.1914 21.9219ZM106.98 21.9453C108.512 21.9453 109.648 22.2891 110.391 22.9766C111.133 23.6641 111.504 24.7617 111.504 26.2695V35H110.086L109.711 33.1016H109.617C109.258 33.5703 108.883 33.9648 108.492 34.2852C108.102 34.5977 107.648 34.8359 107.133 35C106.625 35.1562 106 35.2344 105.258 35.2344C104.477 35.2344 103.781 35.0977 103.172 34.8242C102.57 34.5508 102.094 34.1367 101.742 33.582C101.398 33.0273 101.227 32.3242 101.227 31.4727C101.227 30.1914 101.734 29.207 102.75 28.5195C103.766 27.832 105.312 27.457 107.391 27.3945L109.605 27.3008V26.5156C109.605 25.4062 109.367 24.6289 108.891 24.1836C108.414 23.7383 107.742 23.5156 106.875 23.5156C106.203 23.5156 105.562 23.6133 104.953 23.8086C104.344 24.0039 103.766 24.2344 103.219 24.5L102.621 23.0234C103.199 22.7266 103.863 22.4727 104.613 22.2617C105.363 22.0508 106.152 21.9453 106.98 21.9453ZM109.582 28.6719L107.625 28.7539C106.023 28.8164 104.895 29.0781 104.238 29.5391C103.582 30 103.254 30.6523 103.254 31.4961C103.254 32.2305 103.477 32.7734 103.922 33.125C104.367 33.4766 104.957 33.6523 105.691 33.6523C106.832 33.6523 107.766 33.3359 108.492 32.7031C109.219 32.0703 109.582 31.1211 109.582 29.8555V28.6719ZM121.594 21.9219C123.117 21.9219 124.27 22.2969 125.051 23.0469C125.832 23.7891 126.223 24.9844 126.223 26.6328V35H124.301V26.7617C124.301 25.6914 124.055 24.8906 123.562 24.3594C123.078 23.8281 122.332 23.5625 121.324 23.5625C119.902 23.5625 118.902 23.9648 118.324 24.7695C117.746 25.5742 117.457 26.7422 117.457 28.2734V35H115.512V22.1562H117.082L117.375 24.0078H117.48C117.754 23.5547 118.102 23.1758 118.523 22.8711C118.945 22.5586 119.418 22.3242 119.941 22.168C120.465 22.0039 121.016 21.9219 121.594 21.9219ZM135.375 35.2344C134.219 35.2344 133.199 34.9961 132.316 34.5195C131.434 34.043 130.746 33.3164 130.254 32.3398C129.762 31.3633 129.516 30.1328 129.516 28.6484C129.516 27.0938 129.773 25.8242 130.289 24.8398C130.812 23.8477 131.531 23.1133 132.445 22.6367C133.359 22.1602 134.398 21.9219 135.562 21.9219C136.203 21.9219 136.82 21.9883 137.414 22.1211C138.016 22.2461 138.508 22.4062 138.891 22.6016L138.305 24.2305C137.914 24.0742 137.461 23.9336 136.945 23.8086C136.438 23.6836 135.961 23.6211 135.516 23.6211C134.625 23.6211 133.883 23.8125 133.289 24.1953C132.703 24.5781 132.262 25.1406 131.965 25.8828C131.676 26.625 131.531 27.5391 131.531 28.625C131.531 29.6641 131.672 30.5508 131.953 31.2852C132.242 32.0195 132.668 32.582 133.23 32.9727C133.801 33.3555 134.512 33.5469 135.363 33.5469C136.043 33.5469 136.656 33.4766 137.203 33.3359C137.75 33.1875 138.246 33.0156 138.691 32.8203V34.5547C138.262 34.7734 137.781 34.9414 137.25 35.0586C136.727 35.1758 136.102 35.2344 135.375 35.2344ZM146.684 21.9219C147.777 21.9219 148.715 22.1641 149.496 22.6484C150.277 23.1328 150.875 23.8125 151.289 24.6875C151.703 25.5547 151.91 26.5703 151.91 27.7344V28.9414H143.039C143.062 30.4492 143.438 31.5977 144.164 32.3867C144.891 33.1758 145.914 33.5703 147.234 33.5703C148.047 33.5703 148.766 33.4961 149.391 33.3477C150.016 33.1992 150.664 32.9805 151.336 32.6914V34.4023C150.688 34.6914 150.043 34.9023 149.402 35.0352C148.77 35.168 148.02 35.2344 147.152 35.2344C145.918 35.2344 144.84 34.9844 143.918 34.4844C143.004 33.9766 142.293 33.2344 141.785 32.2578C141.277 31.2812 141.023 30.0859 141.023 28.6719C141.023 27.2891 141.254 26.0938 141.715 25.0859C142.184 24.0703 142.84 23.2891 143.684 22.7422C144.535 22.1953 145.535 21.9219 146.684 21.9219ZM146.66 23.5156C145.621 23.5156 144.793 23.8555 144.176 24.5352C143.559 25.2148 143.191 26.1641 143.074 27.3828H149.871C149.863 26.6172 149.742 25.9453 149.508 25.3672C149.281 24.7812 148.934 24.3281 148.465 24.0078C147.996 23.6797 147.395 23.5156 146.66 23.5156ZM157.172 35H155.215V16.7656H157.172V35ZM163.23 16.7656V22.2148C163.23 22.5273 163.223 22.8438 163.207 23.1641C163.191 23.4766 163.164 23.7656 163.125 24.0312H163.254C163.52 23.5781 163.855 23.1992 164.262 22.8945C164.676 22.582 165.145 22.3477 165.668 22.1914C166.191 22.0273 166.746 21.9453 167.332 21.9453C168.363 21.9453 169.223 22.1094 169.91 22.4375C170.605 22.7656 171.125 23.2734 171.469 23.9609C171.82 24.6484 171.996 25.5391 171.996 26.6328V35H170.074V26.7617C170.074 25.6914 169.828 24.8906 169.336 24.3594C168.852 23.8281 168.105 23.5625 167.098 23.5625C166.145 23.5625 165.383 23.7461 164.812 24.1133C164.25 24.4727 163.844 25.0039 163.594 25.707C163.352 26.4102 163.23 27.2695 163.23 28.2852V35H161.285V16.7656H163.23ZM180.809 21.9453C182.34 21.9453 183.477 22.2891 184.219 22.9766C184.961 23.6641 185.332 24.7617 185.332 26.2695V35H183.914L183.539 33.1016H183.445C183.086 33.5703 182.711 33.9648 182.32 34.2852C181.93 34.5977 181.477 34.8359 180.961 35C180.453 35.1562 179.828 35.2344 179.086 35.2344C178.305 35.2344 177.609 35.0977 177 34.8242C176.398 34.5508 175.922 34.1367 175.57 33.582C175.227 33.0273 175.055 32.3242 175.055 31.4727C175.055 30.1914 175.562 29.207 176.578 28.5195C177.594 27.832 179.141 27.457 181.219 27.3945L183.434 27.3008V26.5156C183.434 25.4062 183.195 24.6289 182.719 24.1836C182.242 23.7383 181.57 23.5156 180.703 23.5156C180.031 23.5156 179.391 23.6133 178.781 23.8086C178.172 24.0039 177.594 24.2344 177.047 24.5L176.449 23.0234C177.027 22.7266 177.691 22.4727 178.441 22.2617C179.191 22.0508 179.98 21.9453 180.809 21.9453ZM183.41 28.6719L181.453 28.7539C179.852 28.8164 178.723 29.0781 178.066 29.5391C177.41 30 177.082 30.6523 177.082 31.4961C177.082 32.2305 177.305 32.7734 177.75 33.125C178.195 33.4766 178.785 33.6523 179.52 33.6523C180.66 33.6523 181.594 33.3359 182.32 32.7031C183.047 32.0703 183.41 31.1211 183.41 29.8555V28.6719ZM197.648 31.4844C197.648 32.3047 197.441 32.9961 197.027 33.5586C196.621 34.1133 196.035 34.5312 195.27 34.8125C194.512 35.0938 193.605 35.2344 192.551 35.2344C191.652 35.2344 190.875 35.1641 190.219 35.0234C189.562 34.8828 188.988 34.6836 188.496 34.4258V32.6328C189.02 32.8906 189.645 33.125 190.371 33.3359C191.098 33.5469 191.84 33.6523 192.598 33.6523C193.707 33.6523 194.512 33.4727 195.012 33.1133C195.512 32.7539 195.762 32.2656 195.762 31.6484C195.762 31.2969 195.66 30.9883 195.457 30.7227C195.262 30.4492 194.93 30.1875 194.461 29.9375C193.992 29.6797 193.344 29.3984 192.516 29.0938C191.695 28.7812 190.984 28.4727 190.383 28.168C189.789 27.8555 189.328 27.4766 189 27.0312C188.68 26.5859 188.52 26.0078 188.52 25.2969C188.52 24.2109 188.957 23.3789 189.832 22.8008C190.715 22.2148 191.871 21.9219 193.301 21.9219C194.074 21.9219 194.797 22 195.469 22.1562C196.148 22.3047 196.781 22.5078 197.367 22.7656L196.711 24.3242C196.18 24.0977 195.613 23.9062 195.012 23.75C194.41 23.5938 193.797 23.5156 193.172 23.5156C192.273 23.5156 191.582 23.6641 191.098 23.9609C190.621 24.2578 190.383 24.6641 190.383 25.1797C190.383 25.5781 190.492 25.9062 190.711 26.1641C190.938 26.4219 191.297 26.6641 191.789 26.8906C192.281 27.1172 192.93 27.3828 193.734 27.6875C194.539 27.9844 195.234 28.293 195.82 28.6133C196.406 28.9258 196.855 29.3086 197.168 29.7617C197.488 30.207 197.648 30.7812 197.648 31.4844Z" fill="#545565"/>
<circle cx="269" cy="25" r="15" fill="#E5E5E5"/>
<path d="M273.671 20L272.307 21.3606L266.812 26.6142L265.21 25.1402L263.787 23.7795L261 26.4441L262.423 27.8047L265.388 30.6394L266.752 32L268.175 30.6394L275.094 24.0252L276.517 22.6646L273.671 20Z" fill="white"/>
</svg>
