<svg width="284" height="53" viewBox="0 0 284 53" fill="none" xmlns="http://www.w3.org/2000/svg">
<rect width="269" height="53" rx="26.5" fill="white"/>
<circle cx="27" cy="27" r="5" fill="#FE7170"/>
<path d="M54.9727 17.8672C56.3789 17.8672 57.5391 18.043 58.4531 18.3945C59.375 18.7383 60.0625 19.2656 60.5156 19.9766C60.9688 20.6875 61.1953 21.5938 61.1953 22.6953C61.1953 23.6016 61.0312 24.3594 60.7031 24.9688C60.375 25.5703 59.9453 26.0586 59.4141 26.4336C58.8828 26.8086 58.3164 27.0977 57.7148 27.3008L62.4141 35H60.0938L55.8984 27.8516H52.3359V35H50.3438V17.8672H54.9727ZM54.8555 19.5898H52.3359V26.1641H55.0547C56.4531 26.1641 57.4805 25.8789 58.1367 25.3086C58.8008 24.7383 59.1328 23.8984 59.1328 22.7891C59.1328 21.625 58.7812 20.8008 58.0781 20.3164C57.3828 19.832 56.3086 19.5898 54.8555 19.5898ZM75.4688 22.1562V35H73.875L73.5938 33.1953H73.4883C73.2227 33.6406 72.8789 34.0156 72.457 34.3203C72.0352 34.625 71.5586 34.8516 71.0273 35C70.5039 35.1562 69.9453 35.2344 69.3516 35.2344C68.3359 35.2344 67.4844 35.0703 66.7969 34.7422C66.1094 34.4141 65.5898 33.9062 65.2383 33.2188C64.8945 32.5312 64.7227 31.6484 64.7227 30.5703V22.1562H66.6914V30.4297C66.6914 31.5 66.9336 32.3008 67.418 32.832C67.9023 33.3555 68.6406 33.6172 69.6328 33.6172C70.5859 33.6172 71.3438 33.4375 71.9062 33.0781C72.4766 32.7188 72.8867 32.1914 73.1367 31.4961C73.3867 30.793 73.5117 29.9336 73.5117 28.918V22.1562H75.4688ZM83.168 40.7656C81.4805 40.7656 80.1797 40.4492 79.2656 39.8164C78.3516 39.1914 77.8945 38.3125 77.8945 37.1797C77.8945 36.375 78.1484 35.6875 78.6562 35.1172C79.1719 34.5469 79.8828 34.168 80.7891 33.9805C80.4531 33.8242 80.1641 33.5898 79.9219 33.2773C79.6875 32.9648 79.5703 32.6055 79.5703 32.1992C79.5703 31.7305 79.6992 31.3203 79.957 30.9688C80.2227 30.6094 80.625 30.2656 81.1641 29.9375C80.4922 29.6641 79.9453 29.2031 79.5234 28.5547C79.1094 27.8984 78.9023 27.1367 78.9023 26.2695C78.9023 25.3477 79.0938 24.5625 79.4766 23.9141C79.8594 23.2578 80.4141 22.7578 81.1406 22.4141C81.8672 22.0703 82.7461 21.8984 83.7773 21.8984C84.0039 21.8984 84.2305 21.9102 84.457 21.9336C84.6914 21.9492 84.9141 21.9766 85.125 22.0156C85.3359 22.0469 85.5195 22.0859 85.6758 22.1328H90.082V23.3867L87.7148 23.6797C87.9492 23.9844 88.1445 24.3516 88.3008 24.7812C88.457 25.2109 88.5352 25.6875 88.5352 26.2109C88.5352 27.4922 88.1016 28.5117 87.2344 29.2695C86.3672 30.0195 85.1758 30.3945 83.6602 30.3945C83.3008 30.3945 82.9336 30.3633 82.5586 30.3008C82.1758 30.5117 81.8828 30.7461 81.6797 31.0039C81.4844 31.2617 81.3867 31.5586 81.3867 31.8945C81.3867 32.1445 81.4609 32.3438 81.6094 32.4922C81.7656 32.6406 81.9883 32.75 82.2773 32.8203C82.5664 32.8828 82.9141 32.9141 83.3203 32.9141H85.582C86.9805 32.9141 88.0508 33.207 88.793 33.793C89.543 34.3789 89.918 35.2344 89.918 36.3594C89.918 37.7812 89.3398 38.8711 88.1836 39.6289C87.0273 40.3867 85.3555 40.7656 83.168 40.7656ZM83.2266 39.2422C84.2891 39.2422 85.168 39.1328 85.8633 38.9141C86.5664 38.7031 87.0898 38.3945 87.4336 37.9883C87.7852 37.5898 87.9609 37.1133 87.9609 36.5586C87.9609 36.043 87.8438 35.6523 87.6094 35.3867C87.375 35.1289 87.0312 34.957 86.5781 34.8711C86.125 34.7773 85.5703 34.7305 84.9141 34.7305H82.6875C82.1094 34.7305 81.6055 34.8203 81.1758 35C80.7461 35.1797 80.4141 35.4453 80.1797 35.7969C79.9531 36.1484 79.8398 36.5859 79.8398 37.1094C79.8398 37.8047 80.1328 38.332 80.7188 38.6914C81.3047 39.0586 82.1406 39.2422 83.2266 39.2422ZM83.7305 28.9766C84.6602 28.9766 85.3594 28.7422 85.8281 28.2734C86.2969 27.8047 86.5312 27.1211 86.5312 26.2227C86.5312 25.2617 86.293 24.543 85.8164 24.0664C85.3398 23.582 84.6367 23.3398 83.707 23.3398C82.8164 23.3398 82.1289 23.5898 81.6445 24.0898C81.168 24.582 80.9297 25.3047 80.9297 26.2578C80.9297 27.1328 81.1719 27.8047 81.6562 28.2734C82.1406 28.7422 82.832 28.9766 83.7305 28.9766ZM97.418 21.9453C98.9492 21.9453 100.086 22.2891 100.828 22.9766C101.57 23.6641 101.941 24.7617 101.941 26.2695V35H100.523L100.148 33.1016H100.055C99.6953 33.5703 99.3203 33.9648 98.9297 34.2852C98.5391 34.5977 98.0859 34.8359 97.5703 35C97.0625 35.1562 96.4375 35.2344 95.6953 35.2344C94.9141 35.2344 94.2188 35.0977 93.6094 34.8242C93.0078 34.5508 92.5312 34.1367 92.1797 33.582C91.8359 33.0273 91.6641 32.3242 91.6641 31.4727C91.6641 30.1914 92.1719 29.207 93.1875 28.5195C94.2031 27.832 95.75 27.457 97.8281 27.3945L100.043 27.3008V26.5156C100.043 25.4062 99.8047 24.6289 99.3281 24.1836C98.8516 23.7383 98.1797 23.5156 97.3125 23.5156C96.6406 23.5156 96 23.6133 95.3906 23.8086C94.7812 24.0039 94.2031 24.2344 93.6562 24.5L93.0586 23.0234C93.6367 22.7266 94.3008 22.4727 95.0508 22.2617C95.8008 22.0508 96.5898 21.9453 97.418 21.9453ZM100.02 28.6719L98.0625 28.7539C96.4609 28.8164 95.332 29.0781 94.6758 29.5391C94.0195 30 93.6914 30.6523 93.6914 31.4961C93.6914 32.2305 93.9141 32.7734 94.3594 33.125C94.8047 33.4766 95.3945 33.6523 96.1289 33.6523C97.2695 33.6523 98.2031 33.3359 98.9297 32.7031C99.6562 32.0703 100.02 31.1211 100.02 29.8555V28.6719ZM114.258 31.4844C114.258 32.3047 114.051 32.9961 113.637 33.5586C113.23 34.1133 112.645 34.5312 111.879 34.8125C111.121 35.0938 110.215 35.2344 109.16 35.2344C108.262 35.2344 107.484 35.1641 106.828 35.0234C106.172 34.8828 105.598 34.6836 105.105 34.4258V32.6328C105.629 32.8906 106.254 33.125 106.98 33.3359C107.707 33.5469 108.449 33.6523 109.207 33.6523C110.316 33.6523 111.121 33.4727 111.621 33.1133C112.121 32.7539 112.371 32.2656 112.371 31.6484C112.371 31.2969 112.27 30.9883 112.066 30.7227C111.871 30.4492 111.539 30.1875 111.07 29.9375C110.602 29.6797 109.953 29.3984 109.125 29.0938C108.305 28.7812 107.594 28.4727 106.992 28.168C106.398 27.8555 105.938 27.4766 105.609 27.0312C105.289 26.5859 105.129 26.0078 105.129 25.2969C105.129 24.2109 105.566 23.3789 106.441 22.8008C107.324 22.2148 108.48 21.9219 109.91 21.9219C110.684 21.9219 111.406 22 112.078 22.1562C112.758 22.3047 113.391 22.5078 113.977 22.7656L113.32 24.3242C112.789 24.0977 112.223 23.9062 111.621 23.75C111.02 23.5938 110.406 23.5156 109.781 23.5156C108.883 23.5156 108.191 23.6641 107.707 23.9609C107.23 24.2578 106.992 24.6641 106.992 25.1797C106.992 25.5781 107.102 25.9062 107.32 26.1641C107.547 26.4219 107.906 26.6641 108.398 26.8906C108.891 27.1172 109.539 27.3828 110.344 27.6875C111.148 27.9844 111.844 28.293 112.43 28.6133C113.016 28.9258 113.465 29.3086 113.777 29.7617C114.098 30.207 114.258 30.7812 114.258 31.4844ZM129.34 23.6797H126.141V35H124.195V23.6797H121.922V22.7422L124.195 22.0977V21.2422C124.195 20.1641 124.355 19.2891 124.676 18.6172C124.996 17.9375 125.461 17.4375 126.07 17.1172C126.68 16.7969 127.422 16.6367 128.297 16.6367C128.789 16.6367 129.238 16.6797 129.645 16.7656C130.059 16.8516 130.422 16.9492 130.734 17.0586L130.23 18.5938C129.965 18.5078 129.664 18.4297 129.328 18.3594C129 18.2812 128.664 18.2422 128.32 18.2422C127.578 18.2422 127.027 18.4844 126.668 18.9688C126.316 19.4453 126.141 20.1953 126.141 21.2188V22.1562H129.34V23.6797ZM137.543 21.9219C137.801 21.9219 138.07 21.9375 138.352 21.9688C138.633 21.9922 138.883 22.0273 139.102 22.0742L138.855 23.8789C138.645 23.8242 138.41 23.7812 138.152 23.75C137.895 23.7188 137.652 23.7031 137.426 23.7031C136.91 23.7031 136.422 23.8086 135.961 24.0195C135.508 24.2227 135.109 24.5195 134.766 24.9102C134.422 25.293 134.152 25.7578 133.957 26.3047C133.762 26.8438 133.664 27.4453 133.664 28.1094V35H131.707V22.1562H133.324L133.535 24.5234H133.617C133.883 24.0469 134.203 23.6133 134.578 23.2227C134.953 22.8242 135.387 22.5078 135.879 22.2734C136.379 22.0391 136.934 21.9219 137.543 21.9219ZM152.602 28.5547C152.602 29.6094 152.465 30.5508 152.191 31.3789C151.918 32.207 151.523 32.9062 151.008 33.4766C150.492 34.0469 149.867 34.4844 149.133 34.7891C148.406 35.0859 147.582 35.2344 146.66 35.2344C145.801 35.2344 145.012 35.0859 144.293 34.7891C143.582 34.4844 142.965 34.0469 142.441 33.4766C141.926 32.9062 141.523 32.207 141.234 31.3789C140.953 30.5508 140.812 29.6094 140.812 28.5547C140.812 27.1484 141.051 25.9531 141.527 24.9688C142.004 23.9766 142.684 23.2227 143.566 22.707C144.457 22.1836 145.516 21.9219 146.742 21.9219C147.914 21.9219 148.938 22.1836 149.812 22.707C150.695 23.2305 151.379 23.9883 151.863 24.9805C152.355 25.9648 152.602 27.1562 152.602 28.5547ZM142.828 28.5547C142.828 29.5859 142.965 30.4805 143.238 31.2383C143.512 31.9961 143.934 32.582 144.504 32.9961C145.074 33.4102 145.809 33.6172 146.707 33.6172C147.598 33.6172 148.328 33.4102 148.898 32.9961C149.477 32.582 149.902 31.9961 150.176 31.2383C150.449 30.4805 150.586 29.5859 150.586 28.5547C150.586 27.5312 150.449 26.6484 150.176 25.9062C149.902 25.1562 149.48 24.5781 148.91 24.1719C148.34 23.7656 147.602 23.5625 146.695 23.5625C145.359 23.5625 144.379 24.0039 143.754 24.8867C143.137 25.7695 142.828 26.9922 142.828 28.5547ZM162.047 21.9219C163.57 21.9219 164.723 22.2969 165.504 23.0469C166.285 23.7891 166.676 24.9844 166.676 26.6328V35H164.754V26.7617C164.754 25.6914 164.508 24.8906 164.016 24.3594C163.531 23.8281 162.785 23.5625 161.777 23.5625C160.355 23.5625 159.355 23.9648 158.777 24.7695C158.199 25.5742 157.91 26.7422 157.91 28.2734V35H155.965V22.1562H157.535L157.828 24.0078H157.934C158.207 23.5547 158.555 23.1758 158.977 22.8711C159.398 22.5586 159.871 22.3242 160.395 22.168C160.918 22.0039 161.469 21.9219 162.047 21.9219ZM174.832 33.6406C175.152 33.6406 175.48 33.6133 175.816 33.5586C176.152 33.5039 176.426 33.4375 176.637 33.3594V34.8711C176.41 34.9727 176.094 35.0586 175.688 35.1289C175.289 35.1992 174.898 35.2344 174.516 35.2344C173.836 35.2344 173.219 35.1172 172.664 34.8828C172.109 34.6406 171.664 34.2344 171.328 33.6641C171 33.0938 170.836 32.3047 170.836 31.2969V23.6797H169.008V22.7305L170.848 21.9688L171.621 19.1797H172.793V22.1562H176.555V23.6797H172.793V31.2383C172.793 32.043 172.977 32.6445 173.344 33.043C173.719 33.4414 174.215 33.6406 174.832 33.6406ZM184.043 21.9453C185.574 21.9453 186.711 22.2891 187.453 22.9766C188.195 23.6641 188.566 24.7617 188.566 26.2695V35H187.148L186.773 33.1016H186.68C186.32 33.5703 185.945 33.9648 185.555 34.2852C185.164 34.5977 184.711 34.8359 184.195 35C183.688 35.1562 183.062 35.2344 182.32 35.2344C181.539 35.2344 180.844 35.0977 180.234 34.8242C179.633 34.5508 179.156 34.1367 178.805 33.582C178.461 33.0273 178.289 32.3242 178.289 31.4727C178.289 30.1914 178.797 29.207 179.812 28.5195C180.828 27.832 182.375 27.457 184.453 27.3945L186.668 27.3008V26.5156C186.668 25.4062 186.43 24.6289 185.953 24.1836C185.477 23.7383 184.805 23.5156 183.938 23.5156C183.266 23.5156 182.625 23.6133 182.016 23.8086C181.406 24.0039 180.828 24.2344 180.281 24.5L179.684 23.0234C180.262 22.7266 180.926 22.4727 181.676 22.2617C182.426 22.0508 183.215 21.9453 184.043 21.9453ZM186.645 28.6719L184.688 28.7539C183.086 28.8164 181.957 29.0781 181.301 29.5391C180.645 30 180.316 30.6523 180.316 31.4961C180.316 32.2305 180.539 32.7734 180.984 33.125C181.43 33.4766 182.02 33.6523 182.754 33.6523C183.895 33.6523 184.828 33.3359 185.555 32.7031C186.281 32.0703 186.645 31.1211 186.645 29.8555V28.6719ZM194.52 22.1562V35H192.574V22.1562H194.52ZM193.57 17.3516C193.891 17.3516 194.164 17.457 194.391 17.668C194.625 17.8711 194.742 18.1914 194.742 18.6289C194.742 19.0586 194.625 19.3789 194.391 19.5898C194.164 19.8008 193.891 19.9062 193.57 19.9062C193.234 19.9062 192.953 19.8008 192.727 19.5898C192.508 19.3789 192.398 19.0586 192.398 18.6289C192.398 18.1914 192.508 17.8711 192.727 17.668C192.953 17.457 193.234 17.3516 193.57 17.3516ZM206.953 31.4844C206.953 32.3047 206.746 32.9961 206.332 33.5586C205.926 34.1133 205.34 34.5312 204.574 34.8125C203.816 35.0938 202.91 35.2344 201.855 35.2344C200.957 35.2344 200.18 35.1641 199.523 35.0234C198.867 34.8828 198.293 34.6836 197.801 34.4258V32.6328C198.324 32.8906 198.949 33.125 199.676 33.3359C200.402 33.5469 201.145 33.6523 201.902 33.6523C203.012 33.6523 203.816 33.4727 204.316 33.1133C204.816 32.7539 205.066 32.2656 205.066 31.6484C205.066 31.2969 204.965 30.9883 204.762 30.7227C204.566 30.4492 204.234 30.1875 203.766 29.9375C203.297 29.6797 202.648 29.3984 201.82 29.0938C201 28.7812 200.289 28.4727 199.688 28.168C199.094 27.8555 198.633 27.4766 198.305 27.0312C197.984 26.5859 197.824 26.0078 197.824 25.2969C197.824 24.2109 198.262 23.3789 199.137 22.8008C200.02 22.2148 201.176 21.9219 202.605 21.9219C203.379 21.9219 204.102 22 204.773 22.1562C205.453 22.3047 206.086 22.5078 206.672 22.7656L206.016 24.3242C205.484 24.0977 204.918 23.9062 204.316 23.75C203.715 23.5938 203.102 23.5156 202.477 23.5156C201.578 23.5156 200.887 23.6641 200.402 23.9609C199.926 24.2578 199.688 24.6641 199.688 25.1797C199.688 25.5781 199.797 25.9062 200.016 26.1641C200.242 26.4219 200.602 26.6641 201.094 26.8906C201.586 27.1172 202.234 27.3828 203.039 27.6875C203.844 27.9844 204.539 28.293 205.125 28.6133C205.711 28.9258 206.16 29.3086 206.473 29.7617C206.793 30.207 206.953 30.7812 206.953 31.4844Z" fill="#545565"/>
<circle cx="269" cy="25" r="15" fill="#E5E5E5"/>
<path d="M273.671 20L272.307 21.3606L266.812 26.6142L265.21 25.1402L263.787 23.7795L261 26.4441L262.423 27.8047L265.388 30.6394L266.752 32L268.175 30.6394L275.094 24.0252L276.517 22.6646L273.671 20Z" fill="white"/>
</svg>
