<svg xmlns="http://www.w3.org/2000/svg" viewBox="0 0 269 53.86"><defs><style>.cls-1,.cls-6{fill:#fff;}.cls-2{fill:#e5e5e5;}.cls-3{fill:none;stroke:#fff;stroke-width:3.99px;}.cls-4,.cls-6{isolation:isolate;}.cls-5{fill:#fe7170;}.cls-6{font-size:24px;font-family:BrandonText-Regular, Brandon Text;letter-spacing:-0.08em;}.cls-7{letter-spacing:0em;}.cls-8{fill:#25d366;}</style></defs><g id="original"><g id="Group_11805" data-name="Group 11805"><path id="Rectangle_1015" data-name="Rectangle 1015" class="cls-1" d="M26.93.57H224.8A26.94,26.94,0,0,1,251.74,27.5h0A26.94,26.94,0,0,1,224.8,54.43H26.93A26.93,26.93,0,0,1,0,27.5H0A26.93,26.93,0,0,1,26.93.57Z" transform="translate(0 -0.57)"/><g id="Group_11739" data-name="Group 11739"><circle id="Ellipse_563" data-name="Ellipse 563" class="cls-2" cx="254.04" cy="27.43" r="14.96"/><path id="Path_2059" data-name="Path 2059" class="cls-3" d="M245.56,27.17l6.08,6.08,10.74-10.73" transform="translate(0 -0.57)"/></g><g id="_Testa" data-name=" Testa" class="cls-4"><g class="cls-4"><path class="cls-5" d="M23.25,26.37A4.86,4.86,0,1,1,28,31.16,4.88,4.88,0,0,1,23.25,26.37Z" transform="translate(0 -0.57)"/></g><text class="cls-6" transform="translate(43.04 34.43)">T<tspan class="cls-7" x="10.46" y="0">esta</tspan></text></g></g></g><g id="bg"><g id="Group_11805-2" data-name="Group 11805"><path id="Rectangle_1015-2" data-name="Rectangle 1015" class="cls-5" d="M26.93.57H224.8A26.94,26.94,0,0,1,251.74,27.5h0A26.94,26.94,0,0,1,224.8,54.43H26.93A26.93,26.93,0,0,1,0,27.5H0A26.93,26.93,0,0,1,26.93.57Z" transform="translate(0 -0.57)"/></g></g><g id="bg-check"><g id="Group_11805-3" data-name="Group 11805"><g id="Group_11739-2" data-name="Group 11739"><circle id="Ellipse_563-2" data-name="Ellipse 563" class="cls-8" cx="254.04" cy="27.43" r="14.96"/></g></g></g><g id="check"><g id="Group_11805-4" data-name="Group 11805"><g id="Group_11739-3" data-name="Group 11739"><polygon class="cls-1" points="251.65 35.51 244.15 28.01 246.97 25.19 251.65 29.86 260.97 20.54 263.79 23.36 251.65 35.51"/></g></g></g><g id="bullet"><g id="Group_11805-5" data-name="Group 11805"><g id="_Testa-2" data-name=" Testa" class="cls-4"><g class="cls-4"><path class="cls-1" d="M23.25,26.37A4.86,4.86,0,1,1,28,31.16,4.88,4.88,0,0,1,23.25,26.37Z" transform="translate(0 -0.57)"/></g></g></g></g><g id="txt"><g id="Group_11805-6" data-name="Group 11805"><g id="_Testa-3" data-name=" Testa" class="cls-4"><g class="cls-4"><path class="cls-1" d="M45.34,18.39A.45.45,0,0,1,45.8,18h.36a.4.4,0,0,1,.38.19l10.68,13.3h.05V18.65a.46.46,0,0,1,.46-.45h.84a.47.47,0,0,1,.45.45V34.81a.44.44,0,0,1-.45.43h-.2a.42.42,0,0,1-.38-.19L47.12,21.49h0V34.54a.46.46,0,0,1-.45.46H45.8a.48.48,0,0,1-.46-.46Z" transform="translate(0 -0.57)"/><path class="cls-1" d="M66.49,28a9.52,9.52,0,0,1,2.37.36c0-2-.24-3-1.82-3a9.94,9.94,0,0,0-3.29.65c-.29.12-.43,0-.53-.29L63,25c-.09-.33.07-.48.34-.6a10.15,10.15,0,0,1,3.81-.72c2.84,0,3.44,1.39,3.44,4.66v6.14A.53.53,0,0,1,70,35h-.46c-.29,0-.38-.17-.45-.41l-.22-.74a4.87,4.87,0,0,1-3.43,1.41,3.36,3.36,0,0,1-3.43-3.62C62.05,29.53,63.63,28,66.49,28Zm-.7,5.69a3.86,3.86,0,0,0,3-1.49V29.91a5.73,5.73,0,0,0-2.35-.43c-1.54,0-2.69.74-2.69,2.16A1.92,1.92,0,0,0,65.79,33.66Z" transform="translate(0 -0.57)"/><path class="cls-1" d="M74.21,24.44a.55.55,0,0,1,.53-.53h.38a.48.48,0,0,1,.48.38l.2.8a4.4,4.4,0,0,1,3.41-1.42c.84,0,2.2.12,1.94.89l-.31.86a.42.42,0,0,1-.65.27,2.77,2.77,0,0,0-1.2-.31,3.5,3.5,0,0,0-3,1.41v7.68a.55.55,0,0,1-.53.53h-.72a.53.53,0,0,1-.53-.53Z" transform="translate(0 -0.57)"/><path class="cls-1" d="M83,19.76a1.31,1.31,0,1,1,1.3,1.29A1.3,1.3,0,0,1,83,19.76Zm.46,4.68a.55.55,0,0,1,.52-.53h.72a.56.56,0,0,1,.53.53v10a.55.55,0,0,1-.53.53H84a.53.53,0,0,1-.52-.53Z" transform="translate(0 -0.57)"/><path class="cls-1" d="M88,34.42a.71.71,0,0,1,.14-.43L93.8,25.5v-.08h-5a.49.49,0,0,1-.46-.52v-.46a.48.48,0,0,1,.46-.53h7c.36,0,.51.19.51.48a.48.48,0,0,1-.1.29l-5.66,8.74v.07h4.63a.48.48,0,0,1,.53.53v.45a.5.5,0,0,1-.53.53H88.56a.53.53,0,0,1-.52-.53Z" transform="translate(0 -0.57)"/><path class="cls-1" d="M109.25,23.67a6.77,6.77,0,0,1,3.07.7V18.73a.55.55,0,0,1,.53-.53h.67a.58.58,0,0,1,.56.53V34.47a.56.56,0,0,1-.56.53h-.43c-.24,0-.38-.19-.48-.46l-.14-.72A5.36,5.36,0,0,1,109,35.26c-2.8,0-5-2.66-5-5.83S105.92,23.67,109.25,23.67Zm-.07,10a4.09,4.09,0,0,0,3.14-1.78v-6a7.29,7.29,0,0,0-2.83-.62c-2.37,0-3.69,2-3.69,4.18S107.16,33.66,109.18,33.66Z" transform="translate(0 -0.57)"/><path class="cls-1" d="M122.5,23.67a4.88,4.88,0,0,1,5,5c0,.19,0,.48,0,.67a.53.53,0,0,1-.51.48H118.9a3.91,3.91,0,0,0,3.62,3.8,5.11,5.11,0,0,0,3-.92c.39-.26.56-.36.84.08l.29.4c.22.34.31.46-.09.77a6.84,6.84,0,0,1-4.06,1.27c-3.36,0-5.38-2.64-5.38-5.8S119.14,23.67,122.5,23.67Zm3.24,4.78a3.24,3.24,0,0,0-3.24-3.17,3.64,3.64,0,0,0-3.58,3.17Z" transform="translate(0 -0.57)"/><path class="cls-1" d="M141.08,23.67a5.16,5.16,0,0,1,4,1.83.53.53,0,0,1-.1.79l-.38.36c-.36.31-.58.07-.79-.17a3.47,3.47,0,0,0-2.79-1.2,4,4,0,0,0-3.79,4.18,4,4,0,0,0,3.72,4.2,3.59,3.59,0,0,0,3-1.59c.32-.36.63-.26.94,0l.14.14c.24.24.34.48.15.77a5.08,5.08,0,0,1-4.18,2.23,5.48,5.48,0,0,1-5.59-5.78A5.61,5.61,0,0,1,141.08,23.67Z" transform="translate(0 -0.57)"/><path class="cls-1" d="M152.91,23.67a5.8,5.8,0,1,1-5.57,5.76A5.71,5.71,0,0,1,152.91,23.67Zm0,10a4,4,0,0,0,3.79-4.23,3.82,3.82,0,1,0-7.61,0A4,4,0,0,0,152.91,33.66Z" transform="translate(0 -0.57)"/><path class="cls-1" d="M166.18,23.67a4.88,4.88,0,0,1,5,5c0,.19,0,.48,0,.67a.52.52,0,0,1-.5.48h-8.07a3.91,3.91,0,0,0,3.62,3.8,5.11,5.11,0,0,0,3-.92c.39-.26.56-.36.84.08l.29.4c.22.34.32.46-.09.77a6.84,6.84,0,0,1-4.06,1.27c-3.36,0-5.38-2.64-5.38-5.8S162.82,23.67,166.18,23.67Zm3.24,4.78a3.24,3.24,0,0,0-3.24-3.17,3.64,3.64,0,0,0-3.58,3.17Z" transform="translate(0 -0.57)"/><path class="cls-1" d="M174.22,18.73a.55.55,0,0,1,.53-.53h.72a.57.57,0,0,1,.53.53V34.47a.55.55,0,0,1-.53.53h-.72a.53.53,0,0,1-.53-.53Z" transform="translate(0 -0.57)"/><path class="cls-1" d="M179.86,18.73a.55.55,0,0,1,.53-.53h.72a.57.57,0,0,1,.53.53v6.36a5,5,0,0,1,3.52-1.42c2.76,0,4,1.71,4,4.95v5.85a.55.55,0,0,1-.53.53h-.74a.53.53,0,0,1-.53-.53V28.62c0-2.12-.62-3.34-2.33-3.34a4.72,4.72,0,0,0-3.4,1.58v7.61a.55.55,0,0,1-.53.53h-.72a.53.53,0,0,1-.53-.53Z" transform="translate(0 -0.57)"/><path class="cls-1" d="M197.64,23.67a5.8,5.8,0,1,1-5.56,5.76A5.7,5.7,0,0,1,197.64,23.67Zm0,10a4,4,0,0,0,3.8-4.23,3.82,3.82,0,1,0-7.61,0A4,4,0,0,0,197.64,33.66Z" transform="translate(0 -0.57)"/></g></g></g></g></svg>