<svg xmlns="http://www.w3.org/2000/svg" viewBox="0 0 269 53.86"><defs><style>.cls-1{fill:#fff;}.cls-2{fill:#e5e5e5;}.cls-3{fill:none;stroke:#fff;stroke-width:3.99px;}.cls-4,.cls-6{isolation:isolate;}.cls-5{fill:#fe7170;}.cls-6{font-size:24px;font-family:BrandonText-Regular, Brandon Text;letter-spacing:-0.08em;}.cls-6,.cls-8{fill:#545565;}.cls-7{letter-spacing:0em;}</style></defs><g id="original"><g id="Group_11805" data-name="Group 11805"><path id="Rectangle_1015" data-name="Rectangle 1015" class="cls-1" d="M26.93.57H224.8A26.94,26.94,0,0,1,251.74,27.5h0A26.94,26.94,0,0,1,224.8,54.43H26.93A26.93,26.93,0,0,1,0,27.5H0A26.93,26.93,0,0,1,26.93.57Z" transform="translate(0 -0.57)"/><g id="Group_11739" data-name="Group 11739"><circle id="Ellipse_563" data-name="Ellipse 563" class="cls-2" cx="254.04" cy="27.43" r="14.96"/><path id="Path_2059" data-name="Path 2059" class="cls-3" d="M245.56,27.17l6.08,6.08,10.74-10.73" transform="translate(0 -0.57)"/></g><g id="_Testa" data-name=" Testa" class="cls-4"><g class="cls-4"><path class="cls-5" d="M23.25,26.37A4.86,4.86,0,1,1,28,31.16,4.88,4.88,0,0,1,23.25,26.37Z" transform="translate(0 -0.57)"/></g><text class="cls-6" transform="translate(43.04 34.43)">T<tspan class="cls-7" x="10.46" y="0">esta</tspan></text></g></g></g><g id="bg"><g id="Group_11805-2" data-name="Group 11805"><path id="Rectangle_1015-2" data-name="Rectangle 1015" class="cls-1" d="M26.93.57H224.8A26.94,26.94,0,0,1,251.74,27.5h0A26.94,26.94,0,0,1,224.8,54.43H26.93A26.93,26.93,0,0,1,0,27.5H0A26.93,26.93,0,0,1,26.93.57Z" transform="translate(0 -0.57)"/></g></g><g id="bg-check"><g id="Group_11805-3" data-name="Group 11805"><g id="Group_11739-2" data-name="Group 11739"><circle id="Ellipse_563-2" data-name="Ellipse 563" class="cls-2" cx="254.04" cy="27.43" r="14.96"/></g></g></g><g id="check"><g id="Group_11805-4" data-name="Group 11805"><g id="Group_11739-3" data-name="Group 11739"><polygon class="cls-1" points="251.65 35.51 244.15 28.01 246.97 25.19 251.65 29.86 260.97 20.54 263.79 23.36 251.65 35.51"/></g></g></g><g id="bullet"><g id="Group_11805-5" data-name="Group 11805"><g id="_Testa-2" data-name=" Testa" class="cls-4"><g class="cls-4"><path class="cls-5" d="M23.25,26.37A4.86,4.86,0,1,1,28,31.16,4.88,4.88,0,0,1,23.25,26.37Z" transform="translate(0 -0.57)"/></g></g></g></g><g id="txt"><g id="Group_11805-6" data-name="Group 11805"><g id="_Testa-3" data-name=" Testa" class="cls-4"><g class="cls-4"><path class="cls-8" d="M45.34,18.65a.46.46,0,0,1,.46-.45h.93a.48.48,0,0,1,.46.45V33.39H54.1a.46.46,0,0,1,.46.46v.69a.46.46,0,0,1-.46.46H45.8a.46.46,0,0,1-.46-.46Z" transform="translate(0 -0.57)"/><path class="cls-8" d="M56.31,19.76a1.31,1.31,0,1,1,1.29,1.29A1.29,1.29,0,0,1,56.31,19.76Zm.45,4.68a.55.55,0,0,1,.53-.53H58a.56.56,0,0,1,.53.53v10A.55.55,0,0,1,58,35h-.72a.53.53,0,0,1-.53-.53Z" transform="translate(0 -0.57)"/><path class="cls-8" d="M62.28,24.44a.55.55,0,0,1,.53-.53h.39a.38.38,0,0,1,.43.34l.24.84a5.6,5.6,0,0,1,3.72-1.42c3.22,0,4,2.09,4,4.95v5.85a.55.55,0,0,1-.53.53h-.72a.53.53,0,0,1-.53-.53V28.38c0-2.12-.72-3.1-2.35-3.1a4.85,4.85,0,0,0-3.41,1.54v7.65a.55.55,0,0,1-.53.53h-.72a.53.53,0,0,1-.53-.53Z" transform="translate(0 -0.57)"/><path class="cls-8" d="M75.22,18.73a.55.55,0,0,1,.53-.53h.72a.57.57,0,0,1,.53.53v6.36a5,5,0,0,1,3.53-1.42c2.76,0,4,1.71,4,4.95v5.85A.55.55,0,0,1,84,35h-.75a.53.53,0,0,1-.53-.53V28.62c0-2.12-.62-3.34-2.32-3.34A4.73,4.73,0,0,0,77,26.86v7.61a.55.55,0,0,1-.53.53h-.72a.53.53,0,0,1-.53-.53Z" transform="translate(0 -0.57)"/><path class="cls-8" d="M91.73,28a9.54,9.54,0,0,1,2.38.36c0-2-.24-3-1.83-3a9.87,9.87,0,0,0-3.28.65c-.29.12-.44,0-.53-.29L88.23,25c-.1-.33.07-.48.33-.6a10.26,10.26,0,0,1,3.82-.72c2.83,0,3.43,1.39,3.43,4.66v6.14a.53.53,0,0,1-.52.53h-.46c-.29,0-.39-.17-.46-.41l-.21-.74a4.87,4.87,0,0,1-3.44,1.41,3.37,3.37,0,0,1-3.43-3.62C87.29,29.53,88.88,28,91.73,28ZM91,33.66a3.85,3.85,0,0,0,3-1.49V29.91a5.69,5.69,0,0,0-2.35-.43c-1.53,0-2.69.74-2.69,2.16A1.93,1.93,0,0,0,91,33.66Z" transform="translate(0 -0.57)"/><path class="cls-8" d="M98.88,33.92a.4.4,0,0,1-.07-.48l.34-.62c.14-.27.33-.36.65-.15a4.49,4.49,0,0,0,2.76,1c1.12,0,1.89-.53,1.89-1.4,0-1-.86-1.48-2.47-2.28s-3.14-1.51-3.14-3.4c0-1.16.86-2.91,3.43-2.91a5.78,5.78,0,0,1,3.17.87.53.53,0,0,1,.12.74l-.24.46a.55.55,0,0,1-.77.19,4.36,4.36,0,0,0-2.28-.65c-1.23,0-1.63.7-1.63,1.22,0,1,.76,1.35,2.11,2,1.92.89,3.57,1.61,3.57,3.63,0,1.75-1.51,3.16-3.76,3.16A5.46,5.46,0,0,1,98.88,33.92Z" transform="translate(0 -0.57)"/><path class="cls-8" d="M116.72,40.18a.55.55,0,0,1-.53.53h-.7a.53.53,0,0,1-.53-.53V24.44a.55.55,0,0,1,.53-.53h.41c.26,0,.34.07.46.36l.16.53a5.62,5.62,0,0,1,3.34-1.13c3,0,5.16,2.62,5.16,5.79s-2.18,5.8-5.23,5.8a5.52,5.52,0,0,1-3.07-.91Zm2.8-6.52c2.14,0,3.7-1.8,3.7-4.23,0-2.16-1.34-4.15-3.58-4.15a4.19,4.19,0,0,0-2.92,1.34V32.7A5.22,5.22,0,0,0,119.52,33.66Z" transform="translate(0 -0.57)"/><path class="cls-8" d="M132.75,23.67a4.87,4.87,0,0,1,5,5c0,.19,0,.48,0,.67a.53.53,0,0,1-.51.48h-8.06a3.91,3.91,0,0,0,3.62,3.8,5.11,5.11,0,0,0,3-.92c.39-.26.55-.36.84.08l.29.4c.22.34.31.46-.1.77a6.77,6.77,0,0,1-4.05,1.27c-3.36,0-5.38-2.64-5.38-5.8S129.39,23.67,132.75,23.67ZM136,28.45a3.25,3.25,0,0,0-3.24-3.17,3.64,3.64,0,0,0-3.58,3.17Z" transform="translate(0 -0.57)"/><path class="cls-8" d="M140.67,24.44a.55.55,0,0,1,.53-.53h.38a.48.48,0,0,1,.48.38l.19.8a4.43,4.43,0,0,1,3.41-1.42c.84,0,2.21.12,1.94.89l-.31.86a.42.42,0,0,1-.65.27,2.77,2.77,0,0,0-1.2-.31,3.52,3.52,0,0,0-3,1.41v7.68a.55.55,0,0,1-.52.53h-.72a.53.53,0,0,1-.53-.53Z" transform="translate(0 -0.57)"/><path class="cls-8" d="M149.47,19.76a1.31,1.31,0,1,1,1.3,1.29A1.3,1.3,0,0,1,149.47,19.76Zm.46,4.68a.55.55,0,0,1,.53-.53h.72a.57.57,0,0,1,.53.53v10a.55.55,0,0,1-.53.53h-.72a.53.53,0,0,1-.53-.53Z" transform="translate(0 -0.57)"/><path class="cls-8" d="M160.3,23.67a5.8,5.8,0,1,1-5.57,5.76A5.71,5.71,0,0,1,160.3,23.67Zm0,10a4,4,0,0,0,3.79-4.23,3.82,3.82,0,1,0-7.61,0A4,4,0,0,0,160.3,33.66Z" transform="translate(0 -0.57)"/><path class="cls-8" d="M168.89,24.44a.55.55,0,0,1,.53-.53h.38a.48.48,0,0,1,.48.38l.19.8a4.43,4.43,0,0,1,3.41-1.42c.84,0,2.21.12,2,.89l-.31.86a.42.42,0,0,1-.65.27,2.81,2.81,0,0,0-1.2-.31,3.5,3.5,0,0,0-3,1.41v7.68a.55.55,0,0,1-.53.53h-.72a.53.53,0,0,1-.53-.53Z" transform="translate(0 -0.57)"/><path class="cls-8" d="M181.61,28a9.54,9.54,0,0,1,2.38.36c0-2-.24-3-1.83-3a9.87,9.87,0,0,0-3.28.65c-.29.12-.44,0-.53-.29l-.24-.65c-.1-.33.07-.48.33-.6a10.21,10.21,0,0,1,3.82-.72c2.83,0,3.43,1.39,3.43,4.66v6.14a.53.53,0,0,1-.53.53h-.45c-.29,0-.39-.17-.46-.41l-.21-.74a4.87,4.87,0,0,1-3.44,1.41,3.37,3.37,0,0,1-3.43-3.62C177.17,29.53,178.75,28,181.61,28Zm-.69,5.69a3.85,3.85,0,0,0,3-1.49V29.91a5.69,5.69,0,0,0-2.35-.43c-1.54,0-2.69.74-2.69,2.16A1.93,1.93,0,0,0,180.92,33.66Z" transform="translate(0 -0.57)"/><path class="cls-8" d="M188.88,19.76a1.31,1.31,0,1,1,1.3,1.29A1.3,1.3,0,0,1,188.88,19.76Zm.46,4.68a.55.55,0,0,1,.53-.53h.72a.56.56,0,0,1,.52.53v10a.55.55,0,0,1-.52.53h-.72a.53.53,0,0,1-.53-.53Z" transform="translate(0 -0.57)"/><path class="cls-8" d="M194.28,33.92a.39.39,0,0,1-.07-.48l.34-.62c.14-.27.33-.36.64-.15a4.54,4.54,0,0,0,2.76,1c1.13,0,1.9-.53,1.9-1.4,0-1-.86-1.48-2.47-2.28s-3.15-1.51-3.15-3.4c0-1.16.87-2.91,3.44-2.91a5.71,5.71,0,0,1,3.16.87.52.52,0,0,1,.13.74l-.25.46a.53.53,0,0,1-.76.19,4.36,4.36,0,0,0-2.28-.65c-1.23,0-1.64.7-1.64,1.22,0,1,.77,1.35,2.12,2,1.92.89,3.57,1.61,3.57,3.63,0,1.75-1.51,3.16-3.77,3.16A5.46,5.46,0,0,1,194.28,33.92Z" transform="translate(0 -0.57)"/></g></g></g></g></svg>