<svg xmlns="http://www.w3.org/2000/svg" viewBox="0 0 269 53.86"><defs><style>.cls-1,.cls-6{fill:#fff;}.cls-2{fill:#e5e5e5;}.cls-3{fill:none;stroke:#fff;stroke-width:3.99px;}.cls-4,.cls-6{isolation:isolate;}.cls-5{fill:#fe7170;}.cls-6{font-size:24px;font-family:BrandonText-Regular, Brandon Text;letter-spacing:-0.08em;}.cls-7{letter-spacing:0em;}.cls-8{fill:#25d366;}</style></defs><g id="original"><g id="Group_11805" data-name="Group 11805"><path id="Rectangle_1015" data-name="Rectangle 1015" class="cls-1" d="M26.93.57H224.8A26.94,26.94,0,0,1,251.74,27.5h0A26.94,26.94,0,0,1,224.8,54.43H26.93A26.93,26.93,0,0,1,0,27.5H0A26.93,26.93,0,0,1,26.93.57Z" transform="translate(0 -0.57)"/><g id="Group_11739" data-name="Group 11739"><circle id="Ellipse_563" data-name="Ellipse 563" class="cls-2" cx="254.04" cy="27.43" r="14.96"/><path id="Path_2059" data-name="Path 2059" class="cls-3" d="M245.56,27.17l6.08,6.08,10.74-10.73" transform="translate(0 -0.57)"/></g><g id="_Testa" data-name=" Testa" class="cls-4"><g class="cls-4"><path class="cls-5" d="M23.25,26.37A4.86,4.86,0,1,1,28,31.16,4.88,4.88,0,0,1,23.25,26.37Z" transform="translate(0 -0.57)"/></g><text class="cls-6" transform="translate(43.04 34.43)">T<tspan class="cls-7" x="10.46" y="0">esta</tspan></text></g></g></g><g id="bg"><g id="Group_11805-2" data-name="Group 11805"><path id="Rectangle_1015-2" data-name="Rectangle 1015" class="cls-5" d="M26.93.57H224.8A26.94,26.94,0,0,1,251.74,27.5h0A26.94,26.94,0,0,1,224.8,54.43H26.93A26.93,26.93,0,0,1,0,27.5H0A26.93,26.93,0,0,1,26.93.57Z" transform="translate(0 -0.57)"/></g></g><g id="bg-check"><g id="Group_11805-3" data-name="Group 11805"><g id="Group_11739-2" data-name="Group 11739"><circle id="Ellipse_563-2" data-name="Ellipse 563" class="cls-8" cx="254.04" cy="27.43" r="14.96"/></g></g></g><g id="check"><g id="Group_11805-4" data-name="Group 11805"><g id="Group_11739-3" data-name="Group 11739"><polygon class="cls-1" points="251.65 35.51 244.15 28.01 246.97 25.19 251.65 29.86 260.97 20.54 263.79 23.36 251.65 35.51"/></g></g></g><g id="bullet"><g id="Group_11805-5" data-name="Group 11805"><g id="_Testa-2" data-name=" Testa" class="cls-4"><g class="cls-4"><path class="cls-1" d="M23.25,26.37A4.86,4.86,0,1,1,28,31.16,4.88,4.88,0,0,1,23.25,26.37Z" transform="translate(0 -0.57)"/></g></g></g></g><g id="txt"><g id="Group_11805-6" data-name="Group 11805"><g id="_Testa-3" data-name=" Testa" class="cls-4"><g class="cls-4"><path class="cls-1" d="M44.41,32.48l.36-.46c.24-.31.43-.43.76-.14a7.06,7.06,0,0,0,4.13,1.75c2,0,3.22-1.22,3.22-2.73,0-1.66-1.44-2.62-4.2-3.8S44.45,25,44.45,22.23c0-1.63,1.3-4.27,5.12-4.27a7.85,7.85,0,0,1,4.1,1.22.55.55,0,0,1,.14.82l-.24.41c-.19.33-.45.33-.84.12a5.6,5.6,0,0,0-3.19-1c-2.54,0-3.31,1.63-3.31,2.64,0,1.7,1.22,2.45,3.24,3.29,3.24,1.32,5.33,2.54,5.33,5.32,0,2.5-2.38,4.42-5.19,4.42a7.86,7.86,0,0,1-5.06-1.94C44.36,33.13,44.07,32.91,44.41,32.48Z" transform="translate(0 -0.57)"/><path class="cls-1" d="M62.53,23.67A5.8,5.8,0,1,1,57,29.43,5.7,5.7,0,0,1,62.53,23.67Zm0,10a4,4,0,0,0,3.79-4.23,3.82,3.82,0,1,0-7.61,0A4,4,0,0,0,62.53,33.66Z" transform="translate(0 -0.57)"/><path class="cls-1" d="M71.12,24.44a.55.55,0,0,1,.53-.53H72a.48.48,0,0,1,.48.38l.19.8a4.43,4.43,0,0,1,3.41-1.42c.84,0,2.21.12,1.94.89l-.31.86a.42.42,0,0,1-.65.27,2.77,2.77,0,0,0-1.2-.31,3.52,3.52,0,0,0-3,1.41v7.68a.55.55,0,0,1-.52.53h-.72a.53.53,0,0,1-.53-.53Z" transform="translate(0 -0.57)"/><path class="cls-1" d="M80.38,24.44a.55.55,0,0,1,.53-.53h.38a.48.48,0,0,1,.48.38l.19.8a4.43,4.43,0,0,1,3.41-1.42c.84,0,2.21.12,1.95.89l-.31.86a.42.42,0,0,1-.65.27,2.81,2.81,0,0,0-1.2-.31,3.5,3.5,0,0,0-3,1.41v7.68a.55.55,0,0,1-.53.53h-.72a.53.53,0,0,1-.53-.53Z" transform="translate(0 -0.57)"/><path class="cls-1" d="M89.19,19.76a1.31,1.31,0,1,1,1.29,1.29A1.29,1.29,0,0,1,89.19,19.76Zm.45,4.68a.55.55,0,0,1,.53-.53h.72a.56.56,0,0,1,.53.53v10a.55.55,0,0,1-.53.53h-.72a.53.53,0,0,1-.53-.53Z" transform="translate(0 -0.57)"/><path class="cls-1" d="M94.59,33.92a.39.39,0,0,1-.07-.48l.33-.62c.15-.27.34-.36.65-.15a4.49,4.49,0,0,0,2.76,1c1.13,0,1.9-.53,1.9-1.4,0-1-.87-1.48-2.48-2.28s-3.14-1.51-3.14-3.4c0-1.16.86-2.91,3.43-2.91a5.78,5.78,0,0,1,3.17.87.52.52,0,0,1,.12.74l-.24.46a.55.55,0,0,1-.77.19A4.36,4.36,0,0,0,98,25.28c-1.22,0-1.63.7-1.63,1.22,0,1,.77,1.35,2.11,2,1.92.89,3.58,1.61,3.58,3.63,0,1.75-1.51,3.16-3.77,3.16A5.41,5.41,0,0,1,94.59,33.92Z" transform="translate(0 -0.57)"/><path class="cls-1" d="M109.76,23.67a5.8,5.8,0,1,1-5.57,5.76A5.71,5.71,0,0,1,109.76,23.67Zm0,10a4,4,0,0,0,3.79-4.23,3.82,3.82,0,1,0-7.61,0A4,4,0,0,0,109.76,33.66Z" transform="translate(0 -0.57)"/><path class="cls-1" d="M133.49,35.07c0,3.79-2.33,5.19-4.85,5.19a6.32,6.32,0,0,1-3.86-1.44.53.53,0,0,1-.12-.65l.48-.7c.17-.26.46-.26.72,0a4.42,4.42,0,0,0,2.78,1.17c1.76,0,3.1-1,3.1-3.55v-.79a5.38,5.38,0,0,1-3.07,1c-3,0-5.26-2.56-5.26-5.8s2.16-5.79,5.19-5.79a5.47,5.47,0,0,1,3.31,1.13l.17-.51c.12-.21.24-.38.52-.38h.34a.57.57,0,0,1,.55.53Zm-4.58-1.44a5.44,5.44,0,0,0,2.81-.91V26.65a4.13,4.13,0,0,0-2.93-1.35c-2.21,0-3.58,2-3.58,4.13C125.21,31.83,126.8,33.63,128.91,33.63Z" transform="translate(0 -0.57)"/><path class="cls-1" d="M141.92,23.67a4.87,4.87,0,0,1,5,5,5,5,0,0,1-.05.67.51.51,0,0,1-.5.48h-8.06a3.9,3.9,0,0,0,3.62,3.8,5.13,5.13,0,0,0,3-.92c.38-.26.55-.36.84.08l.29.4c.21.34.31.46-.1.77a6.77,6.77,0,0,1-4.05,1.27c-3.36,0-5.38-2.64-5.38-5.8S138.56,23.67,141.92,23.67Zm3.24,4.78a3.25,3.25,0,0,0-3.24-3.17,3.63,3.63,0,0,0-3.58,3.17Z" transform="translate(0 -0.57)"/><path class="cls-1" d="M149.84,24.44a.55.55,0,0,1,.52-.53h.39a.38.38,0,0,1,.43.34l.24.84a5.6,5.6,0,0,1,3.72-1.42c3.22,0,4,2.09,4,4.95v5.85a.55.55,0,0,1-.53.53h-.72a.53.53,0,0,1-.53-.53V28.38c0-2.12-.72-3.1-2.35-3.1a4.85,4.85,0,0,0-3.41,1.54v7.65a.55.55,0,0,1-.53.53h-.72a.53.53,0,0,1-.52-.53Z" transform="translate(0 -0.57)"/><path class="cls-1" d="M172.16,35.07c0,3.79-2.33,5.19-4.85,5.19a6.35,6.35,0,0,1-3.87-1.44.53.53,0,0,1-.12-.65l.48-.7c.17-.26.46-.26.72,0a4.42,4.42,0,0,0,2.79,1.17c1.75,0,3.09-1,3.09-3.55v-.79a5.34,5.34,0,0,1-3.07,1c-3.05,0-5.25-2.56-5.25-5.8s2.16-5.79,5.18-5.79a5.47,5.47,0,0,1,3.31,1.13l.17-.51c.12-.21.24-.38.53-.38h.33a.58.58,0,0,1,.56.53Zm-4.59-1.44a5.4,5.4,0,0,0,2.81-.91V26.65a4.13,4.13,0,0,0-2.93-1.35c-2.21,0-3.57,2-3.57,4.13C163.88,31.83,165.46,33.63,167.57,33.63Z" transform="translate(0 -0.57)"/><path class="cls-1" d="M175.44,19.76a1.31,1.31,0,1,1,1.3,1.29A1.3,1.3,0,0,1,175.44,19.76Zm.46,4.68a.55.55,0,0,1,.53-.53h.72a.57.57,0,0,1,.53.53v10a.55.55,0,0,1-.53.53h-.72a.53.53,0,0,1-.53-.53Z" transform="translate(0 -0.57)"/><path class="cls-1" d="M180.17,24.54c-.17-.34,0-.63.41-.63h.84a.49.49,0,0,1,.5.31l3.44,8.16h0l3.65-8.16a.46.46,0,0,1,.43-.31h.77c.43,0,.58.29.43.63L185.91,35a.45.45,0,0,1-.46.28h-.14a.48.48,0,0,1-.46-.28Z" transform="translate(0 -0.57)"/><path class="cls-1" d="M196.54,28a9.54,9.54,0,0,1,2.38.36c0-2-.24-3-1.83-3a10,10,0,0,0-3.29.65c-.28.12-.43,0-.53-.29L193,25c-.1-.33.07-.48.33-.6a10.17,10.17,0,0,1,3.82-.72c2.83,0,3.43,1.39,3.43,4.66v6.14a.53.53,0,0,1-.53.53h-.45c-.29,0-.39-.17-.46-.41l-.22-.74a4.83,4.83,0,0,1-3.43,1.41,3.37,3.37,0,0,1-3.43-3.62C192.1,29.53,193.68,28,196.54,28Zm-.7,5.69a3.86,3.86,0,0,0,3-1.49V29.91a5.73,5.73,0,0,0-2.35-.43c-1.54,0-2.69.74-2.69,2.16A1.92,1.92,0,0,0,195.84,33.66Z" transform="translate(0 -0.57)"/><path class="cls-1" d="M204.39,18.73a.55.55,0,0,1,.53-.53h.72a.56.56,0,0,1,.52.53V34.47a.55.55,0,0,1-.52.53h-.72a.53.53,0,0,1-.53-.53Z" transform="translate(0 -0.57)"/></g></g></g></g></svg>