<svg xmlns="http://www.w3.org/2000/svg" width="57" height="66" viewBox="0 0 57 66">
    <g fill="none" fill-rule="evenodd">
        <g transform="translate(-2209.000000, -1085.000000)">
            <g fill="#ff8d8f" stroke="#ff8d8f" stroke-width="1.5">
                <g>
                    <path d="M27.43 2.955c-13.565 0-24.601 11.099-24.601 24.74 0 4.687 1.313 9.247 3.797 13.187 2.416 3.832 5.83 6.927 9.872 8.95.48.24.784.734.784 1.274v8.377l7.851-6.775c.276-.238.633-.362.996-.34.153.007.306.017.46.028.294.02.573.04.841.04 13.566 0 24.602-11.1 24.602-24.74 0-13.642-11.036-24.74-24.602-24.74M15.867 64c-.2 0-.401-.043-.59-.13-.502-.232-.824-.737-.824-1.292V51.97c-4.161-2.252-7.681-5.545-10.216-9.565C1.465 38.01 0 32.923 0 27.695 0 12.485 12.305.111 27.43.111s27.43 12.374 27.43 27.584c0 15.21-12.305 27.585-27.43 27.585-.312 0-.606-.018-.891-.037l-9.75 8.414c-.262.226-.59.343-.922.343" transform="translate(2210.000000, 1086.000000)"/>
                </g>
                <path d="M14.446 34c-.414 0-.825-.172-1.111-.506-.511-.597-.428-1.484.185-1.981l8.862-7.187c.575-.466 1.419-.429 1.947.086l6.452 6.279 7.848-6.365c.614-.497 1.525-.417 2.036.18.511.597.428 1.484-.185 1.981l-8.862 7.187c-.575.466-1.419.428-1.947-.086l-6.452-6.279-7.848 6.365c-.27.22-.599.326-.925.326" transform="translate(2210.000000, 1086.000000)"/>
            </g>
        </g>
    </g>
</svg>
