<svg width="348" height="316" xmlns="http://www.w3.org/2000/svg" xmlns:xlink="http://www.w3.org/1999/xlink">
    <defs>
        <path id="a" d="M0 .498h348v314.003H0z"/>
        <path id="c" d="M0 0h316.827v81.117H0z"/>
        <path id="e" d="M.016.375h65.929V113.82H.016z"/>
        <path id="g" d="M0 .463h40.057v43.65H0z"/>
        <path id="i" d="M.105.136h47.997v38.996H.105z"/>
        <path id="k" d="M0 0h175.286v92.306H0z"/>
        <path id="m" d="M0 .076h19.796v17H0z"/>
        <path id="o" d="M.208.145H23.21v73.471H.208z"/>
    </defs>
    <g transform="translate(0 .5)" fill="none" fill-rule="evenodd">
        <mask id="b" fill="#fff">
            <use xlink:href="#a"/>
        </mask>
        <g mask="url(#b)">
            <path fill="#684857" opacity=".391" d="M22 277.619h307v-.997H22z"/>
            <path fill="#FBE4E9" d="M94 290.578h56v-.997H94zM163 290.578h98v-.997h-98z"/>
            <g>
                <path d="M45.359 271.638s-26.812-21.664-4.466-50.696c22.346-29.033 55.031.523 81.654-3.924 26.622-4.446 38.778-72.14 94.543-96.355 60.103-26.1 111.91 30.84 111.91 86.804 0 29.336-11.623 47.39-25.268 63.648l-258.373.523z" fill="#FFDBDB" opacity=".231"/>
                <g transform="translate(11 190.239)">
                    <mask id="d" fill="#fff">
                        <use xlink:href="#c"/>
                    </mask>
                    <g mask="url(#d)" fill="#F8D1D0">
                        <path d="M214.959 146.005h8.426l.01.006 5.377-72.578h-13.813zM177.422 84.162l.648.078-5.237 45.035-.647-.077-.603 5.184.648.077-.224 1.925-.647-.077-1.055 9.067h.003a4.29 4.29 0 0 0-.032.507h8.476l.076.044 14.461-73.201h-14.537l-1.33 11.438z"/>
                    </g>
                </g>
                <path d="m95.13 90.798-7.76-6.878 7.76 6.878z" fill="#7760DB"/>
                <path fill="#FFF7F7" d="m70.99 78.912 8.268 6.728 2.94-3.589-8.267-6.727z"/>
                <path d="m114.096 63.289 8.62 5.158-8.62-5.158z" fill="#7760DB"/>
                <path fill="#FFC7BD" d="m92.891 121.745-8.969-5.372 2.239-4.084 8.969 5.372zM181.384 68.37l-8.969-5.372 2.239-4.085 8.969 5.372z"/>
                <path d="m90.82 36.64 6.896 7.737-6.897-7.737z" fill="#7760DB"/>
                <path fill="#FF8D8F" d="m101.995 75.33-6.746-8.243 3.598-2.932 6.747 8.243z"/>
                <path d="m150.304 35.78-8.621 5.158 8.62-5.158zM126.165 41.798l5.173-9.456-5.173 9.456zM188.236 8.272l-9.483 4.298 9.483-4.298zM115.82 8.272l7.759-6.878-7.76 6.878z" fill="#7760DB"/>
                <path fill="#FFF7F7" d="m130.004 14.801-7.287 7.104 3.057 3.212 7.288-7.104z"/>
                <path d="m152.89 73.605-6.897 7.736 6.897-7.736z" fill="#7760DB"/>
                <g>
                    <g transform="translate(119.473 64.367)">
                        <mask id="f" fill="#fff">
                            <use xlink:href="#e"/>
                        </mask>
                        <path d="M60.487 77.909c-2.221-2.185-4.432-4.31-5.078-7.93-1.592-8.926 2.313-9.983.365-18.844-1.948-8.861-8.485-7.325-10.433-16.187-.251-1.144-.326-2.176-.27-3.116a22.892 22.892 0 0 0 1.211-4.74c.357-2.43.33-4.952-.123-7.495C43.897 6.917 31.815-1.525 19.179.744 6.536 3.014-1.878 15.137.384 27.817a23.29 23.29 0 0 0 2.473 7.072c.113.212.23.416.35.627l.008.006a23.199 23.199 0 0 0 2.426 3.404c.371.863.656 1.85.815 3.004 1.235 8.99-5.42 9.823-4.184 18.812 1.235 8.99 5.263 8.622 6.855 17.547.645 3.622-.694 6.384-2.03 9.207-1.32 2.826-2.637 5.715-1.95 9.568 1.972 11.057 12.498 18.413 23.517 16.434l20.588-3.696c11.02-1.98 18.343-12.54 16.372-23.598-.688-3.853-2.92-6.103-5.137-8.295" fill="#684857" mask="url(#f)"/>
                    </g>
                    <path d="m96.223 140.738 15.454-40.66 2.695-7.092a4.413 4.413 0 0 1 5.7-2.56 4.429 4.429 0 0 1 1.82 6.967l.003.002-4.373 5.264-9.929 41.588-11.37-3.509z" fill="#F8D1D0"/>
                    <path d="M123.709 150.784c-4.005-.64-6.987-4.243-6.812-8.459a8.27 8.27 0 0 1 .65-2.877l-.009-.004 6.723-15.98.005.003c1.28-3.04 4.309-5.13 7.776-4.98l30.027 1.293c3.236.14 5.48 3.337 4.557 6.492l-13.948 47.707c-.338 8.109-7.079 14.403-15.055 14.06-7.976-.344-14.169-7.196-13.83-15.305h-.001l-.083-21.95z" fill="#FF8D8F"/>
                    <g transform="translate(95.362 105.595)">
                        <mask id="h" fill="#fff">
                            <use xlink:href="#g"/>
                        </mask>
                        <path d="M.393 35.941H.39L13.784.463l6.76 2.099-5.426 22.884L32.43 14.798l7.627 14.658L8.339 43.674l-.024-.047a5.899 5.899 0 0 1-4.466.092C.766 42.534-.78 39.052.393 35.941" fill="#FF8D8F" mask="url(#h)"/>
                    </g>
                    <path d="m125.557 98.59 2.037-19.621 23.461 1-.504 11.949.624.026c1.725.074 3.063 1.54 2.99 3.276-.074 1.735-1.53 3.082-3.254 3.008l-.624-.026-.168 3.99-.29 6.892-.058 1.372-.37 8.76 6.24.267-22.632 13.598.612-14.538 2.047.087.368-8.76-.836-.036c-5.833-.25-10.25-5.4-9.643-11.245" fill="#F8D1D0"/>
                    <path d="M132.92 103.754c2.14-.046 3.83-1.529 3.775-3.312l-7.75.165c.056 1.784 1.835 3.192 3.975 3.147" fill="#FFF"/>
                    <g transform="translate(184.918 115.902)">
                        <mask id="j" fill="#fff">
                            <use xlink:href="#i"/>
                        </mask>
                        <path d="M.105 30.075 26.9 9.213l7.425-5.781.01.012c.25-.193.53-.343.83-.453l-.002-.015L42.24.396v.005c.444-.162.92-.257 1.419-.264 2.42-.035 4.41 1.935 4.445 4.398C48.135 7 46.2 9.023 43.779 9.058l-6.256.087-29.66 29.987-7.758-9.057z" fill="#FF95A9" mask="url(#j)"/>
                    </g>
                    <path d="M155.55 122.578c2.711-3.572 7.846-4.302 11.47-1.631.29.214.556.448.809.69l.005-.006 21.113 20.233 25.785-19.442 4.631 5.238-26.606 26.053v-.001c-2.13 2.084-5.455 2.25-7.78.514l-.066.074-27.705-20.418c-3.625-2.67-4.365-7.732-1.656-11.304" fill="#FFC7BD"/>
                    <path fill="#FF95A9" d="m210.52 127.068 1.954-1.662-.629-.914-1.954 1.662zM189.13 142.529l18.177-13.62-.765-.982-18.18 13.62z"/>
                    <path fill="#FFF" d="m120.486 134.799 1.57-4.61-1.01-.544-1.573 4.61zM124.7 151.977c2.234 0 4.342-.869 5.968-2.471l-.855-.917c-1.473 1.45-3.403 2.202-5.439 2.11-1.981-.086-3.81-.96-5.151-2.46a7.696 7.696 0 0 1-1.95-5.481c.038-.91.239-1.81.597-2.67l.243-.584-.008-.004 1.033-2.483-1.137-.5-1.52 3.65.029.013a9.013 9.013 0 0 0-.473 2.524 8.982 8.982 0 0 0 2.275 6.395c1.564 1.75 3.699 2.77 6.01 2.87.126.006.252.008.377.008"/>
                    <path d="m150.78 91.825.636.027.78-18.92-18.955-.826c-5.005-.219-9.235 3.779-9.447 8.928l-.015.37.637.028c5.422.237 10.62 2.286 14.807 5.838 3.268 2.77 7.325 4.37 11.556 4.555M135.861 172.591h16.005c2.053-.718 3.955.39 5.703 3.327 2.481 4.566 3.56 8.611 3.238 12.134 0 13.313-3.006 18.037-7.777 18.037h-24.918c-4.772 0-8.64-3.94-8.639-8.8v-8.609a36.791 36.791 0 0 1 3.7-16.089h12.688z" fill="#684857"/>
                </g>
                <g transform="translate(57.868 179.05)">
                    <mask id="l" fill="#fff">
                        <use xlink:href="#k"/>
                    </mask>
                    <g mask="url(#l)" fill="#684857">
                        <path d="M111.595 147.57c0 .072.657-2.987.657-2.915 0 2.243-1.837 4.06-4.103 4.06-2.089 0-3.809-1.546-4.066-3.544L87.717 23.215l15.9-13.813c1.707 18.098 2.444 33.074 2.211 44.929 1.375 23.816 3.298 54.896 5.767 93.24zM62.187 18.803 82.03 27.35l-1.728 116.098.001.015c0 3.377-1.777 6.107-3.97 6.107-2.192 0-3.97-2.73-3.97-6.098L62.187 18.803z"/>
                    </g>
                </g>
                <path d="m209.484 170.992 1.353-1.071-9.61-33.04-4.25-3.606-2.613-.783-2.073 3.518h-3.854l-3.088-2.735 6.942-9.236-4.977 12.448 1.3-.477-3.265 1.742 5.313 28.173c-.267 1.107.276 2.311 1.629 3.612 1.353 1.3 2.915 2.12 4.685 2.459l9.899 1.46c.791-.89 7.523-23.366 8.469-24.115" fill="#684857"/>
                <path d="M199.102 121.573a7.453 7.453 0 0 1 2.515-.987 4.56 4.56 0 0 1 .851-.117l.155-.007.116-.004 5.947-.255 5.798-.247-2.596-19.259-.572.116c-1.582.319-3.116-.742-3.426-2.369-.31-1.627.721-3.204 2.303-3.523l.125-.026.484-.097a17.542 17.542 0 0 0 5.734-2.285 4.531 4.531 0 0 1 .711-2.971 4.307 4.307 0 0 1 2.768-1.891 4.198 4.198 0 0 1 1.868.048 22.702 22.702 0 0 1 9.077-5.453l.875 3.45c1.588.405 1.9 3.575 2.235 5.332.298 1.564.745 1.237-.309 2.255l1.04 4.098c1.379 5.43-1.98 10.929-7.333 12.009l-1.404.283 1.227 9.1c.028.212.046.424.054.634l1.913-.082 1.405-.06a7.507 7.507 0 0 1 .799.008l.033.003c.12.008.24.019.358.033l.045.006a7.3 7.3 0 0 1 .34.05l.05.01c.11.02.22.04.33.066l.049.012c.109.025.217.052.324.082l.046.015c.108.03.215.063.32.1l.039.013c.108.038.216.077.322.12.01.003.02.008.029.012a7.428 7.428 0 0 1 .674.311 7.674 7.674 0 0 1 2.45 2.034l2.811 3.013c.873-8.632-5.358-9.216-4.484-17.85.112-1.108.348-2.061.668-2.898a22.241 22.241 0 0 0 2.471-3.949 22.702 22.702 0 0 0 2.089-6.84c1.717-12.196-6.505-23.519-18.367-25.286-11.856-1.767-22.864 6.69-24.582 18.886a22.852 22.852 0 0 0 .116 7.169 22.402 22.402 0 0 0 1.276 4.494c.082.897.044 1.886-.155 2.988-1.544 8.534-7.687 7.274-9.23 15.809-.99 5.47.163 7.8.801 11.025l8.003-6.547c.257-.207.527-.403.814-.581z" fill="#684857"/>
                <g>
                    <g transform="translate(149.729 120.228)">
                        <mask id="n" fill="#fff">
                            <use xlink:href="#m"/>
                        </mask>
                        <path d="m12.55 12.733.004.001.257-.77-.257.77-.004-.001zm6.938 1.562L18.262 3.239h.002l-.005-.048-2.623.292.002-.005-.003-.001L4.848.077h-.001L.707 7.952l.01.004c-.042.08-.089.155-.127.237-1.484 3.143-.071 6.863 3.156 8.308.87.39 1.783.568 2.682.567v.007h13.368l-.309-2.781z" fill="#FFC7BD" mask="url(#n)"/>
                    </g>
                    <path d="m172.537 99.56 2.092-.727 3.906-1.356-.002-.004a4.668 4.668 0 0 0 1.348-.728 4.578 4.578 0 0 0 1.774-3.56 4.552 4.552 0 0 0-1.005-2.915c-1.6-1.998-4.539-2.337-6.564-.759l-.757.59-3.355 2.616-2.173 1.694a3.272 3.272 0 0 0-.894 1.084l-.008-.003-12.856 24.787 10.577 3.377 7.917-24.096z" fill="#F8D1D0"/>
                    <path fill="#FF95A9" d="m162.549 132.225-.004-.002.004.003.25-.857z"/>
                    <path d="M235.153 176.963h4.314c0-.116-.006-.23-.009-.345l-4.305.048v.297zM234.29 176.932v-.283l-6.04.062v.22z" fill="#CCC2FF"/>
                    <path d="M279.873 56.53a3.986 3.986 0 0 0-1.517-4.318l.382-.535a4.613 4.613 0 0 0-1.432-.692 4.639 4.639 0 0 0-5.726 3.205 4.622 4.622 0 0 0-.164 1.517h-.004l.396 7.166-14.22 33.246 10.929 3.081-.371 1.316 1.576-5.587-.637-.18.382-1.357.638.18 1.08-3.824-.638-.18 9.326-33.039z" fill="#F8D1D0"/>
                    <path d="M221.38 154.488a9.993 9.993 0 0 1-8.713-3.233.328.328 0 0 1 .038-.472l.511-.422a.335.335 0 0 1 .463.037 8.657 8.657 0 0 0 7.532 2.782c.366-.046.73-.115 1.083-.205a.331.331 0 0 1 .404.222l.19.634a.328.328 0 0 1-.23.412c-.417.109-.846.19-1.279.245zm8.567-7.549c.085.308.188.612.308.91a.329.329 0 0 1-.171.426l-.609.268a.335.335 0 0 1-.444-.174 9.737 9.737 0 0 1-.378-1.116.33.33 0 0 1 .25-.403l.648-.15a.334.334 0 0 1 .396.24zm27.095-49.85-2.61 6.038a.327.327 0 0 1-.13.15l-18.648 11.58-7.402 4.595a.33.33 0 0 0-.156.28v15.007c0 .261-.294.419-.515.275l-22.867-14.853a.334.334 0 0 0-.215-.053l-38.427 3.83 34.515-3.302-34.057 3.207c-.413.04-.397.64.017.658l-3.404 5.963-2.197-.725 2.197-.362 2.563 7.615c-3.889.21-.002.106.366.12l29.535 1.29c.14.006.26.097.304.228l.705 2.152c.056.173 3.577 9.38 3.752 9.324l-.794-2.357c.175-.056-2.177-6.716-2.12-6.543l9.224 34.916c.038.116.54.116 1.508 0a.333.333 0 0 0 .316.229h19.692v.44l5.584-.063v-.377h1.314v.363l4.332-.048h.006l-.485-21.78a.33.33 0 0 0-.338-.323 9.994 9.994 0 0 1-7.765-3.309.33.33 0 0 1 .039-.472l.512-.421a.335.335 0 0 1 .462.037 8.658 8.658 0 0 0 7.533 2.782c.012 0 .023-.004.035-.006.281-.037.557-.085.827-.147.067-.015.13-.037.195-.054.217-.055.432-.11.64-.181.05-.016.096-.038.144-.055.223-.08.443-.162.656-.258.029-.013.055-.03.084-.043.23-.106.455-.219.671-.344l.043-.026c.228-.133.45-.274.662-.426l.05-.04c.208-.15.409-.306.6-.473.053-.045.1-.096.15-.143.153-.139.306-.278.447-.428.191-.2.374-.411.547-.632.15-.192.289-.39.42-.591.076-.118.19-.316.26-.438.083-.148.168-.295.243-.446.072-.144.135-.292.2-.44.05-.12.101-.239.146-.36a8.365 8.365 0 0 0 .268-.858 8.456 8.456 0 0 0 .204-3.196 8.5 8.5 0 0 0-.949-2.934l.009-.005-5.146-9.591a.327.327 0 0 1 .082-.409l22.526-18.388a6.213 6.213 0 0 0 2.053-3.115l-1.92-.672 1.92.672 2.192-7.69.282-.992a.33.33 0 0 0-.23-.407l-10.657-2.976z" fill="#FFC7BD"/>
                    <path d="M228.915 101.222c2.094-.545 3.26-2.396 2.603-4.134l-7.583 1.973c.656 1.738 2.886 2.705 4.98 2.16" fill="#FFF"/>
                    <path d="m240.184 249.636.292-3.428-.292 3.428zM242.918 211.928l.863-8.57-.863 8.57zM192.01 241.066l-.863 11.141z" fill="#FF95A9"/>
                    <path d="M235.45 176.79v.67h-1.313v-.67h-5.582v.67h-19.484l-1.487 1.164c-4.702 3.678-7.797 9.202-8.494 15.155l-.088.757-9.842 68.572 51.928.46 2.693-69.629c0-5.95-1.366-11.818-3.99-17.149h-4.34z" fill="#FF8D8F"/>
                    <path d="M229.113 147.044c.134.5.324.993.565 1.465l1.16-.447a6.49 6.49 0 0 1-.49-1.267l-1.235.249zM246.475 147.97c-.045.13-.096.257-.146.385-.063.158-.125.316-.197.47-.067.146-.142.287-.217.429-.066.125-.127.253-.199.376a9.005 9.005 0 0 1-1.04 1.447c-.14.16-.291.309-.442.457-.05.05-.097.105-.149.153-.19.18-.39.346-.594.506-.016.013-.032.029-.05.042a8.316 8.316 0 0 1-.656.455c-.014.01-.027.02-.041.028a8.177 8.177 0 0 1-.665.368c-.029.014-.055.032-.083.046-.212.102-.43.191-.65.276-.048.018-.094.041-.142.059-.207.074-.42.135-.634.193-.065.018-.128.042-.193.058a8.242 8.242 0 0 1-.82.157c-.011.002-.023.005-.035.006-.361.05-.73.075-1.093.075-2.542 0-4.94-1.206-6.577-3.308l-1.014.902c1.89 2.424 4.657 3.815 7.591 3.815a9.265 9.265 0 0 0 1.26-.086c2.62-.356 4.954-1.782 6.57-4.015a10.816 10.816 0 0 0 1.837-4.163l-1.288-.306c-.019.088-.047.171-.068.258a9.439 9.439 0 0 1-.265.916M221.33 153.16a8.781 8.781 0 0 1-1.084.068 8.545 8.545 0 0 1-6.523-3.005l-1.005.82a9.862 9.862 0 0 0 7.528 3.465 10.137 10.137 0 0 0 2.827-.403l-.373-1.227c-.444.13-.904.224-1.37.282" fill="#FFF"/>
                    <path d="M231.528 96.962c.596 1.954-.462 4.034-2.364 4.646-1.901.612-3.926-.475-4.522-2.429l6.886-2.217zm-4.308 23.1h-1.286c0-.211-.004-.423-.021-.636l-.765-9.124 2.505-.563c5.988-1.346 9.63-7.603 7.953-13.66l-4.703-16.988a25.626 25.626 0 0 0-11.411 7.87c-2.836 3.4-6.673 5.759-10.932 6.717l-.64.143c-1.77.398-2.89 2.194-2.503 4.013.386 1.818 2.135 2.97 3.905 2.572l.503-.114 1.657 19.77h-6.53l23.138 15.592v-16.152l-.87.56z" fill="#F8D1D0"/>
                </g>
                <g>
                    <path d="m274.866 27.005 6.894 8.658-6.894-8.658z" fill="#7760DB"/>
                    <path fill="#FF8D8F" d="m277.518 26.139-3.514 3.266 6.828 8.855 3.514-3.266z"/>
                    <path d="m296.41 59.039-8.617 6.926 8.617-6.926z" fill="#7760DB"/>
                    <path fill="#FFC7BD" d="m289.516 70.75 3.204 3.873 8.86-7.381-3.203-3.874z"/>
                    <path d="m262.802 51.247-8.618 6.926 8.618-6.926z" fill="#7760DB"/>
                    <path fill="#FFC7BD" d="m248.152 55.99 3.166 3.915 8.898-7.34-3.165-3.916z"/>
                </g>
            </g>
        </g>
    </g>
</svg>
