<svg width="348" height="316" xmlns="http://www.w3.org/2000/svg">
    <g fill="none" fill-rule="evenodd">
        <path d="M5 0h348v315H5z"/>
        <path fill="#684857" opacity=".391" d="M23 278h307v-1H23z"/>
        <path fill="#FBE4E9" d="M95 291h56v-1H95zM164 291h98v-1h-98z"/>
        <g>
            <path d="M33.033 267s-28.166-22.695-4.691-53.11 57.811.548 85.778-4.11c27.967-4.658 40.736-75.575 99.317-100.944C276.577 81.493 331 141.146 331 199.774c0 30.733-12.21 49.646-26.544 66.678L33.033 267z" fill="#FFDBDB" opacity=".231"/>
            <path d="M284.078 217.961c0-13.068-39.078-46.334-39.078-72.143 0-14.276 11.135-25.515 30.068-18.828 0 0-26.187-80.104 23.944-93.132 21.294-5.534 47.092 16.405 20.979 45.43-17.865 19.858-21.36 40.159-10.487 35.002 25.69-12.182 29.635 18.062 1.573 56.669-8.152 11.215-26.999 36.796-26.999 47.002 0 16.649 0 28.08 0 0" fill="#FFC6C7"/>
            <path fill="#F8D1D0" d="m308 240-1.936 10.14L302.65 268H267.35l-4.386-22.958L262 240z"/>
            <path fill="#FFEBEA" opacity=".899" d="m308 239-1.936 11-43.101-5.53L262 239z"/>
            <path d="M283.282 235H282v-48.219C282 111.05 293.641 71.391 293.758 71l1.242.275c-.118.39-11.718 39.932-11.718 115.506V235z" fill="#FFF"/>
            <path d="M285.065 178H284c0-19.971 7.647-35.345 23.377-47l.623.887c-15.433 11.434-22.935 26.518-22.935 46.113M257 240h36v-1h-36zM294 240h4v-1h-4zM302 240h9v-1h-9z" fill="#FFF"/>
            <path d="m256.064 182.066-.128-.132c.044.043.085.088.128.132" fill="#FF95A9"/>
            <path d="M256.188 182.221c-.123-.15-.252-.297-.382-.442.13.147.264.29.388.442h-.006z" fill="#FF95A9"/>
            <path d="M173.044 127.188a11.385 11.385 0 0 1 5.614-2.511 12.11 12.11 0 0 1 1.658-.12h6.385l-.952-8.304-1.896.211c-5.435.608-10.269-3.384-10.555-8.715l-.8-14.948a23.341 23.341 0 0 1 11.848 3.097 18.242 18.242 0 0 0 11.118 2.308l.03-.004.552-.061.132-.015c1.533-.171 2.918.902 3.094 2.398l.03.258c.175 1.496-.925 2.848-2.458 3.02l-.155.016 2.42 20.739h6.94v.01c3.523.002 6.99 1.618 9.162 4.65a10.669 10.669 0 0 1 1.998 5.773l.014-.001.487 11.011c4.818-1.064 9.126-4.123 10.653-9.19.138-.456.246-.902.338-1.344 1.753-8.398-4.495-14.172-10.937-18.895l-.008-.006c-2.554-1.97-5.278-3.501-6.7-8.418-.325-1.123-.462-2.145-.46-3.083a22.37 22.37 0 0 0 .96-4.785 22.6 22.6 0 0 0-.57-7.445c-3.06-12.48-15.914-20.177-28.703-17.19-12.796 2.987-20.685 15.53-17.624 28.009a22.846 22.846 0 0 0 2.947 6.89c.128.204.26.4.395.603l.008.006a23.174 23.174 0 0 0 2.682 3.245c.43.837.78 1.802 1.01 2.94 1.36 6.724-2.191 9.049-3.209 13.644l4.548-3.797.004.004z" fill="#684857"/>
            <path d="M162 136h-8.747c-.968 0-1.917.085-2.84.238L150 145l12-9zM138 186l.286 1H141a6.409 6.409 0 0 1-3-1" fill="#FFCCD6"/>
            <path d="m219 146.672.356 9.057.185 4.72c.854.35 1.694.761 2.515 1.245l2.219 1.306.942-4.603 2.565-12.535c1.182-5.767 5.838-9.86 11.218-9.86V136h-10.11c-.083.447-.18.9-.304 1.361-1.374 5.134-5.25 8.233-9.586 9.31" fill="#FF8D8F"/>
            <path d="M139.577 189.977v.002H105c.24 0 .477.016.712.044v-.043H152v-.003h-12.423z" fill="#FFCCD6"/>
            <path d="m139.462 178.58 7.535-1.231a3.35 3.35 0 0 1 .363-.039l5.022-.377-.765 7.176-3.49-.353-6.037 2.84v-.003c-.366.171-.76.299-1.18.368-.117.019-.233.03-.349.039h11.542c.354-.954.811-1.86 1.357-2.706l-1.84-.186.764-7.176 3.32-.25 1.818-.137 2.672-7.097L163 162l-16.697 10.728-.005-.006a8.319 8.319 0 0 1-5.867 1.21 8.21 8.21 0 0 1-4.361-2.175l-1.07 4.628 1.235 4.576a4.348 4.348 0 0 1 3.227-2.382" fill="#FFE6E5"/>
            <path d="M88.47 193.352c-1.71 0-3.096-1.369-3.096-3.057s1.386-3.057 3.095-3.057c1.71 0 3.096 1.369 3.096 3.057s-1.386 3.057-3.096 3.057zm8.124-1.072a7.46 7.46 0 0 1 6.406-3.612H91.893l-1.856-6.998-.394-1.48-.528.136-.883-3.326c-7.33.126-13.232 6.028-13.232 13.295 0 3.546 1.406 6.767 3.698 9.15a13.515 13.515 0 0 0 3.624 2.684V216l14.265-23.725.007.005zM113.763 253.952l-.544-.113.184-.92.545.112.626-3.128-.545-.112L123 205h-15.001L83 241.323V257h30.153z" fill="#FADBD9"/>
            <path d="M217 163.777" fill="#FFCCD6"/>
            <path d="M142.019 187a3.04 3.04 0 0 0 .324-.051c.39-.089.757-.253 1.096-.475v.004l5.608-3.667 3.243.456L153 174l-4.665.487a2.276 2.276 0 0 0-.337.05l-7 1.589c-1.363.31-2.45 1.505-2.998 3.075l1.323 6.812c.582.558 1.273.904 2.006.987h.69z" fill="#F8D1D0"/>
            <path d="M90 188a3 3 0 1 0 0 6 3 3 0 0 0 0-6" fill="#FFF"/>
            <path d="M141.905 170.956a8.114 8.114 0 0 0 5.952-1.29l.006.007 16.941-11.434-2.847 7.939-2.71 7.563-1.845.147-3.369.266-.776 7.648 1.867.198c2.615-4.264 7.253-7.107 12.531-7.107h19.062a8.3 8.3 0 0 1 3.314-2.07c.099-.245.2-.488.307-.727-.017.04-.039.077-.056.117l-1.01-.466c3.55-8.038 11.443-13.231 20.11-13.231 2.627 0 5.178.477 7.618 1.409l-.204-4.837-.392-9.282-.483-11.431-.014.001a11.418 11.418 0 0 0-1.981-5.993c-2.154-3.147-5.592-4.825-9.085-4.827v-.01h-.391a13.76 13.76 0 0 1-3.358 9.957c-2.522 2.887-6.14 4.54-9.93 4.54-.4 0-.799-.017-1.187-.057-6.261-.56-11.338-5.547-12.047-12.035l-.25-2.281a11.057 11.057 0 0 0-5.566 2.607l-.003-.004-4.51 3.941-5.329 4.657-9.907 8.659.34-8.43.139-3.425.138-3.391v-.001l-8.054-.34 1.73-5.82.014-.046.023-.077h-.002l-1.768 5.944-.998 3.357-8.567 28.831.01.002c-.1.342-.19.691-.25 1.053a8.57 8.57 0 0 0 2.362 7.452 8.19 8.19 0 0 0 4.425 2.317" fill="#FF8D8F"/>
            <path fill="#E6659B" d="M152 205h-14 14zM121 205h-14 14z"/>
            <path fill="#FFF" d="M137.141 189H139v-.001l-.976-3.329-.234-.798-1.616-5.51-1.4-4.778L127.859 151H126z"/>
            <path d="M108.445 166.115c2.163 0 4.377 1.739 4.945 3.884.567 2.144-.726 3.883-2.889 3.883s-4.376-1.739-4.944-3.883c-.568-2.145.725-3.884 2.888-3.884zM83 151.555l7.565 28.58-.541.141.403 1.523 46.6 7.201H138l-10.06-38v.555H83z" fill="#FF8D8F"/>
            <path fill="#FDA4A5" d="m92 182 1.837 8H137z"/>
            <path fill="#FFE6E5" d="M160 269h14v-8h-14zM88 269h14v-8H88zM234 269h14v-8h-14z"/>
            <path d="M178.996 125h.008-.008z" fill="#E6659B"/>
            <path fill="#FFE6E5" opacity=".686" d="M175.254 253.832h-50.006L124 258h128v-34.348L175.254 215z"/>
            <path d="M239.812 176.002h-14l-.001-.002h-8.464v.003h-16.803V176h-9.376a4.847 4.847 0 0 0-3.216 2.986c-.649 1.74-.279 3.595.991 4.966l5.079 5.48c1.296 1.4 1.617 3.343.837 5.072-.78 1.728-2.462 2.802-4.389 2.802-.906 0-1.64-.72-1.64-1.608 0-.889.734-1.61 1.64-1.61.918 0 1.295-.678 1.39-.886.093-.209.351-.94-.266-1.605l-5.078-5.481c-2.075-2.239-2.705-5.395-1.644-8.236a8.076 8.076 0 0 1 1.004-1.88H168c7.445.006 13.479 5.927 13.479 13.23 0 5.13-2.979 9.575-7.33 11.77h24.55v-.597h51.495c4.2-2.223 6.805-6.49 6.806-11.17h-.002a12.37 12.37 0 0 0-.524-3.57c-1.599-5.373-6.705-9.125-12.419-9.125h-1.493v-.536h-2.75z" fill="#F8D1D0"/>
            <path d="M227.74 145.687 225 158l27-3.137v-6.457c0-6.854-5.494-12.406-12.278-12.406-5.747 0-10.72 4.021-11.983 9.687" fill="#FDA4A5"/>
            <path d="M147.672 123.822 146 129.66l7.78.341h.003l.09-2.298A3.254 3.254 0 0 0 155 126.66a3.929 3.929 0 0 1-.785-2.37V117l-5.545 5.115.001.002a3.43 3.43 0 0 0-.963 1.582l-.023.078-.013.045" fill="#FFCCD6"/>
            <path d="M153 123.517c0 .821.328 1.575.874 2.17.732.8 1.857 1.313 3.12 1.313h6.011c2.206 0 3.995-1.56 3.995-3.483V112h-14v11.517z" fill="#FFE6E5"/>
            <path d="m175.004 204-.004.002v11.858l77 8.14v-19.547h-52.007V204h-24.99z" fill="#F8D1D0" opacity=".729"/>
            <path d="m225.006 159.947-1.006 4.25 3.649 1.856-.508.899 1.934.984 5.757-6.35.1 3.974a8.013 8.013 0 0 1 4.208 1.26l2.251-3.572 1.086 8.662-.008-.006c.048.335.083.674.083 1.021a7.02 7.02 0 0 1-.89 3.422h2.702v-.51h1.466c1.984 0 3.895.417 5.634 1.163v-15.658H252v-1.663h-.536v-1.03H252V157l-26.994 2.947z" fill="#F8D1D0"/>
            <path d="m229.007 168.997-.014.001.008.005.006-.006" fill="#FF95A9"/>
            <path d="M120.795 64.91a.496.496 0 0 0 .11-.696.505.505 0 0 0-.7-.125.496.496 0 0 0-.11.697.505.505 0 0 0 .7.125M103.484 57.006c-1.35-.136-2.242 2.023-.582 2.822 2.039.982 3.204-2.559.582-2.822M152 225h1v-3h-1z" fill="#FFF"/>
            <path d="M252.674 180.385V163H251.563v16.859a14.298 14.298 0 0 0-5.831-1.252h-1.518v1.098h1.518c5.807 0 10.997 3.84 12.621 9.34a12.75 12.75 0 0 1 .533 3.655h.003c-.001 4.791-2.65 9.159-6.918 11.435h-52.34V205.233h51.932v55.669H123.326L123 262h129.674v-56.99c4.528-2.493 7.326-7.18 7.326-12.312s-2.798-9.82-7.326-12.313" fill="#F8D1D0" opacity=".697"/>
            <path d="m124.609 260.483 1.25-4.247 15.057-51.112h13.986v-13.452c0-.565.036-1.122.098-1.67h-47.868v.035a7.587 7.587 0 0 0-7.262 3.674l-.007-.005-14.532 24.374-25.676 43.066.004.003a4.632 4.632 0 0 0-.659 2.38h9.388V265l16.943-24.174 25.024-35.702h15.016l1.964-9.628h.019a8.132 8.132 0 0 1 2.692-4.192l.708.855a7.01 7.01 0 0 0-2.414 4l-1.858 9.074-9 44.138-.545-.11-.627 3.074.545.11-.185.905-.545-.11-.61 2.996-.867 4.247-.226 1.108-.2.986a4.658 4.658 0 0 0-.099.952h9.389v.678l.77-2.616.327-1.108z" fill="#684857"/>
            <path d="M151.245 224.82h1.12v-2.344h-1.12v2.343zm18.113-34.02a3.174 3.174 0 0 1-3.175 3.17 3.174 3.174 0 0 1-3.176-3.17 3.174 3.174 0 0 1 3.176-3.172 3.174 3.174 0 0 1 3.175 3.171zm3.13 65.2v-52.923a.042.042 0 0 1 .005-.002c4.456-2.29 7.507-6.925 7.507-12.276 0-7.617-6.18-13.793-13.807-13.799h-.01c-7.62 0-13.817 6.19-13.817 13.8v26.421h-1.12v-12.837H137.16L122 256H172.489z" fill="#F8D1D0"/>
            <path d="M167 188a3 3 0 1 0 0 6 3 3 0 0 0 0-6" fill="#FFF"/>
            <path d="m229.193 166.923-.006.007-.008-.005.014-.002zM155 216h1.102v-26.23c0-7.553 6.099-13.698 13.596-13.698H187.726a8.435 8.435 0 0 0-1.012 1.946 8.412 8.412 0 0 0 1.657 8.528l5.118 5.674c.622.69.362 1.446.267 1.662-.095.215-.475.918-1.4.918a1.66 1.66 0 0 0-1.653 1.666c0 .92.74 1.666 1.653 1.666 1.943 0 3.638-1.112 4.424-2.902a4.843 4.843 0 0 0-.844-5.25l-5.119-5.675c-1.28-1.419-1.653-3.34-.999-5.141.557-1.531 1.74-2.64 3.242-3.092h34.916l.001.002h14.11a8.01 8.01 0 0 0 .913-3.726c0-.379-.035-.748-.085-1.112l.009.006-1.115-9.432-2.31 3.889a7.885 7.885 0 0 0-4.32-1.372l-.101-4.327-5.909 6.915-1.985-1.072-6.176-3.335a20.943 20.943 0 0 0-2.184-1.021l-.057-.024-.043-.019a20.654 20.654 0 0 0-2.246-.74l-.091-.026a20.49 20.49 0 0 0-.96-.223c-.082-.017-.164-.038-.247-.054a19.917 19.917 0 0 0-.82-.14c-.138-.022-.277-.047-.415-.066-.23-.03-.458-.053-.687-.076-.19-.02-.381-.04-.572-.053-.194-.014-.388-.023-.582-.031-.226-.01-.452-.018-.677-.021-.161-.002-.322 0-.483.002a20.34 20.34 0 0 0-.98.036c-.148.01-.296.015-.442.028-.401.032-.8.076-1.198.132-.166.023-.33.053-.494.08-.307.05-.613.105-.916.17-.213.045-.424.096-.635.148a20.574 20.574 0 0 0-1.316.366c-.192.06-.38.127-.57.193-.394.137-.783.286-1.168.446-.195.082-.393.16-.586.247-.213.097-.421.203-.63.306-.192.094-.383.19-.572.29a20.761 20.761 0 0 0-1.207.697c-.162.1-.325.2-.485.305-.358.236-.71.48-1.054.738l-.086.068c-.338.257-.667.526-.99.803-.084.073-.166.149-.249.222-.272.243-.539.492-.8.749l-.216.216c-.3.304-.59.618-.872.942l-.06.066a20.69 20.69 0 0 0-1.727 2.32l-.12.192c-.212.34-.416.686-.61 1.04l-.14.255a20.858 20.858 0 0 0-.87 1.859 8.273 8.273 0 0 0-3.296 2.031h-18.957c-5.25 0-9.862 2.79-12.462 6.972a14.809 14.809 0 0 0-1.369 2.829c-.38 1.06-.64 2.176-.77 3.331v.003a15.03 15.03 0 0 0-.097 1.675V216z" fill="#FFF"/>
            <path d="M57.527 263h-.005l-4.865 2.643A1.254 1.254 0 0 0 53.26 268H66v-5h-8.473zM110.527 263h-.005l-4.865 2.643a1.254 1.254 0 0 0 .603 2.357H119v-5h-8.473z" fill="#FF8D8F"/>
            <path d="m114 249.776.532.112.531.112 8.773-44.847 1.812-9.22a7.18 7.18 0 0 1 2.352-4.065l-.69-.868a8.309 8.309 0 0 0-2.624 4.26h-.018l-1.914 9.781L114 249.777zM113 251.804l.428.098.427.098.145-.804-.427-.098-.428-.098zM179.077 110.999c1.656-.056 2.964-1.846 2.922-3.999l-5.999.2c.043 2.153 1.42 3.854 3.077 3.799" fill="#FFF"/>
            <path d="m216.966 163.985.068.03-.068-.03M209.757 163.006c.162-.003.324-.005.486-.003-.078-.001-.155-.009-.233-.009-.085 0-.168.01-.253.012M208.221 162.984c-.147.01-.295.018-.442.032.147-.014.295-.022.442-.032M211 163.018c-.332-.016-.666-.026-1-.036.333.01.666.02 1 .036M207.248 162.953c-.166.027-.33.062-.496.094.165-.032.33-.067.496-.094M212 163.046c-.332-.037-.666-.064-1-.092.333.028.667.055 1 .092M207 162.926c-.336.045-.668.097-1 .148.332-.052.665-.103 1-.148M202 164.848c-.338.096-.668.201-1 .304.332-.103.663-.208 1-.304M200 176.998v.004h17v-.004z" fill="#E6659B"/>
            <path d="M190.647 171.78c.046-.083.094-.165.141-.247.197-.343.404-.678.619-1.006.04-.062.08-.125.122-.187a20.129 20.129 0 0 1 1.75-2.244l.06-.064c.285-.313.58-.617.885-.911l.219-.21c.264-.248.534-.49.81-.723.084-.072.167-.145.252-.215.327-.269.661-.53 1.004-.777.03-.022.057-.045.087-.066.348-.25.706-.486 1.068-.714.162-.102.327-.198.492-.295a21.213 21.213 0 0 1 1.223-.676c.191-.097.385-.188.579-.28.212-.1.423-.202.639-.295.196-.085.396-.16.594-.24.39-.154.784-.298 1.183-.43.192-.065.384-.13.578-.188a22.047 22.047 0 0 1 1.334-.354c.214-.05.427-.1.643-.144.308-.062.617-.115.928-.164.167-.026.333-.055.5-.077.404-.054.809-.096 1.215-.128.149-.012.298-.018.448-.026.33-.02.66-.032.993-.035.086-.001.17-.01.256-.01.078 0 .156.007.234.007.229.003.457.01.686.02.197.009.394.017.59.03.193.014.386.033.58.052.232.022.465.044.696.074.14.018.28.042.42.063.279.041.556.083.832.136.083.015.166.036.25.053.326.065.65.134.973.215.03.008.061.018.092.025.769.197 1.529.433 2.276.716l.043.018.058.023a22.182 22.182 0 0 1 2.213.988l6.26 3.227.528-.947-3.795-1.956-2.464-1.27c-.913-.47-1.846-.87-2.794-1.21a22.583 22.583 0 0 0-7.678-1.338c-8.735 0-16.691 4.93-20.269 12.558l1.018.442c.018-.038.04-.073.057-.11.18-.378.371-.748.572-1.11" fill="#E989A9"/>
            <path d="M199.31 133.43a9.63 9.63 0 0 1-7.23 3.29c-4.941 0-9.086-3.767-9.634-8.763l-.215-1.957h-1.636c-.535 0-1.07.044-1.595.12l.242 2.203c.688 6.265 5.612 11.081 11.687 11.622.376.039.763.055 1.15.055 3.677 0 7.188-1.596 9.634-4.384A13.25 13.25 0 0 0 204.97 126h-3.236a9.942 9.942 0 0 1-2.424 7.43" fill="#FFCCD6"/>
            <path d="M183.209 125.373c.533 6.06 4.563 10.627 9.366 10.627 2.681 0 5.242-1.452 7.03-3.99 1.735-2.46 2.592-5.742 2.357-9.01h-1.05c.234 2.95-.523 5.907-2.086 8.127-1.59 2.254-3.862 3.547-6.251 3.547-4.27 0-7.85-4.057-8.326-9.447L184.05 123H183l.209 2.373z" fill="#F8F7FF"/>
            <path d="M180.6 110.417c-1.733.044-3.174-1.314-3.219-3.034l6.278-.16c.045 1.72-1.325 3.15-3.058 3.194zm2.984 15.88c.496 4.395 4.229 7.703 8.68 7.703 2.491 0 4.861-1.054 6.518-2.892a8.615 8.615 0 0 0 2.174-6.627h-2.008l-2.359-20.558.15-.017a2.708 2.708 0 0 0 2.398-2.993l-.03-.256a2.72 2.72 0 0 0-3.016-2.377l-.13.014-.538.061-.028.004a17.546 17.546 0 0 1-10.842-2.288A22.473 22.473 0 0 0 173 93.001l.78 14.819c.28 5.284 4.993 9.24 10.292 8.639l1.85-.21.928 8.232h-3.473l.207 1.816z" fill="#F8D1D0"/>
        </g>
    </g>
</svg>
