<svg xmlns="http://www.w3.org/2000/svg" width="58" height="56" viewBox="0 0 58 56">
    <g fill="none" fill-rule="evenodd">
        <g  transform="translate(-1844.000000, -1085.000000)">
            <g fill="#ff8d8f">
                <path d="M36.345 41.435l.244-.023.202-.02c.307-.028.723-.143 1.173-.325.486-.196.99-.46 1.457-.762.517-.335.962-.697 1.322-1.078.392-.413.663-.828.807-1.233.127-.36.234-.733.316-1.107.08-.361.134-.712.163-1.042.027-.322.028-.606.002-.845-.03-.283-.091-.42-.124-.476-.042-.07-.093-.134-.156-.196-.061-.06-.134-.117-.221-.176-.083-.054-.177-.11-.3-.173-.08-.043-.166-.086-.254-.13l-.105-.05-.003-.002-.115-.056-.613-.305c-.412-.205-.958-.475-1.524-.752-.65-.318-1.202-.584-1.636-.79-.531-.25-.879-.406-1.035-.463l-.215-.075c-.069-.022-.139-.043-.21-.061-.072-.018-.14-.032-.204-.04-.18-.026-.343-.018-.497.024-.093.025-.183.064-.269.116-.087.053-.173.12-.254.202-.085.085-.166.187-.242.302-.1.153-.254.362-.455.62-.166.215-.367.466-.597.748-.207.253-.412.5-.59.71-.18.213-.33.39-.428.501-.016.018-.034.04-.053.059-.022.023-.045.045-.068.065-.036.03-.07.055-.104.074-.07.04-.145.06-.222.06-.076 0-.132-.018-.261-.068l-.258-.103c-.095-.04-.195-.08-.283-.118l-.217-.093c-1.043-.46-2.106-1.104-3.158-1.915-.864-.665-1.723-1.443-2.554-2.312-.798-.834-1.417-1.595-1.796-2.086-.459-.596-.764-1.051-.885-1.26-.024-.041-.042-.077-.056-.108-.017-.037-.029-.068-.037-.093-.012-.036-.018-.062-.021-.08l-.012-.123.017-.065c.018-.063.048-.122.096-.188.024-.033.054-.07.087-.107l.085-.092.066-.068c.06-.06.112-.116.166-.175.055-.062.112-.126.168-.192l.174-.207.427-.52.086-.101c.074-.087.14-.172.2-.259.056-.077.106-.155.156-.239.042-.072.083-.148.13-.238.041-.081.081-.163.122-.248l.097-.198c.08-.162.131-.328.152-.493.017-.138.014-.28-.01-.42-.018-.112-.05-.226-.093-.34-.037-.095-.076-.174-.103-.227-.014-.03-.04-.082-.342-.813-.18-.434-.411-.999-.646-1.571l-.704-1.72-.337-.823c-.101-.246-.211-.46-.326-.636-.11-.167-.228-.305-.35-.41-.118-.101-.24-.173-.374-.222-.134-.049-.278-.072-.44-.072l-.3.013c-.075.003-.259.02-.53.06-.209.03-.537.081-.913.161-.374.08-.71.169-1 .265-.334.11-.599.227-.786.346-.169.108-.436.312-.75.666-.304.343-.577.743-.812 1.19-.278.525-.495 1.104-.648 1.721-.175.711-.264 1.477-.264 2.276 0 .706.105 1.455.31 2.226.178.661.431 1.347.754 2.04.262.56.57 1.125.916 1.68.25.402.515.79.786 1.153.006.009.016.021.026.037l.103.152c.801 1.19 1.664 2.318 2.563 3.355.891 1.027 1.83 1.977 2.789 2.824.957.844 1.946 1.594 2.94 2.23.999.638 2.014 1.168 3.017 1.575.929.377 1.8.698 2.587.954.688.223 1.332.403 1.912.534.486.11.943.188 1.36.234.32.035.626.052.934.052.109 0 .21-.002.308-.006s.191-.009.28-.015c.091-.006.177-.013.26-.021" transform="translate(1844.500000, 1085.000000)"/>
                <g>
                    <path d="M14.223 47.707c.142 0 .283.01.423.03.147.02.287.051.422.09.141.043.272.091.398.148l.024.011c.125.059.247.126.363.2.978.638 1.998 1.203 3.045 1.687 1.04.48 2.125.89 3.223 1.215 1.1.326 2.235.575 3.371.74 1.145.165 2.314.249 3.477.249 3.21 0 6.325-.622 9.259-1.847 2.834-1.185 5.381-2.88 7.57-5.038 2.187-2.158 3.905-4.667 5.104-7.46 1.24-2.888 1.87-5.954 1.87-9.113 0-3.16-.63-6.227-1.87-9.116-1.2-2.792-2.917-5.302-5.105-7.46-2.188-2.158-4.735-3.853-7.569-5.038-2.934-1.226-6.05-1.848-9.26-1.848s-6.326.622-9.26 1.848c-2.835 1.185-5.382 2.88-7.57 5.038-2.189 2.158-3.906 4.668-5.105 7.46-1.242 2.89-1.87 5.956-1.87 9.116 0 1.235.097 2.473.29 3.68.192 1.2.482 2.394.86 3.546.38 1.152.857 2.285 1.417 3.368.563 1.089 1.222 2.148 1.958 3.148.144.195.263.408.355.632.088.211.152.44.188.672.036.235.045.472.025.706-.02.238-.07.472-.146.697l-1.45 4.25 4.656-1.47c.072-.023.144-.043.22-.061.073-.017.148-.032.223-.044.064-.01.126-.017.173-.022l.09-.007c.066-.005.134-.007.2-.007m14.747 8.186c-1.364 0-2.736-.1-4.08-.294-1.336-.193-2.67-.485-3.965-.87-1.293-.382-2.57-.863-3.794-1.43-.924-.427-1.831-.908-2.707-1.435l-4.708 1.488c-1.586.502-3.295.08-4.46-1.102-1.167-1.181-1.559-2.888-1.025-4.455l1.44-4.224c-.613-.905-1.172-1.845-1.669-2.805-.661-1.28-1.224-2.619-1.673-3.981-.449-1.363-.791-2.773-1.018-4.192-.228-1.424-.343-2.883-.343-4.337 0-3.727.743-7.347 2.209-10.759 1.413-3.29 3.435-6.246 6.009-8.784 2.572-2.537 5.566-4.53 8.898-5.922C21.535 1.349 25.198.617 28.97.617c3.77 0 7.432.732 10.884 2.174 3.332 1.393 6.325 3.385 8.897 5.922 2.574 2.538 4.595 5.494 6.009 8.784 1.465 3.412 2.208 7.032 2.208 10.76 0 3.726-.743 7.346-2.208 10.758-1.413 3.29-3.435 6.245-6.009 8.783-2.572 2.537-5.566 4.53-8.898 5.921-3.45 1.442-7.113 2.174-10.883 2.174" transform="translate(1844.500000, 1085.000000)"/>
                </g>
            </g>
        </g>
    </g>
</svg>
