<svg width="31" height="30" xmlns="http://www.w3.org/2000/svg">
    <defs>
        <filter id="a">
            <feColorMatrix in="SourceGraphic" values="0 0 0 0 1.000000 0 0 0 0 1.000000 0 0 0 0 1.000000 0 0 0 1.000000 0"/>
        </filter>
    </defs>
    <g transform="translate(-57 -1610)" filter="url(#a)" fill="none" fill-rule="evenodd">
        <g fill="#FFF" fill-rule="nonzero">
            <path d="M65.455 1612.727c-3.113 0-5.637 2.442-5.637 5.455v13.636c0 3.013 2.524 5.455 5.637 5.455h14.09c3.113 0 5.637-2.442 5.637-5.455v-13.636c0-3.013-2.524-5.455-5.637-5.455h-14.09zm0-2.727h14.09c4.67 0 8.455 3.663 8.455 8.182v13.636c0 4.519-3.785 8.182-8.455 8.182h-14.09c-4.67 0-8.455-3.663-8.455-8.182v-13.636c0-4.519 3.785-8.182 8.455-8.182z"/>
            <path d="M77.951 1625.384c-.29-1.83-1.83-3.267-3.791-3.538-1.92-.266-3.807.647-4.68 2.266-.872 1.618-.535 3.577.838 4.858 1.373 1.281 3.471 1.596 5.205.782 1.734-.815 2.713-2.576 2.428-4.368zm2.968-.41c.474 2.986-1.157 5.92-4.047 7.278-2.89 1.358-6.387.833-8.675-1.302-2.288-2.136-2.85-5.4-1.396-8.097 1.455-2.697 4.599-4.22 7.799-3.777 3.268.452 5.834 2.847 6.319 5.897zM80.333 1620c-.736 0-1.333-.895-1.333-2s.597-2 1.333-2h1.334c.736 0 1.333.895 1.333 2s-.597 2-1.333 2h-1.334z"/>
        </g>
    </g>
</svg>
