<svg xmlns="http://www.w3.org/2000/svg" width="66" height="48" viewBox="0 0 66 48">
    <g fill="none" fill-rule="evenodd">
        <g transform="translate(-2019.000000, -1091.000000)">
            <g fill="#ff8d8f" stroke="#ff8d8f">
                <path stroke-width=".5" d="M4.174 3.288c-.767 0-1.391.626-1.391 1.394v37.636c0 .768.624 1.394 1.39 1.394h55.653c.767 0 1.391-.626 1.391-1.394V4.682c0-.768-.624-1.394-1.39-1.394H4.173zM59.826 46.5H4.174C1.873 46.5 0 44.624 0 42.318V4.682C0 2.376 1.873.5 4.174.5h55.652C62.127.5 64 2.376 64 4.682v37.636c0 2.306-1.873 4.182-4.174 4.182h0z" transform="translate(2020.000000, 1091.500000)"/>
                <path stroke-width=".5" d="M32 32c-2.703 0-5.405-1.051-7.463-3.153L6 9.907 7.866 8l18.536 18.94c3.087 3.153 8.109 3.153 11.196 0L56.134 8 58 9.906 39.463 28.847C37.405 30.949 34.703 32 32 32" transform="translate(2020.000000, 1091.500000)"/>
                <path d="M9.709 38.5L8 36.905 21.291 24.5 23 26.095z" transform="translate(2020.000000, 1091.500000)"/>
                <path d="M42.709 38.5L41 36.905 54.291 24.5 56 26.095z" transform="translate(2020.000000, 1091.500000) translate(48.500000, 31.500000) scale(-1, 1) translate(-48.500000, -31.500000)"/>
            </g>
        </g>
    </g>
</svg>
