<svg width="36" height="36" xmlns="http://www.w3.org/2000/svg">
    <defs>
        <filter id="a">
            <feColorMatrix in="SourceGraphic" values="0 0 0 0 1.000000 0 0 0 0 1.000000 0 0 0 0 1.000000 0 0 0 1.000000 0"/>
        </filter>
    </defs>
    <g transform="translate(-24 -20)" filter="url(#a)" fill="none" fill-rule="evenodd">
        <g fill="#000">
            <path d="m46.559 44.731.151-.014.126-.012c.19-.016.449-.085.728-.193.302-.118.614-.275.904-.455.321-.2.597-.416.821-.644.243-.246.411-.494.5-.736a5.4 5.4 0 0 0 .197-.66c.05-.216.083-.425.1-.623.018-.191.018-.36.002-.503a.7.7 0 0 0-.077-.285.586.586 0 0 0-.096-.117.93.93 0 0 0-.138-.105 2.104 2.104 0 0 0-.185-.103 6.76 6.76 0 0 0-.159-.077l-.065-.03-.002-.002-.071-.033-.38-.182c-.256-.122-.595-.284-.946-.449-.404-.19-.746-.349-1.016-.471-.33-.15-.546-.243-.642-.277a4.524 4.524 0 0 0-.134-.044 2.015 2.015 0 0 0-.257-.061.78.78 0 0 0-.308.014.68.68 0 0 0-.167.07.823.823 0 0 0-.158.12c-.052.05-.103.112-.15.18a6.58 6.58 0 0 1-.282.371 38.455 38.455 0 0 1-1.035 1.204.611.611 0 0 1-.108.083.284.284 0 0 1-.137.036.437.437 0 0 1-.162-.04 8.358 8.358 0 0 1-.336-.133 9.684 9.684 0 0 1-2.095-1.199 14.011 14.011 0 0 1-1.585-1.379 15.96 15.96 0 0 1-1.115-1.245 8.196 8.196 0 0 1-.55-.753.713.713 0 0 1-.057-.12.373.373 0 0 1-.013-.047l-.008-.073.011-.04a.335.335 0 0 1 .06-.112.93.93 0 0 1 .106-.118l.042-.041a3.077 3.077 0 0 0 .207-.219l.108-.124.265-.31.053-.06a2.294 2.294 0 0 0 .378-.587l.06-.118a.843.843 0 0 0 .088-.546 1 1 0 0 0-.058-.202c-.023-.057-.047-.105-.064-.136-.009-.018-.025-.049-.212-.485a377.44 377.44 0 0 1-.401-.938l-.437-1.026-.21-.492a2.263 2.263 0 0 0-.202-.38 1.166 1.166 0 0 0-.217-.244.744.744 0 0 0-.505-.176l-.186.008c-.047.002-.16.012-.329.036-.13.017-.334.049-.567.096-.232.048-.44.1-.62.158a2.27 2.27 0 0 0-.489.207c-.104.065-.27.186-.465.397a3.599 3.599 0 0 0-.504.71c-.172.314-.307.66-.402 1.028A5.473 5.473 0 0 0 33 33.388c0 .421.065.869.193 1.33.11.394.267.803.468 1.216a9.883 9.883 0 0 0 1.072 1.713l.064.091a20.99 20.99 0 0 0 1.59 2.003c.554.613 1.136 1.18 1.732 1.685.594.504 1.208.952 1.825 1.331.62.381 1.25.698 1.872.94a24.82 24.82 0 0 0 1.606.57c.427.133.826.24 1.187.319.301.065.585.112.844.139a5.507 5.507 0 0 0 1.106.006"/>
            <path d="M32.828 48.475a1.962 1.962 0 0 1 .772.16l.015.007c.077.034.153.074.225.119a15.119 15.119 0 0 0 5.983 2.173c.71.099 1.436.15 2.158.15 1.992 0 3.926-.372 5.747-1.104a14.83 14.83 0 0 0 4.698-3.006 13.972 13.972 0 0 0 3.168-4.452 13.254 13.254 0 0 0 1.16-5.44c0-1.886-.39-3.717-1.16-5.441a13.97 13.97 0 0 0-3.168-4.453 14.826 14.826 0 0 0-4.698-3.007 15.34 15.34 0 0 0-5.747-1.103c-1.993 0-3.927.371-5.749 1.103a14.833 14.833 0 0 0-4.699 3.007 13.97 13.97 0 0 0-3.168 4.453 13.253 13.253 0 0 0-1.16 5.44 13.263 13.263 0 0 0 1.594 6.323c.348.65.757 1.283 1.214 1.88a1.76 1.76 0 0 1 .337.778 1.705 1.705 0 0 1-.075.838l-.9 2.537 2.89-.878a1.816 1.816 0 0 1 .382-.076l.056-.004c.041-.003.083-.004.125-.004m9.153 5.671a18.754 18.754 0 0 1-5.166-.718 18.522 18.522 0 0 1-4.174-1.769l-3.024.919a2.893 2.893 0 0 1-2.864-.68c-.749-.73-1-1.784-.657-2.752l.924-2.608a16.98 16.98 0 0 1-1.072-1.732A16.23 16.23 0 0 1 24 37.082c0-2.302.477-4.538 1.418-6.644a17.016 17.016 0 0 1 3.859-5.424 18.032 18.032 0 0 1 5.714-3.657 18.66 18.66 0 0 1 6.99-1.342c2.42 0 4.772.451 6.988 1.342a18.03 18.03 0 0 1 5.714 3.657 17.02 17.02 0 0 1 3.858 5.424 16.19 16.19 0 0 1 1.418 6.643c0 2.302-.477 4.537-1.418 6.644a17.018 17.018 0 0 1-3.858 5.423 18.03 18.03 0 0 1-5.714 3.656 18.657 18.657 0 0 1-6.988 1.342"/>
        </g>
    </g>
</svg>
