<svg width="20" height="20" viewBox="0 0 20 20" fill="none" xmlns="http://www.w3.org/2000/svg">
<path id="Union" fill-rule="evenodd" clip-rule="evenodd" d="M18.4628 0.293956C18.2233 0.231415 17.9714 0.233849 17.733 0.301006L17.7198 0.304866L1.00718 5.37263C0.737286 5.45046 0.497156 5.60807 0.318364 5.82486C0.137898 6.04368 0.028523 6.31238 0.00485833 6.59503C-0.0188064 6.87768 0.044367 7.16082 0.185934 7.40661C0.327501 7.65239 0.540718 7.84911 0.797084 7.97047L8.2506 11.4996C8.25105 11.5001 8.25149 11.5005 8.25194 11.501C8.25209 11.5011 8.25224 11.5013 8.25239 11.5014L11.7824 18.954C11.9038 19.2104 12.1005 19.4236 12.3463 19.5652C12.592 19.7068 12.8752 19.7699 13.1578 19.7463C13.4405 19.7226 13.7092 19.6132 13.928 19.4328C14.1448 19.254 14.3024 19.0138 14.3802 18.7439L19.448 2.03304L19.4519 2.01983C19.519 1.78151 19.5215 1.52961 19.4589 1.29004C19.3964 1.05048 19.2711 0.831905 19.096 0.656829C18.921 0.481752 18.7024 0.356497 18.4628 0.293956ZM9.6148 11.1232L13.0415 18.3578L13.0416 18.358L13.0454 18.345L18.1107 1.64215L1.4061 6.70748L1.39317 6.71126L8.62997 10.1378L12.7432 6.02461C13.0152 5.75257 13.4562 5.75257 13.7283 6.02461C14.0003 6.29664 14.0003 6.73769 13.7283 7.00973L9.6148 11.1232Z" fill="#FF6074"/>
</svg>
