<svg xmlns="http://www.w3.org/2000/svg" viewBox="0 0 269 53.86"><defs><style>.cls-1{fill:#fff;}.cls-2{fill:#e5e5e5;}.cls-3{fill:none;stroke:#fff;stroke-width:3.99px;}.cls-4,.cls-6{isolation:isolate;}.cls-5{fill:#fe7170;}.cls-6{font-size:24px;font-family:BrandonText-Regular, Brandon Text;letter-spacing:-0.08em;}.cls-6,.cls-8{fill:#545565;}.cls-7{letter-spacing:0em;}</style></defs><g id="original"><g id="Group_11805" data-name="Group 11805"><path id="Rectangle_1015" data-name="Rectangle 1015" class="cls-1" d="M26.93.57H224.8A26.94,26.94,0,0,1,251.74,27.5h0A26.94,26.94,0,0,1,224.8,54.43H26.93A26.93,26.93,0,0,1,0,27.5H0A26.93,26.93,0,0,1,26.93.57Z" transform="translate(0 -0.57)"/><g id="Group_11739" data-name="Group 11739"><circle id="Ellipse_563" data-name="Ellipse 563" class="cls-2" cx="254.04" cy="27.43" r="14.96"/><path id="Path_2059" data-name="Path 2059" class="cls-3" d="M245.56,27.17l6.08,6.08,10.74-10.73" transform="translate(0 -0.57)"/></g><g id="_Testa" data-name=" Testa" class="cls-4"><g class="cls-4"><path class="cls-5" d="M23.25,26.37A4.86,4.86,0,1,1,28,31.16,4.88,4.88,0,0,1,23.25,26.37Z" transform="translate(0 -0.57)"/></g><text class="cls-6" transform="translate(43.04 34.43)">T<tspan class="cls-7" x="10.46" y="0">esta</tspan></text></g></g></g><g id="bg"><g id="Group_11805-2" data-name="Group 11805"><path id="Rectangle_1015-2" data-name="Rectangle 1015" class="cls-1" d="M26.93.57H224.8A26.94,26.94,0,0,1,251.74,27.5h0A26.94,26.94,0,0,1,224.8,54.43H26.93A26.93,26.93,0,0,1,0,27.5H0A26.93,26.93,0,0,1,26.93.57Z" transform="translate(0 -0.57)"/></g></g><g id="bg-check"><g id="Group_11805-3" data-name="Group 11805"><g id="Group_11739-2" data-name="Group 11739"><circle id="Ellipse_563-2" data-name="Ellipse 563" class="cls-2" cx="254.04" cy="27.43" r="14.96"/></g></g></g><g id="check"><g id="Group_11805-4" data-name="Group 11805"><g id="Group_11739-3" data-name="Group 11739"><polygon class="cls-1" points="251.65 35.51 244.15 28.01 246.97 25.19 251.65 29.86 260.97 20.54 263.79 23.36 251.65 35.51"/></g></g></g><g id="bullet"><g id="Group_11805-5" data-name="Group 11805"><g id="_Testa-2" data-name=" Testa" class="cls-4"><g class="cls-4"><path class="cls-5" d="M23.25,26.37A4.86,4.86,0,1,1,28,31.16,4.88,4.88,0,0,1,23.25,26.37Z" transform="translate(0 -0.57)"/></g></g></g></g><g id="txt"><g id="Group_11805-6" data-name="Group 11805"><g id="_Testa-3" data-name=" Testa" class="cls-4"><g class="cls-4"><path class="cls-8" d="M48.29,19.81H44.12a.46.46,0,0,1-.46-.46v-.7a.46.46,0,0,1,.46-.45H54.29a.46.46,0,0,1,.46.45v.7a.46.46,0,0,1-.46.46H50.12V34.54a.48.48,0,0,1-.46.46h-.91a.48.48,0,0,1-.46-.46Z" transform="translate(0 -0.57)"/><path class="cls-8" d="M60.05,23.67a4.88,4.88,0,0,1,5,5,5,5,0,0,1,0,.67.51.51,0,0,1-.5.48H56.45a3.91,3.91,0,0,0,3.63,3.8,5.16,5.16,0,0,0,3-.92c.38-.26.55-.36.84.08l.29.4c.21.34.31.46-.1.77a6.81,6.81,0,0,1-4.06,1.27c-3.36,0-5.37-2.64-5.37-5.8S56.69,23.67,60.05,23.67Zm3.24,4.78a3.24,3.24,0,0,0-3.24-3.17,3.62,3.62,0,0,0-3.57,3.17Z" transform="translate(0 -0.57)"/><path class="cls-8" d="M67.4,33.92a.39.39,0,0,1-.07-.48l.33-.62c.15-.27.34-.36.65-.15a4.49,4.49,0,0,0,2.76,1c1.13,0,1.9-.53,1.9-1.4,0-1-.87-1.48-2.48-2.28-1.46-.72-3.14-1.51-3.14-3.4,0-1.16.86-2.91,3.43-2.91a5.78,5.78,0,0,1,3.17.87.52.52,0,0,1,.12.74l-.24.46a.55.55,0,0,1-.77.19,4.36,4.36,0,0,0-2.28-.65c-1.22,0-1.63.7-1.63,1.22,0,1,.77,1.35,2.11,2,1.92.89,3.58,1.61,3.58,3.63,0,1.75-1.51,3.16-3.77,3.16A5.41,5.41,0,0,1,67.4,33.92Z" transform="translate(0 -0.57)"/><path class="cls-8" d="M77,25.45a.53.53,0,0,1-.55-.53v-.48a.51.51,0,0,1,.55-.53h1.47V20.84a.56.56,0,0,1,.52-.53l.75,0a.5.5,0,0,1,.5.53v3.12h3.27a.53.53,0,0,1,.55.53v.48a.54.54,0,0,1-.55.53H80.21v6.62c0,1.15.36,1.59,1,1.59a3.92,3.92,0,0,0,2.18-.72c.43-.27.58,0,.7.21l.21.51c.15.36.1.52-.19.72a5.79,5.79,0,0,1-3.12.88c-2.11,0-2.54-1.34-2.54-3.07V25.45Z" transform="translate(0 -0.57)"/><path class="cls-8" d="M90.39,28a9.54,9.54,0,0,1,2.38.36c0-2-.24-3-1.83-3a10,10,0,0,0-3.29.65c-.28.12-.43,0-.53-.29L86.89,25c-.1-.33.07-.48.33-.6A10.17,10.17,0,0,1,91,23.67c2.83,0,3.43,1.39,3.43,4.66v6.14a.53.53,0,0,1-.53.53h-.45c-.29,0-.39-.17-.46-.41l-.22-.74a4.83,4.83,0,0,1-3.43,1.41A3.37,3.37,0,0,1,86,31.64C86,29.53,87.53,28,90.39,28Zm-.7,5.69a3.86,3.86,0,0,0,3-1.49V29.91a5.73,5.73,0,0,0-2.35-.43c-1.54,0-2.69.74-2.69,2.16A1.92,1.92,0,0,0,89.69,33.66Z" transform="translate(0 -0.57)"/></g></g></g></g></svg>