<svg xmlns="http://www.w3.org/2000/svg" viewBox="0 0 269 53.86"><defs><style>.cls-1{fill:#fff;}.cls-2{fill:#e5e5e5;}.cls-3{fill:none;stroke:#fff;stroke-width:3.99px;}.cls-4,.cls-6{isolation:isolate;}.cls-5{fill:#fe7170;}.cls-6{font-size:24px;font-family:BrandonText-Regular, Brandon Text;letter-spacing:-0.08em;}.cls-6,.cls-8{fill:#545565;}.cls-7{letter-spacing:0em;}</style></defs><g id="original"><g id="Group_11805" data-name="Group 11805"><path id="Rectangle_1015" data-name="Rectangle 1015" class="cls-1" d="M26.93.57H224.8A26.94,26.94,0,0,1,251.74,27.5h0A26.94,26.94,0,0,1,224.8,54.43H26.93A26.93,26.93,0,0,1,0,27.5H0A26.93,26.93,0,0,1,26.93.57Z" transform="translate(0 -0.57)"/><g id="Group_11739" data-name="Group 11739"><circle id="Ellipse_563" data-name="Ellipse 563" class="cls-2" cx="254.04" cy="27.43" r="14.96"/><path id="Path_2059" data-name="Path 2059" class="cls-3" d="M245.56,27.17l6.08,6.08,10.74-10.73" transform="translate(0 -0.57)"/></g><g id="_Testa" data-name=" Testa" class="cls-4"><g class="cls-4"><path class="cls-5" d="M23.25,26.37A4.86,4.86,0,1,1,28,31.16,4.88,4.88,0,0,1,23.25,26.37Z" transform="translate(0 -0.57)"/></g><text class="cls-6" transform="translate(43.04 34.43)">T<tspan class="cls-7" x="10.46" y="0">esta</tspan></text></g></g></g><g id="bg"><g id="Group_11805-2" data-name="Group 11805"><path id="Rectangle_1015-2" data-name="Rectangle 1015" class="cls-1" d="M26.93.57H224.8A26.94,26.94,0,0,1,251.74,27.5h0A26.94,26.94,0,0,1,224.8,54.43H26.93A26.93,26.93,0,0,1,0,27.5H0A26.93,26.93,0,0,1,26.93.57Z" transform="translate(0 -0.57)"/></g></g><g id="bg-check"><g id="Group_11805-3" data-name="Group 11805"><g id="Group_11739-2" data-name="Group 11739"><circle id="Ellipse_563-2" data-name="Ellipse 563" class="cls-2" cx="254.04" cy="27.43" r="14.96"/></g></g></g><g id="check"><g id="Group_11805-4" data-name="Group 11805"><g id="Group_11739-3" data-name="Group 11739"><polygon class="cls-1" points="251.65 35.51 244.15 28.01 246.97 25.19 251.65 29.86 260.97 20.54 263.79 23.36 251.65 35.51"/></g></g></g><g id="bullet"><g id="Group_11805-5" data-name="Group 11805"><g id="_Testa-2" data-name=" Testa" class="cls-4"><g class="cls-4"><path class="cls-5" d="M23.25,26.37A4.86,4.86,0,1,1,28,31.16,4.88,4.88,0,0,1,23.25,26.37Z" transform="translate(0 -0.57)"/></g></g></g></g><g id="txt"><g id="Group_11805-6" data-name="Group 11805"><g id="_Testa-3" data-name=" Testa" class="cls-4"><g class="cls-4"><path class="cls-8" d="M45.34,18.65a.46.46,0,0,1,.46-.45H52a5.17,5.17,0,0,1,5.24,5.11,5.37,5.37,0,0,1-3.56,4.9L57,34.3a.46.46,0,0,1-.41.7H55.42a.52.52,0,0,1-.53-.36l-3.12-6.22H47.19v6.12a.48.48,0,0,1-.46.46H45.8a.46.46,0,0,1-.46-.46Zm6.55,8.19a3.45,3.45,0,1,0,0-6.89H47.24v6.89Z" transform="translate(0 -0.57)"/><path class="cls-8" d="M60,24.44a.53.53,0,0,1,.53-.53h.72a.55.55,0,0,1,.53.53v6c0,2.21.72,3.22,2.33,3.22a4.1,4.1,0,0,0,3.14-1.61V24.44a.53.53,0,0,1,.51-.53h.74a.54.54,0,0,1,.51.53v10a.53.53,0,0,1-.51.53h-.38c-.31,0-.43-.19-.51-.48l-.21-.7A4.45,4.45,0,0,1,64,35.26c-3.2,0-4-1.92-4-4.84Z" transform="translate(0 -0.57)"/><path class="cls-8" d="M82.13,35.07c0,3.79-2.32,5.19-4.84,5.19a6.32,6.32,0,0,1-3.87-1.44.53.53,0,0,1-.12-.65l.48-.7c.17-.26.46-.26.72,0a4.42,4.42,0,0,0,2.79,1.17c1.75,0,3.09-1,3.09-3.55v-.79a5.38,5.38,0,0,1-3.07,1c-3,0-5.26-2.56-5.26-5.8s2.16-5.79,5.19-5.79a5.47,5.47,0,0,1,3.31,1.13l.17-.51c.12-.21.24-.38.53-.38h.33a.57.57,0,0,1,.55.53Zm-4.58-1.44a5.4,5.4,0,0,0,2.81-.91V26.65a4.13,4.13,0,0,0-2.93-1.35c-2.21,0-3.58,2-3.58,4.13C73.85,31.83,75.44,33.63,77.55,33.63Z" transform="translate(0 -0.57)"/><path class="cls-8" d="M89.45,28a9.54,9.54,0,0,1,2.38.36c0-2-.24-3-1.82-3a9.88,9.88,0,0,0-3.29.65c-.29.12-.43,0-.53-.29L86,25c-.1-.33.07-.48.34-.6a10.15,10.15,0,0,1,3.81-.72c2.83,0,3.43,1.39,3.43,4.66v6.14A.53.53,0,0,1,93,35h-.46c-.29,0-.38-.17-.46-.41l-.21-.74a4.87,4.87,0,0,1-3.43,1.41A3.37,3.37,0,0,1,85,31.64C85,29.53,86.6,28,89.45,28Zm-.69,5.69a3.86,3.86,0,0,0,3-1.49V29.91a5.75,5.75,0,0,0-2.36-.43c-1.53,0-2.68.74-2.68,2.16A1.92,1.92,0,0,0,88.76,33.66Z" transform="translate(0 -0.57)"/><path class="cls-8" d="M96.6,33.92a.4.4,0,0,1-.07-.48l.34-.62c.14-.27.33-.36.65-.15a4.49,4.49,0,0,0,2.76,1c1.13,0,1.89-.53,1.89-1.4,0-1-.86-1.48-2.47-2.28s-3.14-1.51-3.14-3.4c0-1.16.86-2.91,3.43-2.91a5.78,5.78,0,0,1,3.17.87.52.52,0,0,1,.12.74l-.24.46a.55.55,0,0,1-.77.19,4.36,4.36,0,0,0-2.28-.65c-1.23,0-1.63.7-1.63,1.22,0,1,.76,1.35,2.11,2,1.92.89,3.58,1.61,3.58,3.63,0,1.75-1.52,3.16-3.77,3.16A5.46,5.46,0,0,1,96.6,33.92Z" transform="translate(0 -0.57)"/><path class="cls-8" d="M113.28,25.45h-1.77a.53.53,0,0,1-.53-.53v-.48a.52.52,0,0,1,.53-.53h1.77V22.16c0-2.76,1.3-4.2,3.7-4.2a4.44,4.44,0,0,1,3,1.15.5.5,0,0,1,.09.62l-.45.58c-.19.27-.38.24-.7,0a3.12,3.12,0,0,0-2-.76c-1.27,0-1.87.93-1.87,2.59v1.75h3.29a.52.52,0,0,1,.53.53v.48a.53.53,0,0,1-.53.53h-3.29v9a.53.53,0,0,1-.53.53h-.72a.53.53,0,0,1-.53-.53Z" transform="translate(0 -0.57)"/><path class="cls-8" d="M121.25,24.44a.55.55,0,0,1,.53-.53h.38a.48.48,0,0,1,.48.38l.2.8a4.39,4.39,0,0,1,3.4-1.42c.84,0,2.21.12,2,.89l-.31.86a.42.42,0,0,1-.65.27,2.81,2.81,0,0,0-1.2-.31,3.5,3.5,0,0,0-3,1.41v7.68a.55.55,0,0,1-.53.53h-.72a.53.53,0,0,1-.53-.53Z" transform="translate(0 -0.57)"/><path class="cls-8" d="M135,23.67a5.8,5.8,0,1,1-5.56,5.76A5.7,5.7,0,0,1,135,23.67Zm0,10a4,4,0,0,0,3.8-4.23,3.82,3.82,0,1,0-7.61,0A4,4,0,0,0,135,33.66Z" transform="translate(0 -0.57)"/><path class="cls-8" d="M143.6,24.44a.55.55,0,0,1,.52-.53h.39a.38.38,0,0,1,.43.34l.24.84a5.6,5.6,0,0,1,3.72-1.42c3.22,0,4,2.09,4,4.95v5.85a.55.55,0,0,1-.53.53h-.72a.53.53,0,0,1-.53-.53V28.38c0-2.12-.72-3.1-2.35-3.1a4.85,4.85,0,0,0-3.41,1.54v7.65a.55.55,0,0,1-.53.53h-.72a.53.53,0,0,1-.52-.53Z" transform="translate(0 -0.57)"/><path class="cls-8" d="M155.67,25.45a.52.52,0,0,1-.55-.53v-.48a.51.51,0,0,1,.55-.53h1.46V20.84a.57.57,0,0,1,.53-.53l.74,0a.5.5,0,0,1,.51.53v3.12h3.26a.53.53,0,0,1,.55.53v.48a.54.54,0,0,1-.55.53h-3.26v6.62c0,1.15.36,1.59,1,1.59a4,4,0,0,0,2.19-.72c.43-.27.57,0,.69.21l.22.51c.14.36.09.52-.19.72a5.82,5.82,0,0,1-3.12.88c-2.12,0-2.55-1.34-2.55-3.07V25.45Z" transform="translate(0 -0.57)"/><path class="cls-8" d="M169.08,28a9.54,9.54,0,0,1,2.38.36c0-2-.24-3-1.82-3a9.88,9.88,0,0,0-3.29.65c-.29.12-.43,0-.53-.29l-.24-.65c-.1-.33.07-.48.34-.6a10.15,10.15,0,0,1,3.81-.72c2.83,0,3.43,1.39,3.43,4.66v6.14a.53.53,0,0,1-.52.53h-.46c-.29,0-.38-.17-.46-.41l-.21-.74a4.87,4.87,0,0,1-3.43,1.41,3.37,3.37,0,0,1-3.44-3.62C164.64,29.53,166.23,28,169.08,28Zm-.69,5.69a3.86,3.86,0,0,0,3.05-1.49V29.91a5.75,5.75,0,0,0-2.36-.43c-1.53,0-2.68.74-2.68,2.16A1.92,1.92,0,0,0,168.39,33.66Z" transform="translate(0 -0.57)"/><path class="cls-8" d="M176.36,19.76a1.31,1.31,0,1,1,1.29,1.29A1.29,1.29,0,0,1,176.36,19.76Zm.45,4.68a.55.55,0,0,1,.53-.53h.72a.57.57,0,0,1,.53.53v10a.55.55,0,0,1-.53.53h-.72a.53.53,0,0,1-.53-.53Z" transform="translate(0 -0.57)"/><path class="cls-8" d="M181.75,33.92a.41.41,0,0,1-.07-.48l.34-.62c.14-.27.33-.36.65-.15a4.49,4.49,0,0,0,2.76,1c1.13,0,1.89-.53,1.89-1.4,0-1-.86-1.48-2.47-2.28-1.46-.72-3.14-1.51-3.14-3.4,0-1.16.86-2.91,3.43-2.91a5.78,5.78,0,0,1,3.17.87.52.52,0,0,1,.12.74l-.24.46a.55.55,0,0,1-.77.19,4.36,4.36,0,0,0-2.28-.65c-1.22,0-1.63.7-1.63,1.22,0,1,.77,1.35,2.11,2,1.92.89,3.58,1.61,3.58,3.63,0,1.75-1.52,3.16-3.77,3.16A5.46,5.46,0,0,1,181.75,33.92Z" transform="translate(0 -0.57)"/></g></g></g></g></svg>