<svg xmlns="http://www.w3.org/2000/svg" viewBox="0 0 269 53.86"><defs><style>.cls-1,.cls-6{fill:#fff;}.cls-2{fill:#e5e5e5;}.cls-3{fill:none;stroke:#fff;stroke-width:3.99px;}.cls-4,.cls-6{isolation:isolate;}.cls-5{fill:#fe7170;}.cls-6{font-size:24px;font-family:BrandonText-Regular, Brandon Text;letter-spacing:-0.08em;}.cls-7{letter-spacing:0em;}.cls-8{fill:#25d366;}</style></defs><g id="original"><g id="Group_11805" data-name="Group 11805"><path id="Rectangle_1015" data-name="Rectangle 1015" class="cls-1" d="M26.93.57H224.8A26.94,26.94,0,0,1,251.74,27.5h0A26.94,26.94,0,0,1,224.8,54.43H26.93A26.93,26.93,0,0,1,0,27.5H0A26.93,26.93,0,0,1,26.93.57Z" transform="translate(0 -0.57)"/><g id="Group_11739" data-name="Group 11739"><circle id="Ellipse_563" data-name="Ellipse 563" class="cls-2" cx="254.04" cy="27.43" r="14.96"/><path id="Path_2059" data-name="Path 2059" class="cls-3" d="M245.56,27.17l6.08,6.08,10.74-10.73" transform="translate(0 -0.57)"/></g><g id="_Testa" data-name=" Testa" class="cls-4"><g class="cls-4"><path class="cls-5" d="M23.25,26.37A4.86,4.86,0,1,1,28,31.16,4.88,4.88,0,0,1,23.25,26.37Z" transform="translate(0 -0.57)"/></g><text class="cls-6" transform="translate(43.04 34.43)">T<tspan class="cls-7" x="10.46" y="0">esta</tspan></text></g></g></g><g id="bg"><g id="Group_11805-2" data-name="Group 11805"><path id="Rectangle_1015-2" data-name="Rectangle 1015" class="cls-5" d="M26.93.57H224.8A26.94,26.94,0,0,1,251.74,27.5h0A26.94,26.94,0,0,1,224.8,54.43H26.93A26.93,26.93,0,0,1,0,27.5H0A26.93,26.93,0,0,1,26.93.57Z" transform="translate(0 -0.57)"/></g></g><g id="bg-check"><g id="Group_11805-3" data-name="Group 11805"><g id="Group_11739-2" data-name="Group 11739"><circle id="Ellipse_563-2" data-name="Ellipse 563" class="cls-8" cx="254.04" cy="27.43" r="14.96"/></g></g></g><g id="check"><g id="Group_11805-4" data-name="Group 11805"><g id="Group_11739-3" data-name="Group 11739"><polygon class="cls-1" points="251.65 35.51 244.15 28.01 246.97 25.19 251.65 29.86 260.97 20.54 263.79 23.36 251.65 35.51"/></g></g></g><g id="bullet"><g id="Group_11805-5" data-name="Group 11805"><g id="_Testa-2" data-name=" Testa" class="cls-4"><g class="cls-4"><path class="cls-1" d="M23.25,26.37A4.86,4.86,0,1,1,28,31.16,4.88,4.88,0,0,1,23.25,26.37Z" transform="translate(0 -0.57)"/></g></g></g></g><g id="txt"><g id="Group_11805-6" data-name="Group 11805"><g id="_Testa-3" data-name=" Testa" class="cls-4"><g class="cls-4"><path class="cls-1" d="M45.34,18.65a.46.46,0,0,1,.46-.45h9.45a.46.46,0,0,1,.46.45v.7a.46.46,0,0,1-.46.46H47.19v5.85h6.89a.47.47,0,0,1,.45.46v.7a.45.45,0,0,1-.45.45H47.19v6.12h8.06a.46.46,0,0,1,.46.46v.69a.46.46,0,0,1-.46.46H45.8a.46.46,0,0,1-.46-.46Z" transform="translate(0 -0.57)"/><path class="cls-1" d="M59.43,25.45H57.65a.53.53,0,0,1-.52-.53v-.48a.52.52,0,0,1,.52-.53h1.78V22.16c0-2.76,1.3-4.2,3.7-4.2a4.39,4.39,0,0,1,3,1.15.51.51,0,0,1,.1.62l-.46.58c-.19.27-.38.24-.69,0a3.14,3.14,0,0,0-2-.76c-1.27,0-1.87.93-1.87,2.59v1.75h3.28a.52.52,0,0,1,.53.53v.48a.53.53,0,0,1-.53.53H61.21v9a.53.53,0,0,1-.53.53H60a.53.53,0,0,1-.53-.53Z" transform="translate(0 -0.57)"/><path class="cls-1" d="M71.74,23.67a4.88,4.88,0,0,1,5,5c0,.19,0,.48-.05.67a.51.51,0,0,1-.5.48H68.14a3.91,3.91,0,0,0,3.63,3.8,5.16,5.16,0,0,0,3-.92c.38-.26.55-.36.84.08l.28.4c.22.34.32.46-.09.77a6.81,6.81,0,0,1-4.06,1.27c-3.36,0-5.37-2.64-5.37-5.8S68.38,23.67,71.74,23.67ZM75,28.45a3.24,3.24,0,0,0-3.24-3.17,3.62,3.62,0,0,0-3.57,3.17Z" transform="translate(0 -0.57)"/><path class="cls-1" d="M79.21,19.76a1.31,1.31,0,1,1,1.29,1.29A1.29,1.29,0,0,1,79.21,19.76Zm.45,4.68a.55.55,0,0,1,.53-.53h.72a.57.57,0,0,1,.53.53v10a.55.55,0,0,1-.53.53h-.72a.53.53,0,0,1-.53-.53Z" transform="translate(0 -0.57)"/><path class="cls-1" d="M84.44,25.45a.52.52,0,0,1-.55-.53v-.48a.51.51,0,0,1,.55-.53H85.9V20.84a.57.57,0,0,1,.53-.53l.74,0a.5.5,0,0,1,.51.53v3.12h3.26a.53.53,0,0,1,.55.53v.48a.54.54,0,0,1-.55.53H87.68v6.62c0,1.15.36,1.59,1,1.59a4,4,0,0,0,2.19-.72c.43-.27.57,0,.69.21l.22.51c.14.36.09.52-.19.72a5.82,5.82,0,0,1-3.12.88c-2.12,0-2.55-1.34-2.55-3.07V25.45Z" transform="translate(0 -0.57)"/><path class="cls-1" d="M99.13,23.67a5.8,5.8,0,1,1-5.57,5.76A5.7,5.7,0,0,1,99.13,23.67Zm0,10a4,4,0,0,0,3.79-4.23,3.82,3.82,0,1,0-7.61,0A4,4,0,0,0,99.13,33.66Z" transform="translate(0 -0.57)"/><path class="cls-1" d="M113.91,18.39a.44.44,0,0,1,.45-.43h.36a.43.43,0,0,1,.39.19l10.68,13.3h0V18.65a.45.45,0,0,1,.45-.45h.84a.48.48,0,0,1,.46.45V34.81a.45.45,0,0,1-.46.43h-.19a.4.4,0,0,1-.38-.19L115.69,21.49h0V34.54a.46.46,0,0,1-.46.46h-.84a.47.47,0,0,1-.45-.46Z" transform="translate(0 -0.57)"/><path class="cls-1" d="M136.11,23.67a4.88,4.88,0,0,1,5,5c0,.19,0,.48,0,.67a.53.53,0,0,1-.51.48h-8.06a3.91,3.91,0,0,0,3.62,3.8,5.11,5.11,0,0,0,3-.92c.39-.26.56-.36.84.08l.29.4c.22.34.31.46-.09.77a6.84,6.84,0,0,1-4.06,1.27c-3.36,0-5.38-2.64-5.38-5.8S132.75,23.67,136.11,23.67Zm3.24,4.78a3.24,3.24,0,0,0-3.24-3.17,3.64,3.64,0,0,0-3.58,3.17Z" transform="translate(0 -0.57)"/><path class="cls-1" d="M145,25.45h-1.78a.53.53,0,0,1-.53-.53v-.48a.52.52,0,0,1,.53-.53H145V22.16c0-2.76,1.29-4.2,3.69-4.2a4.4,4.4,0,0,1,3.05,1.15.51.51,0,0,1,.1.62l-.46.58c-.19.27-.38.24-.69,0a3.17,3.17,0,0,0-2-.76c-1.27,0-1.87.93-1.87,2.59v1.75h3.29a.52.52,0,0,1,.53.53v.48a.53.53,0,0,1-.53.53h-3.29v9a.53.53,0,0,1-.53.53h-.72a.53.53,0,0,1-.52-.53Z" transform="translate(0 -0.57)"/><path class="cls-1" d="M157.35,23.67a4.88,4.88,0,0,1,5,5c0,.19,0,.48-.05.67a.53.53,0,0,1-.51.48h-8.06a3.91,3.91,0,0,0,3.62,3.8,5.11,5.11,0,0,0,3-.92c.39-.26.56-.36.84.08l.29.4c.22.34.31.46-.09.77a6.84,6.84,0,0,1-4.06,1.27c-3.36,0-5.38-2.64-5.38-5.8S154,23.67,157.35,23.67Zm3.24,4.78a3.24,3.24,0,0,0-3.24-3.17,3.64,3.64,0,0,0-3.58,3.17Z" transform="translate(0 -0.57)"/><path class="cls-1" d="M165.27,24.44a.55.55,0,0,1,.53-.53h.38a.48.48,0,0,1,.48.38l.19.8a4.43,4.43,0,0,1,3.41-1.42c.84,0,2.21.12,2,.89l-.32.86a.42.42,0,0,1-.64.27,2.86,2.86,0,0,0-1.21-.31,3.52,3.52,0,0,0-3,1.41v7.68a.55.55,0,0,1-.52.53h-.72a.53.53,0,0,1-.53-.53Z" transform="translate(0 -0.57)"/><path class="cls-1" d="M173.79,25.45a.52.52,0,0,1-.55-.53v-.48a.51.51,0,0,1,.55-.53h1.46V20.84a.57.57,0,0,1,.53-.53l.74,0a.5.5,0,0,1,.51.53v3.12h3.26a.53.53,0,0,1,.55.53v.48a.54.54,0,0,1-.55.53H177v6.62c0,1.15.36,1.59,1,1.59a4,4,0,0,0,2.19-.72c.43-.27.57,0,.69.21l.22.51c.14.36.1.52-.19.72a5.82,5.82,0,0,1-3.12.88c-2.12,0-2.55-1.34-2.55-3.07V25.45Z" transform="translate(0 -0.57)"/><path class="cls-1" d="M183.17,19.76a1.31,1.31,0,1,1,1.3,1.29A1.3,1.3,0,0,1,183.17,19.76Zm.46,4.68a.55.55,0,0,1,.53-.53h.72a.56.56,0,0,1,.52.53v10a.55.55,0,0,1-.52.53h-.72a.53.53,0,0,1-.53-.53Z" transform="translate(0 -0.57)"/><path class="cls-1" d="M188.4,25.45a.53.53,0,0,1-.55-.53v-.48a.51.51,0,0,1,.55-.53h1.47V20.84a.56.56,0,0,1,.53-.53l.74,0a.5.5,0,0,1,.5.53v3.12h3.27a.53.53,0,0,1,.55.53v.48a.54.54,0,0,1-.55.53h-3.27v6.62c0,1.15.36,1.59,1,1.59a3.92,3.92,0,0,0,2.18-.72c.43-.27.58,0,.7.21l.21.51c.15.36.1.52-.19.72a5.79,5.79,0,0,1-3.12.88c-2.11,0-2.54-1.34-2.54-3.07V25.45Z" transform="translate(0 -0.57)"/><path class="cls-1" d="M197.79,19.76a1.31,1.31,0,1,1,1.29,1.29A1.29,1.29,0,0,1,197.79,19.76Zm.45,4.68a.55.55,0,0,1,.53-.53h.72a.56.56,0,0,1,.53.53v10a.55.55,0,0,1-.53.53h-.72a.53.53,0,0,1-.53-.53Z" transform="translate(0 -0.57)"/></g></g></g></g></svg>