<svg xmlns="http://www.w3.org/2000/svg" viewBox="0 0 269 53.86"><defs><style>.cls-1,.cls-6{fill:#fff;}.cls-2{fill:#e5e5e5;}.cls-3{fill:none;stroke:#fff;stroke-width:3.99px;}.cls-4,.cls-6{isolation:isolate;}.cls-5{fill:#fe7170;}.cls-6{font-size:24px;font-family:BrandonText-Regular, Brandon Text;letter-spacing:-0.08em;}.cls-7{letter-spacing:0em;}.cls-8{fill:#25d366;}</style></defs><g id="original"><g id="Group_11805" data-name="Group 11805"><path id="Rectangle_1015" data-name="Rectangle 1015" class="cls-1" d="M26.93.57H224.8A26.94,26.94,0,0,1,251.74,27.5h0A26.94,26.94,0,0,1,224.8,54.43H26.93A26.93,26.93,0,0,1,0,27.5H0A26.93,26.93,0,0,1,26.93.57Z" transform="translate(0 -0.57)"/><g id="Group_11739" data-name="Group 11739"><circle id="Ellipse_563" data-name="Ellipse 563" class="cls-2" cx="254.04" cy="27.43" r="14.96"/><path id="Path_2059" data-name="Path 2059" class="cls-3" d="M245.56,27.17l6.08,6.08,10.74-10.73" transform="translate(0 -0.57)"/></g><g id="_Testa" data-name=" Testa" class="cls-4"><g class="cls-4"><path class="cls-5" d="M23.25,26.37A4.86,4.86,0,1,1,28,31.16,4.88,4.88,0,0,1,23.25,26.37Z" transform="translate(0 -0.57)"/></g><text class="cls-6" transform="translate(43.04 34.43)">T<tspan class="cls-7" x="10.46" y="0">esta</tspan></text></g></g></g><g id="bg"><g id="Group_11805-2" data-name="Group 11805"><path id="Rectangle_1015-2" data-name="Rectangle 1015" class="cls-5" d="M26.93.57H224.8A26.94,26.94,0,0,1,251.74,27.5h0A26.94,26.94,0,0,1,224.8,54.43H26.93A26.93,26.93,0,0,1,0,27.5H0A26.93,26.93,0,0,1,26.93.57Z" transform="translate(0 -0.57)"/></g></g><g id="bg-check"><g id="Group_11805-3" data-name="Group 11805"><g id="Group_11739-2" data-name="Group 11739"><circle id="Ellipse_563-2" data-name="Ellipse 563" class="cls-8" cx="254.04" cy="27.43" r="14.96"/></g></g></g><g id="check"><g id="Group_11805-4" data-name="Group 11805"><g id="Group_11739-3" data-name="Group 11739"><polygon class="cls-1" points="251.65 35.51 244.15 28.01 246.97 25.19 251.65 29.86 260.97 20.54 263.79 23.36 251.65 35.51"/></g></g></g><g id="bullet"><g id="Group_11805-5" data-name="Group 11805"><g id="_Testa-2" data-name=" Testa" class="cls-4"><g class="cls-4"><path class="cls-1" d="M23.25,26.37A4.86,4.86,0,1,1,28,31.16,4.88,4.88,0,0,1,23.25,26.37Z" transform="translate(0 -0.57)"/></g></g></g></g><g id="txt"><g id="Group_11805-6" data-name="Group 11805"><g id="_Testa-3" data-name=" Testa" class="cls-4"><g class="cls-4"><path class="cls-1" d="M52.9,18a8.64,8.64,0,1,1-8.61,8.66A8.62,8.62,0,0,1,52.9,18Zm0,15.6A7,7,0,1,0,46,26.62,7,7,0,0,0,52.9,33.56Z" transform="translate(0 -0.57)"/><path class="cls-1" d="M64.37,24.44a.53.53,0,0,1,.53-.53h.72a.55.55,0,0,1,.53.53v6c0,2.21.72,3.22,2.33,3.22a4.12,4.12,0,0,0,3.14-1.61V24.44a.53.53,0,0,1,.51-.53h.74a.54.54,0,0,1,.5.53v10a.53.53,0,0,1-.5.53h-.38c-.32,0-.44-.19-.51-.48l-.21-.7a4.45,4.45,0,0,1-3.44,1.44c-3.19,0-4-1.92-4-4.84Z" transform="translate(0 -0.57)"/><path class="cls-1" d="M76.37,25.45a.53.53,0,0,1-.55-.53v-.48a.51.51,0,0,1,.55-.53h1.47V20.84a.56.56,0,0,1,.53-.53l.74,0a.5.5,0,0,1,.5.53v3.12h3.27a.53.53,0,0,1,.55.53v.48a.54.54,0,0,1-.55.53H79.61v6.62c0,1.15.36,1.59,1,1.59a3.92,3.92,0,0,0,2.18-.72c.43-.27.58,0,.7.21l.21.51c.15.36.1.52-.19.72a5.79,5.79,0,0,1-3.12.88c-2.11,0-2.54-1.34-2.54-3.07V25.45Z" transform="translate(0 -0.57)"/><path class="cls-1" d="M86.21,24.44a.55.55,0,0,1,.53-.53h.38a.48.48,0,0,1,.48.38l.2.8a4.4,4.4,0,0,1,3.41-1.42c.84,0,2.2.12,1.94.89l-.31.86a.42.42,0,0,1-.65.27,2.77,2.77,0,0,0-1.2-.31,3.5,3.5,0,0,0-3,1.41v7.68a.55.55,0,0,1-.53.53h-.72a.53.53,0,0,1-.53-.53Z" transform="translate(0 -0.57)"/><path class="cls-1" d="M98.93,28a9.54,9.54,0,0,1,2.38.36c0-2-.24-3-1.82-3a9.88,9.88,0,0,0-3.29.65c-.29.12-.43,0-.53-.29L95.43,25c-.1-.33.07-.48.34-.6a10.15,10.15,0,0,1,3.81-.72c2.83,0,3.43,1.39,3.43,4.66v6.14a.53.53,0,0,1-.52.53H102c-.29,0-.38-.17-.46-.41l-.21-.74a4.87,4.87,0,0,1-3.43,1.41,3.37,3.37,0,0,1-3.44-3.62C94.49,29.53,96.08,28,98.93,28Zm-.69,5.69a3.86,3.86,0,0,0,3.05-1.49V29.91a5.75,5.75,0,0,0-2.36-.43c-1.53,0-2.68.74-2.68,2.16A1.92,1.92,0,0,0,98.24,33.66Z" transform="translate(0 -0.57)"/><path class="cls-1" d="M106.08,33.92a.4.4,0,0,1-.07-.48l.34-.62c.14-.27.33-.36.65-.15a4.49,4.49,0,0,0,2.76,1c1.13,0,1.89-.53,1.89-1.4,0-1-.86-1.48-2.47-2.28S106,28.47,106,26.58c0-1.16.86-2.91,3.43-2.91a5.78,5.78,0,0,1,3.17.87.52.52,0,0,1,.12.74l-.24.46a.55.55,0,0,1-.77.19,4.36,4.36,0,0,0-2.28-.65c-1.22,0-1.63.7-1.63,1.22,0,1,.76,1.35,2.11,2,1.92.89,3.58,1.61,3.58,3.63,0,1.75-1.52,3.16-3.77,3.16A5.46,5.46,0,0,1,106.08,33.92Z" transform="translate(0 -0.57)"/></g></g></g></g></svg>