<svg xmlns="http://www.w3.org/2000/svg" viewBox="0 0 269 53.86"><defs><style>.cls-1,.cls-6{fill:#fff;}.cls-2{fill:#e5e5e5;}.cls-3{fill:none;stroke:#fff;stroke-width:3.99px;}.cls-4,.cls-6{isolation:isolate;}.cls-5{fill:#fe7170;}.cls-6{font-size:24px;font-family:BrandonText-Regular, Brandon Text;letter-spacing:-0.08em;}.cls-7{letter-spacing:0em;}.cls-8{fill:#25d366;}</style></defs><g id="original"><g id="Group_11805" data-name="Group 11805"><path id="Rectangle_1015" data-name="Rectangle 1015" class="cls-1" d="M26.93.57H224.8A26.94,26.94,0,0,1,251.74,27.5h0A26.94,26.94,0,0,1,224.8,54.43H26.93A26.93,26.93,0,0,1,0,27.5H0A26.93,26.93,0,0,1,26.93.57Z" transform="translate(0 -0.57)"/><g id="Group_11739" data-name="Group 11739"><circle id="Ellipse_563" data-name="Ellipse 563" class="cls-2" cx="254.04" cy="27.43" r="14.96"/><path id="Path_2059" data-name="Path 2059" class="cls-3" d="M245.56,27.17l6.08,6.08,10.74-10.73" transform="translate(0 -0.57)"/></g><g id="_Testa" data-name=" Testa" class="cls-4"><g class="cls-4"><path class="cls-5" d="M23.25,26.37A4.86,4.86,0,1,1,28,31.16,4.88,4.88,0,0,1,23.25,26.37Z" transform="translate(0 -0.57)"/></g><text class="cls-6" transform="translate(43.04 34.43)">T<tspan class="cls-7" x="10.46" y="0">esta</tspan></text></g></g></g><g id="bg"><g id="Group_11805-2" data-name="Group 11805"><path id="Rectangle_1015-2" data-name="Rectangle 1015" class="cls-5" d="M26.93.57H224.8A26.94,26.94,0,0,1,251.74,27.5h0A26.94,26.94,0,0,1,224.8,54.43H26.93A26.93,26.93,0,0,1,0,27.5H0A26.93,26.93,0,0,1,26.93.57Z" transform="translate(0 -0.57)"/></g></g><g id="bg-check"><g id="Group_11805-3" data-name="Group 11805"><g id="Group_11739-2" data-name="Group 11739"><circle id="Ellipse_563-2" data-name="Ellipse 563" class="cls-8" cx="254.04" cy="27.43" r="14.96"/></g></g></g><g id="check"><g id="Group_11805-4" data-name="Group 11805"><g id="Group_11739-3" data-name="Group 11739"><polygon class="cls-1" points="251.65 35.51 244.15 28.01 246.97 25.19 251.65 29.86 260.97 20.54 263.79 23.36 251.65 35.51"/></g></g></g><g id="bullet"><g id="Group_11805-5" data-name="Group 11805"><g id="_Testa-2" data-name=" Testa" class="cls-4"><g class="cls-4"><path class="cls-1" d="M23.25,26.37A4.86,4.86,0,1,1,28,31.16,4.88,4.88,0,0,1,23.25,26.37Z" transform="translate(0 -0.57)"/></g></g></g></g><g id="txt"><g id="Group_11805-6" data-name="Group 11805"><g id="_Testa-3" data-name=" Testa" class="cls-4"><g class="cls-4"><path class="cls-1" d="M45.34,18.65a.46.46,0,0,1,.46-.45h5.3a5.35,5.35,0,1,1,0,10.7h-4v5.64a.48.48,0,0,1-.46.46H45.8a.46.46,0,0,1-.46-.46ZM51,27.13a3.58,3.58,0,0,0,3.65-3.67A3.43,3.43,0,0,0,51,20H47.17v7.11Z" transform="translate(0 -0.57)"/><path class="cls-1" d="M63.32,23.67a4.87,4.87,0,0,1,5,5c0,.19,0,.48,0,.67a.53.53,0,0,1-.51.48H59.72a3.91,3.91,0,0,0,3.62,3.8,5.11,5.11,0,0,0,3-.92c.39-.26.55-.36.84.08l.29.4c.22.34.31.46-.1.77a6.77,6.77,0,0,1-4.05,1.27c-3.36,0-5.38-2.64-5.38-5.8S60,23.67,63.32,23.67Zm3.24,4.78a3.25,3.25,0,0,0-3.24-3.17,3.63,3.63,0,0,0-3.58,3.17ZM61,21a.34.34,0,0,1,.15-.46l3.6-2c.14-.09.5-.14.62.08l.43.86a.35.35,0,0,1-.14.5l-3.86,1.61c-.34.15-.46.15-.56,0Z" transform="translate(0 -0.57)"/><path class="cls-1" d="M70.66,33.92a.39.39,0,0,1-.07-.48l.33-.62c.15-.27.34-.36.65-.15a4.54,4.54,0,0,0,2.76,1c1.13,0,1.9-.53,1.9-1.4,0-1-.86-1.48-2.47-2.28s-3.15-1.51-3.15-3.4c0-1.16.87-2.91,3.43-2.91a5.72,5.72,0,0,1,3.17.87.52.52,0,0,1,.12.74l-.24.46a.53.53,0,0,1-.76.19A4.37,4.37,0,0,0,74,25.28c-1.22,0-1.63.7-1.63,1.22,0,1,.77,1.35,2.12,2,1.92.89,3.57,1.61,3.57,3.63,0,1.75-1.51,3.16-3.77,3.16A5.43,5.43,0,0,1,70.66,33.92Z" transform="translate(0 -0.57)"/><path class="cls-1" d="M91.3,23.67a6.82,6.82,0,0,1,3.07.7V18.73a.55.55,0,0,1,.53-.53h.67a.57.57,0,0,1,.55.53V34.47a.55.55,0,0,1-.55.53h-.43c-.24,0-.38-.19-.48-.46l-.14-.72A5.36,5.36,0,0,1,91,35.26c-2.81,0-5-2.66-5-5.83S88,23.67,91.3,23.67Zm-.07,10a4.09,4.09,0,0,0,3.14-1.78v-6a7.29,7.29,0,0,0-2.83-.62c-2.38,0-3.7,2-3.7,4.18S89.21,33.66,91.23,33.66Z" transform="translate(0 -0.57)"/><path class="cls-1" d="M104.55,23.67a4.87,4.87,0,0,1,5,5c0,.19,0,.48,0,.67a.53.53,0,0,1-.51.48H101a3.91,3.91,0,0,0,3.62,3.8,5.11,5.11,0,0,0,3-.92c.39-.26.55-.36.84.08l.29.4c.22.34.31.46-.1.77a6.77,6.77,0,0,1-4,1.27c-3.36,0-5.38-2.64-5.38-5.8S101.19,23.67,104.55,23.67Zm3.24,4.78a3.25,3.25,0,0,0-3.24-3.17A3.64,3.64,0,0,0,101,28.45Z" transform="translate(0 -0.57)"/><path class="cls-1" d="M127.61,35.07c0,3.79-2.33,5.19-4.85,5.19a6.32,6.32,0,0,1-3.86-1.44.53.53,0,0,1-.12-.65l.48-.7c.17-.26.46-.26.72,0a4.42,4.42,0,0,0,2.78,1.17c1.76,0,3.1-1,3.1-3.55v-.79a5.38,5.38,0,0,1-3.07,1c-3.05,0-5.26-2.56-5.26-5.8s2.16-5.79,5.19-5.79A5.47,5.47,0,0,1,126,24.8l.17-.51c.12-.21.24-.38.52-.38h.34a.57.57,0,0,1,.55.53ZM123,33.63a5.44,5.44,0,0,0,2.81-.91V26.65a4.13,4.13,0,0,0-2.93-1.35c-2.21,0-3.58,2-3.58,4.13C119.33,31.83,120.92,33.63,123,33.63Z" transform="translate(0 -0.57)"/><path class="cls-1" d="M134.93,28a9.54,9.54,0,0,1,2.38.36c0-2-.24-3-1.83-3a9.87,9.87,0,0,0-3.28.65c-.29.12-.44,0-.53-.29l-.24-.65c-.1-.33.07-.48.33-.6a10.26,10.26,0,0,1,3.82-.72c2.83,0,3.43,1.39,3.43,4.66v6.14a.53.53,0,0,1-.53.53H138c-.29,0-.39-.17-.46-.41l-.21-.74a4.87,4.87,0,0,1-3.44,1.41,3.37,3.37,0,0,1-3.43-3.62C130.49,29.53,132.08,28,134.93,28Zm-.69,5.69a3.85,3.85,0,0,0,3-1.49V29.91a5.69,5.69,0,0,0-2.35-.43c-1.53,0-2.69.74-2.69,2.16A1.93,1.93,0,0,0,134.24,33.66Z" transform="translate(0 -0.57)"/><path class="cls-1" d="M142.78,18.73a.55.55,0,0,1,.53-.53H144a.57.57,0,0,1,.53.53V34.47A.55.55,0,0,1,144,35h-.72a.53.53,0,0,1-.53-.53Z" transform="translate(0 -0.57)"/><path class="cls-1" d="M148,19.76a1.31,1.31,0,1,1,1.3,1.29A1.3,1.3,0,0,1,148,19.76Zm.46,4.68a.55.55,0,0,1,.53-.53h.72a.57.57,0,0,1,.53.53v10a.55.55,0,0,1-.53.53H149a.53.53,0,0,1-.53-.53Z" transform="translate(0 -0.57)"/><path class="cls-1" d="M153.94,24.44a.55.55,0,0,1,.53-.53h.38a.38.38,0,0,1,.43.34l.24.84a5.6,5.6,0,0,1,3.72-1.42c3.22,0,4,2.09,4,4.95v5.85a.55.55,0,0,1-.53.53H162a.53.53,0,0,1-.52-.53V28.38c0-2.12-.72-3.1-2.36-3.1a4.84,4.84,0,0,0-3.4,1.54v7.65a.55.55,0,0,1-.53.53h-.72a.53.53,0,0,1-.53-.53Z" transform="translate(0 -0.57)"/><path class="cls-1" d="M166.88,18.73a.55.55,0,0,1,.52-.53h.72a.56.56,0,0,1,.53.53v6.36a5.05,5.05,0,0,1,3.53-1.42c2.76,0,4,1.71,4,4.95v5.85a.55.55,0,0,1-.53.53h-.74a.53.53,0,0,1-.53-.53V28.62c0-2.12-.63-3.34-2.33-3.34a4.75,4.75,0,0,0-3.41,1.58v7.61a.55.55,0,0,1-.53.53h-.72a.53.53,0,0,1-.52-.53Z" transform="translate(0 -0.57)"/><path class="cls-1" d="M183.39,28a9.52,9.52,0,0,1,2.37.36c0-2-.24-3-1.82-3a9.94,9.94,0,0,0-3.29.65c-.29.12-.43,0-.53-.29l-.24-.65c-.09-.33.07-.48.34-.6a10.17,10.17,0,0,1,3.82-.72c2.83,0,3.43,1.39,3.43,4.66v6.14a.53.53,0,0,1-.53.53h-.46c-.28,0-.38-.17-.45-.41l-.22-.74a4.85,4.85,0,0,1-3.43,1.41A3.36,3.36,0,0,1,179,31.64C179,29.53,180.53,28,183.39,28Zm-.7,5.69a3.86,3.86,0,0,0,3.05-1.49V29.91a5.73,5.73,0,0,0-2.35-.43c-1.54,0-2.69.74-2.69,2.16A1.92,1.92,0,0,0,182.69,33.66Z" transform="translate(0 -0.57)"/></g></g></g></g></svg>