<svg xmlns="http://www.w3.org/2000/svg" viewBox="0 0 269 53.86"><defs><style>.cls-1,.cls-6{fill:#fff;}.cls-2{fill:#e5e5e5;}.cls-3{fill:none;stroke:#fff;stroke-width:3.99px;}.cls-4,.cls-6{isolation:isolate;}.cls-5{fill:#fe7170;}.cls-6{font-size:24px;font-family:BrandonText-Regular, Brandon Text;letter-spacing:-0.08em;}.cls-7{letter-spacing:0em;}.cls-8{fill:#25d366;}</style></defs><g id="original"><g id="Group_11805" data-name="Group 11805"><path id="Rectangle_1015" data-name="Rectangle 1015" class="cls-1" d="M26.93.57H224.8A26.94,26.94,0,0,1,251.74,27.5h0A26.94,26.94,0,0,1,224.8,54.43H26.93A26.93,26.93,0,0,1,0,27.5H0A26.93,26.93,0,0,1,26.93.57Z" transform="translate(0 -0.57)"/><g id="Group_11739" data-name="Group 11739"><circle id="Ellipse_563" data-name="Ellipse 563" class="cls-2" cx="254.04" cy="27.43" r="14.96"/><path id="Path_2059" data-name="Path 2059" class="cls-3" d="M245.56,27.17l6.08,6.08,10.74-10.73" transform="translate(0 -0.57)"/></g><g id="_Testa" data-name=" Testa" class="cls-4"><g class="cls-4"><path class="cls-5" d="M23.25,26.37A4.86,4.86,0,1,1,28,31.16,4.88,4.88,0,0,1,23.25,26.37Z" transform="translate(0 -0.57)"/></g><text class="cls-6" transform="translate(43.04 34.43)">T<tspan class="cls-7" x="10.46" y="0">esta</tspan></text></g></g></g><g id="bg"><g id="Group_11805-2" data-name="Group 11805"><path id="Rectangle_1015-2" data-name="Rectangle 1015" class="cls-5" d="M26.93.57H224.8A26.94,26.94,0,0,1,251.74,27.5h0A26.94,26.94,0,0,1,224.8,54.43H26.93A26.93,26.93,0,0,1,0,27.5H0A26.93,26.93,0,0,1,26.93.57Z" transform="translate(0 -0.57)"/></g></g><g id="bg-check"><g id="Group_11805-3" data-name="Group 11805"><g id="Group_11739-2" data-name="Group 11739"><circle id="Ellipse_563-2" data-name="Ellipse 563" class="cls-8" cx="254.04" cy="27.43" r="14.96"/></g></g></g><g id="check"><g id="Group_11805-4" data-name="Group 11805"><g id="Group_11739-3" data-name="Group 11739"><polygon class="cls-1" points="251.65 35.51 244.15 28.01 246.97 25.19 251.65 29.86 260.97 20.54 263.79 23.36 251.65 35.51"/></g></g></g><g id="bullet"><g id="Group_11805-5" data-name="Group 11805"><g id="_Testa-2" data-name=" Testa" class="cls-4"><g class="cls-4"><path class="cls-1" d="M23.25,26.37A4.86,4.86,0,1,1,28,31.16,4.88,4.88,0,0,1,23.25,26.37Z" transform="translate(0 -0.57)"/></g></g></g></g><g id="txt"><g id="Group_11805-6" data-name="Group 11805"><g id="_Testa-3" data-name=" Testa" class="cls-4"><g class="cls-4"><path class="cls-1" d="M45.34,18.65a.46.46,0,0,1,.46-.45h5.3a5.35,5.35,0,1,1,0,10.7h-4v5.64a.48.48,0,0,1-.46.46H45.8a.46.46,0,0,1-.46-.46ZM51,27.13a3.58,3.58,0,0,0,3.65-3.67A3.43,3.43,0,0,0,51,20H47.17v7.11Z" transform="translate(0 -0.57)"/><path class="cls-1" d="M63.49,23.67a5.8,5.8,0,1,1-5.57,5.76A5.7,5.7,0,0,1,63.49,23.67Zm0,10a4,4,0,0,0,3.79-4.23,3.82,3.82,0,1,0-7.61,0A4,4,0,0,0,63.49,33.66Z" transform="translate(0 -0.57)"/><path class="cls-1" d="M72.08,24.44a.55.55,0,0,1,.53-.53H73a.38.38,0,0,1,.43.34l.24.84a5.6,5.6,0,0,1,3.72-1.42c3.22,0,4,2.09,4,4.95v5.85a.55.55,0,0,1-.53.53h-.72a.53.53,0,0,1-.53-.53V28.38c0-2.12-.72-3.1-2.35-3.1a4.85,4.85,0,0,0-3.41,1.54v7.65a.55.55,0,0,1-.52.53h-.72a.53.53,0,0,1-.53-.53Z" transform="translate(0 -0.57)"/><path class="cls-1" d="M84.15,25.45a.52.52,0,0,1-.55-.53v-.48a.51.51,0,0,1,.55-.53h1.46V20.84a.57.57,0,0,1,.53-.53l.74,0a.5.5,0,0,1,.51.53v3.12h3.26a.53.53,0,0,1,.56.53v.48a.54.54,0,0,1-.56.53H87.39v6.62c0,1.15.36,1.59,1,1.59a4,4,0,0,0,2.19-.72c.43-.27.57,0,.69.21l.22.51c.14.36.1.52-.19.72a5.79,5.79,0,0,1-3.12.88c-2.12,0-2.55-1.34-2.55-3.07V25.45Z" transform="translate(0 -0.57)"/><path class="cls-1" d="M97.56,28a9.54,9.54,0,0,1,2.38.36c0-2-.24-3-1.82-3a9.88,9.88,0,0,0-3.29.65c-.29.12-.43,0-.53-.29L94.06,25c-.1-.33.07-.48.34-.6a10.15,10.15,0,0,1,3.81-.72c2.84,0,3.44,1.39,3.44,4.66v6.14a.53.53,0,0,1-.53.53h-.46c-.29,0-.38-.17-.45-.41l-.22-.74a4.87,4.87,0,0,1-3.43,1.41,3.37,3.37,0,0,1-3.44-3.62C93.12,29.53,94.71,28,97.56,28Zm-.69,5.69a3.86,3.86,0,0,0,3-1.49V29.91a5.75,5.75,0,0,0-2.36-.43c-1.53,0-2.68.74-2.68,2.16A1.92,1.92,0,0,0,96.87,33.66Z" transform="translate(0 -0.57)"/><path class="cls-1" d="M115.61,23.67a6.84,6.84,0,0,1,3.08.7V18.73a.54.54,0,0,1,.52-.53h.68a.57.57,0,0,1,.55.53V34.47a.56.56,0,0,1-.55.53h-.44c-.24,0-.38-.19-.48-.46l-.14-.72a5.36,5.36,0,0,1-3.51,1.44c-2.8,0-5-2.66-5-5.83S112.28,23.67,115.61,23.67Zm-.07,10a4.12,4.12,0,0,0,3.15-1.78v-6a7.37,7.37,0,0,0-2.84-.62c-2.37,0-3.69,2-3.69,4.18S113.52,33.66,115.54,33.66Z" transform="translate(0 -0.57)"/><path class="cls-1" d="M129,23.67a5.8,5.8,0,1,1-5.57,5.76A5.71,5.71,0,0,1,129,23.67Zm0,10a4,4,0,0,0,3.79-4.23,3.82,3.82,0,1,0-7.61,0A4,4,0,0,0,129,33.66Z" transform="translate(0 -0.57)"/><path class="cls-1" d="M143.38,24.44a.55.55,0,0,1,.53-.53h.38a.38.38,0,0,1,.43.34l.24.84a5.6,5.6,0,0,1,3.72-1.42c3.22,0,4,2.09,4,4.95v5.85a.55.55,0,0,1-.53.53h-.72a.53.53,0,0,1-.52-.53V28.38c0-2.12-.72-3.1-2.36-3.1a4.84,4.84,0,0,0-3.4,1.54v7.65a.55.55,0,0,1-.53.53h-.72a.53.53,0,0,1-.53-.53Z" transform="translate(0 -0.57)"/><path class="cls-1" d="M159.89,28a9.54,9.54,0,0,1,2.38.36c0-2-.24-3-1.83-3a9.87,9.87,0,0,0-3.28.65c-.29.12-.44,0-.53-.29l-.24-.65c-.1-.33.07-.48.33-.6a10.26,10.26,0,0,1,3.82-.72c2.83,0,3.43,1.39,3.43,4.66v6.14a.53.53,0,0,1-.53.53H163c-.29,0-.39-.17-.46-.41l-.21-.74a4.87,4.87,0,0,1-3.44,1.41,3.37,3.37,0,0,1-3.43-3.62C155.45,29.53,157,28,159.89,28Zm-.69,5.69a3.85,3.85,0,0,0,3-1.49V29.91a5.69,5.69,0,0,0-2.35-.43c-1.53,0-2.69.74-2.69,2.16A1.93,1.93,0,0,0,159.2,33.66Z" transform="translate(0 -0.57)"/><path class="cls-1" d="M167.62,24.44a.55.55,0,0,1,.53-.53h.38a.48.48,0,0,1,.48.38l.19.8a4.43,4.43,0,0,1,3.41-1.42c.84,0,2.21.12,1.95.89l-.32.86a.42.42,0,0,1-.64.27,2.85,2.85,0,0,0-1.2-.31,3.5,3.5,0,0,0-3,1.41v7.68a.55.55,0,0,1-.53.53h-.72a.53.53,0,0,1-.53-.53Z" transform="translate(0 -0.57)"/><path class="cls-1" d="M176.43,19.76a1.31,1.31,0,1,1,1.29,1.29A1.29,1.29,0,0,1,176.43,19.76Zm.45,4.68a.55.55,0,0,1,.53-.53h.72a.56.56,0,0,1,.53.53v10a.55.55,0,0,1-.53.53h-.72a.53.53,0,0,1-.53-.53Z" transform="translate(0 -0.57)"/><path class="cls-1" d="M181.44,34.42a.72.72,0,0,1,.15-.43l5.61-8.49v-.08h-5a.49.49,0,0,1-.46-.52v-.46a.48.48,0,0,1,.46-.53h7a.43.43,0,0,1,.5.48.47.47,0,0,1-.09.29L184,33.42v.07h4.64a.48.48,0,0,1,.52.53v.45a.5.5,0,0,1-.52.53H182a.53.53,0,0,1-.53-.53Z" transform="translate(0 -0.57)"/></g></g></g></g></svg>