<?xml version="1.0" encoding="utf-8"?>
<!-- Generator: Adobe Illustrator 25.2.1, SVG Export Plug-In . SVG Version: 6.00 Build 0)  -->
<svg version="1.1" id="Layer_1" xmlns="http://www.w3.org/2000/svg" xmlns:xlink="http://www.w3.org/1999/xlink" x="0px" y="0px"
	 viewBox="0 0 120 110" style="enable-background:new 0 0 120 110;" xml:space="preserve">
<style type="text/css">
	.st0{fill:#1F50A1;}
	.st1{fill:#2BA053;}
	.st2{fill:#FFFFFF;}
	.st3{fill:#CAD3D8;}
	.st4{fill:#89A6C8;}
	.st5{fill:#E1E4E6;}
</style>
<g>
	<circle class="st0" cx="53.9" cy="55" r="49.9"/>
	<circle class="st1" cx="102.5" cy="55" r="13.5"/>
	<polygon class="st2" points="100.2,61.6 94.1,55.5 96.5,53.1 100.2,56.7 108,48.9 110.4,51.3 	"/>
	<g>
		<path class="st2" d="M75.4,59.9c-1.1-3.9-2-4.7-2.8-6.9c-5.1-13.8-3.8-18-0.9-25.4c0.2-0.5-0.2-1-0.7-1l-33.4,0
			c-0.5,0-0.9,0.5-0.7,1c1.6,4,2.5,6.4,2.6,11.1c0,4.4-2.9,13.5-4.3,16.1c-2.3,4.4-3.3,9.9-3.3,15c0,4.1,0.5,6.9,1.4,10.1
			c0.1,0.3,0.4,0.5,0.7,0.5h18c0.4,0,0.7-0.3,0.7-0.7v-8c0-0.4,0.3-0.7,0.7-0.7h1.7c0.4,0,0.7,0.3,0.7,0.7v8c0,0.4,0.3,0.7,0.7,0.7
			h18c0.3,0,0.6-0.2,0.7-0.5l0.2-0.6C77.1,73.5,77.1,66.2,75.4,59.9z M56.6,67.9h-4.3c-0.2,0-0.4-0.1-0.6-0.3
			c-3.4-4.4-8.4-7.6-14-8.6c-0.5-0.1-0.7-0.6-0.5-1c0.3-0.7,0.6-1.3,0.8-1.7c0.1-0.2,0.4-0.4,0.6-0.4c3.6,0,27.8,0,31.4,0
			c0.3,0,0.5,0.2,0.6,0.4c0.2,0.4,0.5,0.9,0.8,1.7c0.2,0.4-0.1,0.9-0.5,1C65.2,60,60,63.4,56.6,67.9L56.6,67.9z M42.1,29.8h24.4
			c0.5,0,0.8,0.5,0.7,1c-0.7,2.2-1.2,4.6-1.2,8c0,3.9,1.6,9.4,2.8,13c0.2,0.5-0.2,1-0.7,1l-27.7,0c-0.5,0-0.8-0.5-0.7-1
			c1.2-3.6,2.9-9.1,2.8-13c0-3.4-0.5-5.8-1.2-8C41.3,30.3,41.6,29.8,42.1,29.8z M35.7,76.8c-0.9-4.4-0.9-9.5,0.1-14.2
			c0.1-0.4,0.4-0.6,0.8-0.6c4.9,0.6,9.7,3.5,12.9,7.7c0.1,0.1,0.1,0.3,0.1,0.4v6.4c0,0.4-0.3,0.7-0.7,0.7H36.4
			C36.1,77.4,35.8,77.1,35.7,76.8z M72.8,77.4H59.7c-0.4,0-0.7-0.3-0.7-0.7v-6.4c0-0.2,0.1-0.3,0.1-0.4c3.2-4.2,8-7.1,12.9-7.7
			c0.4,0,0.7,0.2,0.8,0.6C73.9,67.5,73.8,72.8,72.8,77.4L72.8,77.4z"/>
		<path class="st2" d="M54.3,43.3L54.3,43.3c0.9,0,1.6,0.7,1.6,1.6v0c0,0.9-0.7,1.6-1.6,1.6h0c-0.9,0-1.6-0.7-1.6-1.6v0
			C52.7,44,53.4,43.3,54.3,43.3z"/>
	</g>
</g>
</svg>
