<?xml version="1.0" encoding="utf-8"?>
<!-- Generator: Adobe Illustrator 25.2.1, SVG Export Plug-In . SVG Version: 6.00 Build 0)  -->
<svg version="1.1" id="Layer_1" xmlns="http://www.w3.org/2000/svg" xmlns:xlink="http://www.w3.org/1999/xlink" x="0px" y="0px"
	 viewBox="0 0 120 110" style="enable-background:new 0 0 120 110;" xml:space="preserve">
<style type="text/css">
	.st0{fill:#1F50A1;}
	.st1{fill:#2BA053;}
	.st2{fill:#FFFFFF;}
	.st3{fill:#CAD3D8;}
	.st4{fill:#89A6C8;}
	.st5{fill:#E1E4E6;}
</style>
<g>
	<circle class="st2" cx="53.9" cy="55" r="49.9"/>
	<circle class="st3" cx="102.5" cy="55" r="13.5"/>
	<polygon class="st2" points="100.2,61.6 94.1,55.5 96.5,53.1 100.2,56.7 108,48.9 110.4,51.3 	"/>
	<g>
		<path class="st4" d="M29.5,84.6c-0.1,0-0.1,0-0.2,0l-1.4,0c-1.9,0-3.6-1.1-4.3-2.8c-0.3-0.7,0-1.5,0.7-1.8l6.2-3.4
			c0.1-0.1,0.3-0.2,0.4-0.4c0.3-0.3,0.8-0.8,1.5-1.4c1.1-1,2.6-2.5,3.8-3.8c0.8-0.9,1.4-1.7,1.6-2.1c0.6-1.2,1.5-2.8,2.5-4.8
			c0,0,0,0,0,0l3.4-7.1c2.7-5.7,5.5-11.8,7.4-15.9L48.6,35c-1-2.3-1-4.5,0-6.5c1-2,2.8-3.6,5.3-4.5c2.5-1,5.5-0.8,7.8,0.6l13.7,7.7
			c0.7,0.4,1,1.3,0.5,2c-0.4,0.7-1.4,0.9-2.2,0.5L60,27.1c-1.5-0.9-3.4-1-5-0.4c-1.7,0.7-3,1.7-3.6,2.9c-0.6,1.2-0.6,2.7,0.1,4.2
			l1.5,3.4c1-1.2,2.3-2.2,3.8-2.7c0,0,0,0,0,0c0.3-0.1,0.7-0.2,1-0.2c0.3-0.1,0.7-0.1,1.2-0.1c0.1,0,0.1,0,0.2,0L58,33.1
			c-0.6-0.6-0.6-1.5,0-2.1c0.3-0.3,0.7-0.4,1.1-0.4c0.4,0,0.8,0.2,1.1,0.5l3.6,3.5l13,2.2c0.4,0.1,0.8,0.3,1,0.6
			c0.2,0.3,0.3,0.7,0.3,1.1c-0.1,0.4-0.3,0.7-0.7,1c-0.3,0.2-0.8,0.3-1.2,0.2l-13.3-2.3c-0.1,0-0.2,0-0.2,0L61.3,37c0,0,0,0,0,0
			c0,0,0,0,0,0c0,0,0,0-0.1,0c-0.1,0-0.2,0-0.3,0c-0.3,0-0.6,0-1,0c-0.6,0-1.3,0.1-1.9,0.2c0,0-0.1,0-0.1,0
			c-1.4,0.5-2.5,1.6-3.1,2.8c-1.7,3.8-5.1,11.1-8.2,17.8l-3.5,7.2c-1,2.1-1.9,3.7-2.5,4.9c-0.4,0.7-1,1.5-2,2.7
			c-0.7,0.8-1.6,1.8-2.7,2.8c-1.7,1.7-3.2,3-3.4,3.2c0,0,0,0,0,0c-0.1,0.1-0.2,0.1-0.3,0.2l-4.7,2.6c0.1,0,0.3,0,0.4,0.1l1.4,0
			c0.1,0,0.1,0,0.2,0c2.3,0,4.6-0.9,6.3-2.4c0.1-0.1,0.2-0.2,0.3-0.2c1.4-0.8,2.9-1.2,4.5-1.3c0.5,0,1.7-0.1,2.6-0.4l0,0
			c0,0,0,0,0,0c0.2-0.1,0.5-0.2,0.6-0.4c0.2-0.2,0.3-0.4,0.4-0.7c0.1-0.3,0.1-0.7,0.1-1c0,0,0,0,0,0c0-0.4-0.1-1-0.2-1.6l0,0
			c-0.1-0.6-0.2-1.3-0.2-2.2c-0.1-1.1,0.4-2,1-3c0.5-0.8,1.2-1.7,2.3-2.9c0.7-0.8,1.5-1.6,2.3-2.4l0,0c1.2-1.2,2.4-2.5,3.4-3.7
			c1.3-1.5,2.1-2.7,2.6-3.7c0.3-0.6,0.5-1.3,0.7-2c0.2-0.8,0.5-1.8,0.8-3c0.5-2,0.9-4.1,1.2-5.5c0.3-1.7,2-2.8,3.8-2.6
			c0.6,0.1,1.1,0.3,1.6,0.6c2.2,1.5,6.2,3.5,9.2,4.9c2.4,1.1,3.7,1.7,6,2.6c0.8,0.3,1.7,0.7,2.9,1.2l0,0c0.4,0.2,0.7,0.5,0.8,0.8
			c0.1,0.4,0.1,0.8-0.1,1.1c-0.4,0.7-1.3,1.1-2.1,0.7c-1.1-0.5-2.1-0.9-2.9-1.2c-2.3-1-3.7-1.5-6.1-2.7c-2.1-1-4-1.9-5.5-2.7
			l1.6,4.6c2.2,0.9,5,2.2,5.9,4.3c0.4,0.8,0.4,1.8,0,2.7c-0.4,0.8-0.8,1.6-1.4,2.3c-0.4,0.5-0.8,1.1-1.1,1.7
			c-0.3,0.7-0.6,1.8-0.8,2.9c-0.3,1.3-0.6,2.6-1.1,3.8c-0.7,1.6-2,2.8-3.7,3.5c-1.4,0.5-3,0.7-4.7,0.4c-0.1,0-0.3-0.1-0.4-0.1
			c-0.4-0.2-0.7-0.4-0.8-0.8s-0.2-0.8,0-1.1l1.6-3.5l-0.2-7.9l-2-4.6c-0.1,0.2-0.2,0.4-0.2,0.6c-0.9,2-2.7,4.1-4.3,5.8
			c-0.8,0.9-1.6,1.7-2.4,2.5l0,0c-1,1-1.9,1.9-2.6,2.8c-1.2,1.4-1.8,2.2-2,2.6c-0.2,0.3-0.2,0.6-0.2,0.6c0,0.7,0.1,1.3,0.2,1.9l0,0
			c0,0.4,0.1,0.7,0.1,1c0.1,0.8,0.2,1.8-0.2,2.8c-0.2,0.7-0.6,1.3-1.1,1.9c-0.5,0.5-1.1,0.9-1.8,1.2c-1.3,0.5-2.7,0.6-3.6,0.7
			c-1,0-2,0.3-2.8,0.8C35.7,83.4,32.6,84.6,29.5,84.6z M60.2,51.4l3.7,8.6c0.1,0.2,0.1,0.3,0.1,0.5l0.3,8.4c0,0.2,0,0.4-0.1,0.6
			l-0.8,1.8c1.1-0.2,2.2-0.7,2.8-2.1c0.4-0.9,0.6-2.1,0.9-3.2l0,0c0.3-1.3,0.5-2.5,1-3.5c0.4-0.8,0.8-1.6,1.4-2.3
			c0.4-0.5,0.8-1.1,1.1-1.7c0.1-0.1,0.1-0.3,0-0.4c0,0,0,0,0,0c-0.2-0.5-1.1-1.5-4.6-2.9l-0.2-0.1c0,0,0,0,0,0
			c-0.4-0.2-0.7-0.4-0.8-0.8c0,0,0,0,0,0l-3-8.7c0,0,0,0,0,0c0,0-0.1,0-0.1-0.1c-0.1,0-0.3,0.1-0.3,0.2
			C61.1,47.1,60.7,49.3,60.2,51.4z"/>
	</g>
</g>
</svg>
